<?xml version="1.0" standalone="no"?>
<!DOCTYPE svg PUBLIC "-//W3C//DTD SVG 20010904//EN"
 "http://www.w3.org/TR/2001/REC-SVG-20010904/DTD/svg10.dtd">
<svg version="1.0" xmlns="http://www.w3.org/2000/svg"
 width="700.000000pt" height="700.000000pt" viewBox="0 0 700.000000 700.000000"
 preserveAspectRatio="xMidYMid meet">
<metadata>
Created by potrace 1.11, written by Peter Selinger 2001-2013
</metadata>
<g transform="translate(0.000000,700.000000) scale(0.100000,-0.100000)"
fill="#000000" stroke="none">
<path d="M3320 6994 c-449 -30 -769 -92 -1150 -223 -426 -146 -842 -375 -1195
-659 -195 -157 -409 -365 -540 -527 -136 -169 -180 -405 -112 -605 31 -90 89
-198 131 -242 36 -36 99 -67 137 -68 15 0 31 -6 37 -12 5 -7 119 -200 253
-428 l244 -415 5 -760 5 -760 33 -67 c57 -117 171 -194 303 -205 l69 -6 0
-237 c0 -209 2 -246 20 -301 21 -68 66 -132 125 -179 127 -101 342 -98 464 6
l42 37 107 -105 c59 -57 145 -134 192 -170 84 -65 276 -190 348 -227 33 -17
61 -61 249 -383 117 -200 225 -375 240 -390 48 -44 93 -62 163 -62 75 0 129
23 176 76 16 18 189 306 384 639 l355 607 12 -58 c6 -32 21 -79 32 -104 27
-62 109 -141 179 -174 50 -24 69 -27 157 -27 88 0 107 3 158 27 78 37 158 120
188 195 22 54 24 74 27 309 l3 251 74 11 c41 5 96 20 122 33 72 35 146 110
179 182 l29 62 3 346 3 346 87 89 c282 289 362 476 303 707 -23 87 -46 135
-94 199 l-35 45 272 464 271 464 42 7 c83 14 134 57 197 167 138 239 124 518
-37 731 -61 81 -276 299 -402 407 -179 155 -458 358 -575 418 -60 31 -124 9
-149 -53 -10 -24 -10 -36 2 -64 12 -28 47 -56 188 -151 245 -163 366 -262 590
-486 164 -164 201 -207 228 -262 69 -141 66 -269 -11 -419 -61 -118 -72 -119
-168 -3 -107 129 -408 426 -535 529 -213 172 -463 337 -661 436 -75 37 -85 39
-117 29 -20 -7 -51 -32 -76 -61 -58 -69 -146 -111 -234 -112 -99 0 -161 25
-229 92 -66 66 -88 124 -88 230 0 106 -14 115 -250 159 -196 37 -611 63 -744
47 -109 -14 -152 -96 -87 -168 l28 -32 224 -2 c213 -2 397 -17 559 -47 l64
-12 13 -65 c42 -210 214 -370 431 -402 136 -20 281 20 397 109 l49 37 65 -35
c101 -53 375 -238 491 -332 180 -145 393 -353 543 -531 37 -43 65 -81 63 -85
-2 -3 -117 -199 -256 -436 -138 -236 -254 -433 -258 -437 -4 -3 -40 5 -81 18
-88 30 -222 34 -315 9 -72 -19 -161 -65 -215 -112 l-40 -34 -53 41 c-106 84
-211 121 -348 121 -101 0 -160 -12 -243 -50 -85 -39 -165 -107 -220 -188 -63
-92 -88 -167 -94 -283 -9 -166 29 -264 172 -443 154 -191 354 -364 600 -517
115 -72 123 -75 180 -75 64 0 104 19 276 132 36 24 69 43 73 43 3 0 6 -104 6
-232 0 -214 -2 -235 -21 -275 -11 -23 -35 -53 -51 -65 -42 -29 -124 -36 -178
-14 -61 24 -97 21 -131 -13 l-29 -29 0 -309 c0 -171 -4 -324 -10 -343 -18 -66
-93 -120 -165 -120 -72 0 -147 54 -165 120 -5 19 -10 117 -10 216 l0 182 96
163 c109 187 119 219 80 266 -33 39 -73 49 -117 30 -31 -13 -89 -109 -593
-970 -307 -526 -566 -959 -574 -962 -9 -3 -24 2 -33 12 -10 10 -102 162 -204
338 -103 176 -189 323 -191 327 -2 3 42 37 98 73 207 136 381 291 525 470 157
194 203 353 158 544 -46 196 -213 358 -416 406 -157 37 -343 -3 -464 -99 -63
-51 -62 -51 -119 -7 -323 250 -790 91 -891 -304 -32 -126 -16 -249 49 -378 43
-86 44 -89 26 -107 -57 -57 -165 -67 -229 -20 -67 47 -71 68 -71 417 l0 311
-25 30 c-35 42 -66 47 -139 21 -91 -33 -164 -11 -220 64 -21 28 -21 38 -24
585 -2 364 1 553 7 547 6 -6 130 -215 276 -465 146 -250 277 -466 290 -479 36
-37 100 -33 137 8 19 21 28 42 28 64 0 26 -139 270 -611 1078 -336 574 -619
1058 -630 1075 l-19 31 87 104 c109 131 359 381 483 484 l94 78 16 -24 c84
-130 295 -350 453 -473 115 -89 329 -223 379 -237 72 -19 102 -7 306 128 212
140 384 293 525 469 126 158 167 258 167 411 0 163 -57 293 -178 405 -201 185
-515 196 -726 23 l-52 -42 -39 34 c-61 53 -183 109 -266 123 -337 57 -641
-187 -654 -525 l-4 -90 -78 -63 c-218 -177 -435 -391 -607 -600 -88 -106 -102
-107 -157 -7 -98 179 -88 351 29 507 61 81 323 345 437 439 419 349 862 589
1370 744 808 246 1717 211 2503 -96 263 -103 232 -95 273 -75 62 29 78 102 34
154 -18 22 -64 45 -179 90 -351 139 -720 229 -1086 267 -144 15 -515 26 -620
19z m-1208 -996 c31 -15 76 -44 100 -66 58 -53 98 -72 153 -72 56 0 95 19 155
74 70 65 130 89 230 94 110 5 177 -19 255 -89 79 -73 109 -140 110 -249 0
-108 -24 -163 -129 -293 -135 -167 -278 -294 -485 -429 l-135 -87 -35 21
c-223 132 -424 299 -568 471 -94 113 -118 151 -139 223 -33 113 -4 231 76 318
81 87 154 117 275 113 60 -2 94 -10 137 -29z m2650 -2291 c29 -13 79 -46 111
-74 106 -93 192 -92 301 6 57 52 84 67 151 87 162 46 335 -29 413 -181 34 -67
42 -189 17 -264 -34 -105 -265 -364 -440 -496 -44 -33 -128 -91 -188 -129
l-108 -69 -62 38 c-210 128 -399 287 -537 452 -102 122 -131 171 -147 247 -36
173 64 341 236 398 75 25 181 19 253 -15z m-1315 -1549 c108 -40 203 -163 218
-285 9 -68 -16 -163 -60 -230 -123 -185 -349 -394 -604 -555 l-90 -57 -99 63
c-156 99 -257 180 -383 305 -135 135 -230 259 -254 332 -24 71 -17 186 16 254
30 64 100 134 164 164 37 18 73 25 135 29 104 5 174 -18 251 -81 98 -81 165
-103 234 -77 15 6 52 32 83 59 124 106 247 131 389 79z"/>
<path d="M3566 5124 c-179 -43 -324 -187 -371 -369 -54 -212 57 -452 256 -553
93 -47 212 -69 303 -55 193 29 352 151 416 321 27 71 37 197 21 274 -57 272
-347 449 -625 382z m255 -216 c70 -29 144 -113 165 -185 31 -108 -3 -223 -89
-299 -58 -51 -124 -74 -213 -74 -167 0 -298 127 -298 290 0 218 227 358 435
268z"/>
<path d="M4808 5121 c-105 -34 -172 -92 -225 -193 -25 -48 -28 -63 -28 -153 0
-89 3 -106 28 -156 34 -70 109 -142 185 -177 50 -24 69 -27 157 -27 89 0 106
3 157 28 230 113 283 396 108 581 -95 101 -251 141 -382 97z m213 -216 c69
-45 91 -149 46 -216 -27 -41 -98 -79 -148 -79 -56 0 -119 39 -146 90 -26 49
-29 87 -9 133 41 97 166 132 257 72z"/>
<path d="M2209 4326 c-111 -43 -181 -106 -227 -204 -23 -49 -27 -70 -27 -147
0 -79 4 -97 29 -149 116 -236 426 -286 608 -99 26 26 59 75 75 108 23 50 27
73 27 140 -1 148 -71 263 -201 327 -57 28 -78 33 -157 35 -59 2 -103 -2 -127
-11z m178 -197 c95 -36 135 -155 80 -238 -58 -87 -201 -100 -269 -24 -56 62
-58 150 -5 210 51 58 126 78 194 52z"/>
<path d="M3055 3537 c-132 -35 -228 -124 -266 -251 -65 -210 74 -430 295 -464
167 -26 333 62 404 216 22 48 27 71 26 142 0 72 -4 94 -28 148 -73 159 -265
252 -431 209z m171 -213 c92 -44 116 -172 46 -248 -98 -105 -271 -55 -297 85
-12 65 38 147 105 172 31 11 113 6 146 -9z"/>
</g>
</svg>
