<svg xmlns="http://www.w3.org/2000/svg" width="656.653" height="800.184" viewBox="0 0 656.653 800.184">
  <g id="Gruppe_98" data-name="Gruppe 98" transform="translate(-21.084 5.21)" opacity="0.325">
    <g id="Gruppe_97" data-name="Gruppe 97" transform="translate(21.36 -5.064)">
      <path id="Pfad_1796" data-name="Pfad 1796" d="M206.269,468.026a92.667,92.667,0,0,0,7.441-16.532s2.3,10.688,2.949,16.532l-11.039-9.091a108.9,108.9,0,0,1,14.532-.649,70.452,70.452,0,0,1-13.883,9.74" transform="translate(-35.39 310.677)" fill="none" stroke="#29b6c0" stroke-miterlimit="10" stroke-width="0.25" fill-rule="evenodd"/>
      <path id="Pfad_1797" data-name="Pfad 1797" d="M574.451,235.559c4.545-7.793,7.09-11.585,9.688-19.377.65,7.792,3.65,12.584,3.65,20.377-3.9-5.2-8.74-8.793-13.287-13.338,6.494,0,12.935-.65,18.131,1.3-5.2,3.9-12.295,6.566-18.182,11.039" transform="translate(-72.765 136.935)" fill="none" stroke="#29b6c0" stroke-miterlimit="10" stroke-width="0.25" fill-rule="evenodd"/>
      <path id="Pfad_1798" data-name="Pfad 1798" d="M721.8,83.611c2.6-5.195,7.17-16.883,7.845-16.883,0,0,1.948,11.688,1.948,17.533L721.2,73.222H735.49S725.7,80.365,721.8,83.611" transform="translate(-88.111 -6.936)" fill="none" stroke="#29b6c0" stroke-miterlimit="10" stroke-width="0.25" fill-rule="evenodd"/>
      <path id="Pfad_1799" data-name="Pfad 1799" d="M342.809,29.5c1.3-5.195,6.317-17.968,6.317-17.968l4.247,17.533c-3.9-3.247-9.442-5.844-12.688-9.091a125.182,125.182,0,0,1,15.584-.649c-3.632,3.9-9.563,7.577-13.46,10.175" transform="translate(-49.019 -6.936)" fill="none" stroke="#29b6c0" stroke-miterlimit="10" stroke-width="0.25" fill-rule="evenodd"/>
      <path id="Pfad_1800" data-name="Pfad 1800" d="M18.607,106.338c.168-.757,5.844-15.584,5.844-15.584s2.3,10.74,3.6,15.286L16.36,97.9c3.9-1.3,9.091-.649,13.637-.649l-11.39,9.09" transform="translate(-16.36 21.296)" fill="none" stroke="#29b6c0" stroke-miterlimit="10" stroke-width="0.25" fill-rule="evenodd"/>
      <path id="Pfad_1801" data-name="Pfad 1801" d="M453.672,425.157c2.6-6.494,5.2-12.988,7.142-18.831a154.111,154.111,0,0,1,3.649,19.532c-3.246-3.246-9.492-9.143-12.74-11.74,5.2,0,11.972.6,17.234.649-3.9,3.9-9.441,8.441-15.285,10.39" transform="translate(-60.303 310.677)" fill="none" stroke="#29b6c0" stroke-miterlimit="10" stroke-width="0.25" fill-rule="evenodd"/>
      <g id="Gruppe_28" data-name="Gruppe 28" transform="translate(104.889 510.547)">
        <path id="Pfad_1802" data-name="Pfad 1802" d="M153.022,316.079c1.3-3.9,1.948-8.442,3.247-11.689l2.649,11.039,10.935-7.792s-2.545,8.442-5.792,11.688c4.546.65,9.091.65,13.637,1.949a68.68,68.68,0,0,1-12.338,2.947c1.948,3.9,6.845,11.338,6.845,11.338-3.247-1.948-6.845-3.9-9.443-6.494a96.952,96.952,0,0,0-1.3,13.637l-4.546-12.338c-3.9,3.9-5.843,9.74-9.74,12.987-.1-1.1,1.65-9.091,2.3-14.286a90.873,90.873,0,0,1-12.039,4.546l8.74-8.442c-1.386-.61-8.091-3.9-12.636-6.493a74.6,74.6,0,0,1,12.337.649c-.649-3.246-1.948-7.143-2.6-10.389,1.948,2.6,7.142,5.194,9.74,7.143" transform="translate(-133.542 -304.39)" fill="none" stroke="#fbc9e4" stroke-miterlimit="10" stroke-width="0.25" fill-rule="evenodd"/>
        <path id="Pfad_1803" data-name="Pfad 1803" d="M154.877,321.641c.372-1.113.557-2.414.928-3.342l.758,3.157,3.127-2.229a10.475,10.475,0,0,1-1.656,3.344,28.148,28.148,0,0,1,3.9.556,19.607,19.607,0,0,1-3.529.844c.557,1.113,1.957,3.242,1.957,3.242a13.879,13.879,0,0,1-2.7-1.857,27.679,27.679,0,0,0-.371,3.9l-1.3-3.528c-1.114,1.114-1.672,2.785-2.785,3.714-.028-.317.471-2.6.656-4.086a26.017,26.017,0,0,1-3.443,1.3l2.5-2.415c-.4-.175-2.313-1.115-3.614-1.858a21.183,21.183,0,0,1,3.529.187c-.186-.93-.557-2.043-.744-2.972a15.352,15.352,0,0,0,2.787,2.042" transform="translate(-133.542 -304.39)" fill="#fbc9e4" fill-rule="evenodd"/>
      </g>
      <g id="Gruppe_29" data-name="Gruppe 29" transform="translate(566.211 499.758)">
        <path id="Pfad_1804" data-name="Pfad 1804" d="M677.049,312.465c.648-5.843,0-11.687,1.3-16.883l5.545,15.585c3.248-5.2,9.39-14.935,9.39-14.935s-2.248,10.39-2.248,15.585c5.2-2.6,10.039-5.195,15.885-6.494-3.9,4.545-8.443,8.441-12.338,12.987l17.531,2.3-15.935,4.547c1.3,4.545,5.547,13.934,5.547,13.934a118.181,118.181,0,0,1-10.391-8.442c-1.947,3.9-1.947,9.092-3.9,12.988-.648-4.546-1.3-10.39-1.947-14.935-4.545,4.545-9.09,10.389-13.636,14.935,0-5.2,3.546-15.884,3.546-15.884L658.217,331.3c1.949-3.247,9.845-6.2,12.443-8.793-3.9-.648-12.443-1.6-16.338-3.545,5.844-1.3,16.182-2.649,16.182-2.649-1.949-5.194-2.547-9.039-5.143-13.585,1.01.578,11.688,9.74,11.688,9.74" transform="translate(-654.322 -295.582)" fill="none" stroke="#fbc9e4" stroke-miterlimit="10" stroke-width="0.25" fill-rule="evenodd"/>
        <path id="Pfad_1805" data-name="Pfad 1805" d="M681.453,317.565a39.359,39.359,0,0,1,.371-4.828l1.586,4.457c.93-1.486,2.686-4.272,2.686-4.272a30.013,30.013,0,0,0-.643,4.457A19.524,19.524,0,0,1,690,315.522c-1.115,1.3-2.414,2.415-3.529,3.715l5.015.658-4.558,1.3a42.546,42.546,0,0,0,1.586,3.986,33.718,33.718,0,0,1-2.971-2.415c-.557,1.114-.557,2.6-1.115,3.715-.186-1.3-.371-2.972-.557-4.272-1.3,1.3-2.6,2.972-3.9,4.272a21.18,21.18,0,0,1,1.013-4.542l-4.914,1.014c.559-.93,2.817-1.772,3.559-2.516a21.021,21.021,0,0,1-4.672-1.014c1.672-.371,4.627-.757,4.627-.757a24.06,24.06,0,0,0-1.471-3.885c.289.165,3.344,2.785,3.344,2.785" transform="translate(-654.322 -295.582)" fill="#fbc9e4" fill-rule="evenodd"/>
      </g>
      <g id="Gruppe_30" data-name="Gruppe 30" transform="translate(387.873 140.197)">
        <path id="Pfad_1806" data-name="Pfad 1806" d="M466.256,102.792c1.949-5.843,1.6-9.688,3.545-14.882.65,5.194,3.3,11.039,3.949,15.584,4.545-3.9,6.441-9.74,10.986-14.286a57.9,57.9,0,0,1-2.246,15.286c5.2-1.3,10.039-4.247,15.883-4.9-2.6,3.247-7.143,6.844-10.391,9.442,5.846,1.947,14.832,2.9,14.832,2.9a108.81,108.81,0,0,1-14.832,2.948c2.6,3.9,7.793,12.636,7.793,12.636-4.545-1.3-7.793-4.545-11.687-7.143,0,0-.664,14.371-.651,15.584,0,0-7.142-9.74-7.791-15.584-1.949,5.195-3.9,10.39-7.144,14.286-.648-5.844,0-12.338.65-17.533-5.2,3.247-15.584,9.091-15.584,9.091.539-1.41,6.493-8.441,9.741-12.987-3.9-.649-9.092-1.3-12.989-3.247,3.9-1.3,8.442-1.3,12.338-1.3-1.3-4.545-7.791-12.338-7.791-12.338s8.143,4.493,11.389,6.441" transform="translate(-450.32 -87.91)" fill="none" stroke="#fbc9e4" stroke-miterlimit="10" stroke-width="0.25" fill-rule="evenodd"/>
        <path id="Pfad_1807" data-name="Pfad 1807" d="M473.619,109.321c.557-1.672.457-2.771,1.014-4.257.185,1.486.943,3.158,1.129,4.457,1.3-1.114,1.842-2.785,3.142-4.085a16.588,16.588,0,0,1-.642,4.372c1.486-.372,2.871-1.215,4.543-1.4a20.454,20.454,0,0,1-2.973,2.7,24.965,24.965,0,0,0,4.242.829,31.168,31.168,0,0,1-4.242.843c.744,1.114,2.229,3.614,2.229,3.614a12.443,12.443,0,0,1-3.342-2.043s-.19,4.11-.188,4.457c0,0-2.041-2.786-2.226-4.457a14.134,14.134,0,0,1-2.043,4.086,22.29,22.29,0,0,1,.185-5.015c-1.486.929-4.457,2.6-4.457,2.6.155-.4,1.858-2.414,2.785-3.714a13.6,13.6,0,0,1-3.714-.929,11.444,11.444,0,0,1,3.529-.371,14.5,14.5,0,0,0-2.229-3.528s2.328,1.285,3.258,1.842" transform="translate(-450.32 -87.91)" fill="#fbc9e4" fill-rule="evenodd"/>
      </g>
      <g id="Gruppe_32" data-name="Gruppe 32" transform="translate(192.531 229.476)">
        <path id="Pfad_1808" data-name="Pfad 1808" d="M250.647,140.5c-25.574,0-25.674,39.59-.983,40,29.508.484,27.869-38.6.983-40" transform="translate(-231.304 -140.502)" fill="#29b6c0" fill-rule="evenodd"/>
        <g id="Gruppe_31" data-name="Gruppe 31" transform="translate(0.002)">
          <path id="Pfad_1809" data-name="Pfad 1809" d="M237.444,165.617c4.187-1.882,5.559,2.649,7.715,5.129,1.537,1.769,3.823,3.623,6.293,3.686a4.6,4.6,0,0,0,4.229-2.1c1.193-1.943,1.352-5.422-2.147-5.1-2.014.184-5.724-.625-3.928-3.374.955-1.462,2.388-2.666,3.129-4.258a4.535,4.535,0,0,0-4.6-6.263c-2.954.293-3.125,2.774-5.346,4.1-.917.548-2.335,1.15-3.378.521-3.957-2.384,1.374-6.694,1.389-9.562a3.3,3.3,0,0,0-2.718-3.542c-7.305,6.268-8.691,17.994-4.231,26.284C234.315,168.74,235.309,166.576,237.444,165.617Z" transform="translate(-231.306 -140.502)" fill="#2fe4df" fill-rule="evenodd"/>
          <path id="Pfad_1810" data-name="Pfad 1810" d="M237.991,176.315a17.142,17.142,0,0,0,7.7,3.741,6.937,6.937,0,0,0-2.239-5.036A3.318,3.318,0,0,0,237.991,176.315Z" transform="translate(-231.306 -140.502)" fill="#2fe4df" fill-rule="evenodd"/>
          <path id="Pfad_1811" data-name="Pfad 1811" d="M262.755,153.888a4.507,4.507,0,0,0-3.7,3.58c-.414,2.4.756,3.663,2.91,4.366,1.526.5,3.451,1.17,4.429,2.532,1.943,2.707-1.974,4.754-3.53,6.422-2.373,2.542-1.448,4.464.279,6.213,8.129-5.352,10.048-15.833,6.313-24.209C267.551,153.713,265.132,153.334,262.755,153.888Z" transform="translate(-231.306 -140.502)" fill="#2fe4df" fill-rule="evenodd"/>
          <path id="Pfad_1812" data-name="Pfad 1812" d="M248.458,143.841c-.747,2.83,1.22,5.648,4.094,3.832,1.531-.967,3.031-2.239,4.808-1.149a2.28,2.28,0,0,1,.7,1.058q.205.483.395.973,2.445,1.431,3.583-.807a7.427,7.427,0,0,0,.332-3.489,22.633,22.633,0,0,0-11.725-3.757c-.3,0-.593.021-.89.032A24.867,24.867,0,0,0,248.458,143.841Z" transform="translate(-231.306 -140.502)" fill="#2fe4df" fill-rule="evenodd"/>
        </g>
      </g>
      <g id="Gruppe_34" data-name="Gruppe 34" transform="translate(531.596 319.671)">
        <path id="Pfad_1813" data-name="Pfad 1813" d="M659.5,191.825c-34.359-14.264-59.492,38.035-18.77,55.014,14,6.113,29.586,1.359,36.584-15.621,5.727-13.584,1.69-31.922-17.814-39.393" transform="translate(-619.708 -189.389)" fill="#eeb820" fill-rule="evenodd"/>
        <g id="Gruppe_33" data-name="Gruppe 33" transform="translate(0.006 0.026)">
          <path id="Pfad_1814" data-name="Pfad 1814" d="M630.053,209.017c3.752,1.673,6.488,4.85,10.125,6.7,2.728,1.387,5.386.965,8.324.374,2.959-.6,6.273-1.339,8.807-3.066,1.228-.837,2.9-2.813.64-3.883-1.881-.89-4.166-.41-6.015.343-1.967.8-4.075,2.1-6.241,2.277a12.5,12.5,0,0,1-5.558-.948c-5-1.911-11.283-5.494-13.778-10.695a31.041,31.041,0,0,0-4.453,7.666C624.705,207.8,627.5,207.876,630.053,209.017Z" transform="translate(-619.714 -189.414)" fill="#f8ec5a" fill-rule="evenodd"/>
          <path id="Pfad_1815" data-name="Pfad 1815" d="M648.021,189.415a26.279,26.279,0,0,0-9.593,1.724C641.787,193.013,646.57,192.861,648.021,189.415Z" transform="translate(-619.714 -189.414)" fill="#f8ec5a" fill-rule="evenodd"/>
          <path id="Pfad_1816" data-name="Pfad 1816" d="M676.908,225.822c-2.3-1.484-1.176-3.834.807-4.921a14.053,14.053,0,0,1,1.976-.782,28.854,28.854,0,0,0-1.6-10.252c-2.4-1.107-5.235-1.511-7.108-3.355a4.6,4.6,0,0,1-1.6-3.378c.138-1.646,1.125-2.76,1.554-4.277a31.778,31.778,0,0,0-5.906-4.389,10.939,10.939,0,0,1-3.662,1.716c-1.439.22-4.855.654-5.922-.664-.959-1.184.969-2.919,1.91-4.492a31.848,31.848,0,0,0-3.851-1.051c-.526,2.8-1.9,5.195-5.258,5.94-2.607.579-5.221.165-7.84.506-3.709.483-6.572,3.347-4.129,7.01,3.17,4.755,12.969,5.705,16.231.621,1.724-2.687,3.912-6.495,7.758-5.7,3.742.778,4.728,4.03,4.357,7.433-.219,2.005-.648,5.451,2.367,5.389,1.668-.034,3.377-.388,5.039-.28,3.24.21,3.9,2.687,3.112,5.579-.766,2.819-2.655,4.931-5.78,4.683a19.477,19.477,0,0,1-5.834-1.589c-2.441-1.005-5.943-3.159-8.476-1.474-2.4,1.6-2.533,4.713-5.764,5.4a8.4,8.4,0,0,1-5.906-1c-2.481-1.368-4.559-3.314-7-4.729a14.553,14.553,0,0,0-11.1-1.731,41.394,41.394,0,0,0-5.543,1.652,27.613,27.613,0,0,0,.967,8.58c.16-.009.32-.02.48-.037,2.7-.3,5.358-1.465,8.114-1.08a15.548,15.548,0,0,1,7.162,3.486c2.252,1.707,4.519,3.849,7.242,4.778a11.906,11.906,0,0,0,9.914-1.088c2.82-1.732,4.434-4.846,7.264-6.424,1.867-1.041,4.42-.3,6.14.656,1.791.995,3.5,2.3,5.581,2.622a25.126,25.126,0,0,0,5.462.05q.423-1.237.737-2.512A8.549,8.549,0,0,1,676.908,225.822Z" transform="translate(-619.714 -189.414)" fill="#f8ec5a" fill-rule="evenodd"/>
          <path id="Pfad_1817" data-name="Pfad 1817" d="M635.9,241c1.325-.2,2.674-.215,3.989-.485a7.714,7.714,0,0,0,2.121-.615c1.779-.977-.635-2.317-1.557-2.5-1.65-.334-3.555-.369-4.99-1.371-1.379-.962-2.51-2.243-4.049-2.971a14.761,14.761,0,0,0-8.576-1.448,30.489,30.489,0,0,0,9.346,10.509A11.5,11.5,0,0,1,635.9,241Z" transform="translate(-619.714 -189.414)" fill="#f8ec5a" fill-rule="evenodd"/>
          <path id="Pfad_1818" data-name="Pfad 1818" d="M664.941,235.209c-2.439.857-3.011,3.4-5.023,4.766a5.2,5.2,0,0,1-3.066.952c-3.5.15-7.161-.231-10.6.55-1.563.355-3.4,1.1-2.088,2.941,1.775,2.5,5.314,2.317,8.018,1.868,3.734-.621,9.119-3.237,12.8-1.556a2.48,2.48,0,0,1,.965.759,27.307,27.307,0,0,0,7.463-7.16C670.875,236.292,668.492,233.961,664.941,235.209Z" transform="translate(-619.714 -189.414)" fill="#f8ec5a" fill-rule="evenodd"/>
        </g>
      </g>
      <g id="Gruppe_37" data-name="Gruppe 37" transform="translate(316.045 592.023)">
        <path id="Pfad_1819" data-name="Pfad 1819" d="M399.6,341.9c-51.977,6.686-26.394,89.6,24.534,64.86,16.068-7.8,21.349-30.089,13.066-46.806C430.191,346.578,415,339.222,399.6,341.9" transform="translate(-371.079 -341.352)" fill="#ff4598" fill-rule="evenodd"/>
        <g id="Gruppe_35" data-name="Gruppe 35" transform="translate(0.029 0.004)">
          <path id="Pfad_1820" data-name="Pfad 1820" d="M410.254,341.62a36.594,36.594,0,0,0-10.651.277,40.22,40.22,0,0,0-9.926,2.531C396.288,347.319,404.275,345.721,410.254,341.62Z" transform="translate(-371.108 -341.357)" fill="#ff6aad" fill-rule="evenodd"/>
          <path id="Pfad_1821" data-name="Pfad 1821" d="M387.933,374.323a101.617,101.617,0,0,0,19.926-3.881c6.034-1.74,12.045-3.851,17.371-7.242,3.163-2.012,7.12-3.919,9.8-6.772a34.424,34.424,0,0,0-4.984-5.73c-6.35,6.5-14.938,10.605-23.781,12.566-11.111,2.465-22.943,3.5-34.232,1.645a35.517,35.517,0,0,0-.918,8.71C376.712,374.126,382.292,374.781,387.933,374.323Z" transform="translate(-371.108 -341.357)" fill="#ff6aad" fill-rule="evenodd"/>
          <path id="Pfad_1822" data-name="Pfad 1822" d="M382.94,401.764c19.967-.447,40.63-3.392,56.914-15.419a38.672,38.672,0,0,0,1.175-8.261c-6.97,6.958-16.484,11.214-25.81,13.963A141.522,141.522,0,0,1,379.2,397.42,37.677,37.677,0,0,0,382.94,401.764Z" transform="translate(-371.108 -341.357)" fill="#ff6aad" fill-rule="evenodd"/>
        </g>
        <g id="Gruppe_36" data-name="Gruppe 36" transform="translate(0.845 1.2)">
          <path id="Pfad_1823" data-name="Pfad 1823" d="M403.216,357.072c7.011-1.97,14.489-5.827,18.958-11.832a35.909,35.909,0,0,0-7.084-2.688c-7.235,9.395-22.288,12.1-32.271,5.682a27.672,27.672,0,0,0-7.346,8.086C384.392,358.754,394.29,359.578,403.216,357.072Z" transform="translate(-371.924 -342.552)" fill="#ff0081" fill-rule="evenodd"/>
          <path id="Pfad_1824" data-name="Pfad 1824" d="M440.518,370.284a37.752,37.752,0,0,0-1.768-6.707c-7.152,6.95-17.318,10.709-26.8,13.025-12.962,3.164-26.643,5.346-40.027,4.431a42.337,42.337,0,0,0,3.034,9.235C398.067,389.639,422.207,384.977,440.518,370.284Z" transform="translate(-371.924 -342.552)" fill="#ff0081" fill-rule="evenodd"/>
          <path id="Pfad_1825" data-name="Pfad 1825" d="M414.475,406.036a106.082,106.082,0,0,1-18.734,3.706c8,2.658,17.626,2.247,28.4-2.985A28.216,28.216,0,0,0,435.9,395.831C429.078,399.866,422.109,403.781,414.475,406.036Z" transform="translate(-371.924 -342.552)" fill="#ff0081" fill-rule="evenodd"/>
        </g>
      </g>
      <g id="Gruppe_38" data-name="Gruppe 38" transform="translate(408.267 29.063)">
        <path id="Pfad_1826" data-name="Pfad 1826" d="M483,36c-16.354,0-15.7,27,1.635,27,17.988,0,18.642-27-1.635-27" transform="translate(-471.172 -35.999)" fill="#ff0081" fill-rule="evenodd"/>
        <path id="Pfad_1827" data-name="Pfad 1827" d="M493.082,56.723a14.13,14.13,0,0,1-14-14,13.732,13.732,0,0,1,1.656-6.518C466.766,38.592,468.15,63,484.637,63c5.865,0,9.875-2.877,11.929-6.747A13.6,13.6,0,0,1,493.082,56.723Z" transform="translate(-471.172 -35.999)" fill="#bf0061" fill-rule="evenodd" opacity="0.7"/>
      </g>
      <g id="Gruppe_39" data-name="Gruppe 39" transform="translate(52.243 445.316)">
        <path id="Pfad_1828" data-name="Pfad 1828" d="M78.752,269.856C62.885,272.44,66.19,299.241,84.7,294.075c13.882-4.522,11.239-26.156-5.952-24.219" transform="translate(-68.603 -269.734)" fill="#ff4598" fill-rule="evenodd"/>
        <path id="Pfad_1829" data-name="Pfad 1829" d="M88.11,286.584a14.131,14.131,0,0,1-14-14c0-.345.027-.683.053-1.022-10.337,6.477-5.906,27.1,10.541,22.513a12.493,12.493,0,0,0,8.355-8.435A13.655,13.655,0,0,1,88.11,286.584Z" transform="translate(-68.603 -269.734)" fill="#bf3472" fill-rule="evenodd" opacity="0.7"/>
      </g>
      <g id="Gruppe_40" data-name="Gruppe 40" transform="translate(483.295 217.889)">
        <path id="Pfad_1830" data-name="Pfad 1830" d="M573.637,136.333c-16,5.668-3.334,24.666,8,18,10.666-6,3.332-20-8-18" transform="translate(-556.093 -136.139)" fill="#ff4598" fill-rule="evenodd"/>
        <path id="Pfad_1831" data-name="Pfad 1831" d="M565.637,145.667c-1.535.153-10.448,1.294-9.469,5.593,1.3,5.741,25.926-2.642,31.635-3.593,15-2.5,12.836-10.666-2.166-6.334" transform="translate(-556.093 -136.139)" fill="none" stroke="#fbf49c" stroke-miterlimit="10" stroke-width="3" fill-rule="evenodd"/>
      </g>
      <g id="Gruppe_41" data-name="Gruppe 41" transform="translate(253.491 427.276)">
        <path id="Pfad_1832" data-name="Pfad 1832" d="M338.969,256.667C313.474,255.793,315.636,296,341.636,292c10.667-1.332,17.333-8.332,16-19-1.333-11.332-7.124-16.518-18.667-16.332" transform="translate(-301.245 -256.653)" fill="#eeb820" fill-rule="evenodd"/>
        <path id="Pfad_1833" data-name="Pfad 1833" d="M349.971,285a18.167,18.167,0,0,1-18-18,17.775,17.775,0,0,1,3.2-10.136c-21.4,3.046-18.171,38.926,6.46,35.135,6.308-.787,11.2-3.571,13.881-7.909A17.52,17.52,0,0,1,349.971,285Z" transform="translate(-301.245 -256.653)" fill="#b38a18" fill-rule="evenodd" opacity="0.7"/>
        <path id="Pfad_1834" data-name="Pfad 1834" d="M321.748,267.819c-3.052-1.367-19.04-2.852-20.44,1.911-2.581,8.775,74.775,18.96,76.892,7.921,1.153-6.006-22.241-5.563-20.342-5.677" transform="translate(-301.245 -256.653)" fill="none" stroke="#fbf49c" stroke-miterlimit="10" stroke-width="5.644" fill-rule="evenodd"/>
      </g>
      <g id="Gruppe_42" data-name="Gruppe 42" transform="translate(43.604 27.932)">
        <path id="Pfad_1835" data-name="Pfad 1835" d="M75.3,35.333c-11.362,3.834-2,17.333,6,12.666,8.666-4.666,2.513-15.5-6-12.666" transform="translate(-59.964 -34.868)" fill="#29b6c0" fill-rule="evenodd"/>
        <path id="Pfad_1836" data-name="Pfad 1836" d="M70.3,40.383c-5.693-.19-10.34-.4-10.334,1.409-.5,2.215,34.347,3.8,33.8-.633-1.17-1.586-4.332-1.178-8.469-.977" transform="translate(-59.964 -34.868)" fill="none" stroke="#eeb820" stroke-miterlimit="10" stroke-width="2" fill-rule="evenodd"/>
      </g>
      <g id="Gruppe_43" data-name="Gruppe 43" transform="translate(403.078 740.027)">
        <path id="Pfad_1837" data-name="Pfad 1837" d="M524.451,438.8c-5.646-.982-17.541-1.57-23.471,2.531-4.343,3,4.707,7.331,11.782,8.508,5.875.979,24.056,2.687,27.924-.842,6.394-5.835-7.377-9.184-16.235-10.2" transform="translate(-471.368 -429.349)" fill="none" stroke="#2fe4df" stroke-miterlimit="10" stroke-width="0.25" fill-rule="evenodd"/>
        <path id="Pfad_1838" data-name="Pfad 1838" d="M526.232,435.729c-8.638-1.5-26.836-2.4-35.908,3.871-6.644,4.6,7.2,11.217,18.026,13.02,8.988,1.5,36.8,4.109,42.722-1.289,9.783-8.93-11.285-14.053-24.84-15.6" transform="translate(-471.368 -429.349)" fill="none" stroke="#2fe4df" stroke-miterlimit="10" stroke-width="0.382" fill-rule="evenodd"/>
        <path id="Pfad_1839" data-name="Pfad 1839" d="M528.961,431.024c-13.219-2.3-41.061-3.676-54.94,5.922-10.167,7.029,11.018,17.16,27.579,19.918,13.752,2.291,56.31,6.289,65.363-1.973,14.971-13.66-17.266-21.5-38-23.867" transform="translate(-471.368 -429.349)" fill="none" stroke="#2fe4df" stroke-miterlimit="10" stroke-width="0.585" fill-rule="evenodd"/>
      </g>
      <g id="Gruppe_44" data-name="Gruppe 44" transform="translate(477.149 71.083)">
        <path id="Pfad_1840" data-name="Pfad 1840" d="M576.646,97.121c-22.121-10.7-40.941-3.55-17.953,4.837,4.918,1.795,27.737,10.862,32.409,7.413,6.339-4.681-9.78-9.892-14.456-12.25" transform="translate(-515.409 -78.019)" fill="none" stroke="#2fe4df" stroke-miterlimit="10" stroke-width="0.25" fill-rule="evenodd"/>
        <path id="Pfad_1841" data-name="Pfad 1841" d="M580.529,94.716c-35.838-17.339-66.326-5.752-29.086,7.836,7.969,2.907,44.934,17.6,52.5,12.009,10.27-7.582-15.843-16.026-23.418-19.845" transform="translate(-515.409 -78.019)" fill="none" stroke="#2fe4df" stroke-miterlimit="10" stroke-width="0.405" fill-rule="evenodd"/>
        <path id="Pfad_1842" data-name="Pfad 1842" d="M585.906,91.385c-54.834-26.529-101.48-8.8-44.5,11.989,12.192,4.449,68.75,26.922,80.332,18.375,15.713-11.6-24.242-24.52-35.828-30.364" transform="translate(-515.409 -78.019)" fill="none" stroke="#2fe4df" stroke-miterlimit="10" stroke-width="0.62" fill-rule="evenodd"/>
      </g>
      <g id="Gruppe_45" data-name="Gruppe 45" transform="translate(141.921 370.646)">
        <path id="Pfad_1843" data-name="Pfad 1843" d="M156.918,239.351c-14.285,7.792-15.584,21.831.65,13.39,3.247-1.949,11.039-6.9,12.338-10.792,2.6-9.092-7.793-5.845-12.988-2.6" transform="translate(-126.171 -220.544)" fill="none" stroke="#2fe4df" stroke-miterlimit="10" stroke-width="0.25" fill-rule="evenodd"/>
        <path id="Pfad_1844" data-name="Pfad 1844" d="M156.122,234.917c-24.285,13.246-26.493,37.112,1.1,22.761,5.52-3.311,18.767-11.722,20.975-18.346,4.414-15.455-13.248-9.935-22.079-4.415" transform="translate(-126.171 -220.544)" fill="none" stroke="#2fe4df" stroke-miterlimit="10" stroke-width="0.425" fill-rule="evenodd"/>
        <path id="Pfad_1845" data-name="Pfad 1845" d="M155.1,229.208c-37.155,20.267-40.533,56.782,1.69,34.826,8.445-5.067,28.713-17.936,32.091-28.069,6.753-23.646-20.269-15.2-33.781-6.757" transform="translate(-126.171 -220.544)" fill="none" stroke="#2fe4df" stroke-miterlimit="10" stroke-width="0.65" fill-rule="evenodd"/>
      </g>
      <g id="Gruppe_47" data-name="Gruppe 47" transform="translate(354.175 251.748)">
        <path id="Pfad_1846" data-name="Pfad 1846" d="M441.969,154c-8-1.332-28,8-29.332,16-1.334,6.668,2,8.668,6.666,12a90.444,90.444,0,0,0,14,6.668c12.666,6,18.666-.668,24-11.334,9.334-18-1.334-17.334-15.334-23.334" transform="translate(-412.341 -153.871)" fill="#3d36bc" fill-rule="evenodd"/>
        <g id="Gruppe_46" data-name="Gruppe 46" transform="translate(0 0.008)">
          <path id="Pfad_1847" data-name="Pfad 1847" d="M451.92,157.775c-1.693,3.338-5.318,6.229-8.91,3.884a6.215,6.215,0,0,1-2.25-7.77,28.339,28.339,0,0,0-9.916,1.987c2.017,2.166,3.963,5.255,1.965,7.182-3.663,3.532-7.9.037-9.721-3.631-5.412,3.054-9.848,6.949-10.451,10.572-1.334,6.668,2,8.668,6.666,12a99.041,99.041,0,0,0,9.025,4.65c1.9-2.728,5.033-4.669,8.426-2.863,2.705,1.439,3.6,4.214,3.463,7.03,6.48.781,10.765-2.833,14.388-8.621-2.609-1.677-4.578-4-3.253-7.413,1.339-3.464,5.291-4.24,8.427-3.029C462.824,163.038,458.859,160.42,451.92,157.775Zm-33.484,16.889c-2.047,1.378-3.893-1.472-3.588-3.574a2.3,2.3,0,0,1,.043-.228,2.531,2.531,0,0,1,.175-.514,2.367,2.367,0,0,1,2.53-1.222.481.481,0,0,1,.431.307,3.032,3.032,0,0,1,.479.208A2.927,2.927,0,0,1,418.436,174.664Zm13.857,3.456a.5.5,0,0,1-.314.362c-3.075,1.178-6.665,2.7-9.26-.376a6.686,6.686,0,0,1-.692-8.032c3.41-4.95,12.2-3.676,12.782,2.84A5.584,5.584,0,0,1,432.293,178.12Zm9.014-2.579c-2.371-.728-3.817-3.418-3.735-5.814a4.07,4.07,0,0,1,2.871-4.012c.01-.006.016-.015.026-.021,3.312-1.767,6.963.933,6.984,4.575C447.473,173.182,444.437,176.5,441.307,175.541Zm4.234,11.218a2.474,2.474,0,0,1-2.514-2.857,2.786,2.786,0,0,1,1.842-2.323.387.387,0,0,1,.344-.31,2.594,2.594,0,0,1,3.258,2.4A2.941,2.941,0,0,1,445.541,186.759Zm8.145-18.7a2.623,2.623,0,0,1-1.926-3.242,2.353,2.353,0,0,1,1.342-1.608.5.5,0,0,1,.369-.208,3.3,3.3,0,0,1,.517,0,3.231,3.231,0,0,1,1.116.142.464.464,0,0,1,.314.295,2.759,2.759,0,0,1,1.449,2.263A2.438,2.438,0,0,1,453.686,168.059Z" transform="translate(-412.341 -153.879)" fill="#5148fb" fill-rule="evenodd"/>
        </g>
      </g>
      <g id="Gruppe_49" data-name="Gruppe 49" transform="translate(156.808 597.967)">
        <path id="Pfad_1848" data-name="Pfad 1848" d="M205.969,350.667c-6.666,0-13.333,3.332-14,10.665C190.636,371.332,199.3,372,203.3,378c6.666,8.668.666,30.668,18.666,24.668,10.667-3.335,8-11.335,12-18,3.334-7.335,12-10,11.334-18.668-1.334-10-8-10-16-10.667-6.667-.665-17.334-5.333-23.334-4.665" transform="translate(-191.831 -350.602)" fill="#3d36bc" fill-rule="evenodd"/>
        <g id="Gruppe_48" data-name="Gruppe 48" transform="translate(0.038)">
          <path id="Pfad_1849" data-name="Pfad 1849" d="M245.3,366c-1.149-8.615-6.258-9.807-12.765-10.4a6.017,6.017,0,0,1-2.035,3.177,5.172,5.172,0,0,1-5.022.587,5.833,5.833,0,0,1-3.871-5.691c-5.577-1.53-11.644-3.451-15.641-3.006-4.838,0-9.664,1.765-12.209,5.532a4.418,4.418,0,0,1,1.9,4.626c-.418,2.032-1.995,2.947-3.795,3.355.538,7.346,7.853,8.447,11.434,13.819.1.125.18.261.27.39,3.644-1.676,8.884-1.807,9.671,2.556.829,4.589-2.548,6.744-6.389,7.247,1.667,9.091,2.472,18.689,15.114,14.475,10.667-3.335,8-11.335,12-18a16.16,16.16,0,0,1,1.573-2.688c-2.086-2.352-3.36-5.365-.82-7.844a6.791,6.791,0,0,1,8.295-.54A10.822,10.822,0,0,0,245.3,366Zm-38.384,1.818c-2.823.41-5.467-1.959-6.024-4.638a4.045,4.045,0,0,1,1.689-4.516.411.411,0,0,1,.159-.266c2.789-2.212,6.6-.523,8.018,2.5C212.283,364.135,210.477,367.3,206.919,367.817Zm10.158,7.334a1.421,1.421,0,0,1,.228-.284,1.994,1.994,0,0,1,.6-.761,2.574,2.574,0,0,1,2.356-.312,2.673,2.673,0,0,1,1.13,4.439c-1.278,1.318-3.216.375-4.044-.975-.054-.088-.1-.187-.144-.283a.368.368,0,0,1-.048-.1A1.965,1.965,0,0,1,217.077,375.151Zm.62,26.22c-1.389,1.132-3.023.46-4.143-.777a.482.482,0,0,1-.389-.217c-.664-.96-1.43-2.381-.93-3.583.814-1.957,3.521-2.117,5.187-1.214A3.487,3.487,0,0,1,217.7,401.371Zm11.443-10.809a5.968,5.968,0,0,1-7.972,3.106,6.622,6.622,0,0,1-3.48-6.4c.218-2.389,2-3.651,4.09-4.017a.454.454,0,0,1,.318-.124c1.893,0,4.459-.156,5.8,1.508A6.266,6.266,0,0,1,229.14,390.562Zm1.909-21.144c-1.041,2.785-5.05,3.9-7.471,2.246a5.139,5.139,0,0,1-2.046-5.8,4.03,4.03,0,0,1,3.85-2.711.527.527,0,0,1,.222-.012l.077.012a7.142,7.142,0,0,1,1.3.113.438.438,0,0,1,.235.127,5.054,5.054,0,0,1,3.206,1.529A4.565,4.565,0,0,1,231.049,369.418Zm11.614-4.009a2.915,2.915,0,0,1-2.707.738A2.376,2.376,0,0,1,238.5,364.5a2.5,2.5,0,0,1,2.593-3.254.484.484,0,0,1,.45.336,3.015,3.015,0,0,1,.3.133C243.17,362.451,244.092,364.254,242.663,365.409Z" transform="translate(-191.869 -350.602)" fill="#5148fb" fill-rule="evenodd"/>
        </g>
      </g>
      <g id="Gruppe_51" data-name="Gruppe 51" transform="translate(128.877 27.763)">
        <path id="Pfad_1850" data-name="Pfad 1850" d="M205.3,43.333C197.97,40,174.636,30.666,165.969,36.666c-16.666,12,9.334,24,15.334,30,4,4.667,2,10,8.666,13.333,7.334,3.334,12-1.333,14.667-6,4-6.666,9.333-26.666.667-30.666" transform="translate(-160.475 -34.699)" fill="#3d36bc" fill-rule="evenodd"/>
        <g id="Gruppe_50" data-name="Gruppe 50" transform="translate(0.025 0.07)">
          <path id="Pfad_1851" data-name="Pfad 1851" d="M207.916,45.525c-1.425,1.495-3.493,2.367-5.368,1.038-1.506-1.068-1.122-3.038-.286-4.553A108.149,108.149,0,0,0,181.056,35.4c-.716,2.816-2.391,4.842-5.784,4.389-2.744-.367-2.9-2.788-3.09-5.015a12.542,12.542,0,0,0-6.213,1.9,18.253,18.253,0,0,0-3.118,2.784c1.494,1.225,2.719,2.965,1.8,4.553s-2.508,1.792-4.153,1.6c.372,5.39,6.531,10.457,12.241,14.6a6.483,6.483,0,0,1,3.972-2.812c2.2-.458,4.733-.294,6.2,1.662,2.692,3.586,1.992,7.05-.033,10.028,1.983,4,1.55,8.147,7.086,10.915,7.334,3.334,12-1.333,14.667-6a41.011,41.011,0,0,0,3.869-10.009c-2.5-.909-4.92-2.757-4.586-5.45.41-3.3,3.253-3.948,6.018-3.651C210.082,51.181,209.544,47.8,207.916,45.525ZM174.2,52.236a5.239,5.239,0,0,1-5.455-2.584c-.968-1.876-.061-3.362,1.412-4.33,1.793-1.845,4.676-1.242,6.015,1.043C177.357,48.391,176.822,51.658,174.2,52.236Zm19.579-.446a4.768,4.768,0,0,1,.688-.146.523.523,0,0,1,.4.11,3.622,3.622,0,0,1,2.13.569,3.276,3.276,0,0,1,1.009,2.869,3.6,3.6,0,0,1-4.334,3.245,3.341,3.341,0,0,1-2.558-3.535,3.522,3.522,0,0,1,2.638-3.1Zm-5.554-3.664a3.774,3.774,0,0,1-3.373-4.29c.3-2.24,2.274-3.183,4.346-2.7a3.354,3.354,0,0,1,3.072,3.579A3.551,3.551,0,0,1,188.221,48.126Zm6.714,25.564c-2.739-.262-4.522-3.181-4.206-5.783a5.1,5.1,0,0,1,4.742-4.592c2.79-1.146,5.362,1.007,5.684,4.077A5.633,5.633,0,0,1,194.935,73.69Z" transform="translate(-160.5 -34.769)" fill="#5148fb" fill-rule="evenodd"/>
        </g>
      </g>
      <g id="Gruppe_53" data-name="Gruppe 53" transform="translate(496.962 709.487)">
        <path id="Pfad_1852" data-name="Pfad 1852" d="M613.3,399.332c-12.666-1.333-28-1.333-27.334,15.335,0,7.332,2,10.665,9.334,14,2,1.332,5.334,0,8,1.332,3.334,2,3.334,5.333,6,7.333,9.334,8,28,8,26.666-9.333-.666-9.332-8.666-9.332-13.332-15.332-3.334-5.335-.668-13.335-9.334-13.335" transform="translate(-585.948 -398.809)" fill="#3d36bc" fill-rule="evenodd"/>
        <g id="Gruppe_52" data-name="Gruppe 52" transform="translate(0.004 0.002)">
          <path id="Pfad_1853" data-name="Pfad 1853" d="M635.988,428.455c-2.865.143-5.865-1.021-6.984-3.786a5.96,5.96,0,0,1,.84-6.247c-2.442-1.628-5.149-3.108-7.207-5.755-3.153-5.044-.946-12.468-8.026-13.26a7.527,7.527,0,0,1-1.338,3.806A5.076,5.076,0,0,1,608.229,405c-2.62-.777-3.543-3.562-3.542-6.186-6.63.006-12.873,1.258-16.212,5.82a4.514,4.514,0,0,1,2.13,5.211c-.7,2.352-2.482,3.164-4.648,3.359-.008.475-.008.96.012,1.466,0,7.332,2,10.665,9.334,14a5.024,5.024,0,0,0,2.668.654c.457-1.893,1.283-4.114,2.99-4.99,2.328-1.2,4.709-.284,6.689,1.179,4.266,3.147,2.971,7.193.135,10.219a6.889,6.889,0,0,0,1.518,1.6C618.553,445.26,636.955,445.322,635.988,428.455Zm-38.42-6.051c-1.4,2.073-5.146,2.767-6.738.5a3.339,3.339,0,0,1-.584-1.988c-.51-1.583,1.25-3.69,3.027-3.974C595.959,416.511,599.4,419.688,597.568,422.4Zm1.955-7.031c-2.8.811-6.527-.738-6.88-3.917a4.908,4.908,0,0,1,2.57-5.166,4.589,4.589,0,0,1,6.152.984C603.109,409.674,602.779,414.43,599.523,415.373Zm11.207-1.3a3.154,3.154,0,0,1-4,.659,2.9,2.9,0,0,1-1.425-2.587,2.859,2.859,0,0,1,1.724-2.982,8.109,8.109,0,0,1,2.313-.411.464.464,0,0,1,.373.178,2.317,2.317,0,0,1,1.6,1.555A3.97,3.97,0,0,1,610.73,414.071Zm3.649,4.934A2.6,2.6,0,0,1,615.6,416.5a.424.424,0,0,1,.246-.306c1.842-.92,4.123-.41,4.773,1.738a2.993,2.993,0,0,1-2.6,3.952A3.217,3.217,0,0,1,614.379,419.005Zm10.957,18.915a6.148,6.148,0,0,1-8.3-4.91,4.234,4.234,0,0,1,2.914-4.733c2.485-1.824,5.953-.638,7.854,1.647C630.109,432.692,628.607,436.726,625.336,437.92Z" transform="translate(-585.952 -398.811)" fill="#5148fb" fill-rule="evenodd"/>
        </g>
      </g>
      <g id="Gruppe_56" data-name="Gruppe 56" transform="translate(0.942 649.344)">
        <g id="Gruppe_54" data-name="Gruppe 54">
          <path id="Pfad_1854" data-name="Pfad 1854" d="M67.3,338.667" transform="translate(-17.302 -338.667)" fill="none" stroke="#fbf49c" stroke-miterlimit="10" stroke-width="1.5" fill-rule="evenodd"/>
          <path id="Pfad_1855" data-name="Pfad 1855" d="M83.968,352.667" transform="translate(-17.302 -338.667)" fill="none" stroke="#fbf49c" stroke-miterlimit="10" stroke-width="1.5" fill-rule="evenodd"/>
          <path id="Pfad_1856" data-name="Pfad 1856" d="M51.969,366.667" transform="translate(-17.302 -338.667)" fill="none" stroke="#fbf49c" stroke-miterlimit="10" stroke-width="1.5" fill-rule="evenodd"/>
          <path id="Pfad_1857" data-name="Pfad 1857" d="M77.3,388" transform="translate(-17.302 -338.667)" fill="none" stroke="#fbf49c" stroke-miterlimit="10" stroke-width="1.5" fill-rule="evenodd"/>
          <path id="Pfad_1858" data-name="Pfad 1858" d="M53.969,414" transform="translate(-17.302 -338.667)" fill="none" stroke="#fbf49c" stroke-miterlimit="10" stroke-width="1.5" fill-rule="evenodd"/>
          <path id="Pfad_1859" data-name="Pfad 1859" d="M105.968,428" transform="translate(-17.302 -338.667)" fill="none" stroke="#fbf49c" stroke-miterlimit="10" stroke-width="1.5" fill-rule="evenodd"/>
          <path id="Pfad_1860" data-name="Pfad 1860" d="M94.635,458" transform="translate(-17.302 -338.667)" fill="none" stroke="#fbf49c" stroke-miterlimit="10" stroke-width="1.5" fill-rule="evenodd"/>
          <path id="Pfad_1861" data-name="Pfad 1861" d="M31.3,449.333" transform="translate(-17.302 -338.667)" fill="none" stroke="#fbf49c" stroke-miterlimit="10" stroke-width="1.5" fill-rule="evenodd"/>
          <path id="Pfad_1862" data-name="Pfad 1862" d="M17.3,419.333" transform="translate(-17.302 -338.667)" fill="none" stroke="#fbf49c" stroke-miterlimit="10" stroke-width="1.5" fill-rule="evenodd"/>
        </g>
        <g id="Gruppe_55" data-name="Gruppe 55" transform="translate(0.419 0.583)">
          <path id="Pfad_1863" data-name="Pfad 1863" d="M68.221,339.25s10,9.75,15.5,13.75" transform="translate(-17.721 -339.25)" fill="none" stroke="#fbf49c" stroke-miterlimit="10" stroke-width="0.25" fill-rule="evenodd"/>
          <path id="Pfad_1864" data-name="Pfad 1864" d="M66.971,340.25c-3,5.25-5.75,10.5-8.75,16-1.75,3-4.5,6-5.75,9.25" transform="translate(-17.721 -339.25)" fill="none" stroke="#fbf49c" stroke-miterlimit="10" stroke-width="0.25" fill-rule="evenodd"/>
          <path id="Pfad_1865" data-name="Pfad 1865" d="M51.971,366.5c8.25,7.5,16.75,14.5,25.5,21.25" transform="translate(-17.721 -339.25)" fill="none" stroke="#fbf49c" stroke-miterlimit="10" stroke-width="0.25" fill-rule="evenodd"/>
          <path id="Pfad_1866" data-name="Pfad 1866" d="M83.971,353.75s-3.25,23.25-5.75,34" transform="translate(-17.721 -339.25)" fill="none" stroke="#fbf49c" stroke-miterlimit="10" stroke-width="0.25" fill-rule="evenodd"/>
          <line id="Linie_9" data-name="Linie 9" x1="23" y2="25" transform="translate(36 49.75)" fill="none" stroke="#fbf49c" stroke-miterlimit="10" stroke-width="0.25"/>
          <line id="Linie_10" data-name="Linie 10" x1="35.748" y2="5.5" transform="translate(0.5 74.75)" fill="none" stroke="#fbf49c" stroke-miterlimit="10" stroke-width="0.25"/>
          <line id="Linie_11" data-name="Linie 11" x2="14.25" y2="28.75" transform="translate(0 80.25)" fill="none" stroke="#fbf49c" stroke-miterlimit="10" stroke-width="0.25"/>
          <path id="Pfad_1867" data-name="Pfad 1867" d="M31.721,450c13.5,1.5,26.75,3.75,40,6.5,7.5,1.5,15.5,3.25,23.25,3" transform="translate(-17.721 -339.25)" fill="none" stroke="#fbf49c" stroke-miterlimit="10" stroke-width="0.25" fill-rule="evenodd"/>
          <path id="Pfad_1868" data-name="Pfad 1868" d="M94.971,458.5c5-9,8-19,11-28.75" transform="translate(-17.721 -339.25)" fill="none" stroke="#fbf49c" stroke-miterlimit="10" stroke-width="0.25" fill-rule="evenodd"/>
        </g>
      </g>
      <g id="Gruppe_59" data-name="Gruppe 59" transform="translate(587.11 221.071)">
        <g id="Gruppe_57" data-name="Gruppe 57" transform="translate(0.082 0.333)">
          <path id="Pfad_1869" data-name="Pfad 1869" d="M675.3,132" transform="translate(-675.303 -121.334)" fill="none" stroke="#fbf49c" stroke-miterlimit="10" stroke-width="1.5" fill-rule="evenodd"/>
          <path id="Pfad_1870" data-name="Pfad 1870" d="M703.969,121.334" transform="translate(-675.303 -121.334)" fill="none" stroke="#fbf49c" stroke-miterlimit="10" stroke-width="1.5" fill-rule="evenodd"/>
          <path id="Pfad_1871" data-name="Pfad 1871" d="M691.3,158" transform="translate(-675.303 -121.334)" fill="none" stroke="#fbf49c" stroke-miterlimit="10" stroke-width="1.5" fill-rule="evenodd"/>
          <path id="Pfad_1872" data-name="Pfad 1872" d="M721.3,148.667" transform="translate(-675.303 -121.334)" fill="none" stroke="#fbf49c" stroke-miterlimit="10" stroke-width="1.5" fill-rule="evenodd"/>
          <path id="Pfad_1873" data-name="Pfad 1873" d="M717.3,178.667" transform="translate(-675.303 -121.334)" fill="none" stroke="#fbf49c" stroke-miterlimit="10" stroke-width="1.5" fill-rule="evenodd"/>
          <path id="Pfad_1874" data-name="Pfad 1874" d="M737.969,214" transform="translate(-675.303 -121.334)" fill="none" stroke="#fbf49c" stroke-miterlimit="10" stroke-width="1.5" fill-rule="evenodd"/>
          <path id="Pfad_1875" data-name="Pfad 1875" d="M731.3,250" transform="translate(-675.303 -121.334)" fill="none" stroke="#fbf49c" stroke-miterlimit="10" stroke-width="1.5" fill-rule="evenodd"/>
          <path id="Pfad_1876" data-name="Pfad 1876" d="M703.969,264.667" transform="translate(-675.303 -121.334)" fill="none" stroke="#fbf49c" stroke-miterlimit="10" stroke-width="1.5" fill-rule="evenodd"/>
        </g>
        <g id="Gruppe_58" data-name="Gruppe 58">
          <path id="Pfad_1877" data-name="Pfad 1877" d="M675.221,131.5q14.426-5.112,28.75-10.5" transform="translate(-675.221 -121.001)" fill="none" stroke="#fbf49c" stroke-miterlimit="10" stroke-width="0.25" fill-rule="evenodd"/>
          <path id="Pfad_1878" data-name="Pfad 1878" d="M675.221,131.751c3.75,4.5,6,10.5,9.5,15.25,2.5,4,5.25,7.75,7.75,11.5" transform="translate(-675.221 -121.001)" fill="none" stroke="#fbf49c" stroke-miterlimit="10" stroke-width="0.25" fill-rule="evenodd"/>
          <path id="Pfad_1879" data-name="Pfad 1879" d="M704.221,121.751s12,17.75,17.5,26.75" transform="translate(-675.221 -121.001)" fill="none" stroke="#fbf49c" stroke-miterlimit="10" stroke-width="0.25" fill-rule="evenodd"/>
          <line id="Linie_12" data-name="Linie 12" x2="25.582" y2="20.667" transform="translate(16.5 37)" fill="none" stroke="#fbf49c" stroke-miterlimit="10" stroke-width="0.25"/>
          <path id="Pfad_1880" data-name="Pfad 1880" d="M720.971,150s-2.5,19.25-3.25,28.5" transform="translate(-675.221 -121.001)" fill="none" stroke="#fbf49c" stroke-miterlimit="10" stroke-width="0.25" fill-rule="evenodd"/>
          <path id="Pfad_1881" data-name="Pfad 1881" d="M716.721,179c7.25,12,15,24,22,36" transform="translate(-675.221 -121.001)" fill="none" stroke="#fbf49c" stroke-miterlimit="10" stroke-width="0.25" fill-rule="evenodd"/>
          <line id="Linie_13" data-name="Linie 13" x1="5.25" y2="35" transform="translate(57 93)" fill="none" stroke="#fbf49c" stroke-miterlimit="10" stroke-width="0.25"/>
          <line id="Linie_14" data-name="Linie 14" y1="14.25" x2="27" transform="translate(29 129.5)" fill="none" stroke="#fbf49c" stroke-miterlimit="10" stroke-width="0.25"/>
        </g>
      </g>
      <g id="Gruppe_62" data-name="Gruppe 62" transform="translate(266.153 203.938)">
        <g id="Gruppe_60" data-name="Gruppe 60" transform="translate(0.081 0.583)">
          <path id="Pfad_1882" data-name="Pfad 1882" d="M385.968,117.334" transform="translate(-315.302 -117.334)" fill="none" stroke="#fbf49c" stroke-miterlimit="10" stroke-width="1.5" fill-rule="evenodd"/>
          <path id="Pfad_1883" data-name="Pfad 1883" d="M345.3,128.667" transform="translate(-315.302 -117.334)" fill="none" stroke="#fbf49c" stroke-miterlimit="10" stroke-width="1.5" fill-rule="evenodd"/>
          <path id="Pfad_1884" data-name="Pfad 1884" d="M387.3,144.667" transform="translate(-315.302 -117.334)" fill="none" stroke="#fbf49c" stroke-miterlimit="10" stroke-width="1.5" fill-rule="evenodd"/>
          <path id="Pfad_1885" data-name="Pfad 1885" d="M353.968,156" transform="translate(-315.302 -117.334)" fill="none" stroke="#fbf49c" stroke-miterlimit="10" stroke-width="1.5" fill-rule="evenodd"/>
          <path id="Pfad_1886" data-name="Pfad 1886" d="M315.3,156" transform="translate(-315.302 -117.334)" fill="none" stroke="#fbf49c" stroke-miterlimit="10" stroke-width="1.5" fill-rule="evenodd"/>
          <path id="Pfad_1887" data-name="Pfad 1887" d="M316.635,185.334" transform="translate(-315.302 -117.334)" fill="none" stroke="#fbf49c" stroke-miterlimit="10" stroke-width="1.5" fill-rule="evenodd"/>
          <path id="Pfad_1888" data-name="Pfad 1888" d="M350.635,191.334" transform="translate(-315.302 -117.334)" fill="none" stroke="#fbf49c" stroke-miterlimit="10" stroke-width="1.5" fill-rule="evenodd"/>
          <path id="Pfad_1889" data-name="Pfad 1889" d="M344.635,222" transform="translate(-315.302 -117.334)" fill="none" stroke="#fbf49c" stroke-miterlimit="10" stroke-width="1.5" fill-rule="evenodd"/>
          <path id="Pfad_1890" data-name="Pfad 1890" d="M377.3,227.333" transform="translate(-315.302 -117.334)" fill="none" stroke="#fbf49c" stroke-miterlimit="10" stroke-width="1.5" fill-rule="evenodd"/>
        </g>
        <g id="Gruppe_61" data-name="Gruppe 61">
          <path id="Pfad_1891" data-name="Pfad 1891" d="M385.722,116.751c2.5,8,1.25,19.25,1.75,27.75" transform="translate(-315.221 -116.751)" fill="none" stroke="#fbf49c" stroke-miterlimit="10" stroke-width="0.25" fill-rule="evenodd"/>
          <line id="Linie_15" data-name="Linie 15" x1="39" y2="10.75" transform="translate(30.5 0.75)" fill="none" stroke="#fbf49c" stroke-miterlimit="10" stroke-width="0.25"/>
          <path id="Pfad_1892" data-name="Pfad 1892" d="M344.971,128.751q4.389,13.452,7.5,27.25" transform="translate(-315.221 -116.751)" fill="none" stroke="#fbf49c" stroke-miterlimit="10" stroke-width="0.25" fill-rule="evenodd"/>
          <path id="Pfad_1893" data-name="Pfad 1893" d="M354.221,156c11-3,22-9,33.5-11" transform="translate(-315.221 -116.751)" fill="none" stroke="#fbf49c" stroke-miterlimit="10" stroke-width="0.25" fill-rule="evenodd"/>
          <path id="Pfad_1894" data-name="Pfad 1894" d="M354.471,157s-26.5-1.5-38.75-1.75" transform="translate(-315.221 -116.751)" fill="none" stroke="#fbf49c" stroke-miterlimit="10" stroke-width="0.25" fill-rule="evenodd"/>
          <path id="Pfad_1895" data-name="Pfad 1895" d="M315.221,156.251c1,9.5-.75,19.25.5,28.75" transform="translate(-315.221 -116.751)" fill="none" stroke="#fbf49c" stroke-miterlimit="10" stroke-width="0.25" fill-rule="evenodd"/>
          <path id="Pfad_1896" data-name="Pfad 1896" d="M316.221,185.751a324.176,324.176,0,0,0,34.75,5.5" transform="translate(-315.221 -116.751)" fill="none" stroke="#fbf49c" stroke-miterlimit="10" stroke-width="0.25" fill-rule="evenodd"/>
          <path id="Pfad_1897" data-name="Pfad 1897" d="M351.471,191.251c-2.5,10.25-6.5,29.212-6.836,30.75" transform="translate(-315.221 -116.751)" fill="none" stroke="#fbf49c" stroke-miterlimit="10" stroke-width="0.25" fill-rule="evenodd"/>
          <line id="Linie_16" data-name="Linie 16" x2="32.5" y2="6.5" transform="translate(29.75 105.25)" fill="none" stroke="#fbf49c" stroke-miterlimit="10" stroke-width="0.25"/>
        </g>
      </g>
      <g id="Gruppe_65" data-name="Gruppe 65" transform="translate(118.38 5.896)">
        <g id="Gruppe_63" data-name="Gruppe 63">
          <path id="Pfad_1898" data-name="Pfad 1898" d="M154.321,95.3" transform="translate(-97.828 -12.832)" fill="none" stroke="#fbf49c" stroke-miterlimit="10" stroke-width="1.5" fill-rule="evenodd"/>
          <path id="Pfad_1899" data-name="Pfad 1899" d="M144.581,73.871" transform="translate(-97.828 -12.832)" fill="none" stroke="#fbf49c" stroke-miterlimit="10" stroke-width="1.5" fill-rule="evenodd"/>
          <path id="Pfad_1900" data-name="Pfad 1900" d="M112.113,77.118" transform="translate(-97.828 -12.832)" fill="none" stroke="#fbf49c" stroke-miterlimit="10" stroke-width="1.5" fill-rule="evenodd"/>
          <path id="Pfad_1901" data-name="Pfad 1901" d="M127.7,36.858" transform="translate(-97.828 -12.832)" fill="none" stroke="#fbf49c" stroke-miterlimit="10" stroke-width="1.5" fill-rule="evenodd"/>
          <path id="Pfad_1902" data-name="Pfad 1902" d="M97.828,12.832" transform="translate(-97.828 -12.832)" fill="none" stroke="#fbf49c" stroke-miterlimit="10" stroke-width="1.5" fill-rule="evenodd"/>
        </g>
        <g id="Gruppe_64" data-name="Gruppe 64" transform="translate(0.477 0.835)">
          <path id="Pfad_1903" data-name="Pfad 1903" d="M154.638,96.334c-2.333-8-7.667-14-9.333-22.667" transform="translate(-98.305 -13.667)" fill="none" stroke="#fbf49c" stroke-miterlimit="10" stroke-width="0.25" fill-rule="evenodd"/>
          <line id="Linie_17" data-name="Linie 17" x1="32.468" y2="3.247" transform="translate(13.808 60.204)" fill="none" stroke="#fbf49c" stroke-miterlimit="10" stroke-width="0.25"/>
          <path id="Pfad_1904" data-name="Pfad 1904" d="M112.113,77.118c1.141.45,15.585-40.26,15.585-40.26" transform="translate(-98.305 -13.667)" fill="none" stroke="#fbf49c" stroke-miterlimit="10" stroke-width="0.25" fill-rule="evenodd"/>
          <path id="Pfad_1905" data-name="Pfad 1905" d="M128.3,37s-20-16-30-23.334" transform="translate(-98.305 -13.667)" fill="none" stroke="#fbf49c" stroke-miterlimit="10" stroke-width="0.25" fill-rule="evenodd"/>
        </g>
      </g>
      <g id="Gruppe_68" data-name="Gruppe 68" transform="translate(465.308 19.065)">
        <g id="Gruppe_66" data-name="Gruppe 66" transform="translate(0.748 0.467)">
          <path id="Pfad_1906" data-name="Pfad 1906" d="M539.387,51.793" transform="translate(-539.387 -26.468)" fill="none" stroke="#fbf49c" stroke-miterlimit="10" stroke-width="1.5" fill-rule="evenodd"/>
          <path id="Pfad_1907" data-name="Pfad 1907" d="M551.723,26.468" transform="translate(-539.387 -26.468)" fill="none" stroke="#fbf49c" stroke-miterlimit="10" stroke-width="1.5" fill-rule="evenodd"/>
          <path id="Pfad_1908" data-name="Pfad 1908" d="M587.437,38.157" transform="translate(-539.387 -26.468)" fill="none" stroke="#fbf49c" stroke-miterlimit="10" stroke-width="1.5" fill-rule="evenodd"/>
          <path id="Pfad_1909" data-name="Pfad 1909" d="M608.217,60.235" transform="translate(-539.387 -26.468)" fill="none" stroke="#fbf49c" stroke-miterlimit="10" stroke-width="1.5" fill-rule="evenodd"/>
        </g>
        <g id="Gruppe_67" data-name="Gruppe 67">
          <path id="Pfad_1910" data-name="Pfad 1910" d="M538.639,52c7-7.667,7.332-18,13-25.334" transform="translate(-538.639 -26.001)" fill="none" stroke="#fbf49c" stroke-miterlimit="10" stroke-width="0.25" fill-rule="evenodd"/>
          <path id="Pfad_1911" data-name="Pfad 1911" d="M551.971,26c12.668,5.333,25.668,8,38.334,12.333" transform="translate(-538.639 -26.001)" fill="none" stroke="#fbf49c" stroke-miterlimit="10" stroke-width="0.25" fill-rule="evenodd"/>
          <path id="Pfad_1912" data-name="Pfad 1912" d="M588.3,38.667a210.318,210.318,0,0,0,20.666,21.667" transform="translate(-538.639 -26.001)" fill="none" stroke="#fbf49c" stroke-miterlimit="10" stroke-width="0.25" fill-rule="evenodd"/>
        </g>
      </g>
      <g id="Gruppe_71" data-name="Gruppe 71" transform="translate(409.639 533.314)">
        <g id="Gruppe_69" data-name="Gruppe 69" transform="translate(0.357 0.326)">
          <path id="Pfad_1913" data-name="Pfad 1913" d="M479,319.326" transform="translate(-478.996 -319.326)" fill="none" stroke="#fbf49c" stroke-miterlimit="10" stroke-width="1.5" fill-rule="evenodd"/>
          <path id="Pfad_1914" data-name="Pfad 1914" d="M484.84,352.442" transform="translate(-478.996 -319.326)" fill="none" stroke="#fbf49c" stroke-miterlimit="10" stroke-width="1.5" fill-rule="evenodd"/>
          <path id="Pfad_1915" data-name="Pfad 1915" d="M527.049,326.468" transform="translate(-478.996 -319.326)" fill="none" stroke="#fbf49c" stroke-miterlimit="10" stroke-width="1.5" fill-rule="evenodd"/>
          <path id="Pfad_1916" data-name="Pfad 1916" d="M555.619,351.794" transform="translate(-478.996 -319.326)" fill="none" stroke="#fbf49c" stroke-miterlimit="10" stroke-width="1.5" fill-rule="evenodd"/>
          <path id="Pfad_1917" data-name="Pfad 1917" d="M575.75,338.806" transform="translate(-478.996 -319.326)" fill="none" stroke="#fbf49c" stroke-miterlimit="10" stroke-width="1.5" fill-rule="evenodd"/>
        </g>
        <g id="Gruppe_70" data-name="Gruppe 70">
          <line id="Linie_18" data-name="Linie 18" x2="6.201" y2="33.441" fill="none" stroke="#fbf49c" stroke-miterlimit="10" stroke-width="0.25"/>
          <path id="Pfad_1918" data-name="Pfad 1918" d="M485.3,353c13-11,41.334-27.333,41.334-27.333" transform="translate(-478.639 -319)" fill="none" stroke="#fbf49c" stroke-miterlimit="10" stroke-width="0.25" fill-rule="evenodd"/>
          <path id="Pfad_1919" data-name="Pfad 1919" d="M527.3,325.667a307.4,307.4,0,0,0,27.334,27.666" transform="translate(-478.639 -319)" fill="none" stroke="#fbf49c" stroke-miterlimit="10" stroke-width="0.25" fill-rule="evenodd"/>
          <path id="Pfad_1920" data-name="Pfad 1920" d="M555.639,353.333c6.666-4.666,15-9,21-15" transform="translate(-478.639 -319)" fill="none" stroke="#fbf49c" stroke-miterlimit="10" stroke-width="0.25" fill-rule="evenodd"/>
        </g>
      </g>
      <g id="Gruppe_74" data-name="Gruppe 74" transform="translate(202.431 739.094)">
        <g id="Gruppe_72" data-name="Gruppe 72" transform="translate(0.259)">
          <path id="Pfad_1921" data-name="Pfad 1921" d="M346.529,428.417" transform="translate(-245.23 -428.417)" fill="none" stroke="#fbf49c" stroke-miterlimit="10" stroke-width="1.5" fill-rule="evenodd"/>
          <path id="Pfad_1922" data-name="Pfad 1922" d="M306.269,443.352" transform="translate(-245.23 -428.417)" fill="none" stroke="#fbf49c" stroke-miterlimit="10" stroke-width="1.5" fill-rule="evenodd"/>
          <path id="Pfad_1923" data-name="Pfad 1923" d="M279,436.858" transform="translate(-245.23 -428.417)" fill="none" stroke="#fbf49c" stroke-miterlimit="10" stroke-width="1.5" fill-rule="evenodd"/>
          <path id="Pfad_1924" data-name="Pfad 1924" d="M245.23,433.612" transform="translate(-245.23 -428.417)" fill="none" stroke="#fbf49c" stroke-miterlimit="10" stroke-width="1.5" fill-rule="evenodd"/>
          <path id="Pfad_1925" data-name="Pfad 1925" d="M245.23,462.832" transform="translate(-245.23 -428.417)" fill="none" stroke="#fbf49c" stroke-miterlimit="10" stroke-width="1.5" fill-rule="evenodd"/>
          <path id="Pfad_1926" data-name="Pfad 1926" d="M288.087,488.157" transform="translate(-245.23 -428.417)" fill="none" stroke="#fbf49c" stroke-miterlimit="10" stroke-width="1.5" fill-rule="evenodd"/>
        </g>
        <g id="Gruppe_73" data-name="Gruppe 73" transform="translate(0 0.583)">
          <path id="Pfad_1927" data-name="Pfad 1927" d="M345.3,429s-25.334,9-38.334,14" transform="translate(-244.971 -429)" fill="none" stroke="#fbf49c" stroke-miterlimit="10" stroke-width="0.25" fill-rule="evenodd"/>
          <path id="Pfad_1928" data-name="Pfad 1928" d="M305.3,444c-8.334-3-25.334-6.666-25.334-6.666" transform="translate(-244.971 -429)" fill="none" stroke="#fbf49c" stroke-miterlimit="10" stroke-width="0.25" fill-rule="evenodd"/>
          <path id="Pfad_1929" data-name="Pfad 1929" d="M278.3,437.334c-11,0-22.667-.667-33-3" transform="translate(-244.971 -429)" fill="none" stroke="#fbf49c" stroke-miterlimit="10" stroke-width="0.25" fill-rule="evenodd"/>
          <path id="Pfad_1930" data-name="Pfad 1930" d="M244.971,433.667c1,9.667.334,20,.334,30" transform="translate(-244.971 -429)" fill="none" stroke="#fbf49c" stroke-miterlimit="10" stroke-width="0.25" fill-rule="evenodd"/>
          <path id="Pfad_1931" data-name="Pfad 1931" d="M245.638,463.667c12.333,10,42.449,25.583,42.449,25.583" transform="translate(-244.971 -429)" fill="none" stroke="#fbf49c" stroke-miterlimit="10" stroke-width="0.25" fill-rule="evenodd"/>
        </g>
      </g>
      <path id="Pfad_1932" data-name="Pfad 1932" d="M78.154,151.192c-32.467,6.494-13.517,46.641,12.338,27.273-14.521-.8-21.428-16.234-12.338-27.273" transform="translate(-16.36 94.925)" fill="#c1f4dc" fill-rule="evenodd"/>
      <path id="Pfad_1933" data-name="Pfad 1933" d="M525.75,364.78c-11.039,1.947-19.48,12.986-14.285,24.025,4.545,9.092,18.508,12.363,29.221,2.6-14.286-.649-21.879-14.235-14.936-26.623" transform="translate(-67.143 245.773)" fill="#c1f4dc" fill-rule="evenodd"/>
      <path id="Pfad_1934" data-name="Pfad 1934" d="M425.75,23.221c-25.776,2.446-23.776,37.28,6.494,28.571C424.307,48,413.475,37.167,425.75,23.221" transform="translate(-56.277 -6.936)" fill="#c1f4dc" fill-rule="evenodd"/>
      <path id="Pfad_1935" data-name="Pfad 1935" d="M161.3,163.333c-6.665,9.418,15.333,8.666,5.333-4-5.333-6.666-18.667,1.334-17.333,8.666,3.333,18.668,43.168,5.5,24-14.666-11.408-12-38.667.666-35.334,17.334,4,19.332,24.667,16.666,36.667,10.666" transform="translate(-29.026 94.136)" fill="none" stroke="#71a1eb" stroke-miterlimit="10" stroke-width="3" fill-rule="evenodd"/>
      <path id="Pfad_1936" data-name="Pfad 1936" d="M598.637,299.332C587.721,294,606.471,284.75,603.3,300c-1.955,9.416-21.1,2.5-16.666-8,8.834-20.92,41.834,6.681,16,18.333-25.617,11.555-35-33.333-3.668-32.665,23.334.665,30.431,34.98,5,41.332-18.018,4.5-38.666-13.332-28-32.667" transform="translate(-75.003 188.365)" fill="none" stroke="#71a1eb" stroke-miterlimit="10" stroke-width="3" fill-rule="evenodd"/>
      <g id="Gruppe_75" data-name="Gruppe 75" transform="translate(235.308 524.565)">
        <path id="Pfad_1937" data-name="Pfad 1937" d="M312.113,338.364c-4.267-1.864-11.642-1-12.636,6.74-1.256,21.646,41.371,16.055,46.4-3.494,10.034-38.985-54.093-48.047-62.142-18.531" transform="translate(-280.657 -305.623)" fill="none" stroke="#71a1eb" stroke-miterlimit="10" stroke-width="3" fill-rule="evenodd"/>
        <path id="Pfad_1938" data-name="Pfad 1938" d="M312.113,338.364c.733,15.636,30.686,2.777,16.8-14.432-22.313-27.652-62.569,15.193-43.087,37.158" transform="translate(-280.657 -305.623)" fill="none" stroke="#71a1eb" stroke-miterlimit="10" stroke-width="3" fill-rule="evenodd"/>
        <path id="Pfad_1939" data-name="Pfad 1939" d="M312.113,338.364c7.9,2.271,12.233-2.114,7.143-9.091-12.91-14.236-43.006,16.841-22.533,33.221,17.863,14.29,69.123-.244,55.65-35.169" transform="translate(-280.657 -305.623)" fill="none" stroke="#71a1eb" stroke-miterlimit="10" stroke-width="3" fill-rule="evenodd"/>
        <path id="Pfad_1940" data-name="Pfad 1940" d="M312.416,338.917" transform="translate(-280.657 -305.623)" fill="none" stroke="#71a1eb" stroke-miterlimit="10" stroke-width="1.5" fill-rule="evenodd"/>
      </g>
      <g id="Gruppe_78" data-name="Gruppe 78" transform="translate(169.593 374.803)">
        <path id="Pfad_1941" data-name="Pfad 1941" d="M213.3,284c2-9.332,4.666-21.332,7.333-30,6,8,8.667,19.333,10.667,28.668l-24-16c8.666-1.335,20.666-1.335,30-1.335-7.334,6.667-16.667,12-24,18.667" transform="translate(-207.303 -219.975)" fill="none" stroke="#f477bb" stroke-miterlimit="10" stroke-width="0.4" fill-rule="evenodd"/>
        <g id="Gruppe_76" data-name="Gruppe 76" transform="translate(13.902)">
          <path id="Pfad_1942" data-name="Pfad 1942" d="M221.205,253.741c18.182-13.637,35.065-22.727,54.545-33.766" transform="translate(-221.205 -219.975)" fill="none" stroke="#f477bb" stroke-miterlimit="10" stroke-width="0.3" fill-rule="evenodd"/>
          <path id="Pfad_1943" data-name="Pfad 1943" d="M227.049,264.78c15.047-11.736,37.013-26.623,58.442-32.468" transform="translate(-221.205 -219.975)" fill="none" stroke="#f477bb" stroke-miterlimit="10" stroke-width="0.3" fill-rule="evenodd"/>
          <path id="Pfad_1944" data-name="Pfad 1944" d="M237.3,265.332c15.418-8.457,35.85-16.787,53.382-24.578" transform="translate(-221.205 -219.975)" fill="none" stroke="#f477bb" stroke-miterlimit="10" stroke-width="0.3" fill-rule="evenodd"/>
          <path id="Pfad_1945" data-name="Pfad 1945" d="M230.295,272.125c19.835-4.391,43.7-12.189,63.176-17.384" transform="translate(-221.205 -219.975)" fill="none" stroke="#f477bb" stroke-miterlimit="10" stroke-width="0.3" fill-rule="evenodd"/>
        </g>
        <g id="Gruppe_77" data-name="Gruppe 77" transform="translate(36.918 2.776)">
          <path id="Pfad_1946" data-name="Pfad 1946" d="M244.221,245.5a310.7,310.7,0,0,1,39.5-22.75" transform="translate(-244.221 -222.751)" fill="none" stroke="#f477bb" stroke-miterlimit="10" stroke-width="0.2" fill-rule="evenodd"/>
          <path id="Pfad_1947" data-name="Pfad 1947" d="M257.721,250.751c5.75-4.5,13.25-5.75,19-9.75" transform="translate(-244.221 -222.751)" fill="none" stroke="#f477bb" stroke-miterlimit="10" stroke-width="0.2" fill-rule="evenodd"/>
          <path id="Pfad_1948" data-name="Pfad 1948" d="M254.971,261.25c12.75-6,26.5-9.75,38.75-16.749" transform="translate(-244.221 -222.751)" fill="none" stroke="#f477bb" stroke-miterlimit="10" stroke-width="0.2" fill-rule="evenodd"/>
        </g>
      </g>
      <g id="Gruppe_81" data-name="Gruppe 81" transform="translate(543.858)">
        <path id="Pfad_1949" data-name="Pfad 1949" d="M636.3,51.334c2-8.667,6.332-20.333,9.666-28.333,2,7.333,5.756,21,7,27.5-7.11-4.72-15.67-11.5-21-14.834C643.139,34.26,649,35.26,657.3,35c-3.424,4.4-13.668,11-21,16.333" transform="translate(-631.969 -6.936)" fill="none" stroke="#f477bb" stroke-miterlimit="10" stroke-width="0.4" fill-rule="evenodd"/>
        <g id="Gruppe_79" data-name="Gruppe 79" transform="translate(14)">
          <path id="Pfad_1950" data-name="Pfad 1950" d="M645.969,23C660.9,17.157,676.4,10.832,691.984,6.936" transform="translate(-645.969 -6.936)" fill="none" stroke="#f477bb" stroke-miterlimit="10" stroke-width="0.3" fill-rule="evenodd"/>
          <path id="Pfad_1951" data-name="Pfad 1951" d="M649.639,33.961C664.139,23,686.8,18.5,703.127,16.429" transform="translate(-645.969 -6.936)" fill="none" stroke="#f477bb" stroke-miterlimit="10" stroke-width="0.3" fill-rule="evenodd"/>
          <path id="Pfad_1952" data-name="Pfad 1952" d="M657.219,35.26c13.754-4.426,34.115-7.493,51-7.493" transform="translate(-645.969 -6.936)" fill="none" stroke="#f477bb" stroke-miterlimit="10" stroke-width="0.3" fill-rule="evenodd"/>
          <path id="Pfad_1953" data-name="Pfad 1953" d="M651.725,42c16.882-3.9,39.416-2.195,56.3-2.195" transform="translate(-645.969 -6.936)" fill="none" stroke="#f477bb" stroke-miterlimit="10" stroke-width="0.3" fill-rule="evenodd"/>
        </g>
        <g id="Gruppe_80" data-name="Gruppe 80" transform="translate(36.002 3.315)">
          <path id="Pfad_1954" data-name="Pfad 1954" d="M667.971,19c6.5-1.75,12.75-4,19-6a99.236,99.236,0,0,1,17.25-2.75" transform="translate(-667.971 -10.251)" fill="none" stroke="#f477bb" stroke-miterlimit="10" stroke-width="0.2" fill-rule="evenodd"/>
          <path id="Pfad_1955" data-name="Pfad 1955" d="M686.471,24c8.25.25,16.75-1.75,25-2.25" transform="translate(-667.971 -10.251)" fill="none" stroke="#f477bb" stroke-miterlimit="10" stroke-width="0.2" fill-rule="evenodd"/>
          <path id="Pfad_1956" data-name="Pfad 1956" d="M683.971,35c5,.5,10.75-1,16-1.25,4.25-.25,8.5-.25,12.75-.25" transform="translate(-667.971 -10.251)" fill="none" stroke="#f477bb" stroke-miterlimit="10" stroke-width="0.2" fill-rule="evenodd"/>
        </g>
      </g>
      <g id="Gruppe_84" data-name="Gruppe 84" transform="translate(578.526 715.718)">
        <path id="Pfad_1957" data-name="Pfad 1957" d="M671.3,470.668c3.334-7.334,4.666-17.334,8.666-24.668,2.668,7.334,6.154,17.792,6.82,25.125-6-3.333-14.82-10.457-20.152-14.457,8.834-.418,19.332-.668,28-.668-6,5.334-16.666,9.334-23.334,14.668" transform="translate(-666.637 -405.04)" fill="none" stroke="#f477bb" stroke-miterlimit="10" stroke-width="0.4" fill-rule="evenodd"/>
        <g id="Gruppe_82" data-name="Gruppe 82" transform="translate(13.658)">
          <path id="Pfad_1958" data-name="Pfad 1958" d="M680.295,445.949c15.586-13.637,32.469-31.169,51.3-40.909" transform="translate(-680.295 -405.04)" fill="none" stroke="#f477bb" stroke-miterlimit="10" stroke-width="0.3" fill-rule="evenodd"/>
          <path id="Pfad_1959" data-name="Pfad 1959" d="M683.543,455.04c16.8-10.165,35.064-24.026,51.3-34.416" transform="translate(-680.295 -405.04)" fill="none" stroke="#f477bb" stroke-miterlimit="10" stroke-width="0.3" fill-rule="evenodd"/>
          <path id="Pfad_1960" data-name="Pfad 1960" d="M694.637,456c14.554-6.631,29.814-12,43.451-18.494" transform="translate(-680.295 -405.04)" fill="none" stroke="#f477bb" stroke-miterlimit="10" stroke-width="0.3" fill-rule="evenodd"/>
          <path id="Pfad_1961" data-name="Pfad 1961" d="M686.141,462.495c15.556-1.5,38.705-6.37,54.705-8.62" transform="translate(-680.295 -405.04)" fill="none" stroke="#f477bb" stroke-miterlimit="10" stroke-width="0.3" fill-rule="evenodd"/>
        </g>
        <g id="Gruppe_83" data-name="Gruppe 83" transform="translate(36.334 4.71)">
          <path id="Pfad_1962" data-name="Pfad 1962" d="M702.971,433.25c4.25-2.25,8-6.25,12-9a95.973,95.973,0,0,1,9.75-5.5c5.25-3.25,10.75-6,15.75-9" transform="translate(-702.971 -409.75)" fill="none" stroke="#f477bb" stroke-miterlimit="10" stroke-width="0.2" fill-rule="evenodd"/>
          <path id="Pfad_1963" data-name="Pfad 1963" d="M719.221,439.75c6-3.75,12.25-8,19-10.75" transform="translate(-702.971 -409.75)" fill="none" stroke="#f477bb" stroke-miterlimit="10" stroke-width="0.2" fill-rule="evenodd"/>
          <path id="Pfad_1964" data-name="Pfad 1964" d="M719.221,452.25c8-3.25,16.75-7.75,25.25-9.25" transform="translate(-702.971 -409.75)" fill="none" stroke="#f477bb" stroke-miterlimit="10" stroke-width="0.2" fill-rule="evenodd"/>
        </g>
      </g>
      <g id="Gruppe_85" data-name="Gruppe 85" transform="translate(3.106 345.761)">
        <path id="Pfad_1965" data-name="Pfad 1965" d="M21.065,234.272c9.091-7.793,22.912-28.678,28.061-25.336,3.351,1.565-.649,8.441-3.9,11.688,6.08-5.79,11.743-13.79,16.13-9.792,2.644,2.836-5.195,9.792-9.091,12.389,3.247-1.3,8.7-5.887,11.091-3.3,4.283,3.412-18.277,16.309-28.559,23.224" transform="translate(-19.466 -208.577)" fill="#964db6" fill-rule="evenodd"/>
        <path id="Pfad_1966" data-name="Pfad 1966" d="M27.048,231.663c-12.338.649-8.441,18.181,3.247,14.286,11.039-3.9,6.494-16.234-3.9-14.286" transform="translate(-19.466 -208.577)" fill="#d66cdf" fill-rule="evenodd"/>
        <path id="Pfad_1967" data-name="Pfad 1967" d="M26.5,235.884c-6.909.365-4.727,10.182,1.819,8,6.181-2.182,3.636-9.091-2.182-8" transform="translate(-19.466 -208.577)" fill="#e6a7ec" fill-rule="evenodd"/>
        <path id="Pfad_1968" data-name="Pfad 1968" d="M26.221,241" transform="translate(-19.466 -208.577)" fill="none" stroke="#fff" stroke-miterlimit="10" stroke-width="1" fill-rule="evenodd"/>
      </g>
      <g id="Gruppe_86" data-name="Gruppe 86" transform="translate(208.548 17.995)">
        <path id="Pfad_1969" data-name="Pfad 1969" d="M249.263,52.322c3.247-7.792,9.461-11.9,14.149-18.711,6.731-9.776,17.565-12.987,9.74-.65C281.977,22,291.477,26.5,279,38.156c8.441-7.142,10.646.178,2.6,5.845-6.394,4.5-12.339,9.12-19.23,14.741" transform="translate(-249.088 -24.931)" fill="#964db6" fill-rule="evenodd"/>
        <path id="Pfad_1970" data-name="Pfad 1970" d="M254.97,45.949c-9.74,4.545-6.651,16.352,3.9,14.285,9.943-1.948,7.91-16.233-3.9-14.285" transform="translate(-249.088 -24.931)" fill="#d66cdf" fill-rule="evenodd"/>
        <path id="Pfad_1971" data-name="Pfad 1971" d="M254.932,50.1c-5.455,2.545-3.724,9.158,2.182,8,5.568-1.091,4.429-9.091-2.182-8" transform="translate(-249.088 -24.931)" fill="#e6a7ec" fill-rule="evenodd"/>
        <path id="Pfad_1972" data-name="Pfad 1972" d="M255.221,55.251" transform="translate(-249.088 -24.931)" fill="none" stroke="#fff" stroke-miterlimit="10" stroke-width="1" fill-rule="evenodd"/>
      </g>
      <g id="Gruppe_87" data-name="Gruppe 87" transform="translate(354.932 413.195)">
        <path id="Pfad_1973" data-name="Pfad 1973" d="M414.711,288.157c7.143-12.338,26.367-48.655,32.467-42.858,3.465,2.537,0,8.442-1.948,12.338,2.6-5.195,11.079-17.469,16.233-13.636,4.18,3.335-5.193,14.285-8.442,20.129,2.6-3.9,8.622-9.794,11.69-5.546,3.432,4.649-22.729,28.274-33.117,38.014" transform="translate(-413.404 -243.272)" fill="#964db6" fill-rule="evenodd"/>
        <path id="Pfad_1974" data-name="Pfad 1974" d="M425.1,282.312c-14.625-.81-15.584,18.183-2.6,18.831s18.576-16.807,2.6-18.831" transform="translate(-413.404 -243.272)" fill="#d66cdf" fill-rule="evenodd"/>
        <path id="Pfad_1975" data-name="Pfad 1975" d="M423.678,287.454c-8.192-.454-8.729,10.181-1.455,10.545s10.4-9.412,1.455-10.545" transform="translate(-413.404 -243.272)" fill="#e6a7ec" fill-rule="evenodd"/>
        <path id="Pfad_1976" data-name="Pfad 1976" d="M421.471,294" transform="translate(-413.404 -243.272)" fill="none" stroke="#fff" stroke-miterlimit="10" stroke-width="1.25" fill-rule="evenodd"/>
      </g>
      <g id="Gruppe_88" data-name="Gruppe 88" transform="translate(442.263 314.904)">
        <path id="Pfad_1977" data-name="Pfad 1977" stroke="#b9338c" d="M510.021,219.144c4.547-6.494,10.391-11.689,14.936-18.183" fill="none" transform="translate(-510.021 -189.274)" stroke-linecap="round" stroke-linejoin="round" stroke-width="6" fill-rule="evenodd"/>
        <path id="Pfad_1978" data-name="Pfad 1978" stroke="#b9338c" d="M528.854,215.9c6.494-9.09,13.636-17.532,20.128-26.622" fill="none" transform="translate(-510.021 -189.274)" stroke-linecap="round" stroke-linejoin="round" stroke-width="6" fill-rule="evenodd"/>
        <path id="Pfad_1979" data-name="Pfad 1979" stroke="#b9338c" d="M544.437,213.949c-5.2,7.142-14.882,20.778-14.882,20.778" fill="none" transform="translate(-510.021 -189.274)" stroke-linecap="round" stroke-linejoin="round" stroke-width="6" fill-rule="evenodd"/>
      </g>
      <g id="Gruppe_89" data-name="Gruppe 89" transform="translate(225.279 689.588)">
        <path id="Pfad_1980" data-name="Pfad 1980" stroke="#b9338c" d="M310.166,378.91q-11.689,10.713-21.429,21.428" fill="none" transform="translate(-267.958 -378.91)" stroke-linecap="round" stroke-linejoin="round" stroke-width="6" fill-rule="evenodd"/>
        <path id="Pfad_1981" data-name="Pfad 1981" stroke="#b9338c" d="M310.166,397.091c-7.144,7.144-13.585,13.988-21.377,19.831" fill="none" transform="translate(-267.958 -378.91)" stroke-linecap="round" stroke-linejoin="round" stroke-width="6" fill-rule="evenodd"/>
        <path id="Pfad_1982" data-name="Pfad 1982" stroke="#b9338c" d="M286.789,384.754s-11.039,12.337-18.831,20.779" fill="none" transform="translate(-267.958 -378.91)" stroke-linecap="round" stroke-linejoin="round" stroke-width="6" fill-rule="evenodd"/>
      </g>
      <g id="Gruppe_90" data-name="Gruppe 90" transform="translate(148.581 157.526)">
        <path id="Pfad_1983" data-name="Pfad 1983" d="M201.723,123.221a174.892,174.892,0,0,1,19.482-24.026" transform="translate(-182.347 -98.545)" fill="none" stroke="#b9338c" stroke-linecap="round" stroke-linejoin="round" stroke-width="6"/>
        <path id="Pfad_1984" data-name="Pfad 1984" d="M182.347,125.818c9.091-8.442,23.376-27.273,23.376-27.273" transform="translate(-182.347 -98.545)" fill="none" stroke="#b9338c" stroke-linecap="round" stroke-linejoin="round" stroke-width="6"/>
        <line id="Linie_19" data-name="Linie 19" y1="24.675" x2="20.779" transform="translate(23.116 16.234)" fill="none" stroke="#b9338c" stroke-linecap="round" stroke-linejoin="round" stroke-width="6"/>
      </g>
      <g id="Gruppe_91" data-name="Gruppe 91" transform="translate(573.066 614.982)">
        <path id="Pfad_1985" data-name="Pfad 1985" d="M670.41,385.339c.361,2.759-1.617,5.56-3.951,6.9-3.027,1.738-5.033-1.3-5.25-3.949-.236-2.886.834-6.551,4.051-7.473,2.967-.851,5.15,1.906,5.15,4.522C670.793,388.258,670.41,384.969,670.41,385.339Z" transform="translate(-661.178 -368.66)" fill="#fff" fill-rule="evenodd"/>
        <path id="Pfad_1986" data-name="Pfad 1986" d="M688.41,373.339c.361,2.759-1.617,5.56-3.951,6.9-3.027,1.738-5.033-1.3-5.25-3.949-.236-2.886.834-6.551,4.051-7.473,2.967-.851,5.15,1.906,5.15,4.522C688.793,376.258,688.41,372.969,688.41,373.339Z" transform="translate(-661.178 -368.66)" fill="#fff" fill-rule="evenodd"/>
        <path id="Pfad_1987" data-name="Pfad 1987" d="M689.6,392.885a4.5,4.5,0,0,1-2.371,4.14c-1.817,1.043-3.02-.779-3.149-2.369-.142-1.732.5-3.931,2.43-4.484,1.779-.51,3.09,1.143,3.09,2.713C689.828,394.636,689.6,392.664,689.6,392.885Z" transform="translate(-661.178 -368.66)" fill="#fff" fill-rule="evenodd"/>
      </g>
      <g id="Gruppe_92" data-name="Gruppe 92" transform="translate(141.896 633.615)">
        <path id="Pfad_1988" data-name="Pfad 1988" d="M121.573,394.907c.068,1.283.662,3.742-.547,4.691-1.356,1.066-3.295-.03-4.082-1.223-.9-1.358-1.649-3.228.131-4.275,1.245-.733,4.479-1.531,4.5.807C121.631,396.006,121.565,393.936,121.573,394.907Z" transform="translate(-115.993 -379.126)" fill="#fff" fill-rule="evenodd"/>
        <path id="Pfad_1989" data-name="Pfad 1989" d="M141.364,381.717c.114,2.139,1.1,6.237-.911,7.82-2.26,1.774-5.492-.052-6.8-2.038-1.495-2.265-2.748-5.381.218-7.127,2.075-1.221,7.465-2.551,7.5,1.345C141.461,383.551,141.351,380.1,141.364,381.717Z" transform="translate(-115.993 -379.126)" fill="#fff" fill-rule="evenodd"/>
        <path id="Pfad_1990" data-name="Pfad 1990" d="M144.364,400.717c.114,2.139,1.1,6.237-.911,7.82-2.26,1.774-5.492-.052-6.8-2.038-1.495-2.265-2.748-5.381.218-7.127,2.075-1.221,7.465-2.551,7.5,1.345C144.461,402.551,144.351,399.1,144.364,400.717Z" transform="translate(-115.993 -379.126)" fill="#fff" fill-rule="evenodd"/>
      </g>
      <g id="Gruppe_93" data-name="Gruppe 93" transform="translate(282.235 55.495)">
        <path id="Pfad_1991" data-name="Pfad 1991" d="M339.26,79.292c.389,2.387-1.94,5.5-4.477,5.482-2.357-.011-4.268-4.426-3.926-6.446.318-1.883,3.227-4.05,5.126-3.889,2.643.225,3.4,2.608,3.277,4.853C339.618,81.49,339.292,78.705,339.26,79.292Z" transform="translate(-330.817 -62.431)" fill="#fff" fill-rule="evenodd"/>
        <path id="Pfad_1992" data-name="Pfad 1992" d="M357.26,67.292c.389,2.387-1.94,5.5-4.477,5.482-2.357-.011-4.268-4.426-3.926-6.446.318-1.883,3.227-4.05,5.126-3.889,2.643.225,3.4,2.608,3.277,4.853C357.618,69.49,357.292,66.705,357.26,67.292Z" transform="translate(-330.817 -62.431)" fill="#fff" fill-rule="evenodd"/>
        <path id="Pfad_1993" data-name="Pfad 1993" d="M358.605,86.417a3.074,3.074,0,0,1-2.687,3.289c-1.414-.007-2.56-2.656-2.355-3.868a3.5,3.5,0,0,1,3.075-2.333c1.587.135,2.04,1.564,1.967,2.912C358.819,87.735,358.624,86.064,358.605,86.417Z" transform="translate(-330.817 -62.431)" fill="#fff" fill-rule="evenodd"/>
      </g>
      <g id="Gruppe_94" data-name="Gruppe 94" transform="translate(47.581 143.139)">
        <path id="Pfad_1994" data-name="Pfad 1994" d="M68.933,101.7c2.7.006,4.9.542,4.275,3.77-.568,2.946-1.863,4.449-5.09,4.524-2.38.054-3.982-2.2-4.161-4.5-.251-3.215,2.485-3.806,4.976-3.8C69.571,101.7,68.454,101.7,68.933,101.7Z" transform="translate(-63.941 -91.36)" fill="#fff" fill-rule="evenodd"/>
        <path id="Pfad_1995" data-name="Pfad 1995" d="M86.811,91.36c1.619,0,2.939.325,2.565,2.262-.34,1.768-1.118,2.67-3.053,2.714a2.7,2.7,0,0,1-2.5-2.7c-.152-1.93,1.491-2.284,2.985-2.279Z" transform="translate(-63.941 -91.36)" fill="#fff" fill-rule="evenodd"/>
        <path id="Pfad_1996" data-name="Pfad 1996" d="M89.933,108.7c2.7.006,4.9.542,4.275,3.77-.568,2.946-1.863,4.449-5.089,4.524-2.38.054-3.983-2.2-4.161-4.5-.252-3.215,2.485-3.806,4.975-3.8C90.571,108.7,89.454,108.7,89.933,108.7Z" transform="translate(-63.941 -91.36)" fill="#fff" fill-rule="evenodd"/>
      </g>
      <g id="Gruppe_95" data-name="Gruppe 95" transform="translate(568.038 66.441)">
        <path id="Pfad_1997" data-name="Pfad 1997" d="M661.609,90.441A1.966,1.966,0,0,1,659.3,92.5c-1.723-.155-3.491-.2-3.1-2.49.242-1.412,1.547-3.032,3.109-2.834,1.791.227,2.082,1.772,2.295,3.263C661.6,92.018,661.541,89.968,661.609,90.441Z" transform="translate(-656.15 -73.377)" fill="#fff" fill-rule="evenodd"/>
        <path id="Pfad_1998" data-name="Pfad 1998" d="M681.43,78.843a3.279,3.279,0,0,1-3.844,3.436c-2.871-.26-5.818-.327-5.162-4.151.4-2.354,2.576-5.053,5.18-4.723,2.988.378,3.472,2.952,3.826,5.438C681.41,81.47,681.316,78.054,681.43,78.843Z" transform="translate(-656.15 -73.377)" fill="#fff" fill-rule="evenodd"/>
        <path id="Pfad_1999" data-name="Pfad 1999" d="M684.43,97.843a3.279,3.279,0,0,1-3.844,3.436c-2.871-.26-5.818-.327-5.162-4.151.4-2.354,2.576-5.053,5.18-4.723,2.988.378,3.472,2.952,3.826,5.438C684.41,100.47,684.316,97.054,684.43,97.843Z" transform="translate(-656.15 -73.377)" fill="#fff" fill-rule="evenodd"/>
      </g>
      <g id="Gruppe_96" data-name="Gruppe 96" transform="translate(421.717 430.325)">
        <path id="Pfad_2000" data-name="Pfad 2000" d="M495.039,275.317c-.287,1.932-.6,4.2-3.076,4.064-1.992-.111-5.9-.54-5.582-3.344.236-2.113,1.826-4.73,4.088-4.942a4.236,4.236,0,0,1,4.57,4.222C494.973,275.766,495.131,272.578,495.039,275.317Z" transform="translate(-486.363 -260.74)" fill="#fff" fill-rule="evenodd"/>
        <path id="Pfad_2001" data-name="Pfad 2001" d="M511.311,263.284c-.172,1.159-.364,2.521-1.846,2.438-1.2-.067-3.537-.324-3.35-2.007.143-1.267,1.1-2.838,2.453-2.965a2.544,2.544,0,0,1,2.743,2.534C511.27,263.553,511.365,261.639,511.311,263.284Z" transform="translate(-486.363 -260.74)" fill="#fff" fill-rule="evenodd"/>
        <path id="Pfad_2002" data-name="Pfad 2002" d="M516.039,282.317c-.287,1.932-.6,4.2-3.076,4.064-1.992-.111-5.9-.54-5.582-3.344.236-2.113,1.826-4.73,4.088-4.942a4.236,4.236,0,0,1,4.57,4.222C515.973,282.766,516.131,279.578,516.039,282.317Z" transform="translate(-486.363 -260.74)" fill="#fff" fill-rule="evenodd"/>
      </g>
      <path id="Pfad_2003" data-name="Pfad 2003" d="M218.54,207.152c.068,1.283.662,3.741-.547,4.691-1.356,1.065-3.295-.031-4.082-1.222-.9-1.36-1.649-3.229.131-4.277,1.245-.733,4.479-1.53,4.5.808C218.6,208.251,218.532,206.181,218.54,207.152Z" transform="translate(-35.889 125.723)" fill="#fff" fill-rule="evenodd"/>
      <path id="Pfad_2004" data-name="Pfad 2004" d="M568.867,475.957a1.966,1.966,0,0,1-2.306,2.061c-1.723-.156-3.491-.2-3.1-2.49.242-1.412,1.547-3.032,3.109-2.834,1.791.226,2.082,1.771,2.295,3.263C568.855,477.534,568.8,475.483,568.867,475.957Z" transform="translate(-70.676 310.677)" fill="#fff" fill-rule="evenodd"/>
      <path id="Pfad_2005" data-name="Pfad 2005" d="M524.447,11.584c-.172,1.159-.361,2.521-1.843,2.439-1.2-.068-3.54-.325-3.35-2.007.141-1.268,1.094-2.838,2.451-2.965a2.54,2.54,0,0,1,2.742,2.533C524.408,11.854,524.5,9.939,524.447,11.584Z" transform="translate(-66.274 -6.936)" fill="#fff" fill-rule="evenodd"/>
      <path id="Pfad_2006" data-name="Pfad 2006" d="M22.184,318.181a4.494,4.494,0,0,1-2.371,4.139c-1.816,1.043-3.02-.779-3.148-2.369-.143-1.731.5-3.93,2.429-4.483,1.78-.511,3.09,1.143,3.09,2.713C22.415,319.931,22.184,317.958,22.184,318.181Z" transform="translate(-16.36 199.277)" fill="#fff" fill-rule="evenodd"/>
      <path id="Pfad_2007" data-name="Pfad 2007" d="M613.475,167.064a3.074,3.074,0,0,1-2.686,3.29c-1.414-.006-2.56-2.657-2.355-3.868a3.5,3.5,0,0,1,3.074-2.334c1.588.135,2.041,1.565,1.967,2.912C613.689,168.383,613.494,166.713,613.475,167.064Z" transform="translate(-89.094 97.94)" fill="#fff" fill-rule="evenodd"/>
      <path id="Pfad_2008" data-name="Pfad 2008" d="M178.832,478.6c.054,1.025.53,2.992-.438,3.752-1.084.852-2.635-.024-3.266-.978-.716-1.086-1.318-2.582.106-3.42,1-.587,3.584-1.225,3.6.646C178.878,479.479,178.826,477.823,178.832,478.6Z" transform="translate(-32.03 310.677)" fill="#fff" fill-rule="evenodd"/>
      <path id="Pfad_2009" data-name="Pfad 2009" d="M392.991,434.816a1.573,1.573,0,0,1-1.845,1.649c-1.377-.125-2.792-.157-2.477-1.992.193-1.13,1.236-2.426,2.486-2.267,1.434.181,1.666,1.418,1.836,2.61C392.981,436.078,392.937,434.437,392.991,434.816Z" transform="translate(-53.266 310.677)" fill="#fff" fill-rule="evenodd"/>
      <path id="Pfad_2010" data-name="Pfad 2010" d="M225.348,15.469c-.138.928-.29,2.018-1.475,1.951-.957-.054-2.831-.259-2.68-1.605a2.62,2.62,0,0,1,1.961-2.372,2.033,2.033,0,0,1,2.194,2.026C225.316,15.685,225.392,14.154,225.348,15.469Z" transform="translate(-36.661 -6.936)" fill="#fff" fill-rule="evenodd"/>
      <path id="Pfad_2011" data-name="Pfad 2011" d="M661.055,277.423a3.6,3.6,0,0,1-1.9,3.312c-1.453.834-2.416-.624-2.519-1.9-.114-1.383.4-3.142,1.943-3.586a2.059,2.059,0,0,1,2.473,2.171C661.238,278.823,661.055,277.245,661.055,277.423Z" transform="translate(-88.111 171.857)" fill="#fff" fill-rule="evenodd"/>
      <path id="Pfad_2012" data-name="Pfad 2012" d="M423.459,213.852a2.459,2.459,0,0,1-2.148,2.631c-1.133,0-2.049-2.125-1.885-3.094a2.8,2.8,0,0,1,2.459-1.867c1.269.108,1.633,1.252,1.574,2.33C423.631,214.906,423.475,213.57,423.459,213.852Z" transform="translate(-56.305 129.187)" fill="#fff" fill-rule="evenodd"/>
      <path id="Pfad_2013" data-name="Pfad 2013" d="M615.293,358.563c.045.82.426,2.394-.35,3-.867.682-2.107-.02-2.611-.783-.574-.869-1.055-2.067.084-2.737.8-.468,2.867-.979,2.877.518C615.332,359.266,615.289,357.941,615.293,358.563Z" transform="translate(-89.078 226.026)" fill="#fff" fill-rule="evenodd"/>
      <path id="Pfad_2014" data-name="Pfad 2014" d="M718.469,478.7a1.259,1.259,0,0,1-1.477,1.319c-1.1-.1-2.234-.125-1.982-1.594.154-.9.99-1.94,1.99-1.813,1.146.145,1.332,1.134,1.469,2.088C718.461,479.711,718.424,478.4,718.469,478.7Z" transform="translate(-88.111 310.677)" fill="#fff" fill-rule="evenodd"/>
      <path id="Pfad_2015" data-name="Pfad 2015" d="M287.4,105.88c-.109.743-.232,1.614-1.18,1.561-.765-.043-2.264-.208-2.144-1.284.091-.812.7-1.817,1.568-1.9a1.627,1.627,0,0,1,1.756,1.621C287.372,106.053,287.432,104.828,287.4,105.88Z" transform="translate(-42.863 57.576)" fill="#fff" fill-rule="evenodd"/>
      <path id="Pfad_2016" data-name="Pfad 2016" d="M86.972,238.459a2.881,2.881,0,0,1-1.518,2.65c-1.162.667-1.932-.5-2.014-1.517A2.614,2.614,0,0,1,85,236.723a1.647,1.647,0,0,1,1.977,1.736C87.12,239.581,86.972,238.317,86.972,238.459Z" transform="translate(-16.36 145.814)" fill="#fff" fill-rule="evenodd"/>
      <path id="Pfad_2017" data-name="Pfad 2017" d="M250.067,316.608a1.966,1.966,0,0,1-1.719,2.105c-.906,0-1.639-1.7-1.508-2.474a2.237,2.237,0,0,1,1.967-1.494c1.017.086,1.307,1,1.26,1.863C250.2,317.452,250.079,316.383,250.067,316.608Z" transform="translate(-39.175 197.443)" fill="#fff" fill-rule="evenodd"/>
      <path id="Pfad_2018" data-name="Pfad 2018" d="M32.677,477.116c.035.656.34,1.914-.28,2.4-.694.545-1.687-.017-2.09-.626-.458-.695-.844-1.653.068-2.189.638-.375,2.294-.783,2.3.414C32.707,477.678,32.673,476.618,32.677,477.116Z" transform="translate(-16.36 310.677)" fill="#fff" fill-rule="evenodd"/>
      <path id="Pfad_2019" data-name="Pfad 2019" d="M533.316,177.179a1.007,1.007,0,0,1-1.181,1.056c-.881-.08-1.787-.1-1.586-1.274.123-.724.791-1.553,1.592-1.452.918.116,1.066.907,1.175,1.67C533.309,177.987,533.279,176.937,533.316,177.179Z" transform="translate(-67.223 104.702)" fill="#fff" fill-rule="evenodd"/>
      <path id="Pfad_2020" data-name="Pfad 2020" d="M447.453,329.306c-.088.594-.185,1.291-.943,1.249-.614-.035-1.813-.166-1.715-1.027a1.676,1.676,0,0,1,1.254-1.519,1.3,1.3,0,0,1,1.4,1.3C447.434,329.444,447.482,328.463,447.453,329.306Z" transform="translate(-58.735 205.619)" fill="#fff" fill-rule="evenodd"/>
      <path id="Pfad_2021" data-name="Pfad 2021" d="M428.01,109.577A2.3,2.3,0,0,1,426.8,111.7c-.93.533-1.545-.4-1.609-1.214a2.087,2.087,0,0,1,1.242-2.294,1.316,1.316,0,0,1,1.582,1.389C428.129,110.473,428.01,109.462,428.01,109.577Z" transform="translate(-56.807 60.226)" fill="#fff" fill-rule="evenodd"/>
      <path id="Pfad_2022" data-name="Pfad 2022" d="M734.164,26.572a1.574,1.574,0,0,1-1.375,1.684c-.725,0-1.31-1.36-1.207-1.98a1.792,1.792,0,0,1,1.574-1.195c.813.069,1.045.8,1.008,1.491C734.273,27.247,734.174,26.392,734.164,26.572Z" transform="translate(-88.111 -6.936)" fill="#fff" fill-rule="evenodd"/>
      <path id="Pfad_2023" data-name="Pfad 2023" d="M326.347,224.52c.029.525.272,1.532-.223,1.921-.555.436-1.349-.012-1.672-.5-.368-.557-.675-1.323.054-1.752.509-.3,1.835-.626,1.841.331C326.373,224.971,326.345,224.122,326.347,224.52Z" transform="translate(-46.781 136.743)" fill="#fff" fill-rule="evenodd"/>
      <path id="Pfad_2024" data-name="Pfad 2024" d="M379.9,13.079a.805.805,0,0,1-.945.844c-.705-.064-1.43-.08-1.27-1.02.1-.578.635-1.242,1.274-1.16.734.092.853.725.941,1.336C379.9,13.725,379.874,12.885,379.9,13.079Z" transform="translate(-52.074 -6.936)" fill="#fff" fill-rule="evenodd"/>
      <path id="Pfad_2025" data-name="Pfad 2025" d="M113.369,309.512c-.071.475-.149,1.033-.755,1-.489-.027-1.449-.133-1.372-.821a1.337,1.337,0,0,1,1-1.214,1.04,1.04,0,0,1,1.123,1.037C113.352,309.623,113.391,308.838,113.369,309.512Z" transform="translate(21.598 192.474)" fill="#fff" fill-rule="evenodd"/>
      <path id="Pfad_2026" data-name="Pfad 2026" d="M469.07,487a1.843,1.843,0,0,1-.972,1.7c-.743.427-1.235-.32-1.289-.971a1.676,1.676,0,0,1,1-1.836A1.054,1.054,0,0,1,469.07,487C469.164,487.715,469.07,486.907,469.07,487Z" transform="translate(-60.89 310.677)" fill="#fff" fill-rule="evenodd"/>
      <path id="Pfad_2027" data-name="Pfad 2027" d="M23.195,22.5a1.259,1.259,0,0,1-1.1,1.347c-.581,0-1.05-1.088-.965-1.584a1.427,1.427,0,0,1,1.258-.956c.65.055.837.641.806,1.193C23.283,23.036,23.2,22.352,23.195,22.5Z" transform="translate(-16.36 -6.936)" fill="#fff" fill-rule="evenodd"/>
      <path id="Pfad_2028" data-name="Pfad 2028" d="M667.926,435.618c.033.615.318,1.795-.264,2.252-.65.509-1.58-.016-1.959-.588-.43-.653-.791-1.549.065-2.052.6-.353,2.15-.735,2.158.388C667.953,436.145,667.922,435.151,667.926,435.618Z" transform="translate(-88.111 310.677)" fill="#fff" fill-rule="evenodd"/>
      <path id="Pfad_2029" data-name="Pfad 2029" d="M24.667,167.54a.944.944,0,0,1-1.107.989c-.826-.075-1.676-.094-1.487-1.2.116-.678.743-1.456,1.493-1.36.859.108,1,.85,1.1,1.566C24.662,168.3,24.633,167.313,24.667,167.54Z" transform="translate(-16.36 98.349)" fill="#fff" fill-rule="evenodd"/>
      <path id="Pfad_2030" data-name="Pfad 2030" d="M151.217,123.245c-.082.556-.175,1.21-.884,1.17-.575-.032-1.7-.156-1.61-.963.069-.609.526-1.363,1.177-1.423a1.219,1.219,0,0,1,1.317,1.216C151.2,123.374,151.243,122.455,151.217,123.245Z" transform="translate(-15.371 69.23)" fill="#fff" fill-rule="evenodd"/>
      <path id="Pfad_2031" data-name="Pfad 2031" d="M563.357,262.774a2.158,2.158,0,0,1-1.138,1.986c-.871.5-1.449-.375-1.51-1.137a1.961,1.961,0,0,1,1.166-2.152,1.234,1.234,0,0,1,1.482,1.3C563.469,263.614,563.357,262.667,563.357,262.774Z" transform="translate(-70.202 161.869)" fill="#fff" fill-rule="evenodd"/>
      <path id="Pfad_2032" data-name="Pfad 2032" d="M386.913,304.3a1.475,1.475,0,0,1-1.289,1.579c-.68,0-1.228-1.275-1.131-1.856a1.675,1.675,0,0,1,1.475-1.12c.761.064.98.751.945,1.4C387.015,304.933,386.921,304.131,386.913,304.3Z" transform="translate(-52.76 189.174)" fill="#fff" fill-rule="evenodd"/>
      <path id="Pfad_2033" data-name="Pfad 2033" d="M288.7,463.318c.033.616.318,1.8-.263,2.252-.65.511-1.58-.015-1.959-.587-.43-.652-.791-1.551.064-2.053.6-.351,2.15-.734,2.158.388C288.726,463.845,288.7,462.852,288.7,463.318Z" transform="translate(-43.035 310.677)" fill="#fff" fill-rule="evenodd"/>
      <path id="Pfad_2034" data-name="Pfad 2034" d="M136.376,205.883a.943.943,0,0,1-1.107.99c-.826-.075-1.675-.094-1.486-1.2.116-.678.742-1.456,1.492-1.361.86.109,1,.851,1.1,1.566C136.371,206.641,136.343,205.656,136.376,205.883Z" transform="translate(30.655 123.734)" fill="#fff" fill-rule="evenodd"/>
      <path id="Pfad_2035" data-name="Pfad 2035" d="M43.877,60.259c-.082.557-.173,1.211-.884,1.171-.575-.032-1.7-.156-1.609-.963.069-.609.526-1.363,1.177-1.424a1.22,1.22,0,0,1,1.316,1.216C43.859,60.389,43.9,59.47,43.877,60.259Z" transform="translate(-16.36 -6.936)" fill="#fff" fill-rule="evenodd"/>
      <path id="Pfad_2036" data-name="Pfad 2036" d="M152.53,19.114a2.162,2.162,0,0,1-1.139,1.987c-.872.5-1.449-.374-1.511-1.138a1.962,1.962,0,0,1,1.166-2.151,1.234,1.234,0,0,1,1.484,1.3C152.64,19.954,152.53,19.007,152.53,19.114Z" transform="translate(-15.362 -6.936)" fill="#fff" fill-rule="evenodd"/>
      <path id="Pfad_2037" data-name="Pfad 2037" d="M313.124,43.912a1.476,1.476,0,0,1-1.29,1.578c-.679,0-1.229-1.275-1.13-1.856a1.675,1.675,0,0,1,1.474-1.12c.763.065.981.751.946,1.4C313.226,44.544,313.132,43.743,313.124,43.912Z" transform="translate(-45.464 -6.936)" fill="#fff" fill-rule="evenodd"/>
      <path id="Pfad_2038" data-name="Pfad 2038" d="M666.537,163.29c.033.616.318,1.8-.262,2.252-.65.511-1.582-.016-1.961-.587-.429-.653-.791-1.55.065-2.053.6-.352,2.15-.735,2.158.388C666.564,163.817,666.533,162.824,666.537,163.29Z" transform="translate(-88.111 96.22)" fill="#fff" fill-rule="evenodd"/>
      <path id="Pfad_2039" data-name="Pfad 2039" d="M479.949,227.623a.945.945,0,0,1-1.107.989c-.826-.075-1.676-.094-1.488-1.195.117-.678.744-1.456,1.494-1.36.859.109,1,.85,1.1,1.566C479.943,228.38,479.914,227.4,479.949,227.623Z" transform="translate(-61.95 138.127)" fill="#fff" fill-rule="evenodd"/>
      <path id="Pfad_2040" data-name="Pfad 2040" d="M151.216,440.692c-.082.557-.174,1.21-.884,1.17-.575-.032-1.7-.156-1.609-.963a1.573,1.573,0,0,1,1.176-1.424,1.221,1.221,0,0,1,1.317,1.217C151.2,440.821,151.243,439.9,151.216,440.692Z" transform="translate(-15.371 310.677)" fill="#fff" fill-rule="evenodd"/>
      <path id="Pfad_2041" data-name="Pfad 2041" d="M117.3,485.456a2.156,2.156,0,0,1-1.138,1.986c-.871.5-1.449-.374-1.51-1.137a1.96,1.96,0,0,1,1.166-2.152,1.234,1.234,0,0,1,1.482,1.3C117.408,486.3,117.3,485.348,117.3,485.456Z" transform="translate(23.006 310.677)" fill="#fff" fill-rule="evenodd"/>
      <path id="Pfad_2042" data-name="Pfad 2042" d="M561.893,421.832a1.477,1.477,0,0,1-1.289,1.58c-.68,0-1.229-1.275-1.131-1.857a1.673,1.673,0,0,1,1.474-1.12c.764.064.981.751.946,1.4C561.994,422.465,561.9,421.665,561.893,421.832Z" transform="translate(-70.062 310.677)" fill="#fff" fill-rule="evenodd"/>
      <path id="Pfad_2043" data-name="Pfad 2043" d="M731.937,356.923c.026.462.239,1.347-.2,1.689-.486.383-1.183-.012-1.469-.44-.322-.49-.593-1.163.049-1.539.448-.265,1.614-.552,1.617.29C731.959,357.319,731.936,356.573,731.937,356.923Z" transform="translate(-88.111 224.321)" fill="#fff" fill-rule="evenodd"/>
      <path id="Pfad_2044" data-name="Pfad 2044" d="M340.818,384.907a.708.708,0,0,1-.83.742c-.619-.057-1.257-.07-1.115-.9.086-.507.556-1.091,1.119-1.019.644.08.749.637.826,1.174C340.814,385.475,340.792,384.737,340.818,384.907Z" transform="translate(-48.226 242.184)" fill="#fff" fill-rule="evenodd"/>
      <path id="Pfad_2045" data-name="Pfad 2045" d="M36.53,393.37c-.061.418-.132.908-.663.879-.431-.026-1.275-.118-1.207-.723a1.181,1.181,0,0,1,.883-1.069.915.915,0,0,1,.987.913C36.516,393.467,36.549,392.778,36.53,393.37Z" transform="translate(-16.36 279.597)" fill="#fff" fill-rule="evenodd"/>
      <path id="Pfad_2046" data-name="Pfad 2046" d="M178.676,387.456a1.621,1.621,0,0,1-.854,1.49c-.654.375-1.087-.281-1.132-.854a1.467,1.467,0,0,1,.874-1.613.926.926,0,0,1,1.112.977C178.759,388.087,178.676,387.375,178.676,387.456Z" transform="translate(-32.203 244.339)" fill="#fff" fill-rule="evenodd"/>
      <path id="Pfad_2047" data-name="Pfad 2047" d="M491.609,393.285a1.106,1.106,0,0,1-.966,1.184c-.51,0-.922-.957-.848-1.392a1.254,1.254,0,0,1,1.1-.84c.573.048.737.562.709,1.048C491.686,393.759,491.615,393.158,491.609,393.285Z" transform="translate(-63.133 247.972)" fill="#fff" fill-rule="evenodd"/>
      <path id="Pfad_2048" data-name="Pfad 2048" d="M637,475.419c.023.462.238,1.347-.2,1.689-.489.383-1.186-.012-1.471-.44-.322-.49-.592-1.163.049-1.54.447-.264,1.613-.551,1.619.291C637.023,475.815,637,475.069,637,475.419Z" transform="translate(-131.071 310.677)" fill="#fff" fill-rule="evenodd"/>
      <path id="Pfad_2049" data-name="Pfad 2049" d="M202.706,425.712a.709.709,0,0,1-.831.742c-.619-.057-1.255-.071-1.115-.9.088-.509.557-1.092,1.119-1.02.647.081.75.637.827,1.175C202.7,426.279,202.681,425.541,202.706,425.712Z" transform="translate(-34.579 310.677)" fill="#fff" fill-rule="evenodd"/>
      <path id="Pfad_2050" data-name="Pfad 2050" d="M155.254,286.407c-.061.418-.129.908-.663.878-.431-.025-1.273-.116-1.207-.722a1.182,1.182,0,0,1,.883-1.068.914.914,0,0,1,.987.912C155.24,286.5,155.275,285.815,155.254,286.407Z" transform="translate(-15.337 177.184)" fill="#fff" fill-rule="evenodd"/>
      <path id="Pfad_2051" data-name="Pfad 2051" d="M499.842,157.706a1.62,1.62,0,0,1-.854,1.49c-.654.375-1.088-.281-1.133-.854a1.468,1.468,0,0,1,.874-1.613.925.925,0,0,1,1.113.977C499.924,158.336,499.842,157.626,499.842,157.706Z" transform="translate(-63.941 92.22)" fill="#fff" fill-rule="evenodd"/>
      <path id="Pfad_2052" data-name="Pfad 2052" d="M635.889,104.184a1.1,1.1,0,0,1-.967,1.184c-.51,0-.922-.956-.848-1.392a1.259,1.259,0,0,1,1.106-.84c.572.049.736.563.709,1.048C635.967,104.659,635.9,104.058,635.889,104.184Z" transform="translate(-131.511 56.707)" fill="#fff" fill-rule="evenodd"/>
      <path id="Pfad_2053" data-name="Pfad 2053" d="M128.664,130.858c.026.462.24,1.347-.2,1.689-.488.384-1.185-.011-1.47-.44-.323-.489-.593-1.162.048-1.539.449-.265,1.614-.551,1.618.29C128.685,131.254,128.662,130.509,128.664,130.858Z" transform="translate(27.761 74.708)" fill="#fff" fill-rule="evenodd"/>
      <path id="Pfad_2054" data-name="Pfad 2054" d="M395.272,72.99a.709.709,0,0,1-.832.742c-.619-.056-1.255-.07-1.115-.9.088-.508.559-1.092,1.121-1.02.645.082.748.638.826,1.174C395.267,73.558,395.245,72.82,395.272,72.99Z" transform="translate(-53.606 -6.936)" fill="#fff" fill-rule="evenodd"/>
      <path id="Pfad_2055" data-name="Pfad 2055" d="M738.641,318.73c-.063.417-.131.907-.664.878-.43-.025-1.274-.117-1.207-.723a1.178,1.178,0,0,1,.882-1.067.917.917,0,0,1,.989.912C738.625,318.827,738.66,318.137,738.641,318.73Z" transform="translate(-88.111 198.548)" fill="#fff" fill-rule="evenodd"/>
      <path id="Pfad_2056" data-name="Pfad 2056" d="M739.7,168.24a1.617,1.617,0,0,1-.853,1.49c-.655.375-1.086-.281-1.133-.853a1.466,1.466,0,0,1,.875-1.613.924.924,0,0,1,1.111.976C739.783,168.87,739.7,168.16,739.7,168.24Z" transform="translate(-88.111 99.195)" fill="#fff" fill-rule="evenodd"/>
      <path id="Pfad_2057" data-name="Pfad 2057" d="M616.318,20.558a1.106,1.106,0,0,1-.966,1.184c-.51,0-.92-.956-.848-1.392a1.259,1.259,0,0,1,1.107-.841c.573.049.735.564.707,1.049C616.4,21.032,616.326,20.431,616.318,20.558Z" transform="translate(-139.336 -6.936)" fill="#fff" fill-rule="evenodd"/>
      <path id="Pfad_2058" data-name="Pfad 2058" d="M291.621,179.29a.945.945,0,0,1-1.108.989c-.826-.075-1.676-.094-1.487-1.2.116-.678.743-1.456,1.493-1.36.859.108,1,.85,1.1,1.566C291.615,180.047,291.586,179.063,291.621,179.29Z" transform="translate(-43.324 106.128)" fill="#fff" fill-rule="evenodd"/>
      <path id="Pfad_2059" data-name="Pfad 2059" d="M257.554,94.806" transform="translate(-40.128 -6.936)" fill="none" stroke="#611ba5" stroke-miterlimit="10" stroke-width="1"/>
      <path id="Pfad_2060" data-name="Pfad 2060" d="M214.971,316" transform="translate(-35.932 196.589)" fill="none" stroke="#611ba5" stroke-miterlimit="10" stroke-width="1"/>
      <path id="Pfad_2061" data-name="Pfad 2061" d="M521.971,481" transform="translate(-66.185 310.677)" fill="none" stroke="#611ba5" stroke-miterlimit="10" stroke-width="1"/>
      <path id="Pfad_2062" data-name="Pfad 2062" d="M579.971,192" transform="translate(-71.901 114.933)" fill="none" stroke="#611ba5" stroke-miterlimit="10" stroke-width="1"/>
      <path id="Pfad_2063" data-name="Pfad 2063" d="M35.971,280" transform="translate(-16.36 172.882)" fill="none" stroke="#611ba5" stroke-miterlimit="10" stroke-width="1"/>
      <path id="Pfad_2064" data-name="Pfad 2064" d="M732.971,290" transform="translate(-88.111 179.467)" fill="none" stroke="#611ba5" stroke-miterlimit="10" stroke-width="1"/>
      <path id="Pfad_2065" data-name="Pfad 2065" d="M468.971,21" transform="translate(-60.962 -6.936)" fill="none" stroke="#611ba5" stroke-miterlimit="10" stroke-width="1"/>
      <path id="Pfad_2066" data-name="Pfad 2066" d="M17.971,55" transform="translate(-16.36 -6.936)" fill="none" stroke="#611ba5" stroke-miterlimit="10" stroke-width="0.75"/>
      <path id="Pfad_2067" data-name="Pfad 2067" d="M197.971,186" transform="translate(-34.257 110.982)" fill="none" stroke="#611ba5" stroke-miterlimit="10" stroke-width="0.75"/>
      <path id="Pfad_2068" data-name="Pfad 2068" d="M547.971,300" transform="translate(-68.747 186.053)" fill="none" stroke="#611ba5" stroke-miterlimit="10" stroke-width="0.75"/>
      <path id="Pfad_2069" data-name="Pfad 2069" d="M712.971,104" transform="translate(-88.111 56.983)" fill="none" stroke="#611ba5" stroke-miterlimit="10" stroke-width="0.75"/>
      <path id="Pfad_2070" data-name="Pfad 2070" d="M77.971,425" transform="translate(-16.36 310.677)" fill="none" stroke="#611ba5" stroke-miterlimit="10" stroke-width="0.75"/>
      <path id="Pfad_2071" data-name="Pfad 2071" d="M676.971,416" transform="translate(-88.111 310.677)" fill="none" stroke="#611ba5" stroke-miterlimit="10" stroke-width="0.75"/>
      <path id="Pfad_2072" data-name="Pfad 2072" d="M438.971,78" transform="translate(-58.006 -6.936)" fill="none" stroke="#611ba5" stroke-miterlimit="10" stroke-width="0.5"/>
      <path id="Pfad_2073" data-name="Pfad 2073" d="M267.971,205" transform="translate(-41.155 123.494)" fill="none" stroke="#611ba5" stroke-miterlimit="10" stroke-width="0.5"/>
      <path id="Pfad_2074" data-name="Pfad 2074" d="M43.971,142" transform="translate(-16.36 82.007)" fill="none" stroke="#611ba5" stroke-miterlimit="10" stroke-width="0.5"/>
      <path id="Pfad_2075" data-name="Pfad 2075" d="M351.971,406" transform="translate(-49.433 310.677)" fill="none" stroke="#611ba5" stroke-miterlimit="10" stroke-width="0.5"/>
      <path id="Pfad_2076" data-name="Pfad 2076" d="M646.971,362" transform="translate(-126.94 226.881)" fill="none" stroke="#611ba5" stroke-miterlimit="10" stroke-width="0.5"/>
      <path id="Pfad_2077" data-name="Pfad 2077" d="M627.971,80" transform="translate(-134.507 -6.936)" fill="none" stroke="#611ba5" stroke-miterlimit="10" stroke-width="0.5"/>
      <path id="Pfad_2078" data-name="Pfad 2078" d="M484.971,191" transform="translate(-62.539 114.275)" fill="none" stroke="#611ba5" stroke-miterlimit="10" stroke-width="0.85"/>
      <path id="Pfad_2079" data-name="Pfad 2079" d="M184.971,442" transform="translate(-32.976 310.677)" fill="none" stroke="#611ba5" stroke-miterlimit="10" stroke-width="0.85"/>
      <path id="Pfad_2080" data-name="Pfad 2080" d="M330.971,118" transform="translate(-47.363 66.203)" fill="none" stroke="#611ba5" stroke-miterlimit="10" stroke-width="0.85"/>
      <path id="Pfad_2081" data-name="Pfad 2081" d="M633.971,274" transform="translate(-132.118 168.931)" fill="none" stroke="#611ba5" stroke-miterlimit="10" stroke-width="0.85"/>
      <path id="Pfad_2082" data-name="Pfad 2082" d="M389.972,192" transform="translate(-53.177 114.933)" fill="none" stroke="#611ba5" stroke-miterlimit="10" stroke-width="1.25"/>
      <path id="Pfad_2083" data-name="Pfad 2083" d="M384.972,488" transform="translate(-52.685 310.677)" fill="none" stroke="#611ba5" stroke-miterlimit="10" stroke-width="1.25"/>
      <path id="Pfad_2084" data-name="Pfad 2084" d="M78.971,483" transform="translate(-16.36 310.677)" fill="none" stroke="#611ba5" stroke-miterlimit="10" stroke-width="1.25"/>
      <path id="Pfad_2085" data-name="Pfad 2085" d="M707.971,217" transform="translate(-88.111 131.396)" fill="none" stroke="#611ba5" stroke-miterlimit="10" stroke-width="1.25"/>
      <path id="Pfad_2086" data-name="Pfad 2086" d="M190.971,18" transform="translate(-33.567 -6.936)" fill="none" stroke="#611ba5" stroke-miterlimit="10" stroke-width="1.25"/>
      <path id="Pfad_2087" data-name="Pfad 2087" d="M586.971,379" transform="translate(-72.591 238.076)" fill="none" stroke="#611ba5" stroke-miterlimit="10" stroke-width="1.25"/>
      <path id="Pfad_2088" data-name="Pfad 2088" d="M527.971,123" transform="translate(-66.776 69.495)" fill="none" stroke="#611ba5" stroke-miterlimit="10" stroke-width="1.25"/>
      <path id="Pfad_2089" data-name="Pfad 2089" d="M111.971,176" transform="translate(21.717 104.397)" fill="none" stroke="#611ba5" stroke-miterlimit="10" stroke-width="1.25"/>
      <path id="Pfad_2090" data-name="Pfad 2090" d="M433.971,432" transform="translate(-57.513 310.677)" fill="none" stroke="#611ba5" stroke-miterlimit="10" stroke-width="1.25"/>
      <path id="Pfad_2091" data-name="Pfad 2091" d="M111.971,336" transform="translate(21.717 209.759)" fill="none" stroke="#611ba5" stroke-miterlimit="10" stroke-width="1.25"/>
      <path id="Pfad_2092" data-name="Pfad 2092" d="M406.971,326" transform="translate(-54.853 203.174)" fill="none" stroke="#611ba5" stroke-miterlimit="10" stroke-width="1.5"/>
      <path id="Pfad_2093" data-name="Pfad 2093" d="M353.971,48" transform="translate(-49.63 -6.936)" fill="none" stroke="#611ba5" stroke-miterlimit="10" stroke-width="1"/>
      <path id="Pfad_2094" data-name="Pfad 2094" d="M582.971,15" transform="translate(-72.196 -6.936)" fill="none" stroke="#611ba5" stroke-miterlimit="10" stroke-width="1.5"/>
      <path id="Pfad_2095" data-name="Pfad 2095" d="M27.971,364" transform="translate(-16.36 228.198)" fill="none" stroke="#611ba5" stroke-miterlimit="10" stroke-width="1.5"/>
      <path id="Pfad_2096" data-name="Pfad 2096" d="M609.971,466" transform="translate(-89.113 310.677)" fill="none" stroke="#611ba5" stroke-miterlimit="10" stroke-width="1.5"/>
    </g>
  </g>
</svg>
