<?xml version="1.0" encoding="utf-8"?>
<!-- Generator: Adobe Illustrator 24.0.1, SVG Export Plug-In . SVG Version: 6.00 Build 0)  -->
<svg version="1.1" id="Layer_1" xmlns="http://www.w3.org/2000/svg" xmlns:xlink="http://www.w3.org/1999/xlink" x="0px" y="0px"
	 viewBox="0 0 1366 768" style="enable-background:new 0 0 1366 768;" xml:space="preserve">
<style type="text/css">
	.st0{fill:#2A1142;}
	.st1{fill:#34154C;}
	.st2{fill:#29B6C0;}
	.st3{fill:#FBC9E4;}
	.st4{fill-rule:evenodd;clip-rule:evenodd;fill:#FBC9E4;}
	.st5{fill-rule:evenodd;clip-rule:evenodd;fill:#29B6C0;}
	.st6{fill-rule:evenodd;clip-rule:evenodd;fill:#2FE4DF;}
	.st7{fill-rule:evenodd;clip-rule:evenodd;fill:#EEB820;}
	.st8{fill-rule:evenodd;clip-rule:evenodd;fill:#F8EC5A;}
	.st9{fill-rule:evenodd;clip-rule:evenodd;fill:#FF4598;}
	.st10{fill-rule:evenodd;clip-rule:evenodd;fill:#FF6AAD;}
	.st11{fill-rule:evenodd;clip-rule:evenodd;fill:#FF0081;}
	.st12{opacity:0.7;}
	.st13{fill-rule:evenodd;clip-rule:evenodd;fill:#BF0061;}
	.st14{fill-rule:evenodd;clip-rule:evenodd;fill:#BF3472;}
	.st15{fill:#FBF49C;}
	.st16{fill-rule:evenodd;clip-rule:evenodd;fill:#B38A18;}
	.st17{fill:#EEB820;}
	.st18{fill:#2FE4DF;}
	.st19{fill-rule:evenodd;clip-rule:evenodd;fill:#3D36BC;}
	.st20{fill-rule:evenodd;clip-rule:evenodd;fill:#5148FB;}
	.st21{fill-rule:evenodd;clip-rule:evenodd;fill:#C1F4DC;}
	.st22{fill:#71A1EB;}
	.st23{fill:#F477BB;}
	.st24{fill-rule:evenodd;clip-rule:evenodd;fill:#964DB6;}
	.st25{fill-rule:evenodd;clip-rule:evenodd;fill:#D66CDF;}
	.st26{fill-rule:evenodd;clip-rule:evenodd;fill:#E6A7EC;}
	.st27{fill:#FFFFFF;}
	.st28{fill:#B9338C;}
	.st29{fill-rule:evenodd;clip-rule:evenodd;fill:#FFFFFF;}
	.st30{fill:#611BA5;}
</style>
<g>
	<g>
		<rect x="308" y="134.1" class="st0" width="750" height="500"/>
		<g>
			<path class="st1" d="M338.1,344.1c24,2.9,51.1,10.8,73.9-1.3c8.3-4.4,14.5-11.2,18.2-19.7c3.7-8.4,5.3-17.6,6.8-26.6
				c1.6-9.5,3.1-19.2,6.2-28.4c3.6-10.5,9.2-20.5,16.8-28.5c14.7-15.6,35.2-21.5,54.9-28.1c11.1-3.7,22.7-7.4,32.7-13.6
				c10-6.2,18.4-14.9,24.9-24.7c7.7-11.7,13.2-25.2,15.6-39.2H308v210.2C317.9,342.4,328.1,342.9,338.1,344.1z"/>
			<path class="st1" d="M436.1,624.8c-9.1-14.7-22.1-26.6-31.4-41.2c-5.8-9.2-9.8-19.6-9.8-30.6c-0.1-10,2.7-19.7,6.5-28.8
				c8.4-19.9,21.6-37.6,28-58.4c5.7-18.5,5-41.5-11.3-54.6c-14.1-11.3-34.1-11.6-50.3-5.2c-10.9,4.3-20.1,11.6-28.4,19.8
				c-9.5,9.5-17.7,20.1-25,31.4c-2.2,3.4-4.4,6.9-6.5,10.4v166.4h132.7C439.5,630.8,437.9,627.8,436.1,624.8z"/>
			<path class="st1" d="M919,134.1H764c-1.1,3.9-1.9,7.8-2.6,11.6c-2.8,16.4-3.4,33.1-6.7,49.4c-2.8,14.2-8.1,28.9-20.2,37.7
				c-6.9,5.1-15.1,7.6-23.5,8.9c-15,2.3-30,3.5-45.1,4.9c-14.4,1.3-28.9,2.8-43,6.2c-15.2,3.7-29.8,9.5-43.2,17.6
				c-24.6,14.8-46.5,39.3-54.8,67.1c-4.3,14.3-4.9,29.2-1.4,43.7c3.2,13.5,9,26.2,14.3,39.1c5,12.2,9.6,25,10,38.3
				c0.4,13.6-3.5,26.3-11.2,37.5c-7.3,10.6-16.7,19.5-24.7,29.6c-9.5,12-15.3,25.4-16.3,40.8c-1.5,23.1,6.2,45.2,10.7,67.6h128
				c-0.1-9.7-0.8-19.4-0.8-29.1c-0.1-14.6-2-29.2-3.2-43.8c-1.2-14.2-2.3-28.3-2.7-42.6c-0.4-15.3-0.5-30.7,2.6-45.7
				c2.6-12.6,7-24.9,13.3-36.2c12.5-22.6,32.1-41.1,55.9-51.4c12.3-5.3,25.4-8.9,38.9-8.9c14.1-0.1,28,2.8,41.7,6
				c27.3,6.5,57.6,16.5,85.3,6.1c13.6-5.1,24.1-14.7,29.3-28.4c4.7-12.4,5.6-26,4.6-39.1c-2.5-35.2-10.9-69.9-10.7-105.3
				c0.1-26.5,8.8-53.6,24.9-74.7C915.1,138.5,917,136.3,919,134.1z"/>
			<path class="st1" d="M968.9,170.2c-7.3,14.1-15.9,32.4-10,48.6c5.3,14.6,22.3,24.8,37.7,23.3c15-1.4,28-11,39.6-19.8
				c7.2-5.4,14.3-11.3,21.8-16.5v-71.8h-68.4C983,146.3,975.3,157.9,968.9,170.2z"/>
			<path class="st1" d="M1016.6,295.8c-8.7,5-16,12.1-21,20.8c-6.3,11.1-9.6,24.2-10.4,36.8c-1.7,28.2,7.3,55.6,9.6,83.5
				c0.6,7,0.8,14.1,0.3,21.2c-0.4,5.8-1,11.8-2.9,17.3c-2.5,7.3-7.2,13.5-13.8,17.6c-14.7,9.1-33.8,8.9-50.5,8.6
				c-8.9-0.2-17.8-0.7-26.8-0.6c-9.8,0.1-19.6,1.4-29.2,3.6c-21.1,4.8-41.7,13.8-57.8,28.4c-16.4,14.8-27.1,34.7-30.6,56.5
				c-2.3,14.6-1.8,29.7-1.4,44.5H1058V285.8C1043.4,286,1029,288.7,1016.6,295.8z"/>
		</g>
	</g>
	<g>
		<g>
			<g>
				<path class="st2" d="M514.8,602.4c3-5.4,5.6-10.9,7.5-16.7c-0.4,0-0.8,0-1.2,0c1.2,5.4,2.3,10.9,2.9,16.4
					c0.4-0.1,0.7-0.3,1.1-0.4c-3.2-2.6-6.4-5.3-9.6-7.9c-0.5-0.4-0.9-0.8-1.4-1.2c-0.1,0.4-0.3,0.7-0.4,1.1
					c4.8-0.5,9.7-0.6,14.5-0.6c-0.1-0.4-0.3-0.7-0.4-1.1c-2.5,2.3-5.2,4.3-8.1,6.2c-1.7,1.2-3.7,2.6-5.6,3.3
					c-0.7,0.3-0.4,1.5,0.3,1.2c2.1-0.9,4-2.2,5.9-3.5c2.9-2,5.7-4.1,8.3-6.4c0.4-0.4,0.1-1.1-0.4-1.1c-4.9,0-9.7,0.1-14.5,0.6
					c-0.5,0.1-0.9,0.7-0.4,1.1c3.2,2.6,6.4,5.3,9.6,7.9c0.5,0.4,0.9,0.8,1.4,1.2c0.4,0.3,1.1,0.2,1.1-0.4c-0.6-5.6-1.8-11.2-3-16.7
					c-0.1-0.6-1-0.5-1.2,0c-1.9,5.7-4.5,11.1-7.4,16.4C513.3,602.5,514.4,603.1,514.8,602.4L514.8,602.4z"/>
			</g>
		</g>
		<g>
			<g>
				<path class="st2" d="M883,369.9c1.9-3.3,3.9-6.5,5.6-9.8c1.6-3.1,3-6.4,4.1-9.7c-0.4-0.1-0.8-0.1-1.2-0.2
					c0.6,6.9,3.6,13.4,3.7,20.4c0.4-0.1,0.8-0.2,1.2-0.3c-3.9-5.1-8.9-9-13.4-13.5c-0.1,0.4-0.3,0.7-0.4,1.1c5.9,0,12.3-0.8,18,1.3
					c0-0.4-0.1-0.8-0.1-1.1c-5.7,4.2-12.5,6.8-18.2,11c-0.6,0.5,0,1.6,0.6,1.1c5.7-4.3,12.5-6.8,18.2-11c0.4-0.3,0.4-0.9-0.1-1.1
					c-5.8-2.1-12.3-1.3-18.3-1.3c-0.5,0-0.8,0.7-0.4,1.1c4.4,4.4,9.4,8.2,13.2,13.2c0.3,0.5,1.2,0.4,1.2-0.3c0-7-3-13.5-3.7-20.4
					c-0.1-0.7-1-0.9-1.2-0.2c-2.3,6.9-6,13-9.6,19.2C881.5,370,882.6,370.6,883,369.9L883,369.9z"/>
			</g>
		</g>
		<g>
			<g>
				<path class="st2" d="M1030.3,218c1.6-3.3,3-6.7,4.5-10.1c0.7-1.5,1.3-3,2-4.5c0.2-0.5,0.5-1,0.7-1.5c0.1-0.1,0.2-0.3,0.3-0.5
					c0-0.1,0.2,0-0.1,0c-0.3-0.1-0.5-0.3-0.8-0.4c0.9,5.7,1.9,11.6,1.9,17.4c0.4-0.1,0.7-0.3,1.1-0.4c-3-3.2-6-6.4-9.1-9.6
					c-0.4-0.5-0.9-0.9-1.3-1.4c-0.1,0.4-0.3,0.7-0.4,1.1c4.8,0,9.5,0,14.3,0c-0.1-0.4-0.2-0.8-0.3-1.2c-4.7,3.4-9.4,6.8-13.8,10.5
					c-0.6,0.5,0.3,1.4,0.9,0.9c4.4-3.6,9-7,13.6-10.3c0.5-0.3,0.4-1.2-0.3-1.2c-4.8,0-9.5,0-14.3,0c-0.6,0-0.8,0.7-0.4,1.1
					c3,3.2,6,6.4,9.1,9.6c0.4,0.5,0.9,0.9,1.3,1.4c0.4,0.4,1.1,0.1,1.1-0.4c0-5.9-1-11.9-2-17.7c-0.1-0.4-0.5-0.5-0.8-0.4
					c-0.7,0.1-1.1,1.4-1.4,1.9c-0.7,1.5-1.4,3-2.1,4.5c-1.6,3.6-3,7.2-4.8,10.7C1028.9,218.1,1030,218.7,1030.3,218L1030.3,218z"/>
			</g>
		</g>
		<g>
			<g>
				<path class="st2" d="M651.4,163.7c0.9-3.7,2.3-7.3,3.6-10.9c0.9-2.4,1.8-4.7,2.7-7c-0.4,0-0.8,0-1.2,0
					c1.2,5.1,2.5,10.2,3.7,15.3c0.2,0.7,0.4,1.5,0.5,2.2c0.3-0.2,0.7-0.4,1-0.6c-4-3.3-9-5.4-12.7-9.1c-0.1,0.4-0.3,0.7-0.4,1.1
					c5.2-0.6,10.4-0.6,15.6-0.6c-0.1-0.4-0.3-0.7-0.4-1.1c-3.8,4.1-8.7,7-13.3,10.1c-0.7,0.4,0,1.5,0.6,1.1
					c4.7-3.1,9.7-6.1,13.6-10.3c0.4-0.4,0.1-1.1-0.4-1.1c-5.2,0-10.4,0-15.6,0.6c-0.5,0.1-0.9,0.7-0.4,1.1c3.7,3.7,8.7,5.8,12.7,9.1
					c0.5,0.4,1.2,0,1-0.6c-1.2-5.1-2.5-10.2-3.7-15.3c-0.2-0.7-0.4-1.5-0.5-2.2c-0.2-0.7-1-0.5-1.2,0c-0.9,2.3-1.8,4.7-2.7,7
					c-1.3,3.6-2.7,7.2-3.6,10.9C650,164.2,651.2,164.5,651.4,163.7L651.4,163.7z"/>
			</g>
		</g>
		<g>
			<g>
				<path class="st2" d="M327.2,240.6c0.2-0.6,0.4-1.2,0.6-1.9c0.5-1.2,0.9-2.5,1.4-3.7c1-2.7,2.1-5.4,3.1-8.1
					c0.2-0.6,0.5-1.3,0.7-1.9c-0.4,0-0.8,0-1.2,0c1.1,5.1,2.2,10.3,3.6,15.3c0.3-0.2,0.6-0.5,0.9-0.7c-3.4-2.4-6.8-4.8-10.2-7.1
					c-0.5-0.3-1-0.7-1.5-1c0,0.4-0.1,0.8-0.1,1.1c4.3-1.4,9-0.6,13.5-0.6c-0.1-0.4-0.3-0.7-0.4-1.1c-3.3,2.7-6.7,5.3-10,8
					c-0.5,0.4-0.9,0.8-1.4,1.1c-0.6,0.5,0.3,1.4,0.9,0.9c3.3-2.7,6.7-5.3,10-8c0.5-0.4,0.9-0.8,1.4-1.1c0.4-0.4,0.1-1.1-0.4-1.1
					c-4.6,0-9.4-0.8-13.8,0.7c-0.5,0.2-0.6,0.8-0.1,1.1c3.4,2.4,6.8,4.8,10.2,7.1c0.5,0.3,1,0.7,1.5,1c0.5,0.3,1.1-0.2,0.9-0.7
					c-1.4-5-2.5-10.2-3.6-15.3c-0.1-0.7-1-0.5-1.2,0c-1.7,4.4-3.4,8.9-5,13.3c-0.3,0.7-0.6,1.5-0.8,2.3
					C325.8,241,327,241.3,327.2,240.6L327.2,240.6z"/>
			</g>
		</g>
		<g>
			<g>
				<path class="st2" d="M762.3,559.4c2.5-6.2,5-12.5,7.1-18.8c-0.4,0-0.8,0-1.2,0c1.6,6.3,3,12.8,3.6,19.4c0.4-0.1,0.7-0.3,1.1-0.4
					c-4.1-4.1-8.3-8.1-12.7-11.7c-0.1,0.4-0.3,0.7-0.4,1.1c5.8,0,11.5,0.6,17.2,0.6c-0.1-0.4-0.3-0.7-0.4-1.1
					c-4.3,4.3-9.2,8.3-15,10.2c-0.8,0.3-0.4,1.5,0.3,1.2c6-2,11.1-6.1,15.6-10.6c0.4-0.4,0.1-1.1-0.4-1.1
					c-5.8-0.1-11.5-0.6-17.2-0.6c-0.5,0-0.9,0.7-0.4,1.1c4.5,3.6,8.7,7.7,12.7,11.7c0.4,0.4,1.1,0.1,1.1-0.4
					c-0.6-6.6-2.1-13.2-3.7-19.7c-0.2-0.6-1-0.6-1.2,0c-2.1,6.4-4.6,12.6-7.1,18.8C760.8,559.8,762,560.1,762.3,559.4L762.3,559.4z"
					/>
			</g>
		</g>
		<g>
			<g>
				<g>
					<path class="st3" d="M461.6,450.3c1.3-3.8,1.8-7.9,3.2-11.7c-0.4,0-0.8,0-1.2,0c0.9,3.7,1.8,7.4,2.6,11
						c0.1,0.4,0.6,0.6,0.9,0.4c3.6-2.6,7.3-5.2,10.9-7.8c-0.3-0.2-0.6-0.5-0.9-0.7c-1.2,3.9-2.8,8.4-5.6,11.4c-0.3,0.3-0.2,1,0.3,1
						c4.6,0.6,9.2,0.7,13.6,1.9c0-0.4,0-0.8,0-1.2c-4,1.3-8.1,2.3-12.3,2.9c-0.4,0.1-0.5,0.6-0.4,0.9c2,3.9,4.4,7.7,6.8,11.3
						c0.3-0.3,0.6-0.6,0.9-0.9c-3.2-1.9-6.6-3.7-9.3-6.4c-0.3-0.3-1-0.2-1,0.3c-0.7,4.6-1.3,9.2-1.3,13.8c0.4-0.1,0.8-0.1,1.2-0.2
						c-1.5-4.1-3-8.2-4.5-12.3c-0.2-0.4-0.7-0.6-1-0.3c-3.8,3.9-5.6,9.4-9.7,13c0.4,0.1,0.7,0.3,1.1,0.4c-0.1-1.9,0.6-3.9,0.9-5.8
						c0.5-2.8,1-5.7,1.4-8.5c0.1-0.5-0.6-0.7-0.9-0.5c-3.8,1.9-7.9,3.1-11.9,4.5c0.2,0.3,0.4,0.7,0.6,1c2.9-2.8,5.8-5.6,8.7-8.4
						c0.3-0.3,0.2-0.8-0.1-1c-4.3-1.9-8.5-4.2-12.6-6.5c-0.1,0.4-0.2,0.8-0.3,1.2c4.1,0,8.1,0,12.2,0.6c0.5,0.1,0.9-0.3,0.8-0.8
						c-0.7-3.5-1.9-6.9-2.6-10.4c-0.3,0.2-0.7,0.4-1,0.6c2.5,3.2,6.6,4.9,9.9,7.2c0.6,0.5,1.3-0.6,0.6-1.1c-3.1-2.3-7.2-3.9-9.6-7
						c-0.4-0.5-1.2,0.1-1,0.6c0.7,3.5,1.9,6.9,2.6,10.4c0.3-0.3,0.5-0.5,0.8-0.8c-4.1-0.7-8.3-0.7-12.5-0.7c-0.6,0-0.9,0.9-0.3,1.2
						c4.1,2.3,8.3,4.6,12.6,6.5c0-0.3-0.1-0.7-0.1-1c-2.9,2.8-5.8,5.6-8.7,8.4c-0.4,0.4,0,1.2,0.6,1c4.1-1.4,8.3-2.7,12.2-4.6
						c-0.3-0.2-0.6-0.4-0.9-0.5c-0.4,3-0.9,5.9-1.5,8.8c-0.3,1.7-0.9,3.7-0.8,5.4c0,0.6,0.7,0.8,1.1,0.4c4.2-3.6,5.9-9.1,9.7-13
						c-0.3-0.1-0.7-0.2-1-0.3c1.5,4.1,3,8.2,4.5,12.3c0.2,0.6,1.2,0.6,1.2-0.2c0-4.5,0.6-9,1.3-13.5c-0.3,0.1-0.7,0.2-1,0.3
						c2.8,2.7,6.2,4.6,9.6,6.6c0.5,0.3,1.2-0.3,0.9-0.9c-2.4-3.7-4.9-7.4-6.8-11.3c-0.1,0.3-0.2,0.6-0.4,0.9
						c4.2-0.6,8.3-1.6,12.3-2.9c0.6-0.2,0.6-1,0-1.2c-4.5-1.2-9.1-1.3-13.6-1.9c0.1,0.3,0.2,0.7,0.3,1c3-3.1,4.7-7.9,6-12
						c0.1-0.5-0.5-1-0.9-0.7c-3.6,2.6-7.3,5.2-10.9,7.8c0.3,0.1,0.6,0.2,0.9,0.4c-0.9-3.7-1.8-7.4-2.6-11c-0.2-0.7-1-0.5-1.2,0
						c-1.5,3.8-2,7.8-3.2,11.7C460.2,450.7,461.4,451.1,461.6,450.3L461.6,450.3z"/>
				</g>
			</g>
			<g>
				<path class="st4" d="M462.9,455.7c0.4-1.1,0.6-2.4,0.9-3.3l0.8,3.2l3.1-2.2c0,0-0.7,2.4-1.7,3.3c1.3,0.2,2.6,0.2,3.9,0.6
					c-1.1,0.4-2.2,0.7-3.5,0.8c0.6,1.1,2,3.2,2,3.2c-0.9-0.6-2-1.1-2.7-1.9c-0.2,1.3-0.4,2.6-0.4,3.9l-1.3-3.5
					c-1.1,1.1-1.7,2.8-2.8,3.7c0-0.3,0.5-2.6,0.7-4.1c-1.1,0.6-2.3,0.9-3.4,1.3l2.5-2.4c-0.4-0.2-2.3-1.1-3.6-1.9
					c1.3,0,2.4,0,3.5,0.2c-0.2-0.9-0.6-2-0.7-3C460.6,454.4,462.1,455.1,462.9,455.7"/>
			</g>
		</g>
		<g>
			<g>
				<g>
					<path class="st3" d="M985.7,446.5c0.6-5.6,0-11.3,1.3-16.7c-0.4,0-0.8,0-1.2,0c1.8,5.2,3.7,10.4,5.5,15.6
						c0.2,0.5,0.8,0.6,1.1,0.1c3.1-5,6.3-10,9.4-14.9c-0.4-0.2-0.8-0.3-1.1-0.5c-1.1,5.1-2.2,10.5-2.3,15.8c0,0.5,0.5,0.7,0.9,0.5
						c5.1-2.5,10.1-5.2,15.7-6.4c-0.2-0.3-0.4-0.7-0.6-1c-3.9,4.5-8.4,8.5-12.3,13c-0.4,0.4-0.1,1,0.4,1.1
						c5.8,0.8,11.7,1.5,17.5,2.3c-0.1-0.4-0.1-0.8-0.2-1.2c-5.3,1.5-10.6,3-15.9,4.5c-0.3,0.1-0.5,0.4-0.4,0.8
						c1.4,4.8,3.5,9.5,5.6,14.1c0.3-0.3,0.6-0.6,0.9-0.9c-3.5-2.6-7.1-5.3-10.3-8.3c-0.3-0.3-0.8-0.2-1,0.1c-2,4.1-1.9,8.9-3.9,13
						c0.4,0,0.8,0.1,1.1,0.1c-0.7-5-1.2-10-1.9-14.9c-0.1-0.5-0.7-0.6-1-0.3c-4.8,4.8-8.9,10.2-13.6,14.9c0.4,0.1,0.7,0.3,1.1,0.4
						c0-3.3,0.9-6.7,1.8-9.9c0.5-2,1.1-3.9,1.7-5.8c0.2-0.5-0.3-0.9-0.8-0.8c-5.7,1.2-11.5,2.4-17.2,3.5c0.2,0.3,0.5,0.6,0.7,0.9
						c1.4-2.1,4.1-3.4,6.2-4.7c2.1-1.2,4.4-2.3,6.2-4c0.3-0.3,0.2-1-0.3-1c-2.7-0.4-5.3-0.8-8-1.3c-2.8-0.5-5.7-1-8.2-2.2
						c0,0.4-0.1,0.8-0.1,1.1c5.3-1.2,10.7-1.9,16-2.6c0.4,0,0.8-0.4,0.6-0.8c-1.7-4.6-2.8-9.4-5.2-13.7c-0.3,0.3-0.6,0.6-0.9,0.9
						c2.2,1.3,4.2,3.4,6.2,5.1c1.8,1.5,3.6,3,5.4,4.6c0.6,0.5,1.5-0.4,0.9-0.9c-1.8-1.6-3.7-3.2-5.6-4.7c-2-1.7-4-3.7-6.3-5.1
						c-0.5-0.3-1.2,0.3-0.9,0.9c2.4,4.2,3.4,8.9,5.1,13.4c0.2-0.3,0.4-0.5,0.6-0.8c-5.5,0.7-11,1.5-16.3,2.7
						c-0.5,0.1-0.6,0.9-0.1,1.1c5,2.4,11,2.7,16.5,3.6c-0.1-0.3-0.2-0.7-0.3-1c-1.9,1.8-4.5,3-6.8,4.3c-2.1,1.2-4.4,2.5-5.8,4.6
						c-0.3,0.5,0.2,1,0.7,0.9c5.7-1.2,11.5-2.4,17.2-3.5c-0.3-0.3-0.5-0.5-0.8-0.8c-0.7,2-1.3,4.1-1.8,6.1c-0.9,3.2-1.7,6.6-1.8,9.9
						c0,0.5,0.7,0.8,1.1,0.4c4.8-4.8,8.9-10.2,13.6-14.9c-0.3-0.1-0.7-0.2-1-0.3c0.7,5,1.2,10,1.9,14.9c0.1,0.5,0.9,0.6,1.1,0.1
						c2-4.1,1.9-8.9,3.9-13c-0.3,0-0.7,0.1-1,0.1c3.2,3.2,6.9,5.9,10.5,8.5c0.6,0.4,1.1-0.4,0.9-0.9c-2-4.5-4.1-9.1-5.5-13.8
						c-0.1,0.3-0.3,0.5-0.4,0.8c5.3-1.5,10.6-3,15.9-4.5c0.7-0.2,0.5-1.1-0.2-1.2c-5.8-0.8-11.7-1.5-17.5-2.3
						c0.1,0.4,0.3,0.7,0.4,1.1c3.9-4.5,8.4-8.5,12.3-13c0.4-0.5,0-1.2-0.6-1c-5.7,1.3-10.8,4-16,6.6c0.3,0.2,0.6,0.4,0.9,0.5
						c0-5.2,1.1-10.4,2.2-15.4c0.1-0.7-0.8-1.1-1.1-0.5c-3.1,5-6.3,9.9-9.4,14.9c0.4,0,0.8,0.1,1.1,0.1c-1.8-5.2-3.7-10.4-5.5-15.6
						c-0.2-0.5-1.1-0.6-1.2,0c-1.3,5.6-0.7,11.4-1.3,17C984.3,447.3,985.6,447.3,985.7,446.5L985.7,446.5z"/>
				</g>
			</g>
			<g>
				<path class="st4" d="M989.5,451.6c0.2-1.7,0-3.3,0.4-4.8l1.6,4.5c0.9-1.5,2.7-4.3,2.7-4.3s-0.6,3-0.6,4.5
					c1.5-0.7,2.9-1.5,4.5-1.9c-1.1,1.3-2.4,2.4-3.5,3.7l5,0.7l-4.6,1.3c0.4,1.3,1.6,4,1.6,4s-2-1.5-3-2.4c-0.6,1.1-0.6,2.6-1.1,3.7
					c-0.2-1.3-0.4-3-0.6-4.3c-1.3,1.3-2.6,3-3.9,4.3c0-1.5,1-4.5,1-4.5l-4.9,1c0.6-0.9,2.8-1.8,3.6-2.5c-1.1-0.2-3.6-0.5-4.7-1
					c1.7-0.4,4.6-0.8,4.6-0.8c-0.6-1.5-0.7-2.6-1.5-3.9C986.4,449,989.5,451.6,989.5,451.6"/>
			</g>
		</g>
		<g>
			<g>
				<g>
					<path class="st3" d="M774.9,237c1.6-4.9,1.8-10.1,3.5-14.9c-0.4,0-0.8,0-1.2,0c0.7,5.3,3.1,10.3,3.9,15.6
						c0.1,0.5,0.7,0.6,1,0.3c4.6-4,6.7-10,11-14.3c-0.4-0.1-0.7-0.3-1.1-0.4c0,5.1-0.8,10.2-2.2,15.1c-0.1,0.5,0.3,0.9,0.8,0.8
						c5.3-1.4,10.2-4.2,15.7-4.9c-0.1-0.4-0.3-0.7-0.4-1.1c-3,3.6-6.8,6.5-10.4,9.4c-0.4,0.3-0.1,0.9,0.3,1c4.8,1.6,10,2.4,15,2.9
						c-0.1-0.4-0.1-0.8-0.2-1.2c-4.8,1.3-9.7,2.4-14.7,2.9c-0.4,0-0.8,0.5-0.5,0.9c2.7,4.1,5.3,8.4,7.8,12.6
						c0.2-0.3,0.5-0.6,0.7-0.9c-4.4-1.3-7.8-4.6-11.5-7.1c-0.4-0.3-0.9,0.1-0.9,0.5c-0.2,5.2-0.7,10.4-0.7,15.6
						c0.4-0.1,0.8-0.2,1.2-0.3c-1.3-1.7-2.4-3.5-3.5-5.3c-1.8-3-3.8-6.4-4.2-9.9c-0.1-0.7-1-0.9-1.2-0.2c-1.8,4.9-3.6,9.9-7,14
						c0.4,0.1,0.7,0.3,1.1,0.4c-0.6-5.8-0.1-11.7,0.7-17.5c0.1-0.5-0.6-0.8-0.9-0.5c-5.1,3.2-10.3,6.1-15.6,9.1
						c0.3,0.2,0.6,0.5,0.9,0.7c0.3-0.7,0.9-1.4,1.4-2c0.9-1.2,1.7-2.3,2.6-3.4c1.9-2.4,3.9-4.9,5.7-7.4c0.2-0.3,0-0.9-0.4-0.9
						c-4.3-0.7-8.8-1.2-12.8-3.2c0,0.4-0.1,0.8-0.1,1.1c3.9-1.3,8.1-1.3,12.2-1.3c0.4,0,0.7-0.4,0.6-0.8c-0.9-2.9-2.7-5.6-4.4-8
						c-1.1-1.6-2.3-3.1-3.5-4.6c-0.3,0.3-0.5,0.7-0.8,1c3.8,2.1,7.6,4.2,11.4,6.4c0.7,0.4,1.3-0.7,0.6-1.1
						c-3.7-2.2-7.6-4.3-11.4-6.4c-0.6-0.4-1.2,0.4-0.8,1c1.2,1.4,2.3,2.9,3.3,4.3c1.7,2.4,3.5,4.9,4.3,7.7c0.2-0.3,0.4-0.5,0.6-0.8
						c-4.2,0-8.5,0-12.5,1.3c-0.5,0.2-0.7,0.9-0.1,1.1c4.1,2,8.7,2.6,13.1,3.3c-0.1-0.3-0.2-0.6-0.4-0.9c-1.9,2.7-4,5.3-6.1,7.9
						c-1.3,1.6-2.9,3.3-3.7,5.2c-0.2,0.5,0.5,0.9,0.9,0.7c5.2-2.9,10.5-5.9,15.6-9.1c-0.3-0.2-0.6-0.4-0.9-0.5
						c-0.7,5.8-1.3,11.7-0.7,17.5c0,0.5,0.7,0.9,1.1,0.4c3.5-4.3,5.4-9.5,7.3-14.6c-0.4-0.1-0.8-0.1-1.2-0.2c0.4,3.6,2.3,7,4.1,10
						c1.2,2,2.4,4,3.8,5.9c0.3,0.5,1.2,0.4,1.2-0.3c0-5.2,0.4-10.4,0.7-15.6c-0.3,0.2-0.6,0.4-0.9,0.5c3.9,2.6,7.3,5.8,11.8,7.2
						c0.5,0.2,1-0.5,0.7-0.9c-2.5-4.3-5.1-8.5-7.8-12.6c-0.2,0.3-0.4,0.6-0.5,0.9c5.1-0.5,10.1-1.6,15-3c0.7-0.2,0.5-1.2-0.2-1.2
						c-4.9-0.5-10-1.3-14.7-2.9c0.1,0.3,0.2,0.7,0.3,1c3.6-2.9,7.4-5.8,10.4-9.4c0.3-0.4,0.2-1.1-0.4-1.1c-5.7,0.7-10.6,3.5-16,4.9
						c0.3,0.3,0.5,0.5,0.8,0.8c1.4-5,2.2-10.2,2.3-15.5c0-0.5-0.7-0.8-1.1-0.4c-4.2,4.3-6.4,10.3-11,14.3c0.3,0.1,0.7,0.2,1,0.3
						c-0.8-5.3-3.2-10.2-3.9-15.6c-0.1-0.7-1-0.5-1.2,0c-1.8,4.8-2,10-3.5,14.9C773.4,237.4,774.6,237.8,774.9,237L774.9,237z"/>
				</g>
			</g>
			<g>
				<path class="st4" d="M781.6,243.4c0.6-1.7,0.5-2.8,1-4.3c0.2,1.5,0.9,3.2,1.1,4.5c1.3-1.1,1.8-2.8,3.1-4.1
					c0,1.5-0.3,3.1-0.6,4.4c1.5-0.4,2.9-1.2,4.5-1.4c-0.7,0.9-2,2-3,2.7c1.7,0.6,4.2,0.8,4.2,0.8s-2.4,0.7-4.2,0.8
					c0.7,1.1,2.2,3.6,2.2,3.6c-1.3-0.4-2.2-1.3-3.3-2c0,0-0.2,4.1-0.2,4.5c0,0-2-2.8-2.2-4.5c-0.6,1.5-1.1,3-2,4.1
					c-0.2-1.7,0-3.5,0.2-5c-1.5,0.9-4.5,2.6-4.5,2.6c0.2-0.4,1.9-2.4,2.8-3.7c-1.1-0.2-2.6-0.4-3.7-0.9c1.1-0.4,2.4-0.4,3.5-0.4
					c-0.4-1.3-2.2-3.5-2.2-3.5S780.7,242.8,781.6,243.4"/>
			</g>
		</g>
		<g>
			<g>
				<path class="st5" d="M558.6,274.6c-25.6,0-25.7,39.6-1,40C587.2,315,585.5,275.9,558.6,274.6"/>
			</g>
			<g>
				<g>
					<path class="st6" d="M545.4,299.7c4.2-1.9,5.6,2.6,7.7,5.1c1.5,1.8,3.8,3.6,6.3,3.7c1.7,0,3.3-0.6,4.2-2.1
						c1.2-1.9,1.4-5.4-2.1-5.1c-2,0.2-5.7-0.6-3.9-3.4c1-1.5,2.4-2.7,3.1-4.3c1.4-3.1-1.3-6.6-4.6-6.3c-3,0.3-3.1,2.8-5.3,4.1
						c-0.9,0.5-2.3,1.1-3.4,0.5c-4-2.4,1.4-6.7,1.4-9.6c0-2.1-1.1-3.1-2.7-3.5c-7.3,6.3-8.7,18-4.2,26.3
						C542.3,302.8,543.3,300.6,545.4,299.7z"/>
				</g>
				<g>
					<path class="st6" d="M546,310.4c2.1,1.8,4.6,3.1,7.7,3.7c-0.1-1.9-0.8-3.8-2.2-5C549.4,307.4,546.7,308.2,546,310.4z"/>
				</g>
				<g>
					<path class="st6" d="M570.8,287.9c-1.8,0.4-3.4,1.6-3.7,3.6c-0.4,2.4,0.8,3.7,2.9,4.4c1.5,0.5,3.5,1.2,4.4,2.5
						c1.9,2.7-2,4.8-3.5,6.4c-2.4,2.5-1.4,4.5,0.3,6.2c8.1-5.4,10-15.8,6.3-24.2C575.6,287.8,573.1,287.4,570.8,287.9z"/>
				</g>
				<g>
					<path class="st6" d="M556.5,277.9c-0.7,2.8,1.2,5.6,4.1,3.8c1.5-1,3-2.2,4.8-1.1c0.4,0.2,0.5,0.7,0.7,1.1
						c0.1,0.3,0.3,0.6,0.4,1c1.6,1,2.8,0.7,3.6-0.8c0.5-1.1,0.4-2.3,0.3-3.5c-3.1-2.1-7-3.5-11.7-3.8c-0.3,0-0.6,0-0.9,0
						C557.3,275.7,556.8,276.7,556.5,277.9z"/>
				</g>
			</g>
		</g>
		<g>
			<g>
				<path class="st7" d="M967.5,325.9c-34.4-14.3-59.5,38-18.8,55c14,6.1,29.6,1.4,36.6-15.6C991,351.7,987,333.3,967.5,325.9"/>
			</g>
			<g>
				<g>
					<path class="st8" d="M938.1,343.1c3.8,1.7,6.5,4.9,10.1,6.7c2.7,1.4,5.4,1,8.3,0.4c3-0.6,6.3-1.3,8.8-3.1
						c1.2-0.8,2.9-2.8,0.6-3.9c-1.9-0.9-4.2-0.4-6,0.3c-2,0.8-4.1,2.1-6.2,2.3c-1.9,0.2-3.8-0.3-5.6-0.9c-5-1.9-11.3-5.5-13.8-10.7
						c-1.8,2.3-3.3,4.9-4.5,7.7C932.7,341.8,935.5,341.9,938.1,343.1z"/>
				</g>
				<g>
					<path class="st8" d="M956,323.5c-3.4,0-6.6,0.6-9.6,1.7C949.8,327.1,954.6,326.9,956,323.5z"/>
				</g>
				<g>
					<path class="st8" d="M984.9,359.9c-2.3-1.5-1.2-3.8,0.8-4.9c0.6-0.3,1.3-0.5,2-0.8c0.1-3.4-0.4-6.9-1.6-10.3
						c-2.4-1.1-5.2-1.5-7.1-3.4c-0.9-0.8-1.7-2.1-1.6-3.4c0.1-1.6,1.1-2.8,1.6-4.3c-1.7-1.6-3.7-3.1-5.9-4.4
						c-1.2,0.7-2.3,1.5-3.7,1.7c-1.4,0.2-4.9,0.7-5.9-0.7c-1-1.2,1-2.9,1.9-4.5c-1.3-0.4-2.6-0.8-3.9-1.1c-0.5,2.8-1.9,5.2-5.3,5.9
						c-2.6,0.6-5.2,0.2-7.8,0.5c-3.7,0.5-6.6,3.3-4.1,7c3.2,4.8,13,5.7,16.2,0.6c1.7-2.7,3.9-6.5,7.8-5.7c3.7,0.8,4.7,4,4.4,7.4
						c-0.2,2-0.6,5.5,2.4,5.4c1.7,0,3.4-0.4,5-0.3c3.2,0.2,3.9,2.7,3.1,5.6c-0.8,2.8-2.7,4.9-5.8,4.7c-2-0.2-4-0.8-5.8-1.6
						c-2.4-1-5.9-3.2-8.5-1.5c-2.4,1.6-2.5,4.7-5.8,5.4c-2.1,0.4-4.1,0-5.9-1c-2.5-1.4-4.6-3.3-7-4.7c-3.4-2-7.2-2.7-11.1-1.7
						c-1.5,0.4-3.7,0.9-5.5,1.7c-0.1,2.9,0.2,5.7,1,8.6c0.2,0,0.3,0,0.5,0c2.7-0.3,5.4-1.5,8.1-1.1c2.7,0.4,5,1.8,7.2,3.5
						c2.3,1.7,4.5,3.8,7.2,4.8c3.2,1.1,7,0.7,9.9-1.1c2.8-1.7,4.4-4.8,7.3-6.4c1.9-1,4.4-0.3,6.1,0.7c1.8,1,3.5,2.3,5.6,2.6
						c1.8,0.3,3.6,0.2,5.5,0c0.3-0.8,0.5-1.7,0.7-2.5C986.2,360.5,985.5,360.3,984.9,359.9z"/>
				</g>
				<g>
					<path class="st8" d="M943.9,375.1c1.3-0.2,2.7-0.2,4-0.5c0.7-0.1,1.5-0.3,2.1-0.6c1.8-1-0.6-2.3-1.6-2.5
						c-1.7-0.3-3.6-0.4-5-1.4c-1.4-1-2.5-2.2-4-3c-2.5-1.2-5.7-2-8.6-1.4c2,3.8,5.1,7.4,9.3,10.5
						C941.3,375.6,942.5,375.3,943.9,375.1z"/>
				</g>
				<g>
					<path class="st8" d="M972.9,369.3c-2.4,0.9-3,3.4-5,4.8c-1,0.7-1.8,0.9-3.1,1c-3.5,0.1-7.2-0.2-10.6,0.5
						c-1.6,0.4-3.4,1.1-2.1,2.9c1.8,2.5,5.3,2.3,8,1.9c3.7-0.6,9.1-3.2,12.8-1.6c0.4,0.2,0.7,0.5,1,0.8c2.8-1.8,5.3-4.1,7.5-7.2
						C978.9,370.3,976.5,368,972.9,369.3z"/>
				</g>
			</g>
		</g>
		<g>
			<g>
				<path class="st9" d="M707.6,475.9c-52,6.7-26.4,89.6,24.5,64.9c16.1-7.8,21.3-30.1,13.1-46.8C738.2,480.6,723,473.3,707.6,475.9
					"/>
			</g>
			<g>
				<g>
					<path class="st10" d="M718.3,475.7c-3.5-0.4-7.1-0.3-10.7,0.3c-3.7,0.5-7,1.3-9.9,2.5C704.3,481.4,712.3,479.8,718.3,475.7z"/>
				</g>
				<g>
					<path class="st10" d="M695.9,508.4c6.8-0.5,13.4-2,19.9-3.9c6-1.7,12-3.9,17.4-7.2c3.2-2,7.1-3.9,9.8-6.8c-1.5-2.1-3.1-4-5-5.7
						c-6.3,6.5-14.9,10.6-23.8,12.6c-11.1,2.5-22.9,3.5-34.2,1.6c-0.7,2.8-1,5.8-0.9,8.7C684.7,508.2,690.3,508.8,695.9,508.4z"/>
				</g>
				<g>
					<path class="st10" d="M690.9,535.8c20-0.4,40.6-3.4,56.9-15.4c0.7-2.7,1.1-5.5,1.2-8.3c-7,7-16.5,11.2-25.8,14
						c-11.7,3.4-23.9,5-36,5.4C688.3,533,689.6,534.5,690.9,535.8z"/>
				</g>
			</g>
			<g>
				<g>
					<path class="st11" d="M711.2,491.1c7-2,14.5-5.8,19-11.8c-2.2-1.1-4.6-2-7.1-2.7c-7.2,9.4-22.3,12.1-32.3,5.7
						c-3.1,2.3-5.5,5-7.3,8.1C692.4,492.8,702.3,493.6,711.2,491.1z"/>
				</g>
				<g>
					<path class="st11" d="M748.5,504.3c-0.4-2.3-1-4.5-1.8-6.7c-7.2,7-17.3,10.7-26.8,13c-13,3.2-26.6,5.3-40,4.4
						c0.6,3.2,1.7,6.3,3,9.2C706.1,523.7,730.2,519,748.5,504.3z"/>
				</g>
				<g>
					<path class="st11" d="M722.5,540.1c-6.1,1.8-12.4,3-18.7,3.7c8,2.7,17.6,2.2,28.4-3c5-2.4,9-6.3,11.8-10.9
						C737.1,533.9,730.1,537.8,722.5,540.1z"/>
				</g>
			</g>
		</g>
		<g>
			<g>
				<path class="st11" d="M791,170.1c-16.4,0-15.7,27,1.6,27C810.6,197.1,811.3,170.1,791,170.1"/>
			</g>
			<g class="st12">
				<path class="st13" d="M801.1,190.8c-7.6,0-14-6.4-14-14c0-2.3,0.6-4.6,1.7-6.5c-14,2.4-12.6,26.8,3.9,26.8
					c5.9,0,9.9-2.9,11.9-6.7C803.4,190.6,802.3,190.8,801.1,190.8z"/>
			</g>
		</g>
		<g>
			<g>
				<path class="st9" d="M386.8,403.9c-15.9,2.6-12.6,29.4,6,24.2C406.6,423.6,403.9,402,386.8,403.9"/>
			</g>
			<g class="st12">
				<path class="st14" d="M396.1,420.6c-7.6,0-14-6.4-14-14c0-0.3,0-0.7,0.1-1c-10.3,6.5-5.9,27.1,10.5,22.5
					c4.5-1.5,7.3-4.7,8.4-8.4C399.5,420.3,397.8,420.6,396.1,420.6z"/>
			</g>
		</g>
		<g>
			<g>
				<path class="st9" d="M881.6,270.4c-16,5.7-3.3,24.7,8,18C900.3,282.4,893,268.4,881.6,270.4"/>
			</g>
			<g>
				<path class="st15" d="M873.6,279.7c0,0-1.1,0.2-2.9,0.8c-0.9,0.3-2,0.7-3.2,1.3c-0.6,0.3-1.2,0.7-1.6,1.1
					c-0.5,0.4-0.8,1-0.9,1.5l0,0.2l0,0.2l0,0.2l0,0.1l0,0l0,0c0,0-0.1-0.2,0-0.1l0.1,0.1l0.1,0.3c0,0.1,0.1,0,0.1,0.1
					c0,0,0.2,0.1,0.3,0.2c0.5,0.3,1.3,0.4,2.2,0.5c1.7,0.1,3.7-0.2,5.7-0.5c2-0.3,4.1-0.8,6.2-1.3c2.1-0.5,4.2-1,6.4-1.6
					c2.1-0.5,4.3-1.1,6.4-1.6c1.1-0.3,2.2-0.5,3.3-0.7c1.1-0.2,2-0.3,3-0.6c1.9-0.5,3.8-1.1,5.1-2c0.7-0.4,1.2-1,1.3-1.4
					c0-0.2,0-0.3-0.1-0.5c-0.2-0.2-0.4-0.4-0.7-0.5c-1.3-0.6-2.8-0.7-4.1-0.7c-1.3,0-2.5,0.1-3.4,0.2c-1.9,0.2-3,0.4-3,0.4
					s0.3-0.1,0.7-0.3c0.5-0.2,1.2-0.5,2.1-0.7c0.9-0.3,2.1-0.6,3.5-0.8c1.4-0.2,3-0.3,4.8,0.3c0.5,0.2,1,0.4,1.4,0.8
					c0.5,0.4,0.8,1.2,0.8,1.9c-0.1,0.7-0.4,1.3-0.7,1.8c-0.4,0.5-0.8,0.8-1.2,1.2c-1.7,1.3-3.7,2.1-5.8,2.7c-1,0.3-2.2,0.5-3.2,0.8
					c-1,0.2-2,0.5-3.1,0.7c-2.1,0.6-4.2,1.1-6.4,1.7c-2.2,0.5-4.3,1.1-6.5,1.5c-2.1,0.5-4.3,0.8-6.4,1.1c-2.1,0.3-4.2,0.4-6.2,0.2
					c-1-0.1-2.1-0.3-3.1-1c-0.2-0.2-0.5-0.4-0.7-0.7c-0.1-0.2-0.2-0.3-0.3-0.5l-0.1-0.3l0-0.2c0,0.1,0-0.2,0-0.1l0,0l0-0.1l0-0.1
					l0-0.4c0-0.1,0-0.3,0-0.4l0.1-0.4c0.2-1.1,1-1.9,1.7-2.3c0.7-0.5,1.4-0.8,2.1-1c1.3-0.5,2.5-0.7,3.5-0.8c1-0.1,1.7-0.2,2.3-0.2
					C873.4,279.7,873.6,279.7,873.6,279.7z"/>
			</g>
		</g>
		<g>
			<g>
				<path class="st7" d="M647,390.7c-25.5-0.9-23.3,39.3,2.7,35.3c10.7-1.3,17.3-8.3,16-19C664.3,395.7,658.5,390.5,647,390.7"/>
			</g>
			<g class="st12">
				<path class="st16" d="M658,419.1c-9.8,0-18-8.2-18-18c0-3.7,1.2-7.2,3.2-10.1c-21.4,3-18.2,38.9,6.5,35.1
					c6.3-0.8,11.2-3.6,13.9-7.9C661.8,418.7,659.9,419.1,658,419.1z"/>
			</g>
			<g>
				<path class="st15" d="M629.7,401.9c0,0-0.5-0.2-1.4-0.3c-0.9-0.1-2.3-0.2-4-0.3c-1.7,0-3.8,0-6.1,0.2c-1.2,0.1-2.4,0.3-3.6,0.6
					c-1.2,0.3-2.5,0.7-3.3,1.4c-0.4,0.3-0.5,0.6-0.5,0.8c0-0.2,0-0.1,0.1-0.1c0.1,0.1,0.3,0.3,0.5,0.4c0.9,0.7,2.4,1.3,3.9,1.8
					c3,1.1,6.4,1.9,9.9,2.6c3.5,0.7,7.2,1.4,11,1.9c3.8,0.6,7.6,1.1,11.5,1.5c3.9,0.4,7.7,0.8,11.5,1c3.8,0.2,7.5,0.4,11.1,0.4
					c3.6,0,7.1-0.2,10.1-0.8c1.5-0.3,2.9-0.8,3.5-1.4c0.2-0.1,0.2-0.2,0.3-0.3c0,0,0,0,0-0.1l0,0c0-0.1,0,0.1,0,0.1l0-0.1l0-0.1
					c0-0.1,0,0,0,0c0,0,0,0,0,0c0,0,0,0,0,0c0-0.1-0.1-0.4-0.5-0.8c-0.9-0.7-2.1-1.2-3.3-1.6c-1.2-0.4-2.4-0.7-3.6-1
					c-2.3-0.5-4.4-0.9-6.1-1.1c-1.7-0.2-3-0.4-4-0.6c-0.5-0.1-0.8-0.1-1-0.1c-0.1,0-0.2,0-0.2-0.1c0.1,0,0.1,0,0.1,0s0,0-0.1,0
					c0,0,0.1,0,0.2,0c0.2,0,0.6-0.1,1.1-0.1c0.9-0.1,2.3-0.2,4-0.2c1.7,0,3.9-0.1,6.3,0.1c1.2,0.1,2.5,0.2,3.9,0.5
					c1.4,0.3,2.9,0.6,4.5,1.6c0.4,0.3,0.8,0.6,1.2,1c0.4,0.4,0.8,1,0.9,1.7c0,0.2,0.1,0.3,0.1,0.5l0,0.3l0,0.3l0,0.1l0,0.1l0,0.2
					c0,0.2-0.1,0.3-0.1,0.5c-0.2,0.6-0.5,1.2-0.9,1.7c-0.8,0.9-1.7,1.5-2.5,1.9c-0.9,0.4-1.8,0.8-2.6,1c-3.5,1.1-7.2,1.5-11,1.7
					c-3.8,0.2-7.7,0.2-11.6,0.1c-3.9-0.1-7.9-0.5-11.9-0.9c-4-0.5-7.9-1-11.8-1.7c-3.9-0.7-7.6-1.5-11.3-2.5
					c-3.6-1-7.1-2.1-10.4-3.6c-1.6-0.8-3.2-1.5-4.7-2.9c-0.4-0.4-0.7-0.8-1.1-1.4c-0.3-0.6-0.6-1.3-0.5-2.3c0.2-1.4,1.2-2.3,2-2.9
					c0.8-0.5,1.7-0.8,2.4-1c0.8-0.2,1.5-0.3,2.2-0.4c1.4-0.1,2.8-0.1,4-0.1c2.5,0.1,4.6,0.4,6.3,0.8c1.7,0.3,3,0.7,3.9,1
					C629.3,401.6,629.7,401.9,629.7,401.9z"/>
			</g>
		</g>
		<g>
			<g>
				<path class="st5" d="M383.3,169.4c-11.4,3.8-2,17.3,6,12.7C398,177.4,391.8,166.6,383.3,169.4"/>
			</g>
			<g>
				<path class="st17" d="M378.3,174.4c-1.8,0.1-3.7,0.2-5.5,0.3c-0.5,0-0.9,0.1-1.3,0.1c-0.4,0.1-0.9,0.1-1.3,0.2
					c-0.2,0-0.4,0.1-0.6,0.2c-0.2,0-0.4,0.1-0.5,0.2l-0.2,0.1c-0.1,0-0.1,0.1-0.1,0.1c0,0,0,0.1,0,0.1c0,0,0,0.1,0,0.1l0,0.2
					c0.1-0.2-0.1-0.4-0.1-0.4c0,0,0,0,0.1,0c0.1,0,0.2,0.1,0.4,0.1c0.3,0.1,0.6,0.2,1,0.2c0.7,0.1,1.4,0.2,2.1,0.3
					c1.4,0.2,2.9,0.3,4.3,0.4c1.4,0.1,2.9,0.2,4.3,0.2c1.4,0.1,2.9,0.1,4.4,0.1c1.5,0,2.9,0,4.3,0c1.4,0,2.9,0,4.3-0.1
					c1.4-0.1,2.9-0.2,4.3-0.4c0.7-0.1,1.4-0.3,2-0.5c0.3-0.1,0.6-0.2,0.8-0.4c0.2-0.2,0.3-0.3,0.3-0.4l0.1,0.3
					c-0.2-0.2-0.4-0.4-0.6-0.6c-0.1-0.1-0.3-0.1-0.4-0.2c-0.2-0.1-0.3-0.1-0.5-0.1c-0.7-0.2-1.4-0.2-2.1-0.3
					c-1.4-0.1-2.9-0.1-4.4-0.1c1.5-0.2,2.9-0.4,4.4-0.5c0.7,0,1.5-0.1,2.3,0c0.4,0,0.8,0.2,1.2,0.3c0.4,0.2,0.8,0.5,1.1,0.8l0.1,0.1
					l0,0.2c0,0.3,0,0.7-0.2,0.9c-0.1,0.3-0.3,0.4-0.5,0.6c-0.4,0.3-0.7,0.5-1.1,0.7c-0.7,0.3-1.5,0.5-2.2,0.7
					c-1.5,0.3-2.9,0.5-4.4,0.7c-2.9,0.3-5.9,0.4-8.8,0.4c-1.5,0-2.9-0.1-4.4-0.1c-1.5-0.1-2.9-0.2-4.4-0.3c-1.5-0.2-2.9-0.3-4.4-0.6
					c-0.7-0.1-1.5-0.3-2.2-0.5c-0.4-0.1-0.7-0.2-1.1-0.4c-0.2-0.1-0.4-0.2-0.6-0.3c-0.1-0.1-0.2-0.1-0.4-0.3
					c-0.1-0.1-0.3-0.5-0.3-0.9l0,0.2c0-0.2,0.1-0.4,0.1-0.6c0.1-0.2,0.2-0.4,0.3-0.5c0.3-0.3,0.5-0.4,0.8-0.5c0.5-0.2,1-0.3,1.5-0.3
					c1-0.1,1.9-0.1,2.8,0C374.7,174,376.5,174.2,378.3,174.4z"/>
			</g>
		</g>
		<g>
			<g>
				<g>
					<path class="st18" d="M832.6,572.3c-3.5-0.6-7.2-0.8-10.7-0.7c-3.8,0.1-7.7,0.6-11.1,2.2c-2.3,1-4.8,2.9-2.6,5.4
						c2.3,2.7,6.7,4,10,4.8c2.9,0.7,5.9,1,8.8,1.3c3.6,0.3,7.1,0.5,10.7,0.5c3,0,6.2-0.1,9.1-1c2-0.6,4.3-2.3,4.3-4.6
						c0-2.9-3.8-4.5-6.1-5.3c-4-1.5-8.2-2.2-12.4-2.7c-0.8-0.1-0.8,1.2,0,1.2c3.4,0.4,6.8,1,10,2c2.2,0.7,5.6,1.6,6.9,3.7
						c1.1,1.9-1.1,3.7-2.8,4.3c-2.4,0.9-5.1,1-7.7,1.1c-5.7,0.2-11.5-0.3-17.2-1.1c-3.4-0.5-6.8-1.4-9.8-3c-1.2-0.6-2.6-1.4-3.3-2.5
						c-0.7-1.3,0.6-2,1.6-2.6c3.4-1.9,7.5-2.4,11.2-2.5c3.6-0.1,7.2,0,10.8,0.7C833.1,573.6,833.4,572.4,832.6,572.3L832.6,572.3z"
						/>
				</g>
			</g>
			<g>
				<g>
					<path class="st18" d="M834.5,568.9c-5.3-0.9-10.6-1.2-16-1.1c-5.8,0.2-11.9,0.9-17.3,3.2c-1.9,0.8-4.4,2-5.3,4
						c-0.7,1.7,0.2,3.4,1.4,4.7c1.8,1.9,4.2,3.1,6.5,4.2c2.9,1.3,6,2.3,9.1,3.1c4.3,1,8.8,1.5,13.2,1.9c5.3,0.5,10.7,0.8,16,0.8
						c4.6,0,9.4-0.2,13.8-1.5c3.1-1,6.7-3.5,6.7-7.2c-0.1-4-4.8-6.2-7.9-7.5c-5.2-2.1-10.9-3.3-16.5-4.1c-1.3-0.2-2.6-0.4-3.9-0.5
						c-1.2-0.1-1.2,1.8,0,1.9c5.2,0.6,10.4,1.5,15.5,3c2.3,0.7,4.6,1.5,6.7,2.6c1.4,0.8,3,1.7,3.9,3.2c1.5,2.7-1.6,5.5-3.9,6.4
						c-3.7,1.4-7.9,1.6-11.8,1.7c-8.9,0.3-17.9-0.4-26.7-1.7c-5.3-0.8-10.6-2.3-15.3-4.9c-1.7-0.9-3.9-2.1-4.7-3.9
						c-0.8-1.7,1-2.7,2.3-3.5c5.2-3,11.6-3.8,17.5-4c5.5-0.2,11.1,0.1,16.5,1C835.2,570.9,835.7,569.1,834.5,568.9L834.5,568.9z"/>
				</g>
			</g>
			<g>
				<g>
					<path class="st18" d="M837.3,563.7c-8-1.4-16.2-1.9-24.3-1.7c-8.9,0.2-18.1,1.3-26.3,4.8c-3,1.3-7,3-8.4,6.2
						c-1.3,2.8,0.3,5.6,2.3,7.6c2.9,2.8,6.6,4.7,10.2,6.3c4.5,2,9.2,3.5,14,4.6c6.5,1.5,13.3,2.2,19.9,2.8c8,0.7,16,1.2,24,1.1
						c7,0,14.3-0.2,21-2.3c2.4-0.7,4.7-1.8,6.6-3.5c2-1.9,3.9-4.5,3.9-7.5c-0.1-6.2-7.6-9.6-12.5-11.6c-7.9-3.2-16.4-4.9-24.8-6.1
						c-2-0.3-4-0.6-6.1-0.8c-1.9-0.2-1.9,2.7,0,2.9c8,0.9,16,2.4,23.8,4.7c3.4,1,6.8,2.2,9.9,3.8c2.2,1.2,4.6,2.6,6,4.8
						c1.1,1.8,0.9,3.5-0.3,5.4c-1.3,2.1-3,3.5-5.2,4.4c-5.4,2.3-11.9,2.6-17.8,2.8c-13.8,0.5-27.8-0.5-41.4-2.6
						c-8.2-1.2-16.6-3.6-23.9-7.6c-2.5-1.4-5.7-3.2-6.9-5.9c-0.4-0.8-0.4-1.5,0-2.3c0.6-1.2,2-1.9,3.1-2.6c7-4.2,15.6-5.6,23.6-6.2
						c8.1-0.6,16.3-0.3,24.3,0.7c1.5,0.2,3,0.4,4.5,0.7C838.4,566.8,839.2,564,837.3,563.7L837.3,563.7z"/>
				</g>
			</g>
		</g>
		<g>
			<g>
				<g>
					<path class="st18" d="M885,230.6c-5.2-2.5-10.7-4.4-16.5-5.1c-3.4-0.5-7.3-0.8-10.6,0.6c-1.9,0.8-3,2.6-1.7,4.5
						c0.8,1.3,2.2,2.2,3.5,3c2.2,1.3,4.6,2.3,7,3.1c6.3,2.3,12.5,4.7,19,6.4c3.3,0.9,6.7,1.8,10.1,1.7c2.1,0,4.8-0.7,5.4-3
						c0.8-3-3.6-5.3-5.7-6.4C892,233.6,888.4,232.3,885,230.6c-0.7-0.4-1.4,0.7-0.6,1.1c2.6,1.3,5.4,2.3,8,3.5
						c1.5,0.7,3,1.5,4.5,2.4c1,0.7,2.2,1.4,2.8,2.5c1.2,2.1-1.4,3.3-3.1,3.4c-2.9,0.2-5.8-0.5-8.6-1.2c-6.4-1.6-12.5-3.8-18.6-6.1
						c-1.7-0.6-15.5-5.6-11.7-8.6c1-0.8,2.5-1,3.8-1.2c2-0.2,4-0.1,6,0.1c5.9,0.6,11.7,2.6,17,5.1C885.1,232.1,885.7,231,885,230.6
						L885,230.6z"/>
				</g>
			</g>
			<g>
				<g>
					<path class="st18" d="M889,227.9c-8.3-4-17.1-7-26.3-8.3c-5.5-0.8-12.1-1.3-17.4,0.8c-1.5,0.6-3.1,1.6-3.7,3.2
						c-0.6,1.5,0,3.1,1,4.4c1.5,2.1,3.8,3.6,6,4.8c3.5,2,7.2,3.4,10.9,4.8c10,3.7,20,7.5,30.4,10.3c5.3,1.4,10.8,2.8,16.2,2.9
						c3.5,0,8.2-1,9.1-5.1c1-4.4-4.8-7.7-7.9-9.5c-5-2.8-10.4-4.9-15.6-7.2C890.8,228.7,889.9,228.3,889,227.9
						c-1.2-0.6-2.2,1.2-1,1.7c4.3,2.2,8.9,3.8,13.2,5.9c2.5,1.2,4.9,2.4,7.2,3.9c1.6,1.1,3.5,2.3,4.4,4.1c1.7,3.1-2.2,5.1-4.8,5.3
						c-4.7,0.4-9.6-0.7-14.1-1.8c-10.5-2.5-20.7-6.2-30.7-10c-5.3-2-10.8-3.8-15.6-7c-1.5-1-3.3-2.3-4-4c-0.4-1.1-0.1-1.9,0.8-2.7
						c1.4-1.1,3.4-1.5,5.1-1.8c2.8-0.5,5.6-0.4,8.4-0.3c8,0.5,15.9,2.7,23.4,5.6c2.3,0.9,4.5,1.9,6.6,2.9
						C889.2,230.2,890.2,228.5,889,227.9L889,227.9z"/>
				</g>
			</g>
			<g>
				<g>
					<path class="st18" d="M894.7,224.1c-12.6-6.1-26.1-10.7-40.1-12.6c-5.2-0.7-10.4-1.1-15.6-0.9c-3.7,0.2-7.6,0.7-11,2.1
						c-2.4,1-4.8,2.5-5.7,5c-0.9,2.5,0.2,5.1,1.7,7.1c2.5,3.2,6.2,5.5,9.7,7.4c5.2,2.9,10.7,5,16.2,7.1
						c15.3,5.6,30.5,11.4,46.2,15.7c7.9,2.2,16.2,4.2,24.5,4.4c2.9,0.1,5.9-0.1,8.5-1.3c2.5-1.1,5.1-3.7,5.6-6.5c0.6-3-1-5.7-3-7.8
						c-2.6-2.8-6.1-4.9-9.4-6.8c-7.6-4.3-15.7-7.4-23.7-10.9C897.3,225.4,896,224.8,894.7,224.1c-1.8-0.9-3.3,1.8-1.6,2.7
						c6.7,3.4,13.9,5.9,20.7,9.2c3.8,1.8,7.6,3.7,11.1,6.1c2.5,1.6,5,3.6,6.4,6.2c0.2,0.4,0.3,0.7,0.5,1.4c0,0.2,0,1,0,1.2
						c-0.3,1.2-0.9,2-1.8,2.9c-1.8,1.7-3.7,2.2-6,2.4c-7.2,0.7-14.6-1.1-21.6-2.7c-16.2-3.9-31.9-9.6-47.4-15.5
						c-8.2-3.1-16.7-5.9-24-11c-1.4-1-2.8-2.1-4-3.4c-0.5-0.5-0.7-0.8-1-1.3c-0.2-0.3-0.3-0.5-0.5-0.8c-0.2-0.4-0.1-0.2-0.3-0.6
						c-0.1-0.2-0.1-0.4-0.2-0.6c0-0.1-0.1-0.5,0-0.1c0-0.1,0-0.2,0-0.4c0-0.1,0.1-0.8,0-0.4c0-0.2,0.1-0.4,0.2-0.7
						c0-0.1,0.2-0.4,0-0.1c0-0.1,0.1-0.2,0.2-0.3c0.1-0.2,0.2-0.4,0.4-0.6c-0.2,0.3,0.2-0.2,0.2-0.3c0.2-0.2,0.4-0.4,0.7-0.6
						c0.6-0.5,2.1-1.2,3-1.5c1.5-0.5,3.1-0.9,4.7-1.2c4.2-0.7,8.6-0.7,12.9-0.4c12.3,0.8,24.5,4.1,36,8.6c3.4,1.3,6.7,2.8,10,4.4
						C894.9,227.6,896.5,225,894.7,224.1L894.7,224.1z"/>
				</g>
			</g>
		</g>
		<g>
			<g>
				<g>
					<path class="st18" d="M464.6,372.9c-2.7,1.5-5.2,3.3-7.3,5.5c-1.5,1.6-2.9,3.5-3.7,5.6c-0.5,1.4-0.7,3.2,0.2,4.4
						c1,1.4,2.7,1.7,4.3,1.5c1.2-0.1,2.5-0.4,3.6-0.8c1.5-0.5,3-1.2,4.4-2c2.4-1.4,4.7-3,6.9-4.7c2.1-1.6,4.5-3.6,5.4-6.1
						c0.7-1.8,0.9-4.5-0.7-5.9c-1.4-1.3-3.6-1.1-5.3-0.8c-2.2,0.4-4.4,1.3-6.4,2.4C465.5,372.3,465.1,372.6,464.6,372.9
						c-0.7,0.4-0.1,1.5,0.6,1.1c1.8-1.1,3.7-2,5.6-2.6c1.6-0.5,3.5-1,5.2-0.5c1.7,0.5,1.8,2.4,1.5,3.9c-0.5,2.4-2.3,4.1-4.1,5.7
						c-2,1.8-4.3,3.3-6.5,4.7c-2.2,1.4-4.6,2.6-7.2,3.2c-1.4,0.3-3.3,0.7-4.5-0.3c-0.9-0.7-0.9-2-0.7-3.1c0.5-2.1,1.9-4,3.3-5.5
						c2.1-2.3,4.6-4.1,7.4-5.6C465.9,373.6,465.3,372.5,464.6,372.9L464.6,372.9z"/>
				</g>
			</g>
			<g>
				<g>
					<path class="st18" d="M463.6,368.1c-4.5,2.5-8.8,5.6-12.4,9.3c-2.6,2.8-5,6-6.3,9.6c-0.8,2.4-1.2,5.4,0.3,7.6
						c1.6,2.3,4.7,2.8,7.3,2.6c2.1-0.2,4.2-0.7,6.2-1.4c2.5-0.9,5.2-2,7.5-3.4c4-2.4,8-5,11.7-7.9c3.5-2.8,7.6-6.1,9.3-10.4
						c1.2-3.1,1.6-7.7-1.1-10.1c-2.4-2.1-6.1-1.9-9.1-1.3c-3.8,0.7-7.5,2.2-10.9,4.1C465.2,367.1,464.4,367.6,463.6,368.1
						c-1.2,0.7-0.1,2.6,1.1,1.8c3-1.9,6.2-3.4,9.6-4.4c2.7-0.8,6-1.7,8.8-0.8c2.9,0.9,3,4.1,2.5,6.7c-0.8,4.1-3.9,7-7,9.7
						c-3.5,3-7.2,5.6-11.1,8c-3.8,2.4-7.9,4.4-12.2,5.5c-2.3,0.6-5.6,1.1-7.6-0.5c-1.5-1.2-1.6-3.3-1.1-5.2c0.9-3.6,3.2-6.8,5.6-9.4
						c3.6-3.9,7.9-7.1,12.5-9.6C465.9,369.2,464.8,367.4,463.6,368.1L463.6,368.1z"/>
				</g>
			</g>
			<g>
				<g>
					<path class="st18" d="M462.3,361.9c-7,3.8-13.5,8.5-19,14.3c-4,4.3-7.7,9.2-9.7,14.8c-1.3,3.6-1.8,8.2,0.5,11.5
						c2.5,3.6,7.2,4.4,11.4,4c3.2-0.3,6.4-1.1,9.5-2.2c3.9-1.4,7.9-3.1,11.5-5.2c6.2-3.7,12.2-7.7,17.9-12.2
						c5.3-4.2,11.4-9.2,13.9-15.7c1.8-4.7,2.5-11.9-1.7-15.5c-3.8-3.3-9.5-2.9-14.1-2c-5.8,1.1-11.4,3.4-16.6,6.2
						C464.6,360.5,463.4,361.1,462.3,361.9c-1.8,1.1-0.1,3.9,1.6,2.8c4.6-2.8,9.5-5.1,14.7-6.7c4.2-1.3,9.3-2.5,13.5-1.2
						c1.6,0.5,2.8,1.4,3.5,3c0.9,1.9,0.8,4.5,0.4,6.7c-0.5,3-1.6,5.4-3.4,7.8c-2,2.7-4.5,5.1-7.1,7.3c-5.4,4.7-11.2,8.7-17.2,12.5
						c-5.8,3.6-12,6.7-18.6,8.4c-2.4,0.6-4.8,1-7.3,0.8c-1.6-0.1-3.1-0.5-4.5-1.5c0.3,0.2-0.1-0.1-0.2-0.2c-0.1-0.1-0.3-0.2-0.4-0.4
						c-0.4-0.4-0.2-0.2-0.5-0.7c-0.5-0.8-0.5-0.9-0.8-1.8c-0.3-1.3-0.2-3.1,0.1-4.6c1.1-4.7,3.9-9.1,6.9-12.7
						c4.5-5.4,9.9-9.9,15.8-13.7c1.7-1.1,3.4-2.1,5.1-3C465.8,363.7,464.1,360.8,462.3,361.9L462.3,361.9z"/>
				</g>
			</g>
		</g>
		<g>
			<g>
				<path class="st19" d="M750,288.1c-8-1.3-28,8-29.3,16c-1.3,6.7,2,8.7,6.7,12c3.3,2,10,5.3,14,6.7c12.7,6,18.7-0.7,24-11.3
					C774.6,293.4,764,294.1,750,288.1"/>
			</g>
			<g>
				<path class="st20" d="M759.9,291.8c-1.7,3.3-5.3,6.2-8.9,3.9c-2.7-1.7-3.5-5.1-2.2-7.8c-2.7-0.1-6.2,0.7-9.9,2
					c2,2.2,4,5.3,2,7.2c-3.7,3.5-7.9,0-9.7-3.6c-5.4,3.1-9.8,6.9-10.5,10.6c-1.3,6.7,2,8.7,6.7,12c2.2,1.3,5.7,3.1,9,4.6
					c1.9-2.7,5-4.7,8.4-2.9c2.7,1.4,3.6,4.2,3.5,7c6.5,0.8,10.8-2.8,14.4-8.6c-2.6-1.7-4.6-4-3.3-7.4c1.3-3.5,5.3-4.2,8.4-3
					C770.8,297.1,766.9,294.5,759.9,291.8z M726.4,308.7c-2,1.4-3.9-1.5-3.6-3.6c0-0.1,0-0.2,0-0.2c0-0.2,0.1-0.4,0.2-0.5
					c0.4-0.8,1.2-1.3,2.5-1.2c0.2,0,0.4,0.1,0.4,0.3c0.2,0.1,0.3,0.1,0.5,0.2C728.5,304.8,728.3,307.5,726.4,308.7z M740.3,312.2
					c0,0.2-0.1,0.3-0.3,0.4c-3.1,1.2-6.7,2.7-9.3-0.4c-1.9-2.2-2.4-5.5-0.7-8c3.4-4.9,12.2-3.7,12.8,2.8
					C743,309.2,741.9,311.1,740.3,312.2z M749.3,309.6c-2.4-0.7-3.8-3.4-3.7-5.8c0.1-2.1,1.2-3.5,2.9-4c0,0,0,0,0,0
					c3.3-1.8,7,0.9,7,4.6C755.5,307.2,752.4,310.6,749.3,309.6z M753.5,320.8c-1.6,0-2.7-1.3-2.5-2.9c0.1-1.2,0.9-2,1.8-2.3
					c0-0.1,0.1-0.3,0.3-0.3c1.6-0.3,3.2,0.6,3.3,2.4C756.5,319.4,755.3,320.8,753.5,320.8z M761.7,302.1c-1.4-0.3-2.3-1.8-1.9-3.2
					c0.2-0.8,0.7-1.3,1.3-1.6c0.1-0.1,0.2-0.2,0.4-0.2c0.2,0,0.3,0,0.5,0c0.4,0,0.7,0,1.1,0.1c0.2,0.1,0.3,0.2,0.3,0.3
					c0.8,0.5,1.4,1.2,1.4,2.3C765,301.5,763.3,302.5,761.7,302.1z"/>
			</g>
		</g>
		<g>
			<g>
				<path class="st19" d="M514,484.7c-6.7,0-13.3,3.3-14,10.7c-1.3,10,7.3,10.7,11.3,16.7c6.7,8.7,0.7,30.7,18.7,24.7
					c10.7-3.3,8-11.3,12-18c3.3-7.3,12-10,11.3-18.7c-1.3-10-8-10-16-10.7C530.6,488.7,520,484.1,514,484.7"/>
			</g>
			<g>
				<path class="st20" d="M553.3,500.1c-1.1-8.6-6.3-9.8-12.8-10.4c-0.4,1.2-1,2.4-2,3.2c-1.4,1.1-3.4,1.2-5,0.6
					c-2.6-1.1-4-3.3-3.9-5.7c-5.6-1.5-11.6-3.5-15.6-3c-4.8,0-9.7,1.8-12.2,5.5c1.4,1,2.3,2.6,1.9,4.6c-0.4,2-2,2.9-3.8,3.4
					c0.5,7.3,7.9,8.4,11.4,13.8c0.1,0.1,0.2,0.3,0.3,0.4c3.6-1.7,8.9-1.8,9.7,2.6c0.8,4.6-2.5,6.7-6.4,7.2
					c1.7,9.1,2.5,18.7,15.1,14.5c10.7-3.3,8-11.3,12-18c0.4-1,1-1.9,1.6-2.7c-2.1-2.4-3.4-5.4-0.8-7.8c2.1-2.1,5.9-2.2,8.3-0.5
					C552.5,505.6,553.5,503.2,553.3,500.1z M514.9,501.9c-2.8,0.4-5.5-2-6-4.6c-0.4-2,0.3-3.6,1.7-4.5c0-0.1,0.1-0.2,0.2-0.3
					c2.8-2.2,6.6-0.5,8,2.5C520.3,498.2,518.5,501.4,514.9,501.9z M525.1,509.2c0.1-0.1,0.1-0.2,0.2-0.3c0.1-0.3,0.3-0.5,0.6-0.8
					c0.6-0.5,1.6-0.6,2.4-0.3c1.9,0.7,2.6,2.9,1.1,4.4c-1.3,1.3-3.2,0.4-4-1c-0.1-0.1-0.1-0.2-0.1-0.3c0,0,0-0.1,0-0.1
					C524.9,510.4,524.8,509.8,525.1,509.2z M525.7,535.4c-1.4,1.1-3,0.5-4.1-0.8c-0.1,0-0.3-0.1-0.4-0.2c-0.7-1-1.4-2.4-0.9-3.6
					c0.8-2,3.5-2.1,5.2-1.2C527.6,530.8,527.6,533.9,525.7,535.4z M537.1,524.6c-1.2,3-5,4.6-8,3.1c-2.3-1.2-3.7-3.8-3.5-6.4
					c0.2-2.4,2-3.7,4.1-4c0.1-0.1,0.2-0.1,0.3-0.1c1.9,0,4.5-0.2,5.8,1.5C537.2,520.3,537.9,522.6,537.1,524.6z M539,503.5
					c-1,2.8-5.1,3.9-7.5,2.2c-1.8-1.2-2.8-3.7-2-5.8c0.7-1.8,2.1-2.6,3.9-2.7c0.1,0,0.1,0,0.2,0c0,0,0.1,0,0.1,0
					c0.4,0,0.9,0,1.3,0.1c0.1,0,0.2,0.1,0.2,0.1c1.2,0.2,2.5,0.6,3.2,1.5C539.4,500.3,539.6,501.9,539,503.5z M550.7,499.5
					c-0.7,0.6-1.8,1.1-2.7,0.7c-0.7-0.3-1.3-0.9-1.5-1.6c-0.5-1.8,0.7-3.3,2.6-3.3c0.2,0,0.4,0.2,0.5,0.3c0.1,0,0.2,0.1,0.3,0.1
					C551.2,496.5,552.1,498.3,550.7,499.5z"/>
			</g>
		</g>
		<g>
			<g>
				<path class="st19" d="M513.3,177.4c-7.3-3.3-30.7-12.7-39.3-6.7c-16.7,12,9.3,24,15.3,30c4,4.7,2,10,8.7,13.3
					c7.3,3.3,12-1.3,14.7-6C516.6,201.4,522,181.4,513.3,177.4"/>
			</g>
			<g>
				<path class="st20" d="M515.9,179.6c-1.4,1.5-3.5,2.4-5.4,1c-1.5-1.1-1.1-3-0.3-4.6c-5.2-2.2-13.5-5.3-21.2-6.6
					c-0.7,2.8-2.4,4.8-5.8,4.4c-2.7-0.4-2.9-2.8-3.1-5c-2.5,0.2-4.6,0.8-6.2,1.9c-1.3,0.9-2.3,1.9-3.1,2.8c1.5,1.2,2.7,3,1.8,4.6
					c-0.9,1.6-2.5,1.8-4.2,1.6c0.4,5.4,6.5,10.5,12.2,14.6c1-1.3,2.2-2.4,4-2.8c2.2-0.5,4.7-0.3,6.2,1.7c2.7,3.6,2,7.1,0,10
					c2,4,1.5,8.1,7.1,10.9c7.3,3.3,12-1.3,14.7-6c1.3-2.2,2.8-5.9,3.9-10c-2.5-0.9-4.9-2.8-4.6-5.5c0.4-3.3,3.3-3.9,6-3.7
					C518.1,185.2,517.5,181.8,515.9,179.6z M482.2,186.3c-2,0.4-4.5-0.7-5.5-2.6c-1-1.9-0.1-3.4,1.4-4.3c1.8-1.8,4.7-1.2,6,1
					C485.4,182.4,484.8,185.7,482.2,186.3z M501.8,185.8c0.2-0.1,0.5-0.1,0.7-0.1c0.2,0,0.3,0,0.4,0.1c0.8,0,1.5,0.1,2.1,0.6
					c0.8,0.6,1.1,1.9,1,2.9c-0.2,2.1-2.1,3.8-4.3,3.2c-1.6-0.4-2.7-1.9-2.6-3.5C499.3,187.4,500.3,186.3,501.8,185.8
					C501.8,185.8,501.8,185.8,501.8,185.8z M496.2,182.2c-2.2-0.2-3.7-2.2-3.4-4.3c0.3-2.2,2.3-3.2,4.3-2.7c1.8,0.2,3.2,1.6,3.1,3.6
					C500.1,181,498.4,182.3,496.2,182.2z M502.9,207.7c-2.7-0.3-4.5-3.2-4.2-5.8c0.3-2.7,2.3-4.3,4.7-4.6c2.8-1.1,5.4,1,5.7,4.1
					C509.5,205.1,506.6,208.1,502.9,207.7z"/>
			</g>
		</g>
		<g>
			<g>
				<path class="st19" d="M921.3,533.4c-12.7-1.3-28-1.3-27.3,15.3c0,7.3,2,10.7,9.3,14c2,1.3,5.3,0,8,1.3c3.3,2,3.3,5.3,6,7.3
					c9.3,8,28,8,26.7-9.3c-0.7-9.3-8.7-9.3-13.3-15.3C927.3,541.4,930,533.4,921.3,533.4"/>
			</g>
			<g>
				<path class="st20" d="M944,562.5c-2.9,0.1-5.9-1-7-3.8c-0.9-2.3-0.6-4.7,0.8-6.2c-2.4-1.6-5.1-3.1-7.2-5.8
					c-3.2-5-0.9-12.5-8-13.3c-0.1,1.4-0.5,2.7-1.3,3.8c-1.1,1.4-3.3,2.3-5,1.8c-2.6-0.8-3.5-3.6-3.5-6.2c-6.6,0-12.9,1.3-16.2,5.8
					c1.7,1.1,2.8,3,2.1,5.2c-0.7,2.4-2.5,3.2-4.6,3.4c0,0.5,0,1,0,1.5c0,7.3,2,10.7,9.3,14c0.7,0.5,1.7,0.6,2.7,0.7
					c0.5-1.9,1.3-4.1,3-5c2.3-1.2,4.7-0.3,6.7,1.2c4.3,3.1,3,7.2,0.1,10.2c0.4,0.6,0.9,1.1,1.5,1.6C926.6,579.3,945,579.4,944,562.5
					z M905.6,556.5c-1.4,2.1-5.1,2.8-6.7,0.5c-0.4-0.6-0.6-1.3-0.6-2c-0.5-1.6,1.2-3.7,3-4C904,550.6,907.4,553.7,905.6,556.5z
					 M907.5,549.4c-2.8,0.8-6.5-0.7-6.9-3.9c-0.3-2.3,0.8-4.3,2.6-5.2c1.7-1.4,4.8-0.8,6.2,1C911.1,543.7,910.8,548.5,907.5,549.4z
					 M918.7,548.1c-1,1.1-2.7,1.5-4,0.7c-1.1-0.7-1.5-1.7-1.4-2.6c-0.1-1.2,0.4-2.4,1.7-3c0.5-0.3,1.2-0.4,1.8-0.4
					c0.2,0,0.3,0,0.5,0c0.2,0,0.3,0.1,0.4,0.2c0.7,0.2,1.3,0.7,1.6,1.6C919.7,545.6,919.5,547.2,918.7,548.1z M922.4,553.1
					c-0.1-1.2,0.4-2,1.2-2.5c0-0.1,0.1-0.2,0.2-0.3c1.8-0.9,4.1-0.4,4.8,1.7c0.6,1.9-0.6,3.7-2.6,4
					C924.2,556.1,922.5,554.9,922.4,553.1z M933.3,572c-3.8,1.4-7.7-0.9-8.3-4.9c-0.4-2.4,1-4,2.9-4.7c2.5-1.8,6-0.6,7.9,1.6
					C938.1,566.7,936.6,570.8,933.3,572z"/>
			</g>
		</g>
		<g>
			<g>
				<g>
					<g>
						<path class="st15" d="M375.3,476.5c2,0,3.8-1.7,3.8-3.8c-0.1-2-1.6-3.8-3.8-3.8c-2,0-3.8,1.7-3.8,3.8
							C371.6,474.8,373.2,476.5,375.3,476.5L375.3,476.5z"/>
					</g>
				</g>
				<g>
					<g>
						<path class="st15" d="M392,490.5c2,0,3.8-1.7,3.8-3.8c-0.1-2-1.6-3.8-3.8-3.8c-2,0-3.8,1.7-3.8,3.8
							C388.3,488.8,389.9,490.5,392,490.5L392,490.5z"/>
					</g>
				</g>
				<g>
					<g>
						<path class="st15" d="M360,504.5c2,0,3.8-1.7,3.8-3.8c-0.1-2-1.6-3.8-3.8-3.8c-2,0-3.8,1.7-3.8,3.8
							C356.3,502.8,357.9,504.5,360,504.5L360,504.5z"/>
					</g>
				</g>
				<g>
					<g>
						<path class="st15" d="M385.3,525.8c2,0,3.8-1.7,3.8-3.8c-0.1-2-1.6-3.8-3.8-3.8c-2,0-3.8,1.7-3.8,3.8
							C381.6,524.1,383.2,525.8,385.3,525.8L385.3,525.8z"/>
					</g>
				</g>
				<g>
					<g>
						<path class="st15" d="M362,551.8c2,0,3.8-1.7,3.8-3.8c-0.1-2-1.6-3.8-3.8-3.8c-2,0-3.8,1.7-3.8,3.8
							C358.3,550.1,359.9,551.8,362,551.8L362,551.8z"/>
					</g>
				</g>
				<g>
					<g>
						<path class="st15" d="M414,565.8c2,0,3.8-1.7,3.8-3.8c-0.1-2-1.6-3.8-3.8-3.8c-2,0-3.8,1.7-3.8,3.8
							C410.3,564.1,411.9,565.8,414,565.8L414,565.8z"/>
					</g>
				</g>
				<g>
					<g>
						<path class="st15" d="M402.6,595.8c2,0,3.8-1.7,3.8-3.8c-0.1-2-1.6-3.8-3.8-3.8c-2,0-3.8,1.7-3.8,3.8
							C399,594.1,400.5,595.8,402.6,595.8L402.6,595.8z"/>
					</g>
				</g>
				<g>
					<g>
						<path class="st15" d="M339.3,587.1c2,0,3.8-1.7,3.8-3.8c-0.1-2-1.6-3.8-3.8-3.8c-2,0-3.8,1.7-3.8,3.8
							C335.6,585.4,337.2,587.1,339.3,587.1L339.3,587.1z"/>
					</g>
				</g>
				<g>
					<g>
						<path class="st15" d="M325.3,557.1c2,0,3.8-1.7,3.8-3.8c-0.1-2-1.6-3.8-3.8-3.8c-2,0-3.8,1.7-3.8,3.8
							C321.6,555.4,323.2,557.1,325.3,557.1L325.3,557.1z"/>
					</g>
				</g>
			</g>
			<g>
				<g>
					<g>
						<path class="st15" d="M375.8,473.7c3.7,3.6,7.5,7.1,11.4,10.5c1.4,1.2,2.7,2.3,4.2,3.4c0.7,0.5,1.3-0.6,0.6-1.1
							c-5-3.7-9.6-8.1-14.1-12.4c-0.4-0.4-0.9-0.8-1.3-1.3C376.1,472.3,375.2,473.2,375.8,473.7L375.8,473.7z"/>
					</g>
				</g>
				<g>
					<g>
						<path class="st15" d="M374.4,474c-2.6,4.5-5,9.1-7.5,13.6c-1.1,2.1-2.4,4.1-3.7,6c-1.3,1.8-2.5,3.7-3.4,5.7
							c-0.3,0.7,0.9,1.1,1.2,0.3c0.9-2.2,2.3-4.1,3.6-6c1.3-1.9,2.5-3.9,3.6-5.9c2.4-4.4,4.7-8.8,7.2-13.2
							C375.9,473.9,374.8,473.3,374.4,474L374.4,474z"/>
					</g>
				</g>
				<g>
					<g>
						<path class="st15" d="M359.5,501c8.2,7.5,16.8,14.6,25.6,21.3c0.6,0.5,1.3-0.6,0.6-1.1c-8.7-6.7-17.2-13.7-25.4-21.2
							C359.8,499.6,358.9,500.5,359.5,501L359.5,501z"/>
					</g>
				</g>
				<g>
					<g>
						<path class="st15" d="M391.4,487.6c-1.2,8.5-2.5,17-4,25.5c-0.5,2.9-1.1,5.7-1.7,8.5c-0.2,0.8,1,1.1,1.2,0.3
							c2.4-10.2,3.8-20.7,5.3-31c0.1-1,0.3-2,0.4-3C392.7,487.2,391.5,486.8,391.4,487.6L391.4,487.6z"/>
					</g>
				</g>
				<g>
					<g>
						<path class="st15" d="M384.3,522.6c-6.7,7.3-13.4,14.6-20.1,21.9c-1,1-1.9,2.1-2.9,3.1c-0.5,0.6,0.3,1.5,0.9,0.9
							c6.7-7.3,13.4-14.6,20.1-21.9c1-1,1.9-2.1,2.9-3.1C385.7,522.9,384.8,522,384.3,522.6L384.3,522.6z"/>
					</g>
				</g>
				<g>
					<g>
						<path class="st15" d="M361.8,547.4c-10.4,1.6-20.9,3.2-31.3,4.8c-1.5,0.2-3,0.5-4.4,0.7c-0.8,0.1-0.5,1.3,0.3,1.2
							c10.4-1.6,20.9-3.2,31.3-4.8c1.5-0.2,3-0.5,4.4-0.7C362.9,548.5,362.6,547.3,361.8,547.4L361.8,547.4z"/>
					</g>
				</g>
				<g>
					<g>
						<path class="st15" d="M325.2,553.9c4.2,8.4,8.3,16.8,12.5,25.2c0.6,1.2,1.2,2.4,1.8,3.6c0.4,0.7,1.4,0.1,1.1-0.6
							c-4.2-8.4-8.3-16.8-12.5-25.2c-0.6-1.2-1.2-2.4-1.8-3.6C325.9,552.5,324.8,553.1,325.2,553.9L325.2,553.9z"/>
					</g>
				</g>
				<g>
					<g>
						<path class="st15" d="M339.7,584.7c8.5,1,17,2.2,25.5,3.7c8.1,1.4,16.1,3.3,24.3,4.7c4.5,0.7,9,1.3,13.5,1.1
							c0.8,0,0.8-1.3,0-1.2c-8.3,0.2-16.5-1.6-24.5-3.3c-8.2-1.7-16.5-3.2-24.7-4.4c-4.7-0.7-9.3-1.3-14-1.8
							C338.9,583.3,338.9,584.6,339.7,584.7L339.7,584.7z"/>
					</g>
				</g>
				<g>
					<g>
						<path class="st15" d="M403.5,592.9c5-9.1,8-19,11.1-28.9c0.2-0.8-1-1.1-1.2-0.3c-3,9.8-6,19.6-10.9,28.6
							C402,592.9,403.1,593.6,403.5,592.9L403.5,592.9z"/>
					</g>
				</g>
			</g>
		</g>
		<g>
			<g>
				<g>
					<g>
						<path class="st15" d="M983.3,269.8c2,0,3.8-1.7,3.8-3.8c-0.1-2-1.6-3.8-3.8-3.8c-2,0-3.8,1.7-3.8,3.8
							C979.6,268.1,981.2,269.8,983.3,269.8L983.3,269.8z"/>
					</g>
				</g>
				<g>
					<g>
						<path class="st15" d="M1012,259.1c2,0,3.8-1.7,3.8-3.8c-0.1-2-1.6-3.8-3.8-3.8c-2,0-3.8,1.7-3.8,3.8
							C1008.3,257.4,1009.9,259.1,1012,259.1L1012,259.1z"/>
					</g>
				</g>
				<g>
					<g>
						<path class="st15" d="M999.3,295.8c2,0,3.8-1.7,3.8-3.8c-0.1-2-1.6-3.8-3.8-3.8c-2,0-3.8,1.7-3.8,3.8
							C995.6,294.1,997.2,295.8,999.3,295.8L999.3,295.8z"/>
					</g>
				</g>
				<g>
					<g>
						<path class="st15" d="M1029.3,286.5c2,0,3.8-1.7,3.8-3.8c-0.1-2-1.6-3.8-3.8-3.8c-2,0-3.8,1.7-3.8,3.8
							C1025.6,284.8,1027.2,286.5,1029.3,286.5L1029.3,286.5z"/>
					</g>
				</g>
				<g>
					<g>
						<path class="st15" d="M1025.3,316.5c2,0,3.8-1.7,3.8-3.8c-0.1-2-1.6-3.8-3.8-3.8c-2,0-3.8,1.7-3.7,3.8
							C1021.6,314.8,1023.2,316.5,1025.3,316.5L1025.3,316.5z"/>
					</g>
				</g>
				<g>
					<g>
						<path class="st15" d="M1046,351.8c2,0,3.8-1.7,3.8-3.8c-0.1-2-1.6-3.8-3.8-3.8c-2,0-3.8,1.7-3.8,3.8
							C1042.3,350.1,1043.9,351.8,1046,351.8L1046,351.8z"/>
					</g>
				</g>
				<g>
					<g>
						<path class="st15" d="M1039.3,387.8c2,0,3.8-1.7,3.8-3.8c-0.1-2-1.6-3.8-3.8-3.8c-2,0-3.8,1.7-3.8,3.8
							C1035.6,386.1,1037.2,387.8,1039.3,387.8L1039.3,387.8z"/>
					</g>
				</g>
				<g>
					<g>
						<path class="st15" d="M1012,402.5c2,0,3.8-1.7,3.8-3.8c-0.1-2-1.6-3.8-3.8-3.8c-2,0-3.8,1.7-3.8,3.8
							C1008.3,400.8,1009.9,402.5,1012,402.5L1012,402.5z"/>
					</g>
				</g>
			</g>
			<g>
				<g>
					<g>
						<path class="st15" d="M983.4,266.2c9.6-3.4,19.2-6.9,28.8-10.5c0.7-0.3,0.4-1.5-0.3-1.2c-9.5,3.6-19.1,7.1-28.8,10.5
							C982.3,265.2,982.6,266.4,983.4,266.2L983.4,266.2z"/>
					</g>
				</g>
				<g>
					<g>
						<path class="st15" d="M982.8,266.2c3.3,4,5.3,8.8,8,13.1c2.9,4.6,6.1,9,9.1,13.6c0.4,0.7,1.5,0,1.1-0.6
							c-3.1-4.6-6.4-9.2-9.4-13.9c-2.7-4.3-4.7-9-8-13C983.2,264.7,982.3,265.6,982.8,266.2L982.8,266.2z"/>
					</g>
				</g>
				<g>
					<g>
						<path class="st15" d="M1011.7,256.1c4.4,6.6,8.8,13.1,13.1,19.8c1.5,2.3,3,4.6,4.4,7c0.4,0.7,1.5,0.1,1.1-0.6
							c-5.1-8.3-10.5-16.4-15.9-24.4c-0.5-0.8-1-1.5-1.6-2.3C1012.3,254.8,1011.2,255.4,1011.7,256.1L1011.7,256.1z"/>
					</g>
				</g>
				<g>
					<g>
						<path class="st15" d="M999.3,292.5c7.5,6,14.9,12,22.4,18.1c1.1,0.9,2.2,1.7,3.2,2.6c0.6,0.5,1.5-0.4,0.9-0.9
							c-7.5-6-14.9-12-22.4-18.1c-1.1-0.9-2.2-1.7-3.2-2.6C999.5,291.1,998.7,292,999.3,292.5L999.3,292.5z"/>
					</g>
				</g>
				<g>
					<g>
						<path class="st15" d="M1028.3,284.1c-1.2,9.5-2.5,19-3.2,28.5c-0.1,0.8,1.2,0.8,1.2,0c0.8-9.5,2-19,3.2-28.5
							C1029.7,283.3,1028.4,283.3,1028.3,284.1L1028.3,284.1z"/>
					</g>
				</g>
				<g>
					<g>
						<path class="st15" d="M1024.2,313.4c7.3,12,14.9,23.9,22,36c0.4,0.7,1.5,0.1,1.1-0.6c-7.1-12.1-14.7-24-22-36
							C1024.8,312,1023.8,312.7,1024.2,313.4L1024.2,313.4z"/>
					</g>
				</g>
				<g>
					<g>
						<path class="st15" d="M1044.9,347.9c-1.5,10.2-3.1,20.4-4.6,30.6c-0.2,1.5-0.4,2.9-0.7,4.4c-0.1,0.8,1.1,1.1,1.2,0.3
							c1.5-10.2,3.1-20.4,4.6-30.6c0.2-1.5,0.4-2.9,0.7-4.4C1046.2,347.4,1045,347.1,1044.9,347.9L1044.9,347.9z"/>
					</g>
				</g>
				<g>
					<g>
						<path class="st15" d="M1012.5,399.3c7.9-4.2,15.8-8.3,23.7-12.5c1.1-0.6,2.2-1.2,3.3-1.8c0.7-0.4,0.1-1.5-0.6-1.1
							c-7.9,4.2-15.8,8.3-23.7,12.5c-1.1,0.6-2.2,1.2-3.3,1.8C1011.2,398.6,1011.8,399.7,1012.5,399.3L1012.5,399.3z"/>
					</g>
				</g>
			</g>
		</g>
		<g>
			<g>
				<g>
					<g>
						<path class="st15" d="M694,255.1c2,0,3.8-1.7,3.8-3.8c-0.1-2-1.6-3.8-3.8-3.8c-2,0-3.8,1.7-3.8,3.8
							C690.3,253.4,691.9,255.1,694,255.1L694,255.1z"/>
					</g>
				</g>
				<g>
					<g>
						<path class="st15" d="M653.3,266.5c2,0,3.8-1.7,3.8-3.8c-0.1-2-1.6-3.8-3.8-3.8c-2,0-3.8,1.7-3.8,3.8
							C649.6,264.8,651.2,266.5,653.3,266.5L653.3,266.5z"/>
					</g>
				</g>
				<g>
					<g>
						<path class="st15" d="M695.3,282.5c2,0,3.8-1.7,3.8-3.8c-0.1-2-1.6-3.8-3.8-3.8c-2,0-3.8,1.7-3.8,3.8
							C691.6,280.8,693.2,282.5,695.3,282.5L695.3,282.5z"/>
					</g>
				</g>
				<g>
					<g>
						<path class="st15" d="M662,293.8c2,0,3.8-1.7,3.8-3.8c-0.1-2-1.6-3.8-3.8-3.8c-2,0-3.8,1.7-3.8,3.8
							C658.3,292.1,659.9,293.8,662,293.8L662,293.8z"/>
					</g>
				</g>
				<g>
					<g>
						<path class="st15" d="M623.3,293.8c2,0,3.8-1.7,3.8-3.8c-0.1-2-1.6-3.8-3.8-3.8c-2,0-3.8,1.7-3.8,3.8
							C619.6,292.1,621.2,293.8,623.3,293.8L623.3,293.8z"/>
					</g>
				</g>
				<g>
					<g>
						<path class="st15" d="M624.6,323.1c2,0,3.8-1.7,3.8-3.8c-0.1-2-1.6-3.8-3.8-3.8c-2,0-3.8,1.7-3.8,3.8
							C621,321.4,622.5,323.1,624.6,323.1L624.6,323.1z"/>
					</g>
				</g>
				<g>
					<g>
						<path class="st15" d="M658.6,329.1c2,0,3.8-1.7,3.8-3.8c-0.1-2-1.6-3.8-3.8-3.8c-2,0-3.8,1.7-3.8,3.8
							C655,327.4,656.5,329.1,658.6,329.1L658.6,329.1z"/>
					</g>
				</g>
				<g>
					<g>
						<path class="st15" d="M652.6,359.8c2,0,3.8-1.7,3.8-3.8c-0.1-2-1.6-3.8-3.8-3.8c-2,0-3.8,1.7-3.8,3.8
							C649,358.1,650.5,359.8,652.6,359.8L652.6,359.8z"/>
					</g>
				</g>
				<g>
					<g>
						<path class="st15" d="M685.3,365.1c2,0,3.8-1.7,3.8-3.8c-0.1-2-1.6-3.8-3.8-3.8c-2,0-3.8,1.7-3.8,3.8
							C681.6,363.4,683.2,365.1,685.3,365.1L685.3,365.1z"/>
					</g>
				</g>
			</g>
			<g>
				<g>
					<g>
						<path class="st15" d="M693.1,251c2.7,8.9,1.2,18.5,1.7,27.6c0,0.8,1.3,0.8,1.2,0c-0.5-9.2,1-18.9-1.8-27.9
							C694.1,249.9,692.9,250.2,693.1,251L693.1,251z"/>
					</g>
				</g>
				<g>
					<g>
						<path class="st15" d="M692.6,250.9c-11.4,3.1-22.8,6.3-34.2,9.4c-1.6,0.4-3.2,0.9-4.8,1.3c-0.8,0.2-0.4,1.4,0.3,1.2
							c11.4-3.1,22.8-6.3,34.2-9.4c1.6-0.4,3.2-0.9,4.8-1.3C693.7,251.9,693.3,250.7,692.6,250.9L692.6,250.9z"/>
					</g>
				</g>
				<g>
					<g>
						<path class="st15" d="M652.4,263c2.9,9,5.4,18.1,7.5,27.2c0.2,0.8,1.4,0.5,1.2-0.3c-2.1-9.2-4.6-18.3-7.5-27.2
							C653.3,261.9,652.1,262.2,652.4,263L652.4,263z"/>
					</g>
				</g>
				<g>
					<g>
						<path class="st15" d="M662.4,290.7c11.3-3.1,21.8-8.9,33.5-11c0.8-0.1,0.5-1.3-0.3-1.2c-11.7,2.1-22.2,7.9-33.5,11
							C661.3,289.7,661.6,290.9,662.4,290.7L662.4,290.7z"/>
					</g>
				</g>
				<g>
					<g>
						<path class="st15" d="M662.5,290.4c-9.6-0.5-19.3-1-28.9-1.4c-3.3-0.1-6.5-0.3-9.8-0.3c-0.8,0-0.8,1.2,0,1.2
							c11.8,0.2,23.5,0.9,35.3,1.6c1.2,0.1,2.3,0.1,3.5,0.2C663.3,291.7,663.3,290.5,662.5,290.4L662.5,290.4z"/>
					</g>
				</g>
				<g>
					<g>
						<path class="st15" d="M622.6,290.3c1,9.6-0.7,19.2,0.5,28.8c0.1,0.8,1.4,0.8,1.2,0c-1.2-9.6,0.5-19.2-0.5-28.8
							C623.8,289.5,622.5,289.5,622.6,290.3L622.6,290.3z"/>
					</g>
				</g>
				<g>
					<g>
						<path class="st15" d="M624.1,320.4c11.5,2.5,23.2,4.2,34.9,5.5c0.8,0.1,0.8-1.2,0-1.2c-11.6-1.3-23.2-3-34.6-5.5
							C623.6,319,623.3,320.2,624.1,320.4L624.1,320.4z"/>
					</g>
				</g>
				<g>
					<g>
						<path class="st15" d="M658.9,325.1c-2.5,10.2-4.6,20.5-6.8,30.8c-0.2,0.8,1,1.1,1.2,0.3c2.2-10.3,4.4-20.5,6.8-30.8
							C660.3,324.7,659.1,324.4,658.9,325.1L658.9,325.1z"/>
					</g>
				</g>
				<g>
					<g>
						<path class="st15" d="M652.8,356.7c9.5,1.9,19,3.8,28.4,5.7c1.4,0.3,2.7,0.5,4.1,0.8c0.8,0.2,1.1-1,0.3-1.2
							c-9.5-1.9-19-3.8-28.4-5.7c-1.4-0.3-2.7-0.5-4.1-0.8C652.4,355.3,652,356.5,652.8,356.7L652.8,356.7z"/>
					</g>
				</g>
			</g>
		</g>
		<g>
			<g>
				<g>
					<g>
						<path class="st15" d="M462.3,233.1c2,0,3.8-1.7,3.8-3.8c-0.1-2-1.6-3.8-3.8-3.8c-2,0-3.8,1.7-3.8,3.8
							C458.7,231.4,460.2,233.1,462.3,233.1L462.3,233.1z"/>
					</g>
				</g>
				<g>
					<g>
						<path class="st15" d="M452.6,211.7c2,0,3.8-1.7,3.8-3.8c-0.1-2-1.6-3.8-3.8-3.8c-2,0-3.8,1.7-3.8,3.8
							C448.9,210,450.5,211.7,452.6,211.7L452.6,211.7z"/>
					</g>
				</g>
				<g>
					<g>
						<path class="st15" d="M420.1,214.9c2,0,3.8-1.7,3.8-3.8c-0.1-2-1.6-3.8-3.8-3.8c-2,0-3.8,1.7-3.8,3.8
							C416.5,213.2,418,214.9,420.1,214.9L420.1,214.9z"/>
					</g>
				</g>
				<g>
					<g>
						<path class="st15" d="M435.7,174.7c2,0,3.8-1.7,3.8-3.8c-0.1-2-1.6-3.8-3.8-3.8c-2,0-3.8,1.7-3.8,3.8
							C432,172.9,433.6,174.7,435.7,174.7L435.7,174.7z"/>
					</g>
				</g>
				<g>
					<g>
						<path class="st15" d="M405.8,150.6c2,0,3.8-1.7,3.8-3.8c-0.1-2-1.6-3.8-3.8-3.8c-2,0-3.8,1.7-3.8,3.8
							C402.2,148.9,403.7,150.6,405.8,150.6L405.8,150.6z"/>
					</g>
				</g>
			</g>
			<g>
				<g>
					<g>
						<path class="st15" d="M463.2,230.2c-2.4-7.9-7.7-14.5-9.3-22.7c-0.2-0.8-1.4-0.5-1.2,0.3c1.6,8.2,7,14.8,9.3,22.7
							C462.3,231.3,463.5,231,463.2,230.2L463.2,230.2z"/>
					</g>
				</g>
				<g>
					<g>
						<path class="st15" d="M452.6,207.3c-9.5,0.9-19,1.9-28.5,2.8c-1.3,0.1-2.7,0.3-4,0.4c-0.8,0.1-0.8,1.3,0,1.2
							c9.5-0.9,19-1.9,28.5-2.8c1.3-0.1,2.7-0.3,4-0.4C453.4,208.5,453.4,207.2,452.6,207.3L452.6,207.3z"/>
					</g>
				</g>
				<g>
					<g>
						<path class="st15" d="M419.9,211.8c1.2,0.3,2.2-2.9,2.5-3.6c1.3-3.1,2.5-6.2,3.7-9.4c2.8-7.5,5.6-15,8.3-22.5
							c0.6-1.7,1.3-3.5,1.9-5.3c0.3-0.8-0.9-1.1-1.2-0.3c-4.1,11.6-8.2,23.3-12.9,34.7c-0.5,1.3-1,2.5-1.6,3.8
							c-0.2,0.4-0.4,0.8-0.6,1.1c-0.3,0.6-0.3,0.1,0.3,0.2C419.5,210.4,419.2,211.6,419.9,211.8L419.9,211.8z"/>
					</g>
				</g>
				<g>
					<g>
						<path class="st15" d="M436.7,170.6c-7.4-5.9-14.8-11.8-22.4-17.6c-2.6-2-5.1-3.9-7.8-5.9c-0.6-0.5-1.3,0.6-0.6,1.1
							c9.3,6.8,18.3,14,27.3,21.2c0.9,0.7,1.7,1.4,2.6,2.1C436.5,172,437.4,171.1,436.7,170.6L436.7,170.6z"/>
					</g>
				</g>
			</g>
		</g>
		<g>
			<g>
				<g>
					<g>
						<path class="st15" d="M847.4,189.6c2,0,3.8-1.7,3.8-3.8c-0.1-2-1.6-3.8-3.8-3.8c-2,0-3.8,1.7-3.8,3.8
							C843.7,187.9,845.3,189.6,847.4,189.6L847.4,189.6z"/>
					</g>
				</g>
				<g>
					<g>
						<path class="st15" d="M859.7,164.3c2,0,3.8-1.7,3.8-3.8c-0.1-2-1.6-3.8-3.8-3.8c-2,0-3.8,1.7-3.8,3.8
							C856.1,162.6,857.6,164.3,859.7,164.3L859.7,164.3z"/>
					</g>
				</g>
				<g>
					<g>
						<path class="st15" d="M895.4,176c2,0,3.8-1.7,3.8-3.8c-0.1-2-1.6-3.8-3.8-3.8c-2,0-3.8,1.7-3.8,3.8
							C891.8,174.2,893.3,176,895.4,176L895.4,176z"/>
					</g>
				</g>
				<g>
					<g>
						<path class="st15" d="M916.2,198c2,0,3.8-1.7,3.8-3.8c-0.1-2-1.6-3.8-3.8-3.8c-2,0-3.8,1.7-3.8,3.8
							C912.6,196.3,914.1,198,916.2,198L916.2,198z"/>
					</g>
				</g>
			</g>
			<g>
				<g>
					<g>
						<path class="st15" d="M847.1,186.5c3.3-3.6,5.3-8,7-12.5c1.7-4.5,3.2-9.1,6.1-12.9c0.5-0.6-0.6-1.3-1.1-0.6
							c-5.8,7.6-6.4,18-12.9,25.2C845.7,186.2,846.5,187.1,847.1,186.5L847.1,186.5z"/>
					</g>
				</g>
				<g>
					<g>
						<path class="st15" d="M859.8,160.7c12.4,5.2,25.6,8,38.3,12.3c0.8,0.3,1.1-0.9,0.3-1.2c-12.7-4.3-25.9-7.1-38.3-12.3
							C859.4,159.1,859.1,160.3,859.8,160.7L859.8,160.7z"/>
					</g>
				</g>
				<g>
					<g>
						<path class="st15" d="M895.9,173.2c6.4,7.7,13.3,14.9,20.7,21.7c0.6,0.5,1.5-0.3,0.9-0.9c-7.4-6.7-14.3-14-20.7-21.7
							C896.2,171.7,895.4,172.5,895.9,173.2L895.9,173.2z"/>
					</g>
				</g>
			</g>
		</g>
		<g>
			<g>
				<g>
					<g>
						<path class="st15" d="M787,457.1c2,0,3.8-1.7,3.8-3.8c-0.1-2-1.6-3.8-3.8-3.8c-2,0-3.8,1.7-3.8,3.8
							C783.3,455.4,784.9,457.1,787,457.1L787,457.1z"/>
					</g>
				</g>
				<g>
					<g>
						<path class="st15" d="M792.8,490.2c2,0,3.8-1.7,3.8-3.8c-0.1-2-1.6-3.8-3.8-3.8c-2,0-3.8,1.7-3.8,3.8
							C789.2,488.5,790.7,490.2,792.8,490.2L792.8,490.2z"/>
					</g>
				</g>
				<g>
					<g>
						<path class="st15" d="M835,464.3c2,0,3.8-1.7,3.8-3.8c-0.1-2-1.6-3.8-3.8-3.8c-2,0-3.8,1.7-3.8,3.8
							C831.4,462.6,832.9,464.3,835,464.3L835,464.3z"/>
					</g>
				</g>
				<g>
					<g>
						<path class="st15" d="M863.6,489.6c2,0,3.8-1.7,3.8-3.8c-0.1-2-1.6-3.8-3.8-3.8c-2,0-3.8,1.7-3.8,3.8
							C860,487.9,861.5,489.6,863.6,489.6L863.6,489.6z"/>
					</g>
				</g>
				<g>
					<g>
						<path class="st15" d="M883.7,476.6c2,0,3.8-1.7,3.8-3.8c-0.1-2-1.6-3.8-3.8-3.8c-2,0-3.8,1.7-3.8,3.8
							C880.1,474.9,881.6,476.6,883.7,476.6L883.7,476.6z"/>
					</g>
				</g>
			</g>
			<g>
				<g>
					<g>
						<path class="st15" d="M786,453.2c1.8,9.8,3.6,19.5,5.4,29.3c0.3,1.4,0.5,2.8,0.8,4.1c0.1,0.8,1.4,0.5,1.2-0.3
							c-1.8-9.8-3.6-19.5-5.4-29.3c-0.3-1.4-0.5-2.8-0.8-4.1C787.1,452.1,785.9,452.4,786,453.2L786,453.2z"/>
					</g>
				</g>
				<g>
					<g>
						<path class="st15" d="M793.7,487.5c6.2-5.2,12.9-9.7,19.7-14c5.9-3.8,11.9-7.5,17.9-11.1c1.2-0.7,2.4-1.4,3.6-2.1
							c0.7-0.4,0.1-1.5-0.6-1.1c-10.6,6.1-21,12.6-31.1,19.6c-3.6,2.5-7.1,5-10.4,7.8C792.2,487.1,793.1,488,793.7,487.5
							L793.7,487.5z"/>
					</g>
				</g>
				<g>
					<g>
						<path class="st15" d="M834.9,460.2c8.5,9.8,17.7,19,27.3,27.7c0.6,0.5,1.5-0.3,0.9-0.9c-9.7-8.6-18.8-17.9-27.3-27.7
							C835.2,458.7,834.3,459.6,834.9,460.2L834.9,460.2z"/>
					</g>
				</g>
				<g>
					<g>
						<path class="st15" d="M864,487.9c7.1-4.9,14.9-9,21.1-15.1c0.6-0.6-0.3-1.5-0.9-0.9c-6.1,6.1-13.9,10-20.9,14.9
							C862.7,487.3,863.3,488.4,864,487.9L864,487.9z"/>
					</g>
				</g>
			</g>
		</g>
		<g>
			<g>
				<g>
					<g>
						<path class="st15" d="M654.5,566.2c2,0,3.8-1.7,3.8-3.8c-0.1-2-1.6-3.8-3.8-3.8c-2,0-3.8,1.7-3.8,3.8
							C650.9,564.5,652.4,566.2,654.5,566.2L654.5,566.2z"/>
					</g>
				</g>
				<g>
					<g>
						<path class="st15" d="M614.3,581.2c2,0,3.8-1.7,3.8-3.8c-0.1-2-1.6-3.8-3.8-3.8c-2,0-3.8,1.7-3.8,3.8
							C610.6,579.4,612.2,581.2,614.3,581.2L614.3,581.2z"/>
					</g>
				</g>
				<g>
					<g>
						<path class="st15" d="M587,574.7c2,0,3.8-1.7,3.8-3.8c-0.1-2-1.6-3.8-3.8-3.8c-2,0-3.8,1.7-3.8,3.8
							C583.3,572.9,584.9,574.7,587,574.7L587,574.7z"/>
					</g>
				</g>
				<g>
					<g>
						<path class="st15" d="M553.2,571.4c2,0,3.8-1.7,3.8-3.8c-0.1-2-1.6-3.8-3.8-3.8c-2,0-3.8,1.7-3.8,3.8
							C549.6,569.7,551.1,571.4,553.2,571.4L553.2,571.4z"/>
					</g>
				</g>
				<g>
					<g>
						<path class="st15" d="M553.2,600.6c2,0,3.8-1.7,3.8-3.8c-0.1-2-1.6-3.8-3.8-3.8c-2,0-3.8,1.7-3.8,3.8
							C549.6,598.9,551.1,600.6,553.2,600.6L553.2,600.6z"/>
					</g>
				</g>
				<g>
					<g>
						<path class="st15" d="M596.1,626c2,0,3.8-1.7,3.8-3.8c-0.1-2-1.6-3.8-3.8-3.8c-2,0-3.8,1.7-3.8,3.8
							C592.4,624.2,594,626,596.1,626L596.1,626z"/>
					</g>
				</g>
			</g>
			<g>
				<g>
					<g>
						<path class="st15" d="M653.1,562.4c-9.4,3.4-18.9,6.7-28.3,10.2c-3.4,1.2-6.7,2.5-10.1,3.8c-0.7,0.3-0.4,1.5,0.3,1.2
							c11.6-4.5,23.3-8.6,35-12.8c1.1-0.4,2.2-0.8,3.3-1.2C654.2,563.4,653.9,562.2,653.1,562.4L653.1,562.4z"/>
					</g>
				</g>
				<g>
					<g>
						<path class="st15" d="M613.5,577.4c-8.2-2.9-16.8-4.8-25.3-6.7c-0.8-0.2-1.1,1-0.3,1.2c8.5,1.8,17.1,3.7,25.3,6.7
							C613.9,578.9,614.2,577.7,613.5,577.4L613.5,577.4z"/>
					</g>
				</g>
				<g>
					<g>
						<path class="st15" d="M586.3,570.8c-11,0-22.1-0.6-32.8-3c-0.8-0.2-1.1,1-0.3,1.2c10.9,2.4,22.1,3,33.2,3
							C587.1,572,587.1,570.8,586.3,570.8L586.3,570.8z"/>
					</g>
				</g>
				<g>
					<g>
						<path class="st15" d="M552.3,567.7c1,10,0.3,20,0.3,30c0,0.8,1.2,0.8,1.2,0c0-10,0.7-20-0.3-30
							C553.5,566.9,552.3,566.9,552.3,567.7L552.3,567.7z"/>
					</g>
				</g>
				<g>
					<g>
						<path class="st15" d="M553.2,598.2c6.1,4.9,12.9,9,19.7,13c6.3,3.7,12.6,7.2,19,10.6c1.3,0.7,2.6,1.4,3.9,2
							c0.7,0.4,1.3-0.7,0.6-1.1c-10.9-5.6-21.6-11.6-31.9-18.2c-3.6-2.3-7.1-4.6-10.4-7.3C553.5,596.8,552.6,597.7,553.2,598.2
							L553.2,598.2z"/>
					</g>
				</g>
			</g>
		</g>
		<g>
			<path class="st21" d="M386.2,285.2c-32.5,6.5-13.5,46.6,12.3,27.3C384,311.7,377.1,296.3,386.2,285.2"/>
		</g>
		<g>
			<path class="st21" d="M833.7,498.8c-11,1.9-19.5,13-14.3,24c4.5,9.1,18.5,12.4,29.2,2.6C834.4,524.8,826.8,511.2,833.7,498.8"/>
		</g>
		<g>
			<path class="st21" d="M733.7,157.3c-25.8,2.4-23.8,37.3,6.5,28.6C732.3,182.1,721.5,171.2,733.7,157.3"/>
		</g>
		<g>
			<path class="st22" d="M469.3,297.4c0,0-0.1,0.2-0.3,0.5c-0.2,0.3-0.4,0.8-0.7,1.5c-0.2,0.7-0.4,1.6,0.1,2.4
				c0.4,0.9,1.5,1.5,2.8,1.6c1.2,0.2,2.7-0.1,3.9-0.9c0.6-0.4,1.1-1,1.4-1.7c0.3-0.7,0.3-1.5,0.1-2.3c-0.4-1.6-1.5-3.3-2.7-4.8
				c-1.3-1.4-3.2-2.1-5.3-1.8c-2.1,0.2-4.2,1.1-6,2.5c-1.8,1.3-3.5,3.2-4,5.4c-0.1,0.5-0.2,1.1-0.1,1.6l0.1,0.4l0,0.2l0.1,0.2
				c0.1,0.3,0.1,0.7,0.2,0.9c0.3,1.1,0.9,2.2,1.7,3.1c1.5,1.8,3.9,3,6.5,3.4c5.2,0.8,11.1-0.9,15.1-4.7c1.9-1.9,3.2-4.4,3.1-7
				c-0.1-2.6-1.3-5.2-3.1-7.4c-0.4-0.6-0.9-1.1-1.4-1.6l-0.3-0.4l-0.4-0.4c-0.3-0.3-0.5-0.4-0.7-0.7c-1-0.9-2.2-1.6-3.5-2.1
				c-2.6-1-5.4-1.3-8.2-1.1c-5.6,0.5-11,2.9-15,6.6c-2,1.8-3.6,4-4.5,6.3c-1,2.3-1.2,4.9-0.8,7.2c0.9,4.9,3.3,9.3,6.9,11.7
				c1.8,1.2,3.8,2,5.7,2.5c1.9,0.5,3.9,0.7,5.7,0.7c3.6,0,6.8-0.5,9.4-1.1c2.6-0.6,4.5-1.3,5.9-1.9c0.7-0.3,1.2-0.5,1.5-0.6
				c0.3-0.1,0.5-0.2,0.5-0.2s-0.2,0.1-0.5,0.3c-0.3,0.2-0.8,0.4-1.5,0.7c-1.3,0.6-3.2,1.5-5.8,2.3c-2.6,0.8-5.8,1.5-9.5,1.7
				c-1.9,0.1-3.9,0-6-0.4c-2.1-0.4-4.3-1.2-6.3-2.5c-2-1.3-3.9-3.1-5.3-5.3c-0.7-1.1-1.3-2.3-1.8-3.5c-0.2-0.6-0.4-1.3-0.7-1.9
				c-0.2-0.7-0.3-1.2-0.5-1.9c-0.6-2.8-0.3-5.8,0.7-8.6c1-2.8,2.8-5.3,5-7.3c2.2-2.1,4.7-3.8,7.5-5.1c2.8-1.3,5.8-2.2,9-2.5
				c3.2-0.3,6.5,0,9.6,1.2c1.5,0.6,3,1.5,4.3,2.5c0.3,0.3,0.7,0.6,1,0.9l0.4,0.4l0.4,0.5c0.5,0.6,1.1,1.2,1.6,1.8
				c1.9,2.5,3.6,5.7,3.6,9.2c0,1.7-0.3,3.5-1.1,5c-0.7,1.6-1.8,2.9-2.9,4.1c-2.4,2.3-5.3,3.7-8.3,4.6c-3,0.9-6.2,1.1-9.2,0.6
				c-3-0.5-6-2-8-4.4c-1-1.2-1.6-2.6-2-4.1c-0.1-0.4-0.2-0.7-0.2-1l0-0.2c0-0.2,0-0.2,0-0.3c0-0.2,0-0.4-0.1-0.6
				c0-0.8,0.1-1.6,0.3-2.3c0.9-2.9,2.9-5,5-6.5c2.2-1.5,4.6-2.4,7.1-2.5c1.2-0.1,2.5,0.1,3.6,0.5c0.6,0.2,1.1,0.5,1.6,0.9
				c0.5,0.3,1,0.8,1.3,1.2c1.4,1.7,2.4,3.5,2.8,5.5c0.2,1,0.1,2-0.3,2.9c-0.4,0.9-1.1,1.6-1.8,2.1c-1.5,0.9-3.1,1-4.5,0.8
				c-1.4-0.2-2.6-1-3-2c-0.4-1-0.2-2,0.1-2.7c0.3-0.7,0.6-1.1,0.8-1.4C469.2,297.5,469.3,297.4,469.3,297.4z"/>
		</g>
		<g>
			<path class="st22" d="M906.6,433.4c0,0-0.3-0.1-0.7-0.4c-0.5-0.3-1.2-0.6-1.9-1.4c-0.4-0.4-0.7-0.9-0.9-1.5
				c-0.2-0.6-0.1-1.4,0.2-2.1c0.7-1.4,2.4-2.6,4.5-2.6c1,0,2.2,0.4,3,1.3c0.8,0.9,1.1,2.1,1.3,3.3c0.1,1.2,0,2.5-0.2,3.7
				c0,0.2,0,0.3-0.1,0.5c0,0.2-0.1,0.3-0.1,0.5c-0.1,0.4-0.2,0.7-0.4,1c-0.3,0.7-0.8,1.3-1.3,1.8c-1.1,1-2.7,1.5-4.2,1.7
				c-1.5,0.1-3.1-0.1-4.6-0.6c-1.5-0.5-3-1.2-4.3-2.3c-1.3-1-2.5-2.4-3.2-4.1c-0.7-1.7-0.8-3.7-0.2-5.6c0.1-0.2,0.1-0.5,0.2-0.7
				c0-0.1,0.1-0.2,0.1-0.4l0.1-0.3l0.3-0.6l0.3-0.6c0.4-0.8,0.9-1.6,1.6-2.4c1.2-1.5,2.8-2.8,4.7-3.5c1.9-0.8,4-1,6-0.7
				c4.1,0.5,7.9,2.7,10.8,5.8c1.4,1.6,2.6,3.4,3.4,5.6c0.7,2.1,0.9,4.5,0.3,6.8c-0.6,2.3-2,4.3-3.6,5.9c-1.7,1.6-3.6,2.8-5.6,3.8
				c-3.9,2-8.8,3.2-13.5,2c-2.3-0.6-4.5-1.7-6.3-3.3c-1.8-1.6-3.3-3.5-4.3-5.6c-2.1-4.2-2.8-9.2-1.8-13.8c0.5-2.3,1.5-4.6,2.9-6.5
				c1.4-2,3.2-3.6,5.3-4.8c2.1-1.2,4.3-2,6.6-2.4c2.3-0.4,4.6-0.5,6.8-0.4c4.6,0.3,9.1,2,12.7,4.8c3.5,2.8,6.1,6.7,7.5,10.8
				c1.4,4.1,1.7,8.6,0.7,12.7c-1,4.1-3.3,7.8-6.3,10.4c-3,2.6-6.7,4.2-10.2,5c-3.6,0.8-7.2,0.8-10.6,0.2c-6.7-1.3-12.2-5-15.6-9.2
				c-1.8-2.1-3-4.4-3.8-6.6c-0.8-2.2-1.2-4.4-1.2-6.3c-0.1-2,0.2-3.7,0.5-5.2c0.3-1.5,0.8-2.7,1.2-3.6c0.4-1,0.8-1.7,1-2.1
				c0.3-0.5,0.4-0.7,0.4-0.7s-0.1,0.2-0.4,0.7c-0.2,0.5-0.6,1.2-0.9,2.2c-0.7,1.9-1.6,4.9-1.3,8.7c0.2,3.8,1.8,8.4,5.3,12.3
				c3.5,3.9,8.8,7.2,15.1,8.3c3.2,0.5,6.5,0.5,9.9-0.4c3.3-0.9,6.6-2.4,9.3-4.8c2.7-2.4,4.6-5.7,5.4-9.3c0.8-3.7,0.5-7.6-0.8-11.3
				c-1.3-3.7-3.6-7.1-6.8-9.5c-3.1-2.5-7.1-3.9-11.1-4.1c-4.1-0.2-8.4,0.4-11.8,2.5c-1.7,1-3.2,2.4-4.4,4c-1.1,1.6-1.9,3.5-2.4,5.5
				c-0.8,3.9-0.3,8.2,1.5,11.9c1.8,3.6,5,6.5,8.7,7.4c1.9,0.5,3.9,0.5,5.8,0.2c2-0.3,3.8-1,5.7-1.9c1.8-0.9,3.5-1.9,4.9-3.2
				c1.4-1.3,2.5-2.9,2.9-4.6c0.5-1.7,0.4-3.6-0.2-5.3c-0.6-1.7-1.6-3.3-2.8-4.7c-2.4-2.8-5.8-4.7-9.2-5.2c-1.7-0.3-3.4-0.1-5,0.5
				c-1.5,0.6-2.9,1.6-3.9,2.8c-0.5,0.6-1,1.3-1.4,2l-0.3,0.5l-0.3,0.6l-0.1,0.3c0,0-0.1,0.2-0.1,0.2c-0.1,0.2-0.1,0.4-0.2,0.5
				c-0.5,1.5-0.5,3,0.1,4.3c1.1,2.8,3.8,4.7,6.4,5.6c1.3,0.5,2.7,0.7,4,0.6c1.3-0.1,2.5-0.4,3.4-1.2c0.4-0.4,0.8-0.8,1.1-1.3
				c0.1-0.3,0.2-0.5,0.3-0.8c0-0.1,0.1-0.3,0.1-0.4l0.1-0.4c0.3-1.2,0.4-2.4,0.3-3.5c-0.1-1.1-0.3-2.1-0.9-2.9
				c-0.6-0.8-1.5-1.1-2.4-1.2c-1.8-0.1-3.4,0.9-4.1,2.1c-0.4,0.6-0.5,1.3-0.3,1.9c0.1,0.6,0.4,1.1,0.7,1.5c0.7,0.8,1.3,1.2,1.8,1.5
				C906.4,433.3,906.6,433.4,906.6,433.4z"/>
		</g>
		<g>
			<g>
				<path class="st22" d="M620.1,472.4c0,0-0.2-0.1-0.5-0.2c-0.3-0.1-0.8-0.2-1.4-0.3c-1.2-0.2-3.1-0.3-5.3,0.5
					c-1.1,0.4-2.1,1.1-3,2.1c-0.9,1-1.5,2.4-1.7,3.9c-0.4,3,0.3,6.8,3,9.4c2.7,2.6,6.9,3.9,11.3,4.1c4.4,0.2,9.2-0.5,13.8-2.1
					c4.6-1.6,9.1-4.1,12.4-7.8c1.6-1.8,2.9-4,3.6-6.3l0.1-0.2c0,0,0-0.1,0-0.1l0-0.1l0.1-0.5l0.2-1c0.1-0.6,0.2-1.2,0.3-1.9
					c0.2-1.3,0.3-2.5,0.3-3.8c0.1-5.1-1.4-10.1-4.4-14.1c-2.9-4-7.1-7.1-11.5-9.2c-4.4-2.1-9.1-3.3-13.5-3.8
					c-4.5-0.5-8.8-0.3-12.7,0.5c-3.9,0.8-7.3,2.1-10,3.7c-2.8,1.6-4.8,3.6-6.2,5.5c-1.4,1.8-2.2,3.5-2.7,4.7c-0.3,0.6-0.4,1-0.5,1.3
					c-0.1,0.3-0.2,0.5-0.2,0.5s0-0.2,0.1-0.5c0.1-0.3,0.2-0.8,0.4-1.4c0.4-1.2,1-3,2.4-4.9c1.3-2,3.3-4.2,6.1-6.1
					c2.8-1.9,6.2-3.5,10.3-4.5c4-1,8.5-1.4,13.2-1c4.7,0.4,9.7,1.4,14.4,3.6c4.7,2.1,9.4,5.3,12.7,9.8c3.4,4.5,5.2,10.2,5.1,15.9
					c0,1.4-0.2,2.8-0.3,4.2c-0.1,0.7-0.2,1.4-0.4,2.1l-0.2,1l-0.1,0.5l0,0.1l0,0.2l-0.1,0.3c-0.8,2.8-2.3,5.4-4.2,7.5
					c-1.9,2.1-4.1,3.8-6.4,5.2c-2.3,1.4-4.8,2.4-7.3,3.2c-5,1.6-10,2.3-14.8,1.8c-2.4-0.2-4.7-0.7-6.9-1.5c-2.1-0.8-4.1-2-5.6-3.6
					c-1.5-1.6-2.5-3.5-2.9-5.4c-0.2-1-0.3-1.9-0.3-2.8c0-0.5,0-0.9,0-1.3l0-0.2l0-0.1l0,0c0-0.1,0-0.1,0-0.1l0.1-0.3
					c0-0.2,0.1-0.4,0.1-0.6c0.4-1.7,1.2-3.2,2.3-4.3c1.1-1.1,2.3-1.7,3.5-2.1c2.4-0.7,4.3-0.3,5.5,0c0.6,0.2,1.1,0.3,1.4,0.5
					C620,472.3,620.1,472.4,620.1,472.4z"/>
			</g>
			<g>
				<path class="st22" d="M620.1,472.4c0,0,0,0.1,0.1,0.4c0,0.2,0.1,0.6,0.2,1c0.2,0.9,0.7,2.2,1.8,3.4c1.2,1.2,3.1,1.9,5.4,1.7
					c2.2-0.2,4.7-1.1,7-2.7c2.2-1.7,4.2-4.1,4.7-7.1c0.6-3-0.4-6.2-2.5-9c-0.2-0.4-0.5-0.7-0.8-1c-0.2-0.3-0.6-0.7-0.9-1
					c-0.6-0.7-1.2-1.3-1.9-1.9c-1.3-1.2-2.8-2.3-4.3-3.2c-1.6-0.9-3.3-1.5-5-2c-1.8-0.4-3.6-0.5-5.4-0.4c-3.7,0.2-7.3,1.4-10.5,3.1
					c-3.3,1.7-6.2,4-8.6,6.6c-2.5,2.6-4.6,5.3-6.1,8.2c-1.6,2.9-2.7,5.8-3.3,8.6c-0.6,2.8-0.7,5.4-0.4,7.8c0.3,2.3,0.9,4.3,1.6,5.8
					c0.7,1.5,1.4,2.7,1.9,3.4c0.5,0.7,0.8,1.1,0.8,1.1s-0.3-0.4-1-1c-0.6-0.7-1.5-1.8-2.3-3.3c-0.8-1.5-1.7-3.5-2.2-5.9
					c-0.5-2.4-0.6-5.2-0.1-8.2c0.5-3,1.4-6.2,3-9.3c1.5-3.1,3.6-6.2,6.2-9c2.6-2.8,5.6-5.3,9.1-7.3c3.5-1.9,7.5-3.3,11.7-3.6
					c2.1-0.1,4.2,0,6.3,0.5c2,0.5,4,1.3,5.8,2.3c3.6,2,6.5,5,8.7,8.1c1.1,1.6,2,3.4,2.4,5.3c0.5,1.9,0.5,3.9,0.1,5.7
					c-0.4,1.8-1.3,3.5-2.3,4.8c-1.1,1.4-2.3,2.4-3.6,3.3c-2.6,1.7-5.4,2.5-8,2.5c-1.3,0-2.5-0.2-3.5-0.7c-1-0.4-1.8-1.1-2.4-1.8
					c-1.2-1.4-1.4-2.9-1.5-3.8c0-0.5-0.1-0.8-0.1-1.1C620.1,472.5,620.1,472.4,620.1,472.4z"/>
			</g>
			<g>
				<path class="st22" d="M620.1,472.4c1.4,0.3,2.9,0.5,4.4,0.4c0.7-0.1,1.4-0.2,2.1-0.5c0.7-0.3,1.2-0.7,1.7-1.2
					c0.4-0.5,0.7-1.1,0.8-1.8c0.1-0.7,0-1.3-0.2-2c-0.4-1.3-1.2-2.5-2-3.7l0,0.1c-2-2.1-4.7-3.3-7.5-3.2c-2.8,0-5.6,1.1-8,2.6
					c-2.5,1.5-4.7,3.5-6.5,5.7c-1.8,2.2-3.3,4.7-4.3,7.4c-1,2.7-1.4,5.5-1.1,8.3c0.3,2.7,1.4,5.4,3.1,7.6c1.7,2.2,4,4.1,6.4,5.3
					c2.5,1.3,5.3,2.1,8.2,2.6c2.9,0.5,5.8,0.6,8.7,0.5c2.9-0.1,5.8-0.5,8.7-1.1c2.9-0.6,5.7-1.5,8.4-2.6c2.7-1.1,5.3-2.5,7.7-4.2
					c2.4-1.7,4.6-3.7,6.4-5.9c1.8-2.3,3.3-4.9,4.2-7.7c0.9-2.8,1.3-5.8,1.1-8.7c-0.2-3-0.8-5.9-1.7-8.8c1.2,2.8,2.1,5.7,2.5,8.7
					c0.4,3,0.2,6.2-0.5,9.2c-0.7,3-2.2,5.9-4,8.4c-1.8,2.5-4.1,4.7-6.6,6.6c-5,3.8-10.8,6.3-16.8,7.7c-3,0.7-6.1,1.2-9.2,1.4
					c-3.1,0.1-6.2,0-9.3-0.5c-3.1-0.5-6.2-1.4-9-2.9c-2.9-1.5-5.4-3.6-7.4-6.2c-2-2.6-3.3-5.8-3.6-9c-0.3-3.3,0.3-6.5,1.5-9.5
					c1.2-3,2.9-5.7,4.9-8c2.1-2.4,4.5-4.4,7.3-6c2.7-1.5,5.9-2.6,9.1-2.5c1.6,0.1,3.2,0.4,4.7,1.1c1.5,0.7,2.7,1.8,3.8,2.9l0,0l0,0
					c0.8,1.3,1.6,2.6,1.9,4.2c0.2,0.8,0.2,1.6,0.1,2.4c-0.1,0.8-0.5,1.6-1.1,2.1c-0.6,0.6-1.3,1-2,1.2c-0.7,0.2-1.5,0.3-2.3,0.3
					C623,473.2,621.5,472.9,620.1,472.4z"/>
			</g>
			<g>
				<g>
					<path class="st22" d="M620.4,476.7c2,0,3.8-1.7,3.8-3.8c-0.1-2-1.6-3.8-3.8-3.8c-2,0-3.8,1.7-3.8,3.8
						C616.8,475,618.3,476.7,620.4,476.7L620.4,476.7z"/>
				</g>
			</g>
		</g>
		<g>
			<g>
				<g>
					<path class="st23" d="M522.3,418.3c2.2-10.1,4.3-20.2,7.3-30c-0.6,0.1-1.2,0.2-1.8,0.2c6.1,8.2,8.5,18.6,10.6,28.4
						c0.5-0.4,1-0.8,1.5-1.1c-7-4.7-14-9.3-21-14c-1-0.7-2-1.3-3-2c-0.1,0.6-0.2,1.2-0.2,1.8c9.8-1.5,19.8-1.3,29.7-1.3
						c-0.2-0.6-0.5-1.1-0.7-1.7c-7.5,6.8-16.5,11.9-24,18.7c-1,0.9,0.5,2.3,1.4,1.4c7.5-6.8,16.5-11.9,24-18.7
						c0.7-0.6,0.1-1.7-0.7-1.7c-10.1,0-20.3-0.1-30.3,1.4c-0.9,0.1-0.9,1.4-0.2,1.8c7,4.7,14,9.3,21,14c1,0.7,2,1.3,3,2
						c0.8,0.5,1.6-0.3,1.5-1.1c-2.1-10-4.6-20.5-10.8-28.9c-0.5-0.7-1.6-0.6-1.8,0.2c-3,9.8-5.2,19.9-7.3,30
						C520.1,419,522,419.6,522.3,418.3L522.3,418.3z"/>
				</g>
			</g>
			<g>
				<g>
					<g>
						<path class="st23" d="M529.6,388.4c13.3-10,27.6-18.5,42-26.7c4.2-2.4,8.4-4.7,12.5-7.1c0.8-0.5,0.1-1.8-0.8-1.3
							c-14.4,8.2-28.9,16.1-42.7,25.3c-4,2.7-8,5.5-11.9,8.4C528.1,387.7,528.8,389,529.6,388.4L529.6,388.4z"/>
					</g>
				</g>
				<g>
					<g>
						<path class="st23" d="M535.6,399.4c13.5-10.6,28-20.3,43.8-27.2c4.6-2,9.4-3.8,14.3-5.1c0.9-0.3,0.5-1.7-0.4-1.4
							c-17.3,4.8-33.2,14.2-47.8,24.5c-3.7,2.6-7.4,5.3-10.9,8.1C533.8,398.9,534.8,399.9,535.6,399.4L535.6,399.4z"/>
					</g>
				</g>
				<g>
					<g>
						<path class="st23" d="M545.7,400c13.4-7.3,27.4-13.3,41.4-19.3c4-1.7,8-3.5,12-5.3c0.9-0.4,0.1-1.7-0.8-1.3
							c-14.2,6.3-28.5,12.2-42.5,19c-3.7,1.8-7.3,3.6-10.9,5.6C544.1,399.2,544.8,400.5,545.7,400L545.7,400z"/>
					</g>
				</g>
				<g>
					<g>
						<path class="st23" d="M538.5,406.9c16.8-3.7,33.2-8.9,49.7-13.6c4.5-1.3,9-2.6,13.5-3.8c0.9-0.2,0.5-1.7-0.4-1.4
							c-16.6,4.4-32.9,9.6-49.5,14c-4.5,1.2-9.1,2.3-13.7,3.4C537.2,405.7,537.6,407.1,538.5,406.9L538.5,406.9z"/>
					</g>
				</g>
			</g>
			<g>
				<g>
					<g>
						<path class="st23" d="M552.5,380c12.7-8.4,25.7-16.2,39.5-22.8c0.6-0.3,0.1-1.1-0.5-0.9c-13.8,6.5-26.8,14.3-39.5,22.8
							C551.4,379.5,551.9,380.3,552.5,380L552.5,380z"/>
					</g>
				</g>
				<g>
					<g>
						<path class="st23" d="M566,385.2c5.7-4.4,13.1-5.7,19-9.8c0.5-0.4,0-1.2-0.5-0.9c-5.9,4.1-13.3,5.3-19,9.8
							C565,384.8,565.5,385.6,566,385.2L566,385.2z"/>
					</g>
				</g>
				<g>
					<g>
						<path class="st23" d="M563.2,395.7c12.8-6,26.5-9.8,38.8-16.8c0.6-0.3,0.1-1.2-0.5-0.9c-12.3,7-26,10.8-38.8,16.8
							C562.1,395.1,562.6,396,563.2,395.7L563.2,395.7z"/>
					</g>
				</g>
			</g>
		</g>
		<g>
			<g>
				<g>
					<path class="st23" d="M945.3,185.7c2.3-9.7,5.8-19.1,9.7-28.3c-0.6,0-1.3,0-1.9,0c2.5,9.1,5.2,18.2,7,27.5
						c0.5-0.4,1-0.8,1.5-1.1c-7.1-4.8-13.7-10.3-21-14.8c-0.2,0.6-0.3,1.2-0.5,1.9c4.6-0.6,9.1-0.8,13.7-0.8c3.9,0,7.7,0.2,11.6,0.1
						c-0.2-0.6-0.5-1.1-0.7-1.7c-2.4,3.1-5.8,5.5-9,7.8c-3.9,2.9-7.9,5.6-11.8,8.4c-1,0.7,0,2.5,1,1.7c4-2.9,8.1-5.7,12.1-8.6
						c3.2-2.3,6.6-4.7,9.1-7.9c0.5-0.6,0.2-1.7-0.7-1.7c-3.9,0.1-7.7-0.1-11.6-0.1c-4.6,0-9.2,0.2-13.7,0.8
						c-0.9,0.1-1.4,1.3-0.5,1.9c7.3,4.6,13.9,10.1,21,14.8c0.8,0.5,1.6-0.3,1.5-1.1c-1.8-9.3-4.5-18.4-7-27.5c-0.3-1-1.6-0.9-1.9,0
						c-3.8,9.2-7.4,18.6-9.7,28.3C943,186.4,945,186.9,945.3,185.7L945.3,185.7z"/>
				</g>
			</g>
			<g>
				<g>
					<g>
						<path class="st23" d="M954.2,157.8c15.1-5.9,30.2-12.1,46-16.1c0.9-0.2,0.5-1.7-0.4-1.4c-15.8,4-30.9,10.1-46,16.1
							C952.9,156.7,953.3,158.1,954.2,157.8L954.2,157.8z"/>
					</g>
				</g>
				<g>
					<g>
						<path class="st23" d="M958,168.7c11.9-9,27.1-13,41.6-15.7c3.8-0.7,7.7-1.3,11.5-1.8c0.9-0.1,1-1.6,0-1.5
							c-14.7,1.9-29.6,4.8-43.1,11.2c-3.8,1.8-7.4,3.9-10.8,6.4C956.5,167.9,957.2,169.2,958,168.7L958,168.7z"/>
					</g>
				</g>
				<g>
					<g>
						<path class="st23" d="M965.4,170c7.8-2.5,16-4.2,24.1-5.4c8.8-1.3,17.8-2.1,26.7-2.1c1,0,1-1.5,0-1.5
							c-8.9,0-17.8,0.8-26.7,2.1c-8.3,1.2-16.6,2.9-24.5,5.4C964.1,168.9,964.5,170.3,965.4,170L965.4,170z"/>
					</g>
				</g>
				<g>
					<g>
						<path class="st23" d="M959.9,176.8c14.4-3.3,29.5-2.6,44.2-2.3c4,0.1,7.9,0.2,11.9,0.2c1,0,1-1.5,0-1.5
							c-14.9,0-29.8-1.1-44.6,0.4c-4,0.4-8,1-11.9,1.8C958.6,175.5,959,177,959.9,176.8L959.9,176.8z"/>
					</g>
				</g>
			</g>
			<g>
				<g>
					<g>
						<path class="st23" d="M976.1,153.5c3.5-0.9,6.9-2,10.3-3.1c3.2-1,6.3-2.3,9.6-3.1c5.3-1.3,10.8-2.2,16.3-2.5c0.6,0,0.6-1,0-1
							c-5.4,0.3-10.9,1.2-16.2,2.5c-3.3,0.8-6.5,2.1-9.7,3.1c-3.5,1.1-7,2.2-10.5,3.2C975.2,152.7,975.5,153.7,976.1,153.5
							L976.1,153.5z"/>
					</g>
				</g>
				<g>
					<g>
						<path class="st23" d="M994.5,158.6c8.4,0.2,16.6-1.7,25-2.2c0.6,0,0.6-1,0-1c-8.4,0.5-16.6,2.5-25,2.2
							C993.8,157.5,993.8,158.5,994.5,158.6L994.5,158.6z"/>
					</g>
				</g>
				<g>
					<g>
						<path class="st23" d="M992,169.6c4.6,0.4,9.2-0.6,13.8-1.1c5-0.5,10-0.4,15-0.4c0.6,0,0.6-1,0-1c-5,0-10-0.1-15,0.4
							c-4.6,0.5-9.2,1.5-13.8,1.1C991.3,168.5,991.3,169.5,992,169.6L992,169.6z"/>
					</g>
				</g>
			</g>
		</g>
		<g>
			<g>
				<g>
					<path class="st23" d="M980.2,605.2c3.6-8,4.5-16.9,8.7-24.7c-0.6-0.1-1.2-0.2-1.8-0.2c2.9,8,6,16.4,6.8,24.9
						c0.5-0.3,1-0.6,1.5-0.9c-7.2-4-13.6-9.5-20.2-14.5c-0.2,0.6-0.3,1.2-0.5,1.9c9.3-0.4,18.7-0.7,28-0.7c-0.2-0.6-0.5-1.1-0.7-1.7
						c-6.9,6.1-16.1,9-23.3,14.7c-1,0.8,0.4,2.2,1.4,1.4c7.2-5.7,16.4-8.6,23.3-14.7c0.7-0.6,0.1-1.7-0.7-1.7
						c-9.3,0-18.7,0.2-28,0.7c-1.1,0-1.3,1.3-0.5,1.9c6.6,4.9,12.9,10.4,20.2,14.5c0.6,0.3,1.6-0.1,1.5-0.9
						c-0.8-8.7-3.9-17.2-6.9-25.4c-0.3-0.8-1.4-1-1.8-0.2c-4.2,7.8-5.1,16.7-8.7,24.7C977.9,605.4,979.6,606.4,980.2,605.2
						L980.2,605.2z"/>
				</g>
			</g>
			<g>
				<g>
					<g>
						<path class="st23" d="M988.8,580.5c12.9-11.3,25-23.5,39-33.4c3.9-2.7,7.9-5.2,12.1-7.4c0.9-0.4,0.1-1.7-0.8-1.3
							c-15.3,8-28.2,19.9-40.8,31.5c-3.5,3.2-7,6.4-10.6,9.6C987,580.1,988.1,581.2,988.8,580.5L988.8,580.5z"/>
					</g>
				</g>
				<g>
					<g>
						<path class="st23" d="M991.9,589.7c13.8-8.4,26.9-18,40.3-27.1c3.6-2.5,7.3-4.9,11-7.3c0.8-0.5,0.1-1.8-0.8-1.3
							c-13.6,8.7-26.5,18.3-40,27.2c-3.7,2.5-7.5,4.9-11.3,7.2C990.3,588.9,991.1,590.2,991.9,589.7L991.9,589.7z"/>
					</g>
				</g>
				<g>
					<g>
						<path class="st23" d="M1003,590.7c14.3-6.5,29.2-11.7,43.5-18.5c0.9-0.4,0.1-1.7-0.8-1.3c-14.2,6.8-29.1,12-43.5,18.5
							C1001.4,589.8,1002.1,591.1,1003,590.7L1003,590.7z"/>
					</g>
				</g>
				<g>
					<g>
						<path class="st23" d="M994.1,597.3c14.6-1.4,29-4.4,43.4-6.8c3.8-0.6,7.7-1.3,11.5-1.8c1-0.1,0.5-1.6-0.4-1.4
							c-14.5,2-28.8,5-43.2,7.2c-3.8,0.6-7.5,1.1-11.3,1.4C993.2,595.9,993.2,597.4,994.1,597.3L994.1,597.3z"/>
					</g>
				</g>
			</g>
			<g>
				<g>
					<g>
						<path class="st23" d="M1011.2,567.7c3-1.6,5.6-3.9,8.2-6c2.9-2.4,6-4.5,9.3-6.2c3.4-1.8,6.7-3.7,10-5.6
							c3.3-1.9,6.7-3.7,10-5.7c0.6-0.3,0-1.2-0.5-0.9c-3.3,2-6.7,3.8-10,5.7c-3.3,1.9-6.6,3.8-10,5.6c-3.2,1.7-6.1,3.6-8.9,5.9
							c-2.8,2.3-5.4,4.7-8.6,6.4C1010.2,567.2,1010.7,568,1011.2,567.7L1011.2,567.7z"/>
					</g>
				</g>
				<g>
					<g>
						<path class="st23" d="M1027.5,574.2c6.1-3.8,12.2-7.9,18.9-10.7c0.6-0.2,0.3-1.2-0.3-1c-6.8,2.8-12.9,6.9-19.1,10.8
							C1026.4,573.7,1026.9,574.6,1027.5,574.2L1027.5,574.2z"/>
					</g>
				</g>
				<g>
					<g>
						<path class="st23" d="M1027.4,586.8c8.3-3.4,16.4-7.6,25.2-9.2c0.6-0.1,0.4-1.1-0.3-1c-8.9,1.6-17,5.9-25.2,9.2
							C1026.5,586.1,1026.8,587,1027.4,586.8L1027.4,586.8z"/>
					</g>
				</g>
			</g>
		</g>
		<g>
			<g>
				<path class="st24" d="M329.1,368.3c9.1-7.8,22.9-28.7,28.1-25.3c3.4,1.6-0.6,8.4-3.9,11.7c6.1-5.8,11.7-13.8,16.1-9.8
					c2.6,2.8-5.2,9.8-9.1,12.4c3.2-1.3,8.7-5.9,11.1-3.3c4.3,3.4-18.3,16.3-28.6,23.2"/>
			</g>
			<g>
				<path class="st25" d="M335,365.7c-12.3,0.6-8.4,18.2,3.2,14.3c11-3.9,6.5-16.2-3.9-14.3"/>
			</g>
			<g>
				<path class="st26" d="M334.5,369.9c-6.9,0.4-4.7,10.2,1.8,8c6.2-2.2,3.6-9.1-2.2-8"/>
			</g>
			<g>
				<g>
					<path class="st27" d="M334.2,377.6c3.2,0,3.2-5,0-5C331,372.6,331,377.6,334.2,377.6L334.2,377.6z"/>
				</g>
			</g>
		</g>
		<g>
			<g>
				<path class="st24" d="M557.3,186.4c3.2-7.8,9.5-11.9,14.1-18.7c6.7-9.8,17.6-13,9.7-0.6c8.8-11,18.3-6.5,5.8,5.2
					c8.4-7.1,10.6,0.2,2.6,5.8c-6.4,4.5-12.3,9.1-19.2,14.7"/>
			</g>
			<g>
				<path class="st25" d="M563,180c-9.7,4.5-6.7,16.4,3.9,14.3C576.8,192.3,574.8,178.1,563,180"/>
			</g>
			<g>
				<path class="st26" d="M562.9,184.2c-5.5,2.5-3.7,9.2,2.2,8C570.7,191.1,569.5,183.1,562.9,184.2"/>
			</g>
			<g>
				<g>
					<path class="st27" d="M563.2,191.8c3.2,0,3.2-5,0-5C560,186.8,560,191.8,563.2,191.8L563.2,191.8z"/>
				</g>
			</g>
		</g>
		<g>
			<g>
				<path class="st24" d="M722.7,422.2c7.1-12.3,26.4-48.7,32.5-42.9c3.5,2.5,0,8.4-1.9,12.3c2.6-5.2,11.1-17.5,16.2-13.6
					c4.2,3.3-5.2,14.3-8.4,20.1c2.6-3.9,8.6-9.8,11.7-5.5c3.4,4.6-22.7,28.3-33.1,38"/>
			</g>
			<g>
				<path class="st25" d="M733.1,416.4c-14.6-0.8-15.6,18.2-2.6,18.8C743.5,435.8,749.1,418.4,733.1,416.4"/>
			</g>
			<g>
				<path class="st26" d="M731.7,421.5c-8.2-0.5-8.7,10.2-1.5,10.5C737.5,432.4,740.6,422.6,731.7,421.5"/>
			</g>
			<g>
				<g>
					<path class="st27" d="M729.5,431.2c4,0,4-6.2,0-6.2C725.4,424.9,725.4,431.2,729.5,431.2L729.5,431.2z"/>
				</g>
			</g>
		</g>
		<g>
			<g>
				<path class="st28" d="M815.6,351.4c0,0,1-1,2.6-2.6c0.4-0.4,0.8-0.8,1.3-1.3c0.4-0.5,1-0.9,1.5-1.4c1.1-0.9,2.2-2,3.3-3
					c1.1-1,2.2-2,3.2-2.9c0.5-0.5,1-0.9,1.5-1.3c0.4-0.4,0.9-0.9,1.3-1.3c1.6-1.6,2.6-2.6,2.6-2.6s-0.8,1.3-1.9,3.2
					c-0.3,0.5-0.6,1-0.9,1.6c-0.3,0.6-0.7,1.1-1.1,1.7c-0.8,1.2-1.6,2.4-2.4,3.6c-0.8,1.2-1.6,2.4-2.4,3.5c-0.4,0.6-0.7,1.1-1.1,1.6
					c-0.3,0.5-0.6,1.1-0.9,1.5c-1.1,1.9-1.9,3.2-1.9,3.2l0,0c-0.8,1.4-2.7,1.9-4.1,1.1c-1.4-0.8-1.9-2.7-1.1-4.1
					C815.3,351.8,815.5,351.5,815.6,351.4z"/>
			</g>
			<g>
				<path class="st28" d="M834.4,348.2l22.5-24.8l-17.7,28.4l0,0c-0.9,1.4-2.7,1.8-4.2,1c-1.4-0.9-1.8-2.7-1-4.2
					C834.2,348.4,834.3,348.3,834.4,348.2z"/>
			</g>
			<g>
				<path class="st28" d="M852.4,348L840,370.5c-0.8,1.5-2.6,2-4.1,1.2c-1.5-0.8-2-2.6-1.2-4.1c0.1-0.2,0.2-0.4,0.4-0.6l0,0
					L852.4,348z"/>
			</g>
		</g>
		<g>
			<g>
				<path class="st28" d="M618.2,513c0,0-5,5.8-9.9,11.6c-0.6,0.7-1.2,1.5-1.8,2.2c-0.6,0.7-1.1,1.5-1.7,2.2c-1.1,1.4-2.1,2.7-3,3.8
					c-1.7,2.2-2.9,3.7-2.9,3.7l-0.1,0.1c-1,1.3-2.9,1.6-4.2,0.5c-1.3-1-1.6-2.9-0.5-4.2c0.1-0.2,0.3-0.3,0.4-0.4
					c0,0,1.5-1.3,3.7-3.2c1.1-0.9,2.4-2,3.7-3.2c0.7-0.6,1.4-1.2,2.1-1.8c0.7-0.6,1.4-1.2,2.2-1.8C612.2,517.7,618.2,513,618.2,513z
					"/>
			</g>
			<g>
				<path class="st28" d="M618.2,531.1c0,0-1.2,1.4-2.9,3.6c-1.7,2.1-4.1,5-6.4,7.8c-1.2,1.4-2.5,2.8-3.6,4.1
					c-0.6,0.6-1.1,1.3-1.7,1.9c-0.6,0.6-1.1,1.1-1.6,1.6c-2,2-3.4,3.3-3.4,3.3c-1.2,1.2-3.1,1.2-4.3,0c-1.2-1.2-1.2-3.1,0-4.3
					c0.1-0.1,0.3-0.3,0.5-0.4l0.2-0.1c0,0,1.5-1,3.7-2.4c0.6-0.4,1.2-0.8,1.8-1.2c0.7-0.4,1.3-0.9,2-1.4c1.4-1,2.8-2.1,4.3-3.2
					c2.8-2.3,5.7-4.6,7.8-6.3C616.7,532.3,618.2,531.1,618.2,531.1z"/>
			</g>
			<g>
				<path class="st28" d="M594.8,518.8l-16.6,22.8c-1,1.3-2.9,1.6-4.2,0.7c-1.3-1-1.6-2.9-0.7-4.2c0.1-0.2,0.3-0.3,0.4-0.5l0,0
					L594.8,518.8z"/>
			</g>
		</g>
		<g>
			<g>
				<path class="st28" d="M507.3,255.5c0,0,1.3-1.5,3.2-3.7c0.5-0.5,1-1.1,1.5-1.8c0.5-0.6,1.2-1.3,1.8-2c1.3-1.4,2.6-2.8,3.9-4.2
					c1.4-1.4,2.8-2.7,4.1-4c0.7-0.6,1.3-1.3,1.9-1.8c0.6-0.6,1.2-1.1,1.8-1.6c2.2-1.9,3.7-3.2,3.7-3.2s-1.2,1.5-3,3.8
					c-0.4,0.6-0.9,1.2-1.4,1.9c-0.5,0.7-1,1.4-1.5,2.1c-1,1.5-2.1,3.1-3.2,4.7c-1,1.6-2,3.3-3,4.8c-0.5,0.8-0.9,1.5-1.4,2.2
					c-0.4,0.7-0.8,1.4-1.2,2c-1.5,2.5-2.4,4.2-2.4,4.2c-0.8,1.4-2.7,1.9-4.1,1.1c-1.4-0.8-1.9-2.7-1.1-4.1
					C507,255.8,507.2,255.7,507.3,255.5z"/>
			</g>
			<g>
				<path class="st28" d="M488.2,257.7c0,0,0.4-0.4,1.2-1c0.4-0.3,0.8-0.7,1.4-1.1c0.5-0.4,1.1-0.9,1.7-1.5c0.6-0.6,1.3-1.2,1.9-1.8
					c0.7-0.6,1.4-1.3,2.2-2c1.5-1.5,3.1-3,4.7-4.6c1.6-1.6,3.2-3.2,4.6-4.7c1.5-1.5,2.8-3,4-4.2c2.3-2.5,3.8-4.1,3.8-4.1
					s-1.2,1.9-3.1,4.7c-0.9,1.4-2,3.1-3.2,4.8c-1.2,1.8-2.5,3.6-3.8,5.5c-1.3,1.9-2.7,3.7-3.9,5.4c-0.6,0.9-1.3,1.7-1.9,2.5
					c-0.6,0.8-1.2,1.5-1.7,2.2c-0.5,0.7-1,1.2-1.5,1.8c-0.4,0.5-0.8,1-1.2,1.4c-0.6,0.8-1,1.2-1,1.2c-1.1,1.3-3,1.4-4.2,0.3
					c-1.3-1.1-1.4-3-0.3-4.2C488,258,488.1,257.9,488.2,257.7L488.2,257.7z"/>
			</g>
			<g>
				<path class="st28" d="M511.2,271.6l23.1-22.7l-18.5,26.6c-0.9,1.4-2.8,1.7-4.2,0.8c-1.4-0.9-1.7-2.8-0.8-4.2
					C510.9,271.9,511,271.7,511.2,271.6z"/>
			</g>
		</g>
		<g>
			<path class="st29" d="M978.4,519.4c0.4,2.8-1.6,5.6-4,6.9c-3,1.7-5-1.3-5.2-3.9c-0.2-2.9,0.8-6.6,4.1-7.5
				C976.2,514,978.4,516.8,978.4,519.4C978.8,522.3,978.4,519,978.4,519.4z"/>
			<path class="st29" d="M996.4,507.4c0.4,2.8-1.6,5.6-4,6.9c-3,1.7-5-1.3-5.2-3.9c-0.2-2.9,0.8-6.6,4.1-7.5
				C994.2,502,996.4,504.8,996.4,507.4C996.8,510.3,996.4,507,996.4,507.4z"/>
			<path class="st29" d="M997.6,526.9c0.2,1.7-1,3.3-2.4,4.1c-1.8,1-3-0.8-3.1-2.4c-0.1-1.7,0.5-3.9,2.4-4.5
				C996.3,523.7,997.6,525.4,997.6,526.9C997.8,528.7,997.6,526.7,997.6,526.9z"/>
		</g>
		<g>
			<path class="st29" d="M429.6,529c0.1,1.3,0.7,3.7-0.5,4.7c-1.4,1.1-3.3,0-4.1-1.2c-0.9-1.4-1.6-3.2,0.1-4.3
				C426.3,527.4,429.6,526.6,429.6,529C429.6,530.1,429.6,528,429.6,529z"/>
			<path class="st29" d="M449.4,515.8c0.1,2.1,1.1,6.2-0.9,7.8c-2.3,1.8-5.5-0.1-6.8-2c-1.5-2.3-2.7-5.4,0.2-7.1
				C443.9,513.2,449.3,511.9,449.4,515.8C449.5,517.6,449.4,514.2,449.4,515.8z"/>
			<path class="st29" d="M452.4,534.8c0.1,2.1,1.1,6.2-0.9,7.8c-2.3,1.8-5.5-0.1-6.8-2c-1.5-2.3-2.7-5.4,0.2-7.1
				C446.9,532.2,452.3,530.9,452.4,534.8C452.5,536.6,452.4,533.2,452.4,534.8z"/>
		</g>
		<g>
			<path class="st29" d="M647.3,213.3c0.4,2.4-1.9,5.5-4.5,5.5c-2.4,0-4.3-4.4-3.9-6.4c0.3-1.9,3.2-4,5.1-3.9
				C646.6,208.7,647.4,211.1,647.3,213.3C647.6,215.5,647.3,212.8,647.3,213.3z"/>
			<path class="st29" d="M665.3,201.3c0.4,2.4-1.9,5.5-4.5,5.5c-2.4,0-4.3-4.4-3.9-6.4c0.3-1.9,3.2-4,5.1-3.9
				C664.6,196.7,665.4,199.1,665.3,201.3C665.6,203.5,665.3,200.8,665.3,201.3z"/>
			<path class="st29" d="M666.6,220.5c0.2,1.4-1.2,3.3-2.7,3.3c-1.4,0-2.6-2.7-2.4-3.9c0.2-1.1,1.9-2.4,3.1-2.3
				C666.2,217.7,666.7,219.1,666.6,220.5C666.8,221.8,666.6,220.1,666.6,220.5z"/>
		</g>
		<g>
			<path class="st29" d="M376.9,235.8c2.7,0,4.9,0.5,4.3,3.8c-0.6,2.9-1.9,4.4-5.1,4.5c-2.4,0.1-4-2.2-4.2-4.5
				C371.7,236.3,374.4,235.7,376.9,235.8C377.6,235.8,376.5,235.8,376.9,235.8z"/>
			<path class="st29" d="M394.8,225.4c1.6,0,2.9,0.3,2.6,2.3c-0.3,1.8-1.1,2.7-3.1,2.7c-1.4,0-2.4-1.3-2.5-2.7
				C391.7,225.8,393.3,225.4,394.8,225.4C395.2,225.4,394.5,225.4,394.8,225.4z"/>
			<path class="st29" d="M397.9,242.8c2.7,0,4.9,0.5,4.3,3.8c-0.6,2.9-1.9,4.4-5.1,4.5c-2.4,0.1-4-2.2-4.2-4.5
				C392.7,243.3,395.4,242.7,397.9,242.8C398.6,242.8,397.5,242.8,397.9,242.8z"/>
		</g>
		<g>
			<path class="st29" d="M969.6,224.5c0,1.4-1,2.2-2.3,2.1c-1.7-0.2-3.5-0.2-3.1-2.5c0.2-1.4,1.5-3,3.1-2.8
				C969.1,221.5,969.4,223,969.6,224.5C969.6,226.1,969.5,224,969.6,224.5z"/>
			<path class="st29" d="M989.4,212.9c0,2.3-1.6,3.6-3.8,3.4c-2.9-0.3-5.8-0.3-5.2-4.2c0.4-2.4,2.6-5.1,5.2-4.7
				C988.6,207.8,989.1,210.4,989.4,212.9C989.4,215.5,989.3,212.1,989.4,212.9z"/>
			<path class="st29" d="M992.4,231.9c0,2.3-1.6,3.6-3.8,3.4c-2.9-0.3-5.8-0.3-5.2-4.2c0.4-2.4,2.6-5.1,5.2-4.7
				C991.6,226.8,992.1,229.4,992.4,231.9C992.4,234.5,992.3,231.1,992.4,231.9z"/>
		</g>
		<g>
			<path class="st29" d="M803,409.4c-0.3,1.9-0.6,4.2-3.1,4.1c-2-0.1-5.9-0.5-5.6-3.3c0.2-2.1,1.8-4.7,4.1-4.9
				C800.9,404.9,803.1,406.9,803,409.4C803,409.8,803.1,406.6,803,409.4z"/>
			<path class="st29" d="M819.3,397.3c-0.2,1.2-0.4,2.5-1.8,2.4c-1.2-0.1-3.5-0.3-3.3-2c0.1-1.3,1.1-2.8,2.5-3
				C818,394.7,819.4,395.9,819.3,397.3C819.3,397.6,819.4,395.7,819.3,397.3z"/>
			<path class="st29" d="M824,416.4c-0.3,1.9-0.6,4.2-3.1,4.1c-2-0.1-5.9-0.5-5.6-3.3c0.2-2.1,1.8-4.7,4.1-4.9
				C821.9,411.9,824.1,413.9,824,416.4C824,416.8,824.1,413.6,824,416.4z"/>
		</g>
		<path class="st29" d="M526.5,341.2c0.1,1.3,0.7,3.7-0.5,4.7c-1.4,1.1-3.3,0-4.1-1.2c-0.9-1.4-1.6-3.2,0.1-4.3
			C523.3,339.7,526.5,338.9,526.5,341.2C526.6,342.3,526.5,340.2,526.5,341.2z"/>
		<path class="st29" d="M876.9,610c0,1.4-1,2.2-2.3,2.1c-1.7-0.2-3.5-0.2-3.1-2.5c0.2-1.4,1.5-3,3.1-2.8
			C876.4,607,876.7,608.5,876.9,610C876.9,611.6,876.8,609.5,876.9,610z"/>
		<path class="st29" d="M832.4,145.6c-0.2,1.2-0.4,2.5-1.8,2.4c-1.2-0.1-3.5-0.3-3.3-2c0.1-1.3,1.1-2.8,2.5-3
			C831.1,143,832.5,144.2,832.4,145.6C832.4,145.9,832.5,144,832.4,145.6z"/>
		<path class="st29" d="M330.2,452.2c0.2,1.7-1,3.3-2.4,4.1c-1.8,1-3-0.8-3.1-2.4c-0.1-1.7,0.5-3.9,2.4-4.5
			C328.9,449,330.2,450.7,330.2,452.2C330.4,454,330.2,452,330.2,452.2z"/>
		<path class="st29" d="M921.5,301.1c0.2,1.4-1.2,3.3-2.7,3.3c-1.4,0-2.6-2.7-2.4-3.9c0.2-1.1,1.9-2.4,3.1-2.3
			C921.1,298.3,921.5,299.8,921.5,301.1C921.7,302.4,921.5,300.8,921.5,301.1z"/>
		<path class="st29" d="M486.8,612.7c0.1,1,0.5,3-0.4,3.8c-1.1,0.9-2.6,0-3.3-1c-0.7-1.1-1.3-2.6,0.1-3.4
			C484.2,611.4,486.8,610.8,486.8,612.7C486.9,613.5,486.8,611.9,486.8,612.7z"/>
		<path class="st29" d="M701,568.9c0,1.1-0.8,1.7-1.8,1.6c-1.4-0.1-2.8-0.2-2.5-2c0.2-1.1,1.2-2.4,2.5-2.3
			C700.6,566.4,700.8,567.7,701,568.9C701,570.1,700.9,568.5,701,568.9z"/>
		<path class="st29" d="M533.3,149.5c-0.1,0.9-0.3,2-1.5,2c-1-0.1-2.8-0.3-2.7-1.6c0.1-1,0.9-2.3,2-2.4
			C532.3,147.4,533.4,148.4,533.3,149.5C533.3,149.7,533.4,148.2,533.3,149.5z"/>
		<path class="st29" d="M969.1,411.5c0.2,1.3-0.8,2.7-1.9,3.3c-1.5,0.8-2.4-0.6-2.5-1.9c-0.1-1.4,0.4-3.1,1.9-3.6
			C968,408.9,969.1,410.2,969.1,411.5C969.2,412.9,969.1,411.3,969.1,411.5z"/>
		<path class="st29" d="M731.5,347.9c0.2,1.1-0.9,2.6-2.1,2.6c-1.1,0-2-2.1-1.9-3.1c0.2-0.9,1.5-1.9,2.5-1.9
			C731.2,345.7,731.5,346.8,731.5,347.9C731.6,349,731.5,347.6,731.5,347.9z"/>
		<path class="st29" d="M923.3,492.6c0,0.8,0.4,2.4-0.3,3c-0.9,0.7-2.1,0-2.6-0.8c-0.6-0.9-1.1-2.1,0.1-2.7
			C921.2,491.6,923.3,491.1,923.3,492.6C923.3,493.3,923.3,492,923.3,492.6z"/>
		<path class="st29" d="M1026.5,612.8c0,0.9-0.6,1.4-1.5,1.3c-1.1-0.1-2.2-0.1-2-1.6c0.2-0.9,1-1.9,2-1.8
			C1026.1,610.8,1026.3,611.8,1026.5,612.8C1026.5,613.8,1026.4,612.5,1026.5,612.8z"/>
		<path class="st29" d="M595.4,239.9c-0.1,0.7-0.2,1.6-1.2,1.6c-0.8,0-2.3-0.2-2.1-1.3c0.1-0.8,0.7-1.8,1.6-1.9
			C594.6,238.2,595.4,239,595.4,239.9C595.4,240.1,595.4,238.9,595.4,239.9z"/>
		<path class="st29" d="M395,372.5c0.1,1.1-0.6,2.1-1.5,2.6c-1.2,0.7-1.9-0.5-2-1.5c-0.1-1.1,0.3-2.5,1.6-2.9
			C394.1,370.4,395,371.5,395,372.5C395.1,373.6,395,372.4,395,372.5z"/>
		<path class="st29" d="M558.1,450.7c0.2,0.9-0.7,2.1-1.7,2.1c-0.9,0-1.6-1.7-1.5-2.5c0.1-0.7,1.2-1.6,2-1.5
			C557.8,448.9,558.1,449.8,558.1,450.7C558.2,451.5,558.1,450.4,558.1,450.7z"/>
		<path class="st29" d="M340.7,611.2c0,0.7,0.3,1.9-0.3,2.4c-0.7,0.5-1.7,0-2.1-0.6c-0.5-0.7-0.8-1.7,0.1-2.2
			C339,610.4,340.7,610,340.7,611.2C340.7,611.7,340.7,610.7,340.7,611.2z"/>
		<path class="st29" d="M841.3,311.2c0,0.7-0.5,1.1-1.2,1.1c-0.9-0.1-1.8-0.1-1.6-1.3c0.1-0.7,0.8-1.6,1.6-1.5
			C841.1,309.7,841.2,310.5,841.3,311.2C841.3,312,841.3,311,841.3,311.2z"/>
		<path class="st29" d="M755.5,463.4c-0.1,0.6-0.2,1.3-0.9,1.2c-0.6,0-1.8-0.2-1.7-1c0.1-0.7,0.6-1.5,1.3-1.5
			C754.8,462,755.5,462.6,755.5,463.4C755.4,463.5,755.5,462.5,755.5,463.4z"/>
		<path class="st29" d="M736,243.6c0.1,0.8-0.5,1.7-1.2,2.1c-0.9,0.5-1.5-0.4-1.6-1.2c-0.1-0.9,0.3-2,1.2-2.3
			C735.3,242,736,242.8,736,243.6C736.1,244.5,736,243.5,736,243.6z"/>
		<path class="st29" d="M1042.2,160.6c0.1,0.7-0.6,1.7-1.4,1.7c-0.7,0-1.3-1.4-1.2-2c0.1-0.6,1-1.2,1.6-1.2
			C1042,159.2,1042.2,159.9,1042.2,160.6C1042.3,161.3,1042.2,160.4,1042.2,160.6z"/>
		<path class="st29" d="M634.3,358.6c0,0.5,0.3,1.5-0.2,1.9c-0.6,0.4-1.3,0-1.7-0.5c-0.4-0.6-0.7-1.3,0.1-1.8
			C633,357.9,634.3,357.6,634.3,358.6C634.4,359,634.3,358.2,634.3,358.6z"/>
		<path class="st29" d="M687.9,147.1c0,0.6-0.4,0.9-0.9,0.8c-0.7-0.1-1.4-0.1-1.3-1c0.1-0.6,0.6-1.2,1.3-1.2
			C687.7,145.9,687.8,146.5,687.9,147.1C687.9,147.8,687.9,146.9,687.9,147.1z"/>
		<path class="st29" d="M421.4,443.6c-0.1,0.5-0.1,1-0.8,1c-0.5,0-1.4-0.1-1.4-0.8c0.1-0.5,0.4-1.2,1-1.2
			C420.8,442.5,421.4,443,421.4,443.6C421.4,443.7,421.4,442.9,421.4,443.6z"/>
		<path class="st29" d="M777.1,621.1c0.1,0.7-0.4,1.4-1,1.7c-0.7,0.4-1.2-0.3-1.3-1c-0.1-0.7,0.2-1.6,1-1.8
			C776.5,619.7,777.1,620.4,777.1,621.1C777.2,621.8,777.1,621,777.1,621.1z"/>
		<path class="st29" d="M331.2,156.5c0.1,0.6-0.5,1.4-1.1,1.3c-0.6,0-1-1.1-1-1.6c0.1-0.5,0.8-1,1.3-1
			C331,155.4,331.2,156,331.2,156.5C331.3,157.1,331.2,156.4,331.2,156.5z"/>
		<path class="st29" d="M975.9,569.7c0,0.6,0.3,1.8-0.3,2.3c-0.7,0.5-1.6,0-2-0.6c-0.4-0.7-0.8-1.5,0.1-2.1
			C974.4,568.9,975.9,568.5,975.9,569.7C976,570.2,975.9,569.2,975.9,569.7z"/>
		<path class="st29" d="M332.7,301.6c0,0.7-0.5,1-1.1,1c-0.8-0.1-1.7-0.1-1.5-1.2c0.1-0.7,0.7-1.5,1.5-1.4
			C332.4,300.1,332.6,300.9,332.7,301.6C332.7,302.3,332.6,301.4,332.7,301.6z"/>
		<path class="st29" d="M459.2,257.3c-0.1,0.6-0.2,1.2-0.9,1.2c-0.6,0-1.7-0.2-1.6-1c0.1-0.6,0.5-1.4,1.2-1.4
			C458.6,256,459.2,256.6,459.2,257.3C459.2,257.4,459.2,256.5,459.2,257.3z"/>
		<path class="st29" d="M871.4,396.8c0.1,0.8-0.5,1.6-1.1,2c-0.9,0.5-1.4-0.4-1.5-1.1c-0.1-0.8,0.2-1.9,1.2-2.2
			C870.7,395.3,871.4,396.1,871.4,396.8C871.5,397.7,871.4,396.7,871.4,396.8z"/>
		<path class="st29" d="M694.9,438.4c0.1,0.7-0.6,1.6-1.3,1.6c-0.7,0-1.2-1.3-1.1-1.9c0.1-0.5,0.9-1.2,1.5-1.1
			C694.7,437,694.9,437.7,694.9,438.4C695,439,694.9,438.2,694.9,438.4z"/>
		<path class="st29" d="M596.7,597.4c0,0.6,0.3,1.8-0.3,2.3c-0.7,0.5-1.6,0-2-0.6c-0.4-0.7-0.8-1.6,0.1-2.1
			C595.1,596.6,596.7,596.2,596.7,597.4C596.7,597.9,596.7,596.9,596.7,597.4z"/>
		<path class="st29" d="M444.4,339.9c0,0.7-0.5,1-1.1,1c-0.8-0.1-1.7-0.1-1.5-1.2c0.1-0.7,0.7-1.5,1.5-1.4
			C444.1,338.5,444.3,339.2,444.4,339.9C444.4,340.7,444.3,339.7,444.4,339.9z"/>
		<path class="st29" d="M351.9,194.3c-0.1,0.6-0.2,1.2-0.9,1.2c-0.6,0-1.7-0.2-1.6-1c0.1-0.6,0.5-1.4,1.2-1.4
			C351.3,193,351.9,193.6,351.9,194.3C351.9,194.4,351.9,193.5,351.9,194.3z"/>
		<path class="st29" d="M460.5,153.2c0.1,0.8-0.5,1.6-1.1,2c-0.9,0.5-1.4-0.4-1.5-1.1c-0.1-0.8,0.2-1.9,1.2-2.2
			C459.9,151.6,460.5,152.4,460.5,153.2C460.6,154,460.5,153.1,460.5,153.2z"/>
		<path class="st29" d="M621.1,178c0.1,0.7-0.6,1.6-1.3,1.6c-0.7,0-1.2-1.3-1.1-1.9c0.1-0.5,0.9-1.2,1.5-1.1
			C620.9,176.6,621.2,177.3,621.1,178C621.2,178.6,621.1,177.8,621.1,178z"/>
		<path class="st29" d="M974.5,297.3c0,0.6,0.3,1.8-0.3,2.3c-0.7,0.5-1.6,0-2-0.6c-0.4-0.7-0.8-1.5,0.1-2.1
			C973,296.6,974.5,296.2,974.5,297.3C974.6,297.9,974.5,296.9,974.5,297.3z"/>
		<path class="st29" d="M787.9,361.7c0,0.7-0.5,1-1.1,1c-0.8-0.1-1.7-0.1-1.5-1.2c0.1-0.7,0.7-1.5,1.5-1.4
			C787.7,360.2,787.8,361,787.9,361.7C787.9,362.4,787.9,361.4,787.9,361.7z"/>
		<path class="st29" d="M459.2,574.7c-0.1,0.6-0.2,1.2-0.9,1.2c-0.6,0-1.7-0.2-1.6-1c0.1-0.6,0.5-1.4,1.2-1.4
			C458.6,573.5,459.2,574,459.2,574.7C459.2,574.9,459.2,574,459.2,574.7z"/>
		<path class="st29" d="M425.3,619.5c0.1,0.8-0.5,1.6-1.1,2c-0.9,0.5-1.4-0.4-1.5-1.1c-0.1-0.8,0.2-1.9,1.2-2.2
			C424.7,618,425.3,618.8,425.3,619.5C425.4,620.3,425.3,619.4,425.3,619.5z"/>
		<path class="st29" d="M869.9,555.9c0.1,0.7-0.6,1.6-1.3,1.6c-0.7,0-1.2-1.3-1.1-1.9c0.1-0.5,0.9-1.2,1.5-1.1
			C869.7,554.6,869.9,555.2,869.9,555.9C870,556.5,869.9,555.7,869.9,555.9z"/>
		<path class="st29" d="M1039.9,491c0,0.5,0.2,1.3-0.2,1.7c-0.5,0.4-1.2,0-1.5-0.4c-0.3-0.5-0.6-1.2,0-1.5
			C1038.8,490.4,1039.9,490.1,1039.9,491C1040,491.4,1039.9,490.6,1039.9,491z"/>
		<path class="st29" d="M648.8,519c0,0.5-0.3,0.8-0.8,0.7c-0.6-0.1-1.3-0.1-1.1-0.9c0.1-0.5,0.6-1.1,1.1-1
			C648.6,517.9,648.7,518.4,648.8,519C648.8,519.5,648.8,518.8,648.8,519z"/>
		<path class="st29" d="M344.5,527.4c-0.1,0.4-0.1,0.9-0.7,0.9c-0.4,0-1.3-0.1-1.2-0.7c0.1-0.5,0.4-1,0.9-1.1
			C344.1,526.5,344.5,526.9,344.5,527.4C344.5,527.5,344.5,526.8,344.5,527.4z"/>
		<path class="st29" d="M486.7,521.5c0.1,0.6-0.4,1.2-0.9,1.5c-0.7,0.4-1.1-0.3-1.1-0.9c-0.1-0.6,0.2-1.4,0.9-1.6
			C486.2,520.3,486.7,520.9,486.7,521.5C486.8,522.1,486.7,521.4,486.7,521.5z"/>
		<path class="st29" d="M799.6,527.3c0.1,0.5-0.4,1.2-1,1.2c-0.5,0-0.9-1-0.8-1.4c0.1-0.4,0.7-0.9,1.1-0.8
			C799.5,526.3,799.6,526.9,799.6,527.3C799.7,527.8,799.6,527.2,799.6,527.3z"/>
		<path class="st29" d="M945,609.5c0,0.5,0.2,1.3-0.2,1.7c-0.5,0.4-1.2,0-1.5-0.4c-0.3-0.5-0.6-1.2,0-1.5
			C943.8,608.9,945,608.6,945,609.5C945,609.9,945,609.1,945,609.5z"/>
		<path class="st29" d="M510.7,559.8c0,0.5-0.3,0.8-0.8,0.7c-0.6-0.1-1.3-0.1-1.1-0.9c0.1-0.5,0.6-1.1,1.1-1
			C510.5,558.7,510.6,559.2,510.7,559.8C510.7,560.3,510.7,559.6,510.7,559.8z"/>
		<path class="st29" d="M463.3,420.5c-0.1,0.4-0.1,0.9-0.7,0.9c-0.4,0-1.3-0.1-1.2-0.7c0.1-0.5,0.4-1,0.9-1.1
			C462.8,419.5,463.3,419.9,463.3,420.5C463.2,420.6,463.3,419.9,463.3,420.5z"/>
		<path class="st29" d="M807.8,291.8c0.1,0.6-0.3,1.2-0.9,1.5c-0.7,0.4-1.1-0.3-1.1-0.9c-0.1-0.6,0.2-1.4,0.9-1.6
			C807.4,290.6,807.8,291.2,807.8,291.8C807.9,292.4,807.8,291.7,807.8,291.8z"/>
		<path class="st29" d="M943.9,238.2c0.1,0.5-0.4,1.2-1,1.2c-0.5,0-0.9-1-0.8-1.4c0.1-0.4,0.7-0.9,1.1-0.8
			C943.8,237.2,943.9,237.8,943.9,238.2C944,238.7,943.9,238.1,943.9,238.2z"/>
		<path class="st29" d="M436.7,264.9c0,0.5,0.2,1.3-0.2,1.7c-0.5,0.4-1.2,0-1.5-0.4c-0.3-0.5-0.6-1.2,0-1.5
			C435.5,264.4,436.7,264.1,436.7,264.9C436.7,265.3,436.7,264.6,436.7,264.9z"/>
		<path class="st29" d="M703.3,207c0,0.5-0.3,0.8-0.8,0.7c-0.6-0.1-1.3-0.1-1.1-0.9c0.1-0.5,0.6-1.1,1.1-1
			C703.1,205.9,703.2,206.5,703.3,207C703.3,207.6,703.2,206.9,703.3,207z"/>
		<path class="st29" d="M1046.6,452.8c-0.1,0.4-0.1,0.9-0.7,0.9c-0.4,0-1.3-0.1-1.2-0.7c0.1-0.5,0.4-1,0.9-1.1
			C1046.2,451.8,1046.7,452.3,1046.6,452.8C1046.6,452.9,1046.7,452.2,1046.6,452.8z"/>
		<path class="st29" d="M1047.7,302.3c0.1,0.6-0.3,1.2-0.9,1.5c-0.7,0.4-1.1-0.3-1.1-0.9c-0.1-0.6,0.2-1.4,0.9-1.6
			C1047.2,301.1,1047.7,301.7,1047.7,302.3C1047.8,302.9,1047.7,302.2,1047.7,302.3z"/>
		<path class="st29" d="M924.3,154.6c0.1,0.5-0.4,1.2-1,1.2c-0.5,0-0.9-1-0.8-1.4c0.1-0.4,0.7-0.9,1.1-0.8
			C924.2,153.6,924.3,154.1,924.3,154.6C924.4,155.1,924.3,154.5,924.3,154.6z"/>
		<path class="st29" d="M599.6,313.3c0,0.7-0.5,1-1.1,1c-0.8-0.1-1.7-0.1-1.5-1.2c0.1-0.7,0.7-1.5,1.5-1.4
			C599.4,311.9,599.5,312.6,599.6,313.3C599.6,314.1,599.6,313.1,599.6,313.3z"/>
		<g>
			<g>
				<path class="st30" d="M565.6,231.4c3.2,0,3.2-5,0-5C562.3,226.4,562.3,231.4,565.6,231.4L565.6,231.4z"/>
			</g>
		</g>
		<g>
			<g>
				<path class="st30" d="M523,452.6c3.2,0,3.2-5,0-5C519.8,447.6,519.7,452.6,523,452.6L523,452.6z"/>
			</g>
		</g>
		<g>
			<g>
				<path class="st30" d="M830,617.6c3.2,0,3.2-5,0-5C826.8,612.6,826.7,617.6,830,617.6L830,617.6z"/>
			</g>
		</g>
		<g>
			<g>
				<path class="st30" d="M888,328.6c3.2,0,3.2-5,0-5C884.8,323.6,884.7,328.6,888,328.6L888,328.6z"/>
			</g>
		</g>
		<g>
			<g>
				<path class="st30" d="M344,416.6c3.2,0,3.2-5,0-5C340.8,411.6,340.7,416.6,344,416.6L344,416.6z"/>
			</g>
		</g>
		<g>
			<g>
				<path class="st30" d="M1041,426.6c3.2,0,3.2-5,0-5C1037.8,421.6,1037.7,426.6,1041,426.6L1041,426.6z"/>
			</g>
		</g>
		<g>
			<g>
				<path class="st30" d="M777,157.6c3.2,0,3.2-5,0-5C773.8,152.6,773.7,157.6,777,157.6L777,157.6z"/>
			</g>
		</g>
		<g>
			<g>
				<path class="st30" d="M326,190.9c2.4,0,2.4-3.8,0-3.8C323.6,187.2,323.6,190.9,326,190.9L326,190.9z"/>
			</g>
		</g>
		<g>
			<g>
				<path class="st30" d="M506,321.9c2.4,0,2.4-3.8,0-3.8C503.6,318.2,503.6,321.9,506,321.9L506,321.9z"/>
			</g>
		</g>
		<g>
			<g>
				<path class="st30" d="M856,435.9c2.4,0,2.4-3.8,0-3.8C853.6,432.2,853.6,435.9,856,435.9L856,435.9z"/>
			</g>
		</g>
		<g>
			<g>
				<path class="st30" d="M1021,239.9c2.4,0,2.4-3.8,0-3.8C1018.6,236.2,1018.6,239.9,1021,239.9L1021,239.9z"/>
			</g>
		</g>
		<g>
			<g>
				<path class="st30" d="M386,560.9c2.4,0,2.4-3.8,0-3.8C383.6,557.2,383.6,560.9,386,560.9L386,560.9z"/>
			</g>
		</g>
		<g>
			<g>
				<path class="st30" d="M985,551.9c2.4,0,2.4-3.8,0-3.8C982.6,548.2,982.6,551.9,985,551.9L985,551.9z"/>
			</g>
		</g>
		<g>
			<g>
				<path class="st30" d="M747,213.3c1.6,0,1.6-2.5,0-2.5C745.4,210.8,745.4,213.3,747,213.3L747,213.3z"/>
			</g>
		</g>
		<g>
			<g>
				<path class="st30" d="M576,340.3c1.6,0,1.6-2.5,0-2.5C574.4,337.8,574.4,340.3,576,340.3L576,340.3z"/>
			</g>
		</g>
		<g>
			<g>
				<path class="st30" d="M352,277.3c1.6,0,1.6-2.5,0-2.5C350.4,274.8,350.4,277.3,352,277.3L352,277.3z"/>
			</g>
		</g>
		<g>
			<g>
				<path class="st30" d="M660,541.3c1.6,0,1.6-2.5,0-2.5C658.4,538.8,658.4,541.3,660,541.3L660,541.3z"/>
			</g>
		</g>
		<g>
			<g>
				<path class="st30" d="M955,497.3c1.6,0,1.6-2.5,0-2.5C953.4,494.8,953.4,497.3,955,497.3L955,497.3z"/>
			</g>
		</g>
		<g>
			<g>
				<path class="st30" d="M936,215.3c1.6,0,1.6-2.5,0-2.5C934.4,212.8,934.4,215.3,936,215.3L936,215.3z"/>
			</g>
		</g>
		<g>
			<g>
				<path class="st30" d="M793,327.2c2.7,0,2.7-4.2,0-4.2C790.2,322.9,790.2,327.2,793,327.2L793,327.2z"/>
			</g>
		</g>
		<g>
			<g>
				<path class="st30" d="M493,578.2c2.7,0,2.7-4.2,0-4.2C490.2,573.9,490.2,578.2,493,578.2L493,578.2z"/>
			</g>
		</g>
		<g>
			<g>
				<path class="st30" d="M639,254.2c2.7,0,2.7-4.2,0-4.2C636.2,249.9,636.2,254.2,639,254.2L639,254.2z"/>
			</g>
		</g>
		<g>
			<g>
				<path class="st30" d="M942,410.2c2.7,0,2.7-4.2,0-4.2C939.2,405.9,939.2,410.2,942,410.2L942,410.2z"/>
			</g>
		</g>
		<g>
			<g>
				<path class="st30" d="M698,329.2c4,0,4-6.2,0-6.2C693.9,322.9,693.9,329.2,698,329.2L698,329.2z"/>
			</g>
		</g>
		<g>
			<g>
				<path class="st30" d="M693,625.2c4,0,4-6.2,0-6.2C688.9,618.9,688.9,625.2,693,625.2L693,625.2z"/>
			</g>
		</g>
		<g>
			<g>
				<path class="st30" d="M387,620.2c4,0,4-6.2,0-6.2C382.9,613.9,382.9,620.2,387,620.2L387,620.2z"/>
			</g>
		</g>
		<g>
			<g>
				<path class="st30" d="M1016,354.2c4,0,4-6.2,0-6.2C1011.9,347.9,1011.9,354.2,1016,354.2L1016,354.2z"/>
			</g>
		</g>
		<g>
			<g>
				<path class="st30" d="M499,155.2c4,0,4-6.2,0-6.2C494.9,148.9,494.9,155.2,499,155.2L499,155.2z"/>
			</g>
		</g>
		<g>
			<g>
				<path class="st30" d="M895,516.2c4,0,4-6.2,0-6.2C890.9,509.9,890.9,516.2,895,516.2L895,516.2z"/>
			</g>
		</g>
		<g>
			<g>
				<path class="st30" d="M836,260.2c4,0,4-6.3,0-6.3C831.9,253.9,831.9,260.2,836,260.2L836,260.2z"/>
			</g>
		</g>
		<g>
			<g>
				<path class="st30" d="M420,313.2c4,0,4-6.2,0-6.2C415.9,306.9,415.9,313.2,420,313.2L420,313.2z"/>
			</g>
		</g>
		<g>
			<g>
				<path class="st30" d="M742,569.2c4,0,4-6.2,0-6.2C737.9,562.9,737.9,569.2,742,569.2L742,569.2z"/>
			</g>
		</g>
		<g>
			<g>
				<path class="st30" d="M420,473.2c4,0,4-6.2,0-6.2C415.9,466.9,415.9,473.2,420,473.2L420,473.2z"/>
			</g>
		</g>
		<g>
			<g>
				<path class="st30" d="M715,463.8c2,0,3.8-1.7,3.8-3.8c-0.1-2-1.6-3.8-3.8-3.8c-2,0-3.8,1.7-3.8,3.8
					C711.3,462.1,712.9,463.8,715,463.8L715,463.8z"/>
			</g>
		</g>
		<g>
			<g>
				<path class="st30" d="M662,184.6c3.2,0,3.2-5,0-5C658.8,179.6,658.7,184.6,662,184.6L662,184.6z"/>
			</g>
		</g>
		<g>
			<g>
				<path class="st30" d="M891,152.8c2,0,3.8-1.7,3.8-3.8c-0.1-2-1.6-3.8-3.8-3.8c-2,0-3.8,1.7-3.8,3.8
					C887.3,151.1,888.9,152.8,891,152.8L891,152.8z"/>
			</g>
		</g>
		<g>
			<g>
				<path class="st30" d="M336,501.8c2,0,3.8-1.7,3.8-3.8c-0.1-2-1.6-3.8-3.8-3.8c-2,0-3.8,1.7-3.8,3.8
					C332.3,500.1,333.9,501.8,336,501.8L336,501.8z"/>
			</g>
		</g>
		<g>
			<g>
				<path class="st30" d="M918,603.8c2,0,3.8-1.7,3.8-3.8c-0.1-2-1.6-3.8-3.8-3.8c-2,0-3.8,1.7-3.8,3.8
					C914.3,602.1,915.9,603.8,918,603.8L918,603.8z"/>
			</g>
		</g>
	</g>
</g>
</svg>
