<svg id="Gruppe_867" data-name="Gruppe 867" xmlns="http://www.w3.org/2000/svg" width="232.813" height="166.316" viewBox="0 0 232.813 166.316">
  <path id="Pfad_3717" data-name="Pfad 3717" d="M126.076,383.248a29.04,29.04,0,1,1-29.045,29.034A29.038,29.038,0,0,1,126.076,383.248Zm18.98,29.034a18.98,18.98,0,1,0-18.98,18.981A19.005,19.005,0,0,0,145.056,412.282Z" transform="translate(-95.547 -275.322)" fill="#1e0f00"/>
  <path id="Pfad_3718" data-name="Pfad 3718" d="M106.368,399.739c-2.451.345-4.885.764-7.292,1.279a29.025,29.025,0,0,0,8.359,32.967C104.367,422.586,102.567,410.709,106.368,399.739Z" transform="translate(-95.547 -274.754)" fill="#170f1a" style="mix-blend-mode: screen;isolation: isolate"/>
  <path id="Pfad_3719" data-name="Pfad 3719" d="M152.256,402.005c-4.144-.9-8.355-1.635-12.6-2.191a18.931,18.931,0,0,1-8.223,29.692c8.4,1.074,16.515-4.245,21.75-11.283a29.022,29.022,0,0,0-.927-16.218Z" transform="translate(-94.362 -274.751)" fill="#170f1a" style="mix-blend-mode: screen;isolation: isolate"/>
  <path id="Pfad_3720" data-name="Pfad 3720" d="M126.008,383.248a29.049,29.049,0,0,0-27,18.338,107.682,107.682,0,0,1,12.864-1.929,18.914,18.914,0,0,1,28.9.728c4.245.555,8.457,1.292,12.6,2.191A29.048,29.048,0,0,0,126.008,383.248Z" transform="translate(-95.479 -275.322)" fill="#1e0f00" style="mix-blend-mode: multiply;isolation: isolate"/>
  <path id="Pfad_3721" data-name="Pfad 3721" d="M141.335,410.432c.023.307.034.627.034.945s-.011.638-.034.944-.046.627-.081.945h-10.2a6.782,6.782,0,0,0,.273-1.879,6.4,6.4,0,0,0-.284-1.89h10.213C141.289,409.806,141.323,410.115,141.335,410.432Z" transform="translate(-94.375 -274.418)" fill="#88a5a5"/>
  <path id="Pfad_3722" data-name="Pfad 3722" d="M125.741,392.966a18.981,18.981,0,1,1-18.98,18.981A19.005,19.005,0,0,1,125.741,392.966Zm16.464,18.981c0-.319-.011-.638-.034-.945a8.393,8.393,0,0,0-.081-.933,16.4,16.4,0,0,0-6.136-11.011,16.219,16.219,0,0,0-8.335-3.46,7.907,7.907,0,0,0-.933-.081c-.308-.023-.628-.034-.945-.034s-.638.011-.956.034a7.886,7.886,0,0,0-.934.081,16.223,16.223,0,0,0-8.335,3.46,15.466,15.466,0,0,0-2.665,2.665A16.2,16.2,0,0,0,109.3,411c-.023.307-.034.627-.034.945s.011.638.034.944a16.171,16.171,0,0,0,3.552,9.28,8.875,8.875,0,0,0,.6.728q.307.358.648.685t.684.648a8.9,8.9,0,0,0,.729.6,16.224,16.224,0,0,0,8.335,3.461,8.118,8.118,0,0,0,.934.081c.318.023.637.034.956.034s.637-.011.945-.034a8.141,8.141,0,0,0,.933-.081,16.22,16.22,0,0,0,8.335-3.461,8.9,8.9,0,0,0,.728-.6q.358-.307.684-.648.341-.327.649-.685a9.085,9.085,0,0,0,.6-.728,16.194,16.194,0,0,0,3.473-8.335,8.594,8.594,0,0,0,.081-.945C142.194,412.585,142.205,412.266,142.205,411.947Z" transform="translate(-95.212 -274.987)" fill="#a5adad"/>
  <path id="Pfad_3723" data-name="Pfad 3723" d="M137.886,401.53l-7.207,7.208a6.523,6.523,0,0,0-2.664-2.664l7.207-7.219A15.973,15.973,0,0,1,137.886,401.53Z" transform="translate(-94.48 -274.784)" fill="#88a5a5"/>
  <path id="Pfad_3724" data-name="Pfad 3724" d="M130.679,414.221l7.207,7.218c-.193.249-.4.489-.6.728s-.421.456-.649.685-.456.431-.684.648-.478.41-.728.6L128,416.885A6.422,6.422,0,0,0,130.679,414.221Z" transform="translate(-94.48 -274.255)" fill="#88a5a5"/>
  <path id="Pfad_3725" data-name="Pfad 3725" d="M131.042,409.5a6.4,6.4,0,0,1,.284,1.89,6.781,6.781,0,0,1-.273,1.879H131a6.513,6.513,0,0,0,.319-1.89A6.367,6.367,0,0,0,131,409.5Z" transform="translate(-94.377 -274.418)" fill="#88a5a5"/>
  <path id="Pfad_3726" data-name="Pfad 3726" d="M131.414,409.65a6.368,6.368,0,0,1,.319,1.879,6.514,6.514,0,0,1-.319,1.89h.056a6.383,6.383,0,0,1-.478,1.116l-.033-.034a6.427,6.427,0,0,1-2.666,2.675l.024.023a6.5,6.5,0,0,1-1.116.468v-.047a5.906,5.906,0,0,1-1.367.3c-.171.011-.342.024-.512.024s-.353-.012-.523-.024a6.876,6.876,0,0,1-1.366-.3v.035a5.552,5.552,0,0,1-1.1-.468l.011-.011a6.411,6.411,0,0,1-2.664-2.675l-.024.023a7.306,7.306,0,0,1-.467-1.1h.034a8.738,8.738,0,0,1-.228-.922c-.023-.149-.034-.3-.057-.445-.011-.171-.022-.342-.022-.523a6.979,6.979,0,0,1,.079-.991c.069-.307.137-.6.228-.888H119.2a6.41,6.41,0,0,1,.455-1.116l.024.023a6.32,6.32,0,0,1,2.664-2.664l-.023-.023a6.426,6.426,0,0,1,1.116-.468v.034a7.783,7.783,0,0,1,1.366-.295c.171-.011.341-.025.523-.025s.353.013.523.025a7.464,7.464,0,0,1,1.355.295v-.046a8.125,8.125,0,0,1,1.128.468l-.035.034a6.4,6.4,0,0,1,2.666,2.664l.033-.034a6.213,6.213,0,0,1,.467,1.128Z" transform="translate(-94.793 -274.569)" fill="#88a5a5"/>
  <path id="Pfad_3727" data-name="Pfad 3727" d="M130.647,414.188l.033.034A6.423,6.423,0,0,1,128,416.886l-.024-.023A6.428,6.428,0,0,0,130.647,414.188Z" transform="translate(-94.481 -274.256)" fill="#88a5a5"/>
  <path id="Pfad_3728" data-name="Pfad 3728" d="M127.05,417.248V427.46c-.307.034-.615.07-.933.081s-.628.034-.945.034-.638-.011-.956-.034-.627-.047-.934-.081V417.237a5.931,5.931,0,0,0,1.366.261c.171.011.341.024.523.024s.341-.012.512-.024A6.888,6.888,0,0,0,127.05,417.248Z" transform="translate(-94.643 -274.151)" fill="#88a5a5"/>
  <path id="Pfad_3729" data-name="Pfad 3729" d="M126.971,417.2v.047a6.884,6.884,0,0,1-1.367.249A5.9,5.9,0,0,0,126.971,417.2Z" transform="translate(-94.563 -274.152)" fill="#88a5a5"/>
  <path id="Pfad_3730" data-name="Pfad 3730" d="M127.05,395.514v10.212a6.7,6.7,0,0,0-1.355-.249c-.171-.011-.34-.025-.523-.025s-.353.013-.523.025a5.988,5.988,0,0,0-1.366.261V395.514c.307-.035.614-.07.934-.081s.637-.034.956-.034.637.011.945.034S126.743,395.479,127.05,395.514Z" transform="translate(-94.643 -274.903)" fill="#88a5a5"/>
  <path id="Pfad_3731" data-name="Pfad 3731" d="M124.649,417.5a5.929,5.929,0,0,1-1.366-.261V417.2A6.875,6.875,0,0,0,124.649,417.5Z" transform="translate(-94.643 -274.152)" fill="#88a5a5"/>
  <path id="Pfad_3732" data-name="Pfad 3732" d="M122.314,416.863l-.011.011a6.366,6.366,0,0,1-2.676-2.664l.024-.023A6.411,6.411,0,0,0,122.314,416.863Z" transform="translate(-94.769 -274.256)" fill="#88a5a5"/>
  <path id="Pfad_3733" data-name="Pfad 3733" d="M122.543,416.874l-7.23,7.23c-.25-.193-.49-.4-.729-.6s-.455-.433-.684-.648-.432-.457-.648-.685-.411-.479-.6-.728l7.218-7.23A6.366,6.366,0,0,0,122.543,416.874Z" transform="translate(-95.009 -274.255)" fill="#88a5a5"/>
  <path id="Pfad_3734" data-name="Pfad 3734" d="M115.314,398.855l7.218,7.231a6.537,6.537,0,0,0-2.665,2.664l-7.218-7.23A16.774,16.774,0,0,1,115.314,398.855Z" transform="translate(-95.009 -274.784)" fill="#88a5a5"/>
  <path id="Pfad_3735" data-name="Pfad 3735" d="M119.194,409.5h.023c-.091.284-.158.58-.228.888A5.714,5.714,0,0,1,119.194,409.5Z" transform="translate(-94.791 -274.418)" fill="#88a5a5"/>
  <path id="Pfad_3736" data-name="Pfad 3736" d="M119.217,413.173h-.034a8.024,8.024,0,0,1-.193-.922A8.749,8.749,0,0,0,119.217,413.173Z" transform="translate(-94.791 -274.323)" fill="#88a5a5"/>
  <path id="Pfad_3737" data-name="Pfad 3737" d="M109.307,409.5h10.224a5.712,5.712,0,0,0-.2.888,6.979,6.979,0,0,0-.079.991c0,.181.01.353.022.523a2.634,2.634,0,0,0,.057.445,8.021,8.021,0,0,0,.193.922H109.307c-.046-.319-.068-.627-.091-.945s-.034-.626-.034-.944.011-.638.034-.945S109.262,409.806,109.307,409.5Z" transform="translate(-95.128 -274.418)" fill="#88a5a5"/>
  <path id="Pfad_3738" data-name="Pfad 3738" d="M118.934,411.821c.023.149.034.3.057.445A2.633,2.633,0,0,1,118.934,411.821Z" transform="translate(-94.792 -274.338)" fill="#88a5a5"/>
  <path id="Pfad_3739" data-name="Pfad 3739" d="M268.049,383.248A29.04,29.04,0,1,1,239,412.282,29.038,29.038,0,0,1,268.049,383.248Zm18.98,29.034a18.981,18.981,0,1,0-18.98,18.981A19.006,19.006,0,0,0,287.029,412.282Z" transform="translate(-90.657 -275.322)" fill="#1e0f00"/>
  <path id="Pfad_3740" data-name="Pfad 3740" d="M268.049,383.248a29.011,29.011,0,0,0-28.857,32.311q4.923-1.528,9.9-2.749c-.005-.178-.028-.351-.028-.529a18.969,18.969,0,0,1,37.261-5.037q5.1-.338,10.22-.495A29.042,29.042,0,0,0,268.049,383.248Z" transform="translate(-90.657 -275.322)" fill="#1e0f00" style="mix-blend-mode: multiply;isolation: isolate"/>
  <path id="Pfad_3741" data-name="Pfad 3741" d="M239.186,414.544a29.07,29.07,0,0,0,17.825,23.593c-5.8-7.318-9.271-16.176-11.375-25.437C243.479,413.277,241.328,413.881,239.186,414.544Z" transform="translate(-90.65 -274.308)" fill="#170f1a" style="mix-blend-mode: screen;isolation: isolate"/>
  <path id="Pfad_3742" data-name="Pfad 3742" d="M290.545,422.385a36.99,36.99,0,0,0,5.186-7.557,29.455,29.455,0,0,0,.2-3.329,29,29,0,0,0-.534-5.531q-5.124.16-10.22.495A18.9,18.9,0,0,1,272.6,429.6,23.24,23.24,0,0,0,290.545,422.385Z" transform="translate(-89.5 -274.539)" fill="#170f1a" style="mix-blend-mode: screen;isolation: isolate"/>
  <path id="Pfad_3743" data-name="Pfad 3743" d="M283.308,410.432c.022.307.033.627.033.945s-.011.638-.033.944-.048.627-.081.945h-10.2a6.783,6.783,0,0,0,.274-1.879,6.431,6.431,0,0,0-.284-1.89h10.214C283.26,409.806,283.3,410.115,283.308,410.432Z" transform="translate(-89.485 -274.418)" fill="#88a5a5"/>
  <path id="Pfad_3744" data-name="Pfad 3744" d="M267.714,392.966a18.981,18.981,0,1,1-18.981,18.981A19.006,19.006,0,0,1,267.714,392.966Zm16.463,18.981c0-.319-.011-.638-.033-.945a8.653,8.653,0,0,0-.081-.933,16.4,16.4,0,0,0-6.137-11.011,16.222,16.222,0,0,0-8.336-3.46,7.851,7.851,0,0,0-.931-.081c-.309-.023-.627-.034-.945-.034s-.638.011-.957.034a7.869,7.869,0,0,0-.933.081,16.226,16.226,0,0,0-8.336,3.46,15.424,15.424,0,0,0-2.664,2.665A16.211,16.211,0,0,0,251.27,411c-.022.307-.033.627-.033.945s.011.638.033.944a16.181,16.181,0,0,0,3.554,9.28,9.285,9.285,0,0,0,.6.728c.2.239.423.466.65.685s.446.443.683.648a9.082,9.082,0,0,0,.729.6,16.228,16.228,0,0,0,8.336,3.461,8.1,8.1,0,0,0,.933.081c.319.023.636.034.957.034s.636-.011.945-.034a8.082,8.082,0,0,0,.931-.081,16.224,16.224,0,0,0,8.336-3.461,9.082,9.082,0,0,0,.729-.6,9.386,9.386,0,0,0,.682-.648,9.007,9.007,0,0,0,.65-.685,9.315,9.315,0,0,0,.6-.728,16.2,16.2,0,0,0,3.474-8.335,8.859,8.859,0,0,0,.081-.945C284.166,412.585,284.177,412.266,284.177,411.947Z" transform="translate(-90.321 -274.987)" fill="#a5adad"/>
  <path id="Pfad_3745" data-name="Pfad 3745" d="M279.858,401.53l-7.208,7.208a6.51,6.51,0,0,0-2.664-2.664l7.208-7.219A15.932,15.932,0,0,1,279.858,401.53Z" transform="translate(-89.589 -274.784)" fill="#88a5a5"/>
  <path id="Pfad_3746" data-name="Pfad 3746" d="M272.65,414.221l7.208,7.218c-.193.249-.4.489-.6.728s-.42.456-.65.685-.455.431-.682.648-.479.41-.729.6l-7.218-7.218A6.415,6.415,0,0,0,272.65,414.221Z" transform="translate(-89.59 -274.255)" fill="#88a5a5"/>
  <path id="Pfad_3747" data-name="Pfad 3747" d="M273.014,409.5a6.43,6.43,0,0,1,.284,1.89,6.782,6.782,0,0,1-.274,1.879h-.055a6.514,6.514,0,0,0,.318-1.89,6.368,6.368,0,0,0-.318-1.879Z" transform="translate(-89.487 -274.418)" fill="#88a5a5"/>
  <path id="Pfad_3748" data-name="Pfad 3748" d="M273.386,409.65a6.367,6.367,0,0,1,.318,1.879,6.513,6.513,0,0,1-.318,1.89h.055a6.306,6.306,0,0,1-.478,1.116l-.033-.034a6.411,6.411,0,0,1-2.664,2.675l.023.023a6.483,6.483,0,0,1-1.117.468v-.047a5.873,5.873,0,0,1-1.365.3c-.171.011-.342.024-.511.024s-.354-.012-.526-.024a6.856,6.856,0,0,1-1.364-.3v.035a5.588,5.588,0,0,1-1.106-.468l.011-.011a6.425,6.425,0,0,1-2.665-2.675l-.022.023a7.31,7.31,0,0,1-.468-1.1h.034a8.73,8.73,0,0,1-.227-.922c-.023-.149-.033-.3-.059-.445-.011-.171-.022-.342-.022-.523a6.682,6.682,0,0,1,.081-.991c.068-.307.135-.6.227-.888h-.023a6.415,6.415,0,0,1,.456-1.116l.022.023a6.334,6.334,0,0,1,2.665-2.664l-.022-.023a6.461,6.461,0,0,1,1.116-.468v.034a7.761,7.761,0,0,1,1.364-.295c.172-.011.342-.025.526-.025s.352.013.522.025a7.414,7.414,0,0,1,1.354.295v-.046a8.02,8.02,0,0,1,1.128.468l-.033.034a6.379,6.379,0,0,1,2.664,2.664l.033-.034a6.074,6.074,0,0,1,.468,1.128Z" transform="translate(-89.903 -274.569)" fill="#88a5a5"/>
  <path id="Pfad_3749" data-name="Pfad 3749" d="M272.618,414.188l.033.034a6.415,6.415,0,0,1-2.674,2.664l-.023-.023A6.411,6.411,0,0,0,272.618,414.188Z" transform="translate(-89.591 -274.256)" fill="#88a5a5"/>
  <path id="Pfad_3750" data-name="Pfad 3750" d="M269.021,417.248V427.46c-.306.034-.613.07-.931.081s-.627.034-.945.034-.638-.011-.957-.034-.626-.047-.933-.081V417.237a5.9,5.9,0,0,0,1.364.261c.172.011.342.024.525.024s.34-.012.511-.024A6.836,6.836,0,0,0,269.021,417.248Z" transform="translate(-89.752 -274.151)" fill="#88a5a5"/>
  <path id="Pfad_3751" data-name="Pfad 3751" d="M268.941,417.2v.047a6.833,6.833,0,0,1-1.365.249A5.872,5.872,0,0,0,268.941,417.2Z" transform="translate(-89.672 -274.152)" fill="#88a5a5"/>
  <path id="Pfad_3752" data-name="Pfad 3752" d="M269.021,395.514v10.212a6.663,6.663,0,0,0-1.354-.249c-.171-.011-.34-.025-.522-.025s-.354.013-.525.025a5.959,5.959,0,0,0-1.364.261V395.514c.307-.035.613-.07.933-.081s.636-.034.957-.034.636.011.945.034S268.715,395.479,269.021,395.514Z" transform="translate(-89.752 -274.903)" fill="#88a5a5"/>
  <path id="Pfad_3753" data-name="Pfad 3753" d="M266.619,417.5a5.9,5.9,0,0,1-1.364-.261V417.2A6.855,6.855,0,0,0,266.619,417.5Z" transform="translate(-89.752 -274.152)" fill="#88a5a5"/>
  <path id="Pfad_3754" data-name="Pfad 3754" d="M264.286,416.863l-.011.011a6.358,6.358,0,0,1-2.675-2.664l.022-.023A6.425,6.425,0,0,0,264.286,416.863Z" transform="translate(-89.878 -274.256)" fill="#88a5a5"/>
  <path id="Pfad_3755" data-name="Pfad 3755" d="M264.515,416.874l-7.23,7.23c-.251-.193-.488-.4-.729-.6s-.455-.433-.683-.648-.433-.457-.65-.685-.409-.479-.6-.728l7.218-7.23A6.358,6.358,0,0,0,264.515,416.874Z" transform="translate(-90.119 -274.255)" fill="#88a5a5"/>
  <path id="Pfad_3756" data-name="Pfad 3756" d="M257.286,398.855l7.219,7.231a6.525,6.525,0,0,0-2.665,2.664l-7.218-7.23A16.684,16.684,0,0,1,257.286,398.855Z" transform="translate(-90.119 -274.784)" fill="#88a5a5"/>
  <path id="Pfad_3757" data-name="Pfad 3757" d="M261.166,409.5h.023c-.091.284-.158.58-.227.888A5.48,5.48,0,0,1,261.166,409.5Z" transform="translate(-89.9 -274.418)" fill="#88a5a5"/>
  <path id="Pfad_3758" data-name="Pfad 3758" d="M261.189,413.173h-.034a7.593,7.593,0,0,1-.192-.922A8.737,8.737,0,0,0,261.189,413.173Z" transform="translate(-89.9 -274.323)" fill="#88a5a5"/>
  <path id="Pfad_3759" data-name="Pfad 3759" d="M251.278,409.5H261.5a5.487,5.487,0,0,0-.2.888,6.682,6.682,0,0,0-.081.991c0,.181.01.353.022.523a2.735,2.735,0,0,0,.059.445,7.607,7.607,0,0,0,.192.922H251.278c-.044-.319-.066-.627-.091-.945s-.033-.626-.033-.944.011-.638.033-.945S251.234,409.806,251.278,409.5Z" transform="translate(-90.238 -274.418)" fill="#88a5a5"/>
  <path id="Pfad_3760" data-name="Pfad 3760" d="M260.9,411.821c.026.149.036.3.059.445A2.733,2.733,0,0,1,260.9,411.821Z" transform="translate(-89.902 -274.338)" fill="#88a5a5"/>
  <path id="Pfad_3761" data-name="Pfad 3761" d="M306.364,314.833c.537,3.633-2.368,13.2-2.368,13.2l-31.208-2.355c.329-5.682-.5-9.53.375-11.842.763-2.028,2.837-2.87,8.106-2.722,11.306.307,23.41.307,24.822,2.824A2.827,2.827,0,0,1,306.364,314.833Z" transform="translate(-89.494 -277.807)" fill="#ff5601"/>
  <path id="Pfad_3762" data-name="Pfad 3762" d="M306.091,313.934c-1.412-2.517-13.515-2.517-24.822-2.824-5.269-.148-7.342.694-8.106,2.722a9.492,9.492,0,0,0-.415,3.32c10.706-3.106,22.055-3.268,33.63-2.171-.007-.046-.007-.1-.014-.147A2.827,2.827,0,0,0,306.091,313.934Z" transform="translate(-89.494 -277.807)" fill="#661a00" style="mix-blend-mode: screen;isolation: isolate"/>
  <path id="Pfad_3763" data-name="Pfad 3763" d="M272.837,324.165c-.013.366-.027.736-.05,1.12L304,327.641s.731-2.415,1.392-5.279C294.278,323.152,283.077,324.382,272.837,324.165Z" transform="translate(-89.493 -277.419)" fill="#e6a34a" style="mix-blend-mode: multiply;isolation: isolate"/>
  <path id="Pfad_3764" data-name="Pfad 3764" d="M321.082,325.434c.126,7.572-3.346,14.825-6.057,15.644a1.616,1.616,0,0,1-1.923-.8v-.011c.283-1.753.478-3.155.546-3.986.42-5.033-3.142-7.754-10.692-8.38,0,0,2.9-9.563,2.368-13.2C310.551,314.913,320.922,315.848,321.082,325.434Z" transform="translate(-88.454 -277.683)" fill="#ff5601"/>
  <path id="Pfad_3765" data-name="Pfad 3765" d="M305.324,314.708c.537,3.633-2.368,13.2-2.368,13.2a27.561,27.561,0,0,1,3.3.466,41.025,41.025,0,0,0,2.686-13.386C307.613,314.823,306.366,314.749,305.324,314.708Z" transform="translate(-88.454 -277.683)" fill="#e6a34a" style="mix-blend-mode: multiply;isolation: isolate"/>
  <path id="Pfad_3766" data-name="Pfad 3766" d="M307.587,323.445a41.657,41.657,0,0,1-1.445,4.624c5.277,1.093,7.75,3.686,7.4,7.915-.068.831-.263,2.232-.546,3.986v.011a1.616,1.616,0,0,0,1.923.8,5.457,5.457,0,0,0,2.537-2.335C318.279,331.613,311.679,325.089,307.587,323.445Z" transform="translate(-88.344 -277.382)" fill="#e6a34a" style="mix-blend-mode: multiply;isolation: isolate"/>
  <path id="Pfad_3767" data-name="Pfad 3767" d="M254.856,322.613c2.082-8.621,9.36-9.212,18.935-8.87-.877,2.312-.047,6.16-.376,11.842l-18.866-1.424A15.12,15.12,0,0,1,254.856,322.613Z" transform="translate(-90.121 -277.719)" fill="#ff5601"/>
  <path id="Pfad_3768" data-name="Pfad 3768" d="M273.266,313.742c-1.138-.028-2.246-.046-3.337-.057a32.934,32.934,0,0,0,.977,11.8l1.814.1C273.2,319.9,271.991,316.054,273.266,313.742Z" transform="translate(-89.597 -277.718)" fill="#e6a34a" style="mix-blend-mode: multiply;isolation: isolate"/>
  <path id="Pfad_3769" data-name="Pfad 3769" d="M270.454,313.685c.342,0,.7.013,1.044.018v-.018c-8.43-.129-14.727,1.012-16.641,8.927a15.119,15.119,0,0,0-.307,1.548l5.1.386c2.647-2.953,6.386-4.8,10.691-6.032A32.791,32.791,0,0,1,270.454,313.685Z" transform="translate(-90.121 -277.718)" fill="#661a00" style="mix-blend-mode: screen;isolation: isolate"/>
  <path id="Pfad_3770" data-name="Pfad 3770" d="M312.8,339.43a1.616,1.616,0,0,0,1.923.8c-1.479,3.519-1.913,5.682-3.029,5.636C312.117,343.494,312.5,341.263,312.8,339.43Z" transform="translate(-88.153 -276.831)" fill="#ffc454"/>
  <path id="Pfad_3771" data-name="Pfad 3771" d="M254.932,322.315a15.114,15.114,0,0,0-.307,1.548l-.193,5.409C251.253,329.123,251.961,322.315,254.932,322.315Z" transform="translate(-90.197 -277.421)" fill="#ffc454"/>
  <path id="Pfad_3772" data-name="Pfad 3772" d="M310.19,371.165a62.038,62.038,0,0,0-9.2,9.8c-1.435,0-3.142.033-4.748.137a64.581,64.581,0,0,1,9.3-10.042C307.263,371.12,308.822,371.154,310.19,371.165Z" transform="translate(-88.685 -275.742)" fill="#7a3618"/>
  <path id="Pfad_3773" data-name="Pfad 3773" d="M307.145,372.026c-8.743-.3-21.507-1.117-33.588-1.72h-.023a68.156,68.156,0,0,0-23.636-3.073c-.639-9.759,1.31-24.083,1.31-24.083v-.01c.909.047,1.842.081,2.788.126l-.613,17.089a3.739,3.739,0,0,0,3.642,3.871l47.333,1.3,1.149.034c15.894.627,13.3,4.556,12.49,5.99-.261.443-2.551.6-6.2.579C310.423,372.116,308.864,372.082,307.145,372.026Z" transform="translate(-90.286 -276.704)" fill="#6dc7cc"/>
  <path id="Pfad_3774" data-name="Pfad 3774" d="M254.171,335.483l.229-6.263.193-5.409,18.866,1.424,31.208,2.355c7.55.626,11.112,3.347,10.692,8.38-.068.831-.263,2.232-.546,3.986v.011c-.3,1.833-.684,4.064-1.106,6.432-1.037,5.716-2.3,12.263-3.073,16.248a4.6,4.6,0,0,1-4.5,3.6l-.752-.023-1.149-.034-47.333-1.3a3.74,3.74,0,0,1-3.642-3.871l.613-17.089Z" transform="translate(-90.166 -277.369)" fill="#c92206"/>
  <path id="Pfad_3775" data-name="Pfad 3775" d="M311.193,334.111l-.275-.038c-12.668,9.387-24.651,19.419-34.565,31.02l9.078.249a294.512,294.512,0,0,1,25.142-20.935A92.153,92.153,0,0,0,311.193,334.111Z" transform="translate(-89.37 -277.016)" fill="#4a0a06" style="mix-blend-mode: screen;isolation: isolate"/>
  <path id="Pfad_3776" data-name="Pfad 3776" d="M310.206,334.11a99.608,99.608,0,0,1-5.208,31c1.021-.362,2.048-.717,3.049-1.085a4.24,4.24,0,0,0,.806-1.734c.774-3.985,2.037-10.532,3.073-16.248.422-2.368.809-4.6,1.106-6.432V339.6c.283-1.753.478-3.155.546-3.986a9.566,9.566,0,0,0,.027-1C312.473,334.438,311.338,334.279,310.206,334.11Z" transform="translate(-88.383 -277.015)" fill="#c92206" style="mix-blend-mode: screen;isolation: isolate"/>
  <path id="Pfad_3777" data-name="Pfad 3777" d="M260.468,355.76a41.6,41.6,0,0,1-.7-25.827,459.9,459.9,0,0,1,55.623,5.042c-.116-4.4-3.685-6.8-10.719-7.384l-31.208-2.355-11.814-.892-7.052-.533-.193,5.409-.229,6.263-.3,8.448-.613,17.089a3.74,3.74,0,0,0,3.642,3.871l10.073.277A26.591,26.591,0,0,1,260.468,355.76Z" transform="translate(-90.166 -277.369)" fill="#c92206" style="mix-blend-mode: multiply;isolation: isolate"/>
  <path id="Pfad_3778" data-name="Pfad 3778" d="M303,364.854l.675.019.752.023a4.586,4.586,0,0,0,3.691-1.864C306.434,363.649,304.728,364.263,303,364.854Z" transform="translate(-88.452 -276.018)" fill="#c92206"/>
  <path id="Pfad_3779" data-name="Pfad 3779" d="M307.055,398.593c0,.536.01,1.093.022,1.662a13.933,13.933,0,0,1-4.35-.42,2.854,2.854,0,0,0,1.1-3.791c-.568-1.23-1.2-2.426-1.843-3.576.249-4.337,1.217-9.917,2.162-11.749s5.843-.685,5.843-.685a12.484,12.484,0,0,0-.525,1.276C308.591,383.678,306.964,389.393,307.055,398.593Z" transform="translate(-88.487 -275.445)" fill="#6dc7cc"/>
  <path id="Pfad_3780" data-name="Pfad 3780" d="M309.3,381.255c.444,2.186,1.662,10.078-2.413,17.284C306.8,389.339,308.422,383.624,309.3,381.255Z" transform="translate(-88.318 -275.391)" fill="#ffd67b"/>
  <path id="Pfad_3781" data-name="Pfad 3781" d="M299.224,405.433l8.758,10.863s-13.492-.159-28.831,0-38.961.046-34.589-8.539c4.259-.353,9.551-1.048,16.1-1.982v.012C268.165,404.752,299.224,405.433,299.224,405.433Z" transform="translate(-90.483 -274.565)" fill="#676a77"/>
  <path id="Pfad_3782" data-name="Pfad 3782" d="M304.45,380.685c-.944,1.832-1.913,7.412-2.162,11.749a48.023,48.023,0,0,0-9-11.328,26.5,26.5,0,0,1,3.052-.33c1.607-.1,3.313-.137,4.748-.137C303.015,380.64,304.45,380.685,304.45,380.685Z" transform="translate(-88.787 -275.412)" fill="#676a77"/>
  <path id="Pfad_3783" data-name="Pfad 3783" d="M306.352,371.121a64.579,64.579,0,0,0-9.3,10.042,26.489,26.489,0,0,0-3.052.33A55.8,55.8,0,0,0,272.764,369.4C284.845,370,297.609,370.824,306.352,371.121Z" transform="translate(-89.494 -275.799)" fill="#676a77"/>
  <path id="Pfad_3784" data-name="Pfad 3784" d="M256.456,335.176l-.3,8.448c-.945-.046-1.879-.08-2.788-.126-30-1.184-43.416,1.458-49.916,10.817-.468.671-.922,1.32-1.368,1.924-5.9,8.164-9.563,10.657-12.672-.251-3.359-11.739-6.182-23.044,11.99-23.261C219.315,332.523,245.73,333.74,256.456,335.176Z" transform="translate(-92.45 -277.063)" fill="#6dc7cc"/>
  <path id="Pfad_3785" data-name="Pfad 3785" d="M216.884,332.839q-3.328,1.522-6.6,3.253c-8.54,4.659-17.077,11.968-20.563,21.2,3.025,9.37,6.626,6.762,12.273-1.056.446-.6.9-1.253,1.368-1.924,6.095-8.776,18.268-11.646,44.5-10.993v-9C239.311,333.636,227.815,333.083,216.884,332.839Z" transform="translate(-92.354 -277.058)" fill="#6dc7cc"/>
  <path id="Pfad_3786" data-name="Pfad 3786" d="M245.92,334.268v9q2.615.065,5.419.176c.909.047,1.842.081,2.788.126l.3-8.448C252.2,334.825,249.28,334.536,245.92,334.268Z" transform="translate(-90.418 -277.009)" fill="#b8e4e6" style="mix-blend-mode: multiply;isolation: isolate"/>
  <path id="Pfad_3787" data-name="Pfad 3787" d="M201.406,332.728c-18.172.216-15.349,11.522-11.99,23.261.131.462.265.892.4,1.308,3.486-9.231,12.022-16.54,20.563-21.2q3.271-1.738,6.6-3.253C211.492,332.719,206.15,332.673,201.406,332.728Z" transform="translate(-92.45 -277.063)" fill="#3d7d7d" style="mix-blend-mode: screen;isolation: isolate"/>
  <path id="Pfad_3788" data-name="Pfad 3788" d="M252.867,343.148v.01s-1.949,14.324-1.31,24.083a57.224,57.224,0,0,0-19.892,4.316c-9.211,3.961-7.264,19.457-3.666,29.112-4.03-.182-9.507-.284-16.885-.3,16.977-13.309,10.476-41.809-9.53-44.484.446-.6.9-1.253,1.368-1.924C209.451,344.605,222.865,341.963,252.867,343.148Z" transform="translate(-91.946 -276.712)" fill="#5e2a10"/>
  <path id="Pfad_3789" data-name="Pfad 3789" d="M252.867,343.148c-30-1.184-43.416,1.458-49.916,10.817-.468.671-.922,1.32-1.368,1.924a20.937,20.937,0,0,1,14.077,8.281,228.757,228.757,0,0,1,36.352-13.082c.4-4.569.854-7.93.854-7.93Z" transform="translate(-91.946 -276.712)" fill="#dac8bf" style="mix-blend-mode: multiply;isolation: isolate"/>
  <path id="Pfad_3790" data-name="Pfad 3790" d="M235.958,409.912c-3.747,4.418-9.041,10.169-12.058,11.205-5.021,1.718-42.9,2.2-52.329-.787-2.962-.944-7.993-6.354-13.515-13.344-12.114-15.313-26.553-38.2-26.553-38.2,15.838-35,21.964-48.278,25.767-53.265l.012.011c4.7,3.541,3.244,9.825-15.2,57.807,0,0,19.8,28.7,25.334,34.783s11.454,6.49,19.152,6.49h27.383c4.406,0,8.6-.206,11.944-3.565,1.832-1.832,4.11-4.428,5.795-6.4a16.963,16.963,0,0,0,2.391,3.87A6.019,6.019,0,0,0,235.958,409.912Z" transform="translate(-94.36 -277.655)" fill="#75bebb"/>
  <path id="Pfad_3791" data-name="Pfad 3791" d="M158.031,327.71q-5.845,3.485-11.5,7.285c-2.283,4.864-4.991,10.762-8.241,17.9q6.917-3.926,13.955-7.581C155.049,337.551,156.925,331.887,158.031,327.71Z" transform="translate(-94.126 -277.235)" fill="#14878b" style="mix-blend-mode: screen;isolation: isolate"/>
  <path id="Pfad_3792" data-name="Pfad 3792" d="M149.327,352.861c-4.613,1.829-9.212,3.686-13.78,5.6l-2.613,5.766c4.734-1.97,9.478-3.872,14.246-5.664Q148.312,355.58,149.327,352.861Z" transform="translate(-94.31 -276.369)" fill="#14878b" style="mix-blend-mode: screen;isolation: isolate"/>
  <path id="Pfad_3793" data-name="Pfad 3793" d="M306.51,396.5c-.568-1.23-1.2-2.426-1.843-3.576a48.022,48.022,0,0,0-9-11.328,55.8,55.8,0,0,0-21.235-12.093h-.023a68.156,68.156,0,0,0-23.636-3.073,57.223,57.223,0,0,0-19.892,4.316c-9.211,3.961-7.264,19.457-3.666,29.112.412,1.094.844,2.117,1.275,3.041a16.963,16.963,0,0,0,2.391,3.87,6.02,6.02,0,0,0,1.88,1.389c2.494,1.217,6.455,1.423,12.48.934,4.259-.353,9.551-1.048,16.1-1.982,4.452-.626,9.473-1.365,15.144-2.186,15.986-2.288,23.9-3.552,27.791-4.224a3.236,3.236,0,0,0,1.128-.41A2.854,2.854,0,0,0,306.51,396.5Z" transform="translate(-91.166 -275.904)" fill="#7a3618"/>
  <path id="Pfad_3794" data-name="Pfad 3794" d="M244.669,408.61c4.259-.353,9.551-1.048,16.1-1.982,4.452-.626,9.474-1.365,15.144-2.186,15.986-2.288,23.9-3.552,27.791-4.224a3.236,3.236,0,0,0,1.128-.41,2.854,2.854,0,0,0,1.1-3.791c-.568-1.23-1.2-2.426-1.843-3.576a48.023,48.023,0,0,0-9-11.328c-.251-.235-.52-.448-.776-.678-19.3,7.33-37.7,15.94-53.392,28.389C242.08,408.79,243.317,408.72,244.669,408.61Z" transform="translate(-90.59 -275.419)" fill="#dac8bf" style="mix-blend-mode: multiply;isolation: isolate"/>
  <path id="Pfad_3795" data-name="Pfad 3795" d="M274.127,369.506a68.155,68.155,0,0,0-23.636-3.073c-.384.017-.761.05-1.141.076-9.821,11.081-17.792,27.041-16.7,41.721,1.928.887,4.7,1.2,8.569,1.081,15.691-12.45,34.087-21.059,53.392-28.389a56.1,56.1,0,0,0-20.459-11.415Z" transform="translate(-90.879 -275.904)" fill="#7a3618"/>
  <path id="Pfad_3796" data-name="Pfad 3796" d="M227.219,399.856c.412,1.094.844,2.118,1.275,3.041a16.961,16.961,0,0,0,2.391,3.87,6.018,6.018,0,0,0,1.88,1.389c.052.025.116.044.17.068-1.09-14.68,6.881-30.64,16.7-41.721a56.629,56.629,0,0,0-18.751,4.24C221.674,374.7,223.621,390.2,227.219,399.856Z" transform="translate(-91.166 -275.899)" fill="#2e1209" style="mix-blend-mode: screen;isolation: isolate"/>
  <path id="Pfad_3797" data-name="Pfad 3797" d="M231.336,404.752c-1.685,1.969-3.963,4.565-5.795,6.4-3.348,3.359-7.538,3.565-11.944,3.565H186.214c-7.7,0-13.606-.421-19.152-6.49s-25.334-34.783-25.334-34.783c18.445-47.982,19.9-54.266,15.2-57.807l-.012-.011c2.585-3.369,4.1-2.972,6.844-2.937.124.01.249.01.387.01a9.56,9.56,0,0,1,4.064.672,3.067,3.067,0,0,1,1.81,2.459c.3,2.2-1,6.694-4.3,20.836s-11.158,44.474-4.178,56.578,19.743,8.174,50.383,8.174h1.252c7.379.011,12.855.114,16.885.3C230.472,402.8,230.9,403.828,231.336,404.752Z" transform="translate(-94.007 -277.754)" fill="#491d0a"/>
  <path id="Pfad_3798" data-name="Pfad 3798" d="M205.865,288.365a3.945,3.945,0,0,1,.876,2.983c-.945,6.752-6.912,10.055-9.428,6.284a2.61,2.61,0,0,0-.616-.6c-2.2-5.033,5.558-12.843,9.121-8.71C205.841,288.331,205.853,288.355,205.865,288.365Z" transform="translate(-92.127 -278.632)" fill="#4c3016"/>
  <path id="Pfad_3799" data-name="Pfad 3799" d="M206.965,288.461c-3.563-4.133-11.318,3.677-9.121,8.71-2.925-2.061-12.979-2.368-21.371-1.035-.762.124-1.514.25-2.243.41a24.164,24.164,0,0,0-7.982,2.813s-4.246.775-2.995-5.364a10.988,10.988,0,0,1,5.819-8c.762-.228,1.526-.445,2.277-.638C188.531,280.8,203.2,283.6,206.965,288.461Z" transform="translate(-93.274 -278.774)" fill="#1e0f00"/>
  <path id="Pfad_3800" data-name="Pfad 3800" d="M166.224,299.31a24.166,24.166,0,0,1,7.982-2.813c.728-.159,1.48-.285,2.243-.41,8.391-1.332,18.445-1.025,21.371,1.035-2.2-5.033,5.558-12.843,9.121-8.71-1.257-1.621-3.747-3-7.116-3.97A98.209,98.209,0,0,0,163.77,298.5,2.867,2.867,0,0,0,166.224,299.31Z" transform="translate(-93.248 -278.725)" fill="#1e0f00" style="mix-blend-mode: multiply;isolation: isolate"/>
  <path id="Pfad_3801" data-name="Pfad 3801" d="M171.35,285.353c-.751.193-1.514.411-2.277.638a10.988,10.988,0,0,0-5.819,8c-.507,2.486-.108,3.827.541,4.556a98.21,98.21,0,0,1,36.054-14.059C193.115,282.56,182.8,282.318,171.35,285.353Z" transform="translate(-93.274 -278.773)" fill="#1e0f00" style="mix-blend-mode: screen;isolation: isolate"/>
  <path id="Pfad_3802" data-name="Pfad 3802" d="M169,308.75a20.865,20.865,0,0,1-4.737.136,76.229,76.229,0,0,1-7.844-.98c1.411-1.071,2.651-3.37,2.857-8.073h.011c3.086,5.876,11.4,6.809,15.166-3.723.728-.159,1.48-.286,2.243-.41C174.789,303.682,174.527,307.814,169,308.75Z" transform="translate(-93.501 -278.338)" fill="#7a3618"/>
  <path id="Pfad_3803" data-name="Pfad 3803" d="M171.522,285.324v.01c-.751.193-1.514.411-2.277.638a10.988,10.988,0,0,0-5.819,8c-1.252,6.138,2.995,5.364,2.995,5.364a24.165,24.165,0,0,1,7.982-2.813c-3.77,10.532-12.08,9.6-15.166,3.723a11.239,11.239,0,0,1-1.048-7.07c1.082-6.866,6.466-11.7,12.092-8.653A9.482,9.482,0,0,1,171.522,285.324Z" transform="translate(-93.446 -278.755)" fill="#676a77"/>
  <path id="Pfad_3804" data-name="Pfad 3804" d="M168.777,308.315l-1.3,5.2a9.56,9.56,0,0,0-4.064-.672c-.138,0-.263,0-.387-.01v-.024l1.013-4.36A20.868,20.868,0,0,0,168.777,308.315Z" transform="translate(-93.274 -277.903)" fill="#676a77"/>
  <path id="Pfad_3805" data-name="Pfad 3805" d="M170.492,284.677c-5.625-3.052-11.01,1.788-12.092,8.653a11.239,11.239,0,0,0,1.048,7.07h-.011c-.206,4.7-1.446,7-2.857,8.073a4.746,4.746,0,0,1-4.567.432c-.022-.376-.046-.741-.057-1.1-.705-15.122,4.839-24.651,6.877-27.611.456-.659.729-.99.729-.99S163.5,279.633,170.492,284.677Z" transform="translate(-93.657 -278.906)" fill="#6dc7cc"/>
  <path id="Pfad_3806" data-name="Pfad 3806" d="M152.032,283.731c3.142-6.3,6.944-3.553,6.944-3.553-2.038,2.961-7.582,12.49-6.877,27.611C144.185,310.624,148.888,290.038,152.032,283.731Z" transform="translate(-93.8 -278.893)" fill="#ffd67b"/>
  <path id="Pfad_3807" data-name="Pfad 3807" d="M159.288,405.218c-2.677,3.69-18.07-14.994-40.489-14.994-18.228,0-23.044,5.021-23.044,5.021-.217-14.038,15.917-30.378,36.98-28.225C132.734,367.02,147.173,389.905,159.288,405.218Z" transform="translate(-95.591 -275.888)" fill="#7a3618"/>
  <path id="Pfad_3808" data-name="Pfad 3808" d="M118.648,389.853c22.42,0,37.812,18.684,40.489,14.994-6.714-8.486-14.136-19.292-19.425-27.245-14.4,2.518-28,7.023-39.6,14.828C103.574,391.153,109.371,389.853,118.648,389.853Z" transform="translate(-95.441 -275.516)" fill="#7a3618"/>
  <path id="Pfad_3809" data-name="Pfad 3809" d="M95.754,395.245a12.837,12.837,0,0,1,4.508-2.444c11.6-7.8,25.2-12.31,39.6-14.828-4.254-6.4-7.128-10.953-7.128-10.953C111.671,364.868,95.537,381.207,95.754,395.245Z" transform="translate(-95.591 -275.888)" fill="#2e1209" style="mix-blend-mode: screen;isolation: isolate"/>
  <path id="Pfad_3810" data-name="Pfad 3810" d="M299.645,332.644q-11.4-1.32-22.871-2.062a69.379,69.379,0,0,0-18.05,19.482,40.472,40.472,0,0,0,1.556,5.463,26.591,26.591,0,0,0,6.509,9.408l2.565.069A173,173,0,0,1,299.645,332.644Z" transform="translate(-89.977 -277.136)" fill="#4a0a06" style="mix-blend-mode: screen;isolation: isolate"/>
  <path id="Pfad_3811" data-name="Pfad 3811" d="M310.128,371.181a53.758,53.758,0,0,0-4.807,4.7q-2.3,2.452-4.38,5.105l-.066-.053a20.916,20.916,0,0,1,3.82-5.634,18.657,18.657,0,0,1,5.38-4.181Z" transform="translate(-88.525 -275.74)" fill="#aa5635"/>
  <g id="Gruppe_836" data-name="Gruppe 836" transform="translate(204.478 104.643)">
    <path id="Pfad_3812" data-name="Pfad 3812" d="M293.464,381.677l-.2-1.12a72.612,72.612,0,0,1,11.279-.435l-.038,1.139A73.252,73.252,0,0,0,293.464,381.677Z" transform="translate(-293.266 -380.074)" fill="#858892"/>
  </g>
  <path id="Pfad_3813" data-name="Pfad 3813" d="M316.174,370.755a3.168,3.168,0,0,0-.061-1.944,2.229,2.229,0,0,0-1.141-.794,12.459,12.459,0,0,0-1.806-.521c-.644-.157-1.318-.305-2.007-.411-1.368-.292-2.787-.517-4.212-.868a23.789,23.789,0,0,1-4.336-1.357l0-.17a58.09,58.09,0,0,1,8.866.718,12.718,12.718,0,0,1,4.219,1.476,2.615,2.615,0,0,1,1.312,1.823,3.526,3.526,0,0,1-.69,2.133Z" transform="translate(-88.466 -275.961)" fill="#7af4f4"/>
  <path id="Pfad_3814" data-name="Pfad 3814" d="M309.6,372.5c-1.144.1-2.288.177-3.428.217-1.875.114-3.742.074-5.607.091-1.863-.023-3.725-.112-5.585-.172-1.855-.129-3.712-.245-5.564-.4-1.851-.209-3.705-.347-5.549-.63a84.552,84.552,0,0,1-11.05-2.1l.011-.228,22.272,1.089c3.71.212,7.419.417,11.131.564,1.664.064,3.33.119,4.992.14Z" transform="translate(-89.492 -275.803)" fill="#969f9f" style="mix-blend-mode: multiply;isolation: isolate"/>
  <path id="Pfad_3815" data-name="Pfad 3815" d="M272.824,369.337c1.866-.127,3.727-.124,5.592-.185l5.583.034c3.718.052,7.429.267,11.14.388,3.7.273,7.411.444,11.112.731q2.773.23,5.547.385c.923.072,1.848.134,2.768.162.462.013.923.016,1.381,0a2.49,2.49,0,0,0,1.279-.239l.1.056a2.36,2.36,0,0,1-1.346.443c-.462.057-.928.091-1.392.115-.929.047-1.861.059-2.791.061-1.859,0-3.718-.043-5.575-.1-3.716-.119-7.427-.294-11.14-.479l-22.263-1.259Z" transform="translate(-89.492 -275.808)" fill="#3bb4ba"/>
  <path id="Pfad_3816" data-name="Pfad 3816" d="M309.429,381.229a14,14,0,0,1,1.258,4.408,18.387,18.387,0,0,1,.007,4.6,16.5,16.5,0,0,1-1.205,4.464,22.23,22.23,0,0,1-1.056,2.054,13.425,13.425,0,0,1-1.427,1.812l-.1-.056a22.73,22.73,0,0,0,2.661-8.416,27.971,27.971,0,0,0-.248-8.848Z" transform="translate(-88.318 -275.391)" fill="#fff054"/>
  <path id="Pfad_3817" data-name="Pfad 3817" d="M310.059,380.1a11.1,11.1,0,0,0-4.474-.176,2.3,2.3,0,0,0-.973.473,2.265,2.265,0,0,0-.537.938,18.233,18.233,0,0,0-.621,2.171,56.042,56.042,0,0,0-1.327,8.973l-.113-.007a19.477,19.477,0,0,1-.286-2.315c-.02-.772-.008-1.542.007-2.315a24.317,24.317,0,0,1,.611-4.6,16.873,16.873,0,0,1,.727-2.291,6.285,6.285,0,0,1,.29-.584,2.314,2.314,0,0,1,.584-.716,2.874,2.874,0,0,1,1.418-.6,8.277,8.277,0,0,1,4.72.937Z" transform="translate(-88.496 -275.468)" fill="#8cedcc"/>
  <path id="Pfad_3818" data-name="Pfad 3818" d="M306.931,400.234a67.523,67.523,0,0,1,.376-10.284,48.075,48.075,0,0,1,.924-5.069,27.035,27.035,0,0,1,1.614-4.893l.1.051c-.163.859-.349,1.687-.454,2.539-.157.834-.3,1.667-.4,2.505-.21,1.676-.473,3.333-.655,5.007-.44,3.342-.726,6.7-1.392,10.143Z" transform="translate(-88.319 -275.434)" fill="#f4b027"/>
  <path id="Pfad_3819" data-name="Pfad 3819" d="M306.954,400.234a24.435,24.435,0,0,1-.733-5.177,32.009,32.009,0,0,1,.206-5.219,26.969,26.969,0,0,1,1.133-5.121c.289-.831.6-1.654.95-2.458a13.517,13.517,0,0,1,1.358-2.272l.1.051a26.951,26.951,0,0,0-1.55,4.881,46.96,46.96,0,0,0-.863,5.058,67.5,67.5,0,0,0-.49,10.254Z" transform="translate(-88.342 -275.434)" fill="#7af4f4"/>
  <g id="Gruppe_837" data-name="Gruppe 837" transform="translate(157.723 66.42)" style="mix-blend-mode: multiply;isolation: isolate">
    <path id="Pfad_3820" data-name="Pfad 3820" d="M251.455,343.155q-.718,5.989-1.053,12.018a98.2,98.2,0,0,0-.262,12.048l-.227.016a19.582,19.582,0,0,1-1.615-6.073c-.16-1.027-.167-2.049-.228-3.073-.017-1.024.032-2.043.061-3.062.1-1.016.185-2.03.322-3.039.191-1,.317-2.014.595-3.005a22.649,22.649,0,0,1,2.181-5.86Z" transform="translate(-248.068 -343.124)" fill="#7b8787"/>
  </g>
  <path id="Pfad_3821" data-name="Pfad 3821" d="M251.341,343.148a101.1,101.1,0,0,1-.2,12.077c-.151,2-.269,3.989-.482,5.981-.108,1-.194,2-.274,3-.144,1-.2,2-.355,3.022l-.115.007a98.064,98.064,0,0,1,.092-12.08q.421-6.03,1.223-12.02Z" transform="translate(-90.286 -276.704)" fill="#7af4f4"/>
  <path id="Pfad_3822" data-name="Pfad 3822" d="M201.176,355.91q.289-.394.573-.791a27.087,27.087,0,0,1,3.295-4.127,23.474,23.474,0,0,1,9.063-5.354,51.5,51.5,0,0,1,10.269-2.213c3.475-.428,6.967-.633,10.456-.736,6.98-.188,13.959.028,20.924.359l-.02.457c-7,.544-13.965.86-20.829,1.6-3.429.334-6.834.744-10.145,1.376a51.2,51.2,0,0,0-9.482,2.551,20.962,20.962,0,0,0-7.426,4.794,19.366,19.366,0,0,0-2.267,3Z" transform="translate(-91.96 -276.721)" fill="#7b8787" style="mix-blend-mode: multiply;isolation: isolate"/>
  <path id="Pfad_3823" data-name="Pfad 3823" d="M201.676,355.333a18.9,18.9,0,0,1,7.254,1.273,20.088,20.088,0,0,1,6.375,4.094,23.433,23.433,0,0,1,4.62,6.1,27.612,27.612,0,0,1,2.525,7.227,28.472,28.472,0,0,1,.352,7.63,25.593,25.593,0,0,1-1.854,7.376,23.275,23.275,0,0,1-3.964,6.385,22.246,22.246,0,0,1-5.723,4.6l-.14-.181a25,25,0,0,0,8.139-11.4,26.877,26.877,0,0,0,.955-13.98A25.025,25.025,0,0,0,214,361.938a20.7,20.7,0,0,0-12.363-6.379Z" transform="translate(-91.944 -276.284)" fill="#aa5635"/>
  <path id="Pfad_3824" data-name="Pfad 3824" d="M256.236,343.8c-6.961-.3-13.932-.481-20.891-.26-3.479.118-6.956.339-10.4.781a50.846,50.846,0,0,0-10.143,2.234A22.875,22.875,0,0,0,206,351.8a26.639,26.639,0,0,0-3.2,4.06c-1.014,1.423-2.049,2.833-3.191,4.173a20.006,20.006,0,0,1-1.836,1.914,7.112,7.112,0,0,1-2.289,1.468,2.872,2.872,0,0,1-2.762-.415,6.583,6.583,0,0,1-1.7-2.133,25.263,25.263,0,0,1-1.878-4.944c-.482-1.676-.959-3.357-1.371-5.062a41.107,41.107,0,0,1-.938-5.183,16.583,16.583,0,0,1,.184-5.307,8.615,8.615,0,0,1,2.637-4.635,11.707,11.707,0,0,1,4.732-2.433c3.433-.959,6.995-.866,10.463-.876q5.231,0,10.46.12,10.46.227,20.905.791c6.961.4,13.926.817,20.851,1.734l-.047.338c-6.974-.265-13.937-.278-20.9-.271-6.96-.029-13.918.034-20.862.091l-10.4.182c-3.52.073-6.789.107-9.6.982a8.947,8.947,0,0,0-3.4,1.775,5.3,5.3,0,0,0-1.59,2.924c-.527,2.5.038,5.776.829,8.97.385,1.619.83,3.265,1.3,4.933a22.467,22.467,0,0,0,1.558,4.281,3.936,3.936,0,0,0,.755,1.073c.047.031-.04-.025-.166-.039s-.193.02-.108-.006a4.009,4.009,0,0,0,1.178-.793,20.182,20.182,0,0,0,1.565-1.578c1.056-1.18,2.089-2.515,3.1-3.876a29.884,29.884,0,0,1,3.624-4.382,24.645,24.645,0,0,1,10.029-5.669c7.164-2.186,14.335-2.342,21.37-2.28a190.737,190.737,0,0,1,20.963,1.729Z" transform="translate(-92.458 -277.073)" fill="#7af4f4"/>
  <path id="Pfad_3825" data-name="Pfad 3825" d="M153.891,402.857a29.267,29.267,0,1,1-47.107-12.685l.227.255a30.705,30.705,0,0,0-7.025,13.3,27.4,27.4,0,0,0-.784,7.259,28.543,28.543,0,0,0,1.043,7.144,27.225,27.225,0,0,0,45.24,12.177,28.4,28.4,0,0,0,7.458-12.311,30.907,30.907,0,0,0,.623-15.031Z" transform="translate(-95.552 -275.083)" fill="#4a3d31"/>
  <g id="Gruppe_838" data-name="Gruppe 838" transform="translate(73.724 30.253)">
    <rect id="Rechteck_27" data-name="Rechteck 27" width="5.377" height="1.139" transform="translate(0 5.217) rotate(-75.988)" fill="#4a5961"/>
  </g>
  <g id="Gruppe_839" data-name="Gruppe 839" transform="translate(68.721 30.279)">
    <rect id="Rechteck_28" data-name="Rechteck 28" width="4.476" height="2.277" transform="translate(0 4.358) rotate(-76.842)" fill="#8991ad"/>
  </g>
  <path id="Pfad_3826" data-name="Pfad 3826" d="M176.888,295.72c-.557,2.347-1,4.721-1.662,7.059a12.5,12.5,0,0,1-1.44,3.37,5.989,5.989,0,0,1-2.863,2.328,17.494,17.494,0,0,1-7.261.528c-2.415-.21-4.806-.584-7.186-1l.038-.224a62.613,62.613,0,0,1,7.287-.565c1.17-.09,2.319-.082,3.4-.24a9.986,9.986,0,0,0,2.89-.623,3.909,3.909,0,0,0,1.913-1.407,12.651,12.651,0,0,0,1.5-2.69,47.732,47.732,0,0,1,3.158-6.595Z" transform="translate(-93.499 -278.339)" fill="#944a2e"/>
  <path id="Pfad_3827" data-name="Pfad 3827" d="M166.36,299.306a2.878,2.878,0,0,1-2.43-.107,3.359,3.359,0,0,1-1.523-2.179,9.355,9.355,0,0,1,.335-4.8,10.189,10.189,0,0,1,2.41-4.079,11.01,11.01,0,0,1,1.836-1.477,6.976,6.976,0,0,1,2.168-.839l.044.106a9.93,9.93,0,0,0-3.362,2.765,11.746,11.746,0,0,0-2.013,3.867,10.158,10.158,0,0,0-.536,4.307,2.792,2.792,0,0,0,1,1.844,2.836,2.836,0,0,0,2.051.48Z" transform="translate(-93.301 -278.678)" fill="#8991ad"/>
  <path id="Pfad_3828" data-name="Pfad 3828" d="M206,288.251a4.415,4.415,0,0,1,.921,2.047,3.781,3.781,0,0,1,0,1.143c-.048.362-.118.728-.2,1.1a11.01,11.01,0,0,1-1.833,4.073,7.045,7.045,0,0,1-3.643,2.581,3.736,3.736,0,0,1-2.263-.1,3.676,3.676,0,0,1-1.721-1.449l.188-.127a3.557,3.557,0,0,0,1.953.452,3.307,3.307,0,0,0,1.387-.5,7.054,7.054,0,0,0,1.2-.975,7.617,7.617,0,0,0,1.092-1.254,9.828,9.828,0,0,0,.986-1.466c.352-.506.586-1.08.91-1.651l.207-.413c.07-.158.129-.346.217-.516a2.613,2.613,0,0,0,.327-.729,4.6,4.6,0,0,0,.089-2.078Z" transform="translate(-92.094 -278.594)" fill="#5b412a"/>
  <path id="Pfad_3829" data-name="Pfad 3829" d="M168.932,285.924a67.788,67.788,0,0,1,19.5-3A44.991,44.991,0,0,1,198.255,284a24.949,24.949,0,0,1,4.7,1.563,10.545,10.545,0,0,1,3.981,2.9l-.091.069a11.015,11.015,0,0,0-4.139-2.425,24.91,24.91,0,0,0-4.647-1.249,49.519,49.519,0,0,0-9.634-.8,73.059,73.059,0,0,0-9.719.528c-1.623.16-3.243.384-4.859.653-1.632.2-3.239.533-4.882.792Z" transform="translate(-93.07 -278.778)" fill="#4d361c"/>
  <path id="Pfad_3830" data-name="Pfad 3830" d="M196.718,297.048a5.628,5.628,0,0,1-.055-4.051,9.8,9.8,0,0,1,2.109-3.522,7.966,7.966,0,0,1,3.439-2.233,3.9,3.9,0,0,1,2.063-.057,3.373,3.373,0,0,1,1.71,1.136l-.087.075a3.381,3.381,0,0,0-3.437-.295,8.937,8.937,0,0,0-2.855,2.153,11.9,11.9,0,0,0-2.09,3.029,6.821,6.821,0,0,0-.692,3.724Z" transform="translate(-92.127 -278.635)" fill="#6d4729"/>
  <path id="Pfad_3831" data-name="Pfad 3831" d="M156.174,307.746a4.877,4.877,0,0,0,1.453-1.612,10.1,10.1,0,0,0,1.162-3.11,27.939,27.939,0,0,0,.463-3.346l.228.011a7.009,7.009,0,0,1,1.081,3.7,7.189,7.189,0,0,1-.981,3.913,5.4,5.4,0,0,1-.6.845Z" transform="translate(-93.51 -278.201)" fill="#7b8787" style="mix-blend-mode: multiply;isolation: isolate"/>
  <path id="Pfad_3832" data-name="Pfad 3832" d="M152.133,308.085a5.27,5.27,0,0,0,4.074-2.885c.413-.678.819-1.531,1.325-2.462a18.008,18.008,0,0,1,1.863-3.06l.228.011a18.046,18.046,0,0,1-.32,3.412,10.574,10.574,0,0,1-1.143,3.267,4.825,4.825,0,0,1-2.685,2.207,4.886,4.886,0,0,1-3.436-.282Z" transform="translate(-93.652 -278.201)" fill="#4ab9c0"/>
  <path id="Pfad_3833" data-name="Pfad 3833" d="M151.686,307.912a25.021,25.021,0,0,1-1.13-6.975,30.873,30.873,0,0,1,.14-4.053c.143-1.347.4-2.681.674-4.013a39.476,39.476,0,0,1,1.207-3.894,28.32,28.32,0,0,1,1.744-3.689,20.224,20.224,0,0,1,4.218-5.368l.515.309A34.2,34.2,0,0,0,155.97,286a44.556,44.556,0,0,0-2.385,7.394,51.8,51.8,0,0,0-1.389,14.31Z" transform="translate(-93.704 -278.881)" fill="#f4b027"/>
  <path id="Pfad_3834" data-name="Pfad 3834" d="M159.677,279.23a35.738,35.738,0,0,0-1.717,3.49c-.543,1.165-1.033,2.352-1.458,3.561a52.76,52.76,0,0,0-2.19,7.328,60.607,60.607,0,0,0-1.393,7.538c-.19,1.272-.318,2.555-.422,3.845-.162,1.291-.216,2.587-.35,3.9l-.114.006a52.449,52.449,0,0,1,1.173-15.552,44.8,44.8,0,0,1,2.481-7.417,32.205,32.205,0,0,1,3.9-6.77Z" transform="translate(-93.657 -278.907)" fill="#7af4f4"/>
  <path id="Pfad_3835" data-name="Pfad 3835" d="M170.274,284.722a45.607,45.607,0,0,0-5.223-3.233,29.239,29.239,0,0,0-2.764-1.329,14.061,14.061,0,0,0-2.916-.905l.011-.113a7.243,7.243,0,0,1,3.239.188,13.676,13.676,0,0,1,2.965,1.156,15.4,15.4,0,0,1,2.611,1.772,10.647,10.647,0,0,1,2.144,2.37Z" transform="translate(-93.4 -278.912)" fill="#8cedcc"/>
  <g id="Gruppe_840" data-name="Gruppe 840" transform="translate(62.647 3.823)" style="mix-blend-mode: multiply;isolation: isolate">
    <path id="Pfad_3836" data-name="Pfad 3836" d="M171.593,285.442a7.47,7.47,0,0,0-5.417-1.631,7.712,7.712,0,0,0-4.852,2.891,12.994,12.994,0,0,0-2.524,5.188,12.578,12.578,0,0,0-.147,5.749,9.228,9.228,0,0,0,2.76,4.957,6.734,6.734,0,0,0,5.273,1.795,7.813,7.813,0,0,0,4.907-2.805,16.229,16.229,0,0,0,2.847-5.076l.214.078a13.733,13.733,0,0,1-2.154,5.785,8.753,8.753,0,0,1-5.6,3.8,8.454,8.454,0,0,1-6.911-1.976,11.265,11.265,0,0,1-3.557-6.069,13.637,13.637,0,0,1-.254-3.444,15.574,15.574,0,0,1,.181-1.662,12.442,12.442,0,0,1,.363-1.649,14.035,14.035,0,0,1,3.229-5.82,10.067,10.067,0,0,1,2.732-2.071,8.12,8.12,0,0,1,3.347-.866,7.413,7.413,0,0,1,5.7,2.646Z" transform="translate(-156.157 -282.611)" fill="#7b8787"/>
  </g>
  <path id="Pfad_3837" data-name="Pfad 3837" d="M171.563,285.365a7.534,7.534,0,0,0-5.4-1.2,7.244,7.244,0,0,0-4.417,2.911,13.079,13.079,0,0,0-2.375,10.361,8.465,8.465,0,0,0,2.471,4.577,6.353,6.353,0,0,0,4.709,1.723,7.313,7.313,0,0,0,4.688-2.436,17.379,17.379,0,0,0,3.193-4.8l.107.039a16.42,16.42,0,0,1-2.847,5.159,8.043,8.043,0,0,1-5.037,2.919,7.015,7.015,0,0,1-5.5-1.827,9.549,9.549,0,0,1-2.893-5.108,12.846,12.846,0,0,1,.19-5.892,13.243,13.243,0,0,1,2.617-5.281,7.944,7.944,0,0,1,5.022-2.939,7.654,7.654,0,0,1,5.543,1.706Z" transform="translate(-93.447 -278.757)" fill="#8991ad"/>
  <path id="Pfad_3838" data-name="Pfad 3838" d="M159.038,280.278a3.651,3.651,0,0,0-2.107-.553,3.86,3.86,0,0,0-2.051.758,9.165,9.165,0,0,0-2.675,3.571,47.554,47.554,0,0,0-2.789,8.678,45.068,45.068,0,0,0-1.359,9.013,11.835,11.835,0,0,0,.567,4.459,2.69,2.69,0,0,0,1.411,1.587,3.132,3.132,0,0,0,2.157-.093l.076.213a3.218,3.218,0,0,1-2.515.6,3.67,3.67,0,0,1-2.238-1.85,12,12,0,0,1-1.248-4.953,33.441,33.441,0,0,1,.934-9.5,34.532,34.532,0,0,1,3.389-8.94,9.845,9.845,0,0,1,3.595-3.772,4.69,4.69,0,0,1,2.711-.549,3.711,3.711,0,0,1,2.274,1.147Z" transform="translate(-93.853 -278.916)" fill="#fff054"/>
  <path id="Pfad_3839" data-name="Pfad 3839" d="M229.578,401.869c-6.93.361-13.846.722-20.744,1.143-6.9.375-13.755.97-20.711,1.361a99.971,99.971,0,0,1-10.615.207A28.705,28.705,0,0,1,166.3,402.2a16.655,16.655,0,0,1-4.987-3.707,21.093,21.093,0,0,1-3.419-5,30.708,30.708,0,0,1-2.529-11.219,98.512,98.512,0,0,1,1.8-21.316q1.96-10.365,4.751-20.408c.922-3.338,1.774-6.687,2.735-10.026s1.922-6.67,2.811-9.968c.223-.82.44-1.64.613-2.437a9.183,9.183,0,0,0,.272-2.145,1.8,1.8,0,0,0-.709-1.4,4.786,4.786,0,0,0-1.932-.809,18.08,18.08,0,0,0-2.474-.285,20.949,20.949,0,0,0-2.5-.164c-1.546-.014-2.922,1.143-4.064,2.41l-.271-.207a11.015,11.015,0,0,1,1.8-1.922,4.748,4.748,0,0,1,2.436-1.062,18.823,18.823,0,0,1,2.619-.031,20.253,20.253,0,0,1,2.614.11,5.951,5.951,0,0,1,2.522.851,3.216,3.216,0,0,1,1.432,2.256,9.273,9.273,0,0,1-.114,2.651c-.131.863-.3,1.713-.48,2.562-1.5,6.768-3.143,13.486-4.7,20.236-1.579,6.737-3.077,13.494-4.2,20.315a98.161,98.161,0,0,0-1.558,20.6,27.647,27.647,0,0,0,2.122,9.971,15.509,15.509,0,0,0,6.857,7.276,25.936,25.936,0,0,0,9.943,2.261c3.438.218,6.9.163,10.356.088,6.916-.18,13.839-.453,20.766-.479,6.926-.008,13.85.027,20.774.328Z" transform="translate(-93.54 -277.76)" fill="#7c3922"/>
  <path id="Pfad_3840" data-name="Pfad 3840" d="M158.361,405.027c-2.662-3.347-5.22-6.782-7.733-10.246-6.571-9.1-12.84-18.422-18.9-27.871l-.289.182a271.837,271.837,0,0,0,17.006,29.263c1.827,2.8,3.743,5.547,5.732,8.254l2.737,1.081Z" transform="translate(-94.362 -275.885)" fill="#7b8787" style="mix-blend-mode: multiply;isolation: isolate"/>
  <path id="Pfad_3841" data-name="Pfad 3841" d="M131.676,366.94c3.381,4.5,6.619,9.087,10.014,13.561,3.291,4.543,6.612,9.061,10.028,13.493,3.449,4.406,6.8,8.879,10.425,13.076,1.8,2.1,3.616,4.192,5.546,6.072a26.75,26.75,0,0,0,2.953,2.549,7.511,7.511,0,0,0,1.408.827,2.7,2.7,0,0,0,.309.107l.44.123.927.22a66.306,66.306,0,0,0,8.072,1.093c2.756.245,5.536.379,8.318.526,5.567.305,11.156.353,16.745.462,2.794.032,5.588.028,8.374-.04,1.392-.034,2.784-.084,4.164-.17a32.345,32.345,0,0,0,4-.437,9.8,9.8,0,0,0,3.317-1.8c1.1-.812,2.152-1.716,3.184-2.648s2.038-1.909,3.033-2.893,2-1.968,2.982-2.976l.174.146c-1.813,2.146-3.676,4.253-5.655,6.253-.992,1-2.011,1.971-3.1,2.873a10.978,10.978,0,0,1-3.625,2.2,55.936,55.936,0,0,1-8.391.935c-2.806.161-5.614.259-8.422.321q-8.427.175-16.855-.09c-2.81-.1-5.616-.236-8.42-.454a68.483,68.483,0,0,1-8.378-1.08,13.885,13.885,0,0,1-2.064-.584,9.7,9.7,0,0,1-1.854-1.094,28.839,28.839,0,0,1-3.193-2.791c-2-1.988-3.844-4.117-5.639-6.28-3.577-4.341-6.934-8.851-10.213-13.411-6.54-9.138-12.77-18.49-18.8-27.969Z" transform="translate(-94.36 -275.884)" fill="#7af4f4"/>
  <path id="Pfad_3842" data-name="Pfad 3842" d="M157.492,315.622a50.282,50.282,0,0,0-3.792,6.316c-1.145,2.181-2.232,4.393-3.3,6.614-2.134,4.446-4.188,8.931-6.235,13.42l-12.426,26.872-.311-.139a96.659,96.659,0,0,1,4.059-14.419c.778-2.356,1.747-4.628,2.632-6.94.94-2.286,1.962-4.536,2.947-6.8,1.08-2.225,2.141-4.46,3.27-6.666,1.2-2.171,2.312-4.389,3.644-6.5,1.264-2.147,2.654-4.237,4.125-6.286a31.562,31.562,0,0,1,5.115-5.668Z" transform="translate(-94.362 -277.658)" fill="#7af4f4"/>
  <g id="Gruppe_841" data-name="Gruppe 841" transform="translate(47.472 37.727)" style="mix-blend-mode: multiply;isolation: isolate">
    <path id="Pfad_3843" data-name="Pfad 3843" d="M157.113,315.387a5.462,5.462,0,0,1,2.456,3.15,11.281,11.281,0,0,1,.338,4.019,51.827,51.827,0,0,1-1.256,7.742c-.578,2.529-1.2,5.043-1.915,7.522-.735,2.472-1.5,4.931-2.283,7.383-1.563,4.9-3.184,9.779-4.821,14.648-1.612,4.878-3.435,9.673-5.16,14.5l-.313-2.638,16.4,22.844c2.726,3.761,5.5,7.637,8.338,11.051l.5.569c.192.2.42.459.571.6.318.33.715.692,1.08,1.021a15.137,15.137,0,0,0,2.378,1.743A16.118,16.118,0,0,0,179.1,411.5a49.092,49.092,0,0,0,6.644.507l7.04.259,14.1.513c2.348.1,4.7.143,7.048.287a23.562,23.562,0,0,0,6.658-.288,10.162,10.162,0,0,0,2.972-1.188,15.319,15.319,0,0,0,2.607-2.105c1.7-1.6,3.417-3.213,5.08-4.879l.26.222c-1.529,1.787-3.077,3.556-4.694,5.27a16.663,16.663,0,0,1-2.621,2.405,11.4,11.4,0,0,1-3.218,1.544,24.487,24.487,0,0,1-7.039.777l-7.051.014-14.1.028-7.049.012a50.511,50.511,0,0,1-7.074-.385,19.28,19.28,0,0,1-6.773-2.172,20.358,20.358,0,0,1-5.464-4.561c-3.052-3.611-5.808-7.416-8.6-11.2-5.531-7.6-10.9-15.319-16.245-23.056l-.088-.128.056-.143c3.689-9.562,7.378-19.127,10.873-28.759,1.734-4.82,3.443-9.652,4.878-14.563a50.189,50.189,0,0,0,1.685-7.461,11.482,11.482,0,0,0-.054-3.764,4.975,4.975,0,0,0-2.019-3.024Z" transform="translate(-141.488 -315.387)" fill="#7b8787"/>
  </g>
  <path id="Pfad_3844" data-name="Pfad 3844" d="M157.209,315.387a5.329,5.329,0,0,1,2.161,3.216,11.821,11.821,0,0,1,.076,3.886,50.836,50.836,0,0,1-1.666,7.529c-1.423,4.935-3.115,9.778-4.831,14.609-3.461,9.652-7.112,19.232-10.763,28.81l-.032-.27q8.039,11.577,16.307,22.994c2.771,3.787,5.522,7.611,8.526,11.192a19.715,19.715,0,0,0,5.284,4.45,18.744,18.744,0,0,0,6.567,2.132,50.284,50.284,0,0,0,6.993.407l7.048.013,14.1.029,7.05.013a24.135,24.135,0,0,0,6.925-.734,10.98,10.98,0,0,0,3.117-1.479,16.4,16.4,0,0,0,2.572-2.343c1.615-1.7,3.167-3.46,4.7-5.238l.26.222c-1.4,1.9-2.781,3.818-4.316,5.631-.39.459-.759.9-1.184,1.358a11.987,11.987,0,0,1-1.4,1.282,12.211,12.211,0,0,1-3.361,1.836,25.92,25.92,0,0,1-7.307,1.226c-2.356.144-4.7.186-7.053.285l-14.1.514-7.057.255a50.918,50.918,0,0,1-7.419-.283,21.786,21.786,0,0,1-7.675-2.355,20.838,20.838,0,0,1-3.393-2.286c-.527-.435-1-.868-1.5-1.377-.271-.263-.434-.446-.649-.667l-.674-.746c-3.217-3.777-5.952-7.531-8.79-11.339-2.813-3.8-5.482-7.68-8.187-11.535s-5.374-7.73-7.962-11.674l-.862-1.312.547-1.327c1.952-4.737,3.79-9.515,5.8-14.227,1.984-4.72,3.95-9.448,5.854-14.191.952-2.372,1.89-4.748,2.792-7.129.924-2.377,1.881-4.742,2.722-7.136a50.184,50.184,0,0,0,2.1-7.249,12.509,12.509,0,0,0,.207-3.631A4.784,4.784,0,0,0,157,315.658Z" transform="translate(-94.111 -277.66)" fill="#2aadb5"/>
  <path id="Pfad_3845" data-name="Pfad 3845" d="M153.912,404.435c-1.113-.444-2.172-.955-3.238-1.433l-7.6-3.713c-2.53-1.141-4.991-2.332-7.543-3.244a54.03,54.03,0,0,0-7.659-2.393,43.1,43.1,0,0,0-7.8-1.258c-2.657-.243-5.486-.2-8.215-.254-2.478.032-4.958.1-7.417.355l2.45-2.44c1.572-.265,3.157-.458,4.744-.6a78.226,78.226,0,0,1,8.546-.279,43.234,43.234,0,0,1,8.495,1.158,60.347,60.347,0,0,1,15.732,6.627c2.466,1.427,4.854,2.977,7.235,4.524.482.31.963.622,1.448.928Z" transform="translate(-95.292 -275.119)" fill="#7b8787" style="mix-blend-mode: multiply;isolation: isolate"/>
  <path id="Pfad_3846" data-name="Pfad 3846" d="M95.8,394.453a13.2,13.2,0,0,1,3.62-2.3,30.158,30.158,0,0,1,4.037-1.492,52.651,52.651,0,0,1,8.455-1.541,67.141,67.141,0,0,1,8.587-.338,43.547,43.547,0,0,1,8.582,1.147,58.591,58.591,0,0,1,15.8,6.744c2.447,1.478,4.815,3.07,7.163,4.667,1.164.811,2.324,1.626,3.53,2.356a11.219,11.219,0,0,0,1.872.943c.623.233,1.431.37,1.884-.214l.069.052a1.221,1.221,0,0,1-.942.5,3.155,3.155,0,0,1-1.063-.164,11.482,11.482,0,0,1-1.948-.876c-1.248-.685-2.445-1.453-3.643-2.215-2.392-1.532-4.784-3.064-7.25-4.47a59.9,59.9,0,0,0-15.674-6.49,42.96,42.96,0,0,0-8.407-1.2,77.548,77.548,0,0,0-8.505.226,52.557,52.557,0,0,0-8.4,1.314,29.714,29.714,0,0,0-4.045,1.3,13.072,13.072,0,0,0-3.66,2.106Z" transform="translate(-95.589 -275.132)" fill="#aa5635"/>
  <path id="Pfad_3847" data-name="Pfad 3847" d="M132.8,367.242a88.539,88.539,0,0,0-12.016,3.908,54.756,54.756,0,0,0-10.085,5.715,48.129,48.129,0,0,0-8.439,7.792,36.02,36.02,0,0,0-6.2,10.588l-.455.007a22.9,22.9,0,0,1,3.563-12.477,33.38,33.38,0,0,1,8.854-9.6,35.6,35.6,0,0,1,18.288-6.586,36.842,36.842,0,0,1,6.525.2Z" transform="translate(-95.596 -275.898)" fill="#aa5635"/>
  <g id="Gruppe_842" data-name="Gruppe 842" transform="translate(13.618 119.967)">
    <path id="Pfad_3848" data-name="Pfad 3848" d="M125.745,428.856a16.984,16.984,0,1,1,16.984-16.985A17,17,0,0,1,125.745,428.856Zm0-32.934a15.95,15.95,0,1,0,15.949,15.949A15.967,15.967,0,0,0,125.745,395.922Z" transform="translate(-108.761 -394.888)" fill="#658b8b"/>
  </g>
  <path id="Pfad_3849" data-name="Pfad 3849" d="M297.1,415.447a28.657,28.657,0,0,1-3.52,10.486,29.513,29.513,0,0,1-9.033,9.81,29.247,29.247,0,0,1-45.4-28.066l.339.045a30.385,30.385,0,0,0,9.877,22.587,27.676,27.676,0,0,0,22.265,6.852,26.444,26.444,0,0,0,11.11-4.085,28.135,28.135,0,0,0,8.5-8.478,28.7,28.7,0,0,0,3.865-9.329Z" transform="translate(-90.66 -274.48)" fill="#4a3d31"/>
  <path id="Pfad_3850" data-name="Pfad 3850" d="M293.822,405.662a28.641,28.641,0,0,0-.881-4.922l.265-.142a25.424,25.424,0,0,1,1.642,4.943Z" transform="translate(-88.799 -274.724)" fill="#4a3d31"/>
  <g id="Gruppe_843" data-name="Gruppe 843" transform="translate(160.658 139.558)">
    <path id="Pfad_3851" data-name="Pfad 3851" d="M267.71,428.255a16.975,16.975,0,0,1-16.8-14.241l1.122-.187a15.9,15.9,0,0,0,31.159,1.038l1.108.261A16.972,16.972,0,0,1,267.71,428.255Z" transform="translate(-250.905 -413.827)" fill="#658b8b"/>
  </g>
  <g id="Gruppe_844" data-name="Gruppe 844" transform="translate(190.676 127.483)">
    <path id="Pfad_3852" data-name="Pfad 3852" d="M281.566,405.953a16.018,16.018,0,0,0-1.643-3.165l.944-.634a17.1,17.1,0,0,1,1.762,3.393Z" transform="translate(-279.923 -402.154)" fill="#658b8b"/>
  </g>
  <g id="Gruppe_845" data-name="Gruppe 845" transform="translate(129.553 85.339)" style="mix-blend-mode: multiply;isolation: isolate">
    <path id="Pfad_3853" data-name="Pfad 3853" d="M304.413,400.578a2.621,2.621,0,0,0,2.286-2.622,4.223,4.223,0,0,0-.634-1.851c-.306-.639-.643-1.247-.969-1.862a47.318,47.318,0,0,0-4.681-6.946,49.607,49.607,0,0,0-12.52-11.029,66.874,66.874,0,0,0-48.526-7.533,50.56,50.56,0,0,0-7.956,2.577,8.978,8.978,0,0,0-3.264,2.283,11.147,11.147,0,0,0-2.068,3.457,21.958,21.958,0,0,0-1.2,8.14,42.949,42.949,0,0,0,1.042,8.293,47.848,47.848,0,0,0,2.457,8.009,26.5,26.5,0,0,0,1.852,3.739,10.109,10.109,0,0,0,1.219,1.647,5.89,5.89,0,0,0,1.619,1.175l-.251.511a5.976,5.976,0,0,1-2.066-1.023,11.657,11.657,0,0,1-1.65-1.6,28.143,28.143,0,0,1-2.54-3.676,45.861,45.861,0,0,1-3.636-8.1,44,44,0,0,1-1.935-8.881,24.275,24.275,0,0,1,.869-9.837,15.575,15.575,0,0,1,2.711-5.065,13.333,13.333,0,0,1,3.613-3.019c.69-.38.607-.342,1.263-.653a55.748,55.748,0,0,1,8.666-3.193,62.98,62.98,0,0,1,18.061-2.076A62.094,62.094,0,0,1,290.3,372.427q1.854,1.32,3.59,2.8a37.737,37.737,0,0,1,3.316,3.1,49.638,49.638,0,0,1,5.618,7.048,45.352,45.352,0,0,1,4.012,7.933c.253.7.516,1.407.719,2.076.108.36.208.615.354,1.124a4.1,4.1,0,0,1,.122,1.42,3.59,3.59,0,0,1-1.241,2.4,3.443,3.443,0,0,1-2.269.811Z" transform="translate(-220.836 -361.413)" fill="#969f9f"/>
  </g>
  <path id="Pfad_3854" data-name="Pfad 3854" d="M304.308,400.427a2.747,2.747,0,0,0,1.4-1.139,1.9,1.9,0,0,0,.192-1.469,4.746,4.746,0,0,0-.823-1.435c-.4-.607-.8-1.142-1.2-1.689a50.372,50.372,0,0,0-5.309-6.156,46.061,46.061,0,0,0-6.032-5.184,54.566,54.566,0,0,0-6.644-4.2,70.977,70.977,0,0,0-45.609-6.36,46.62,46.62,0,0,0-7.392,2.06c.011-.025-.719.293-.641.265a2.874,2.874,0,0,0-.432.221,6.32,6.32,0,0,0-.908.671,6.966,6.966,0,0,0-1.587,2.163,19.341,19.341,0,0,0-1.546,6.8,40.645,40.645,0,0,0,.22,7.869,52.059,52.059,0,0,0,1.451,8.006,27.2,27.2,0,0,0,1.273,3.861,10.15,10.15,0,0,0,.892,1.769,6.147,6.147,0,0,0,1.359,1.421l-.251.511a6.529,6.529,0,0,1-1.806-1.27,10.819,10.819,0,0,1-1.322-1.723,27.247,27.247,0,0,1-1.961-3.8,48.709,48.709,0,0,1-2.631-8.1,43.115,43.115,0,0,1-1.115-8.458,22.834,22.834,0,0,1,1.215-8.5,12.115,12.115,0,0,1,2.23-3.77,10.012,10.012,0,0,1,3.595-2.547,51.6,51.6,0,0,1,8.1-2.675,66.011,66.011,0,0,1,49.273,7.743,50.35,50.35,0,0,1,12.679,11.3,48.071,48.071,0,0,1,4.642,7.14c.324.635.66,1.267.951,1.905a4.771,4.771,0,0,1,.668,2.129,3.11,3.11,0,0,1-.812,2.145,3.494,3.494,0,0,1-2,1.051Z" transform="translate(-91.178 -275.923)" fill="#aa5635"/>
  <path id="Pfad_3855" data-name="Pfad 3855" d="M295.745,402.39c-3.082.874-6.3,1.615-9.408,2.3-2.944.707-5.92,1.2-8.882,1.784-2.969.521-5.944.962-8.917,1.451-2.99.385-5.976.8-8.98,1.135-3.015.258-6.025.616-9.08.7a75.2,75.2,0,0,1-9.233-.057c-.693-.071-1.389-.145-2.085-.239l.156-1.534c.622,0,1.248-.013,1.869-.036,3-.123,5.99-.448,8.978-.808,5.973-.741,11.926-1.66,17.886-2.544l17.9-2.511c2.98-.429,6.2-.859,9.172-1.3Z" transform="translate(-90.651 -274.72)" fill="#7b8787" style="mix-blend-mode: multiply;isolation: isolate"/>
  <path id="Pfad_3856" data-name="Pfad 3856" d="M232.559,406.959a12.59,12.59,0,0,0,4.366.889,35.794,35.794,0,0,0,4.48-.089c2.988-.18,5.97-.551,8.945-.965q8.93-1.24,17.864-2.623c5.971-.81,11.934-1.663,17.908-2.428l8.962-1.146c2.993-.343,5.987-.7,8.974-1.092l.016.084c-5.939,1.023-11.9,1.918-17.853,2.811l-17.885,2.616c-5.964.852-11.924,1.734-17.908,2.44-2.994.343-5.993.65-9.006.756a36.849,36.849,0,0,1-4.522-.094,12.812,12.812,0,0,1-4.378-1.08Z" transform="translate(-90.88 -274.762)" fill="#aa5635"/>
  <path id="Pfad_3857" data-name="Pfad 3857" d="M260.568,415.33c4.278.271,8.575.306,12.864.294H274.5l3.323,3.327q-2.188.053-4.394.087l-.869-.019-2.2-2.16-1.076.452-.019,1.633-3.766-.162.013-1.489-1.108-.462-1.723,1.716s-2.566-.26-4.753-.582Z" transform="translate(-90.005 -274.217)" fill="#969f9f" style="mix-blend-mode: multiply;isolation: isolate"/>
  <path id="Pfad_3858" data-name="Pfad 3858" d="M253.048,416.969a36.126,36.126,0,0,1-5.054-1.654,9.812,9.812,0,0,1-3.827-3.039,3.891,3.891,0,0,1-.643-2.553,4.555,4.555,0,0,1,.982-2.14l.305.155a4.111,4.111,0,0,0-.5,1.962,2.905,2.905,0,0,0,.741,1.824,8.448,8.448,0,0,0,3.547,2.095,36.3,36.3,0,0,0,3.712.955Z" transform="translate(-90.502 -274.484)" fill="#969f9f" style="mix-blend-mode: multiply;isolation: isolate"/>
  <path id="Pfad_3859" data-name="Pfad 3859" d="M282.074,415.6h7.652c1.86.006,4,.07,5.862.083l-.4,2.136c-1.716.174-3.745.343-5.459.474-2.843.275-6.279.339-9.117.523Z" transform="translate(-89.223 -274.208)" fill="#969f9f" style="mix-blend-mode: multiply;isolation: isolate"/>
  <path id="Pfad_3860" data-name="Pfad 3860" d="M308.06,416.313q-8.536-.056-17.074-.008l-17.075.153a160.837,160.837,0,0,1-17.069-.781,39.35,39.35,0,0,1-8.38-1.725,8.757,8.757,0,0,1-3.67-2.222,3.218,3.218,0,0,1-.8-2.021,4.431,4.431,0,0,1,.545-2.1l.2.1a3.127,3.127,0,0,0,.625,3.531,8.107,8.107,0,0,0,3.5,1.58,46.1,46.1,0,0,0,8.176,1.078c2.787.13,5.589.256,8.4.253,2.814.039,5.638.065,8.466.029l8.522.043c2.851.087,5.7.108,8.551.283,2.849.125,5.7.335,8.543.571,2.846.332,5.693.538,8.535,1.006Z" transform="translate(-90.485 -274.483)" fill="#858892"/>
  <path id="Pfad_3861" data-name="Pfad 3861" d="M297.486,405.4a33.6,33.6,0,0,1,2.48,2.482c.789.857,1.517,1.764,2.275,2.645.7.93,1.433,1.831,2.1,2.786a33.3,33.3,0,0,1,1.9,2.948l-.044.035q-4.413-5.4-8.755-10.86Z" transform="translate(-88.644 -274.559)" fill="#858892"/>
  <path id="Pfad_3862" data-name="Pfad 3862" d="M260.177,405.718c3.2-.384,6.42-.436,9.633-.524,3.217-.069,6.432-.093,9.647-.1q9.647.043,19.293.275l0,.115c-1.612.183-3.221.249-4.83.384l-4.823.2c-3.217.122-6.427.083-9.639.159-3.211-.079-6.42-.055-9.629-.149q-2.408-.092-4.815-.13c-1.606-.087-3.206-.108-4.824-.119Z" transform="translate(-89.927 -274.569)" fill="#545866"/>
  <path id="Pfad_3863" data-name="Pfad 3863" d="M198.338,297.486a3.6,3.6,0,0,0-1.653-1.11,12.52,12.52,0,0,0-1.978-.57,30.41,30.41,0,0,0-4.108-.525,71.868,71.868,0,0,0-16.538,1.11,24.346,24.346,0,0,0-7.784,2.707l-.125-.191a12.329,12.329,0,0,1,3.514-2.628,24.7,24.7,0,0,1,4.031-1.64,34.345,34.345,0,0,1,4.188-1.026c1.411-.249,2.835-.393,4.259-.526,1.43-.064,2.859-.1,4.292-.056a33.841,33.841,0,0,1,4.294.46,22.16,22.16,0,0,1,4.234,1.136,12.085,12.085,0,0,1,2.012,1.025,3.747,3.747,0,0,1,1.543,1.7Z" transform="translate(-93.166 -278.43)" fill="#42210f"/>
  <g id="Gruppe_846" data-name="Gruppe 846" transform="translate(23.761 130.031)">
    <path id="Pfad_3864" data-name="Pfad 3864" d="M125.407,418.3a6.841,6.841,0,1,1,6.841-6.842A6.849,6.849,0,0,1,125.407,418.3Zm0-12.648a5.807,5.807,0,1,0,5.806,5.806A5.814,5.814,0,0,0,125.407,405.651Z" transform="translate(-118.566 -404.617)" fill="#b9d9d9"/>
  </g>
  <path id="Pfad_3865" data-name="Pfad 3865" d="M125.276,414.235a2.907,2.907,0,1,1,2.908-2.908A2.911,2.911,0,0,1,125.276,414.235Z" transform="translate(-94.674 -274.455)" fill="#b9d9d9"/>
  <g id="Gruppe_847" data-name="Gruppe 847" transform="translate(164.496 46.322)" style="mix-blend-mode: multiply;isolation: isolate">
    <path id="Pfad_3866" data-name="Pfad 3866" d="M314.729,339.926l.035-2.191c.02-.724.055-1.452.018-2.144a5.583,5.583,0,0,0-1.312-3.491,6.632,6.632,0,0,0-3.1-1.91,18.268,18.268,0,0,0-3.908-.773c-.675-.062-1.374-.1-2.052-.116l-2.175-.093-4.352-.189-8.688-.552-8.674-.761c-2.886-.322-5.777-.578-8.657-.974-2.884-.348-5.764-.771-8.64-1.214-2.871-.535-5.751-.941-8.613-1.594l.019-.228,34.736,2.5,8.68.681,4.339.342c1.443.12,2.9.2,4.345.423a18.065,18.065,0,0,1,4.235,1.128,7.8,7.8,0,0,1,3.491,2.64,6.661,6.661,0,0,1,1.076,4.225c-.1,1.463-.36,2.89-.582,4.326Z" transform="translate(-254.615 -323.695)" fill="#ab2206"/>
  </g>
  <path id="Pfad_3867" data-name="Pfad 3867" d="M314.756,339.932c.215-1.432.461-2.87.555-4.306a6.423,6.423,0,0,0-1.056-4.071,7.55,7.55,0,0,0-3.392-2.53,17.954,17.954,0,0,0-4.174-1.085c-1.428-.214-2.875-.283-4.325-.394l-4.341-.317-8.683-.633-34.723-2.7.014-.171c2.919-.109,5.824-.031,8.735-.052l8.713.251c5.805.171,11.6.569,17.388.969l8.675.73,4.335.429,2.165.218c.757.094,1.5.208,2.244.352a19.216,19.216,0,0,1,4.408,1.367,8.491,8.491,0,0,1,3.7,3.048,7.1,7.1,0,0,1,.881,4.62,34.31,34.31,0,0,1-.952,4.3Z" transform="translate(-90.119 -277.374)" fill="#ff6b3b"/>
  <path id="Pfad_3868" data-name="Pfad 3868" d="M304.452,365.642a4.5,4.5,0,0,0,2.912-1.7,3.968,3.968,0,0,0,.757-1.387,4.621,4.621,0,0,0,.143-.777l.109-.912c.314-2.426.783-4.82,1.161-7.233.535-2.383.966-4.784,1.557-7.156l.905-3.554c.367-1.174.663-2.361,1.072-3.531l.115.017c-.767,4.826-1.647,9.632-2.529,14.436l-1.408,7.19a11.7,11.7,0,0,1-.429,1.795,4.569,4.569,0,0,1-1.025,1.537,4.615,4.615,0,0,1-3.336,1.385Z" transform="translate(-88.402 -276.833)" fill="#ff6b3b"/>
  <path id="Pfad_3869" data-name="Pfad 3869" d="M254.788,323.81c.3,3.863.352,7.717.537,11.574.089,3.856.155,7.71.148,11.563.041,3.852-.061,7.7-.09,11.553l-.029,1.443-.02.722-.009.361,0,.044c0,.029,0-.175,0-.077v.022l0,.09,0,.18a1.8,1.8,0,0,0,.566,1.121,1.722,1.722,0,0,0,.565.34,1.431,1.431,0,0,0,.32.081.694.694,0,0,0,.167.018l.085.008.178,0,2.886.059,11.541.424c3.847.211,7.7.358,11.538.641,3.845.236,7.687.547,11.527.879,3.84.424,7.685.719,11.522,1.261l-.007.228-46.183-1.158-2.886-.087a4.021,4.021,0,0,1-2.766-1.078,3.941,3.941,0,0,1-1.241-2.709c.006-.983.066-1.929.1-2.894l.443-11.541.883-23.082Z" transform="translate(-90.17 -277.37)" fill="#c92206"/>
  <path id="Pfad_3870" data-name="Pfad 3870" d="M305.321,314.639a26.408,26.408,0,0,1,10.06,1.942,10.328,10.328,0,0,1,4.038,3.171,9.367,9.367,0,0,1,1.731,4.833,26.154,26.154,0,0,1-1.536,10.145,17.84,17.84,0,0,1-2.361,4.572,5.548,5.548,0,0,1-1.921,1.722,1.739,1.739,0,0,1-1.294.108,2.074,2.074,0,0,1-.992-.844l.1-.062a1.835,1.835,0,0,0,.98.658,1.446,1.446,0,0,0,1.055-.2,5.219,5.219,0,0,0,1.6-1.741,17.345,17.345,0,0,0,2.007-4.509,26.788,26.788,0,0,0,1.236-9.752,8.316,8.316,0,0,0-1.436-4.316,10.246,10.246,0,0,0-3.576-2.981,18.894,18.894,0,0,0-4.663-1.67,50.461,50.461,0,0,0-5.026-.961Z" transform="translate(-88.372 -277.685)" fill="#ff7d01"/>
  <g id="Gruppe_866" data-name="Gruppe 866" transform="translate(171.067 51.923)">
    <g id="Gruppe_856" data-name="Gruppe 856" transform="translate(0.786)" style="mix-blend-mode: screen;isolation: isolate">
      <g id="Gruppe_848" data-name="Gruppe 848" transform="translate(0 0.959)">
        <path id="Pfad_3871" data-name="Pfad 3871" d="M263.151,351.768a1.368,1.368,0,0,1-.223-.019,1.422,1.422,0,0,1-1.183-1.626l2.973-18.884a1.423,1.423,0,0,1,2.812.443l-2.974,18.884A1.425,1.425,0,0,1,263.151,351.768Z" transform="translate(-261.727 -330.037)" fill="#f07800"/>
      </g>
      <g id="Gruppe_849" data-name="Gruppe 849" transform="translate(1.112 1.751)">
        <path id="Pfad_3872" data-name="Pfad 3872" d="M264.225,344.673a1.423,1.423,0,0,1-.511-2.752c6.053-2.328,8.345-5.507,7.989-6.923-.231-.926-2.047-1.658-5.586-1.213a1.423,1.423,0,0,1-.356-2.824c6.868-.864,8.378,2.048,8.7,3.344.881,3.5-3.12,7.73-9.729,10.273A1.408,1.408,0,0,1,264.225,344.673Z" transform="translate(-262.802 -330.803)" fill="#f07800"/>
      </g>
      <g id="Gruppe_850" data-name="Gruppe 850" transform="translate(12.192 10.792)">
        <path id="Pfad_3873" data-name="Pfad 3873" d="M274.94,348.839a1.612,1.612,0,0,1-.222-.016,1.428,1.428,0,0,1-1.188-1.628l1.01-6.451a1.424,1.424,0,0,1,2.814.441l-1.011,6.451A1.42,1.42,0,0,1,274.94,348.839Z" transform="translate(-273.513 -339.543)" fill="#f07800"/>
      </g>
      <g id="Gruppe_851" data-name="Gruppe 851" transform="translate(13.47 7.948)">
        <path id="Pfad_3874" data-name="Pfad 3874" d="M276.173,340.769a1.485,1.485,0,0,1-.222-.018,1.42,1.42,0,0,1-1.184-1.626l.175-1.13a1.423,1.423,0,1,1,2.813.441l-.176,1.13A1.425,1.425,0,0,1,276.173,340.769Z" transform="translate(-274.749 -336.794)" fill="#f07800"/>
      </g>
      <g id="Gruppe_852" data-name="Gruppe 852" transform="translate(7.462 3.633)">
        <path id="Pfad_3875" data-name="Pfad 3875" d="M293.608,360.971h-.05l-24.618-.835L286.768,335.7l-8.884-.23a1.425,1.425,0,0,1-1.388-1.46,1.459,1.459,0,0,1,1.461-1.387l14.308.371-17.857,24.48,19.247.653a1.423,1.423,0,0,1-.047,2.845Z" transform="translate(-268.941 -332.622)" fill="#f07800"/>
      </g>
      <g id="Gruppe_853" data-name="Gruppe 853" transform="translate(21.468 13.599)">
        <path id="Pfad_3876" data-name="Pfad 3876" d="M296.486,355.435h-.039l-13.967-.372,7.751-9.961h-4.377a1.423,1.423,0,1,1,0-2.846h10.2l-7.866,10.111,8.339.221a1.424,1.424,0,0,1-.037,2.847Z" transform="translate(-282.48 -342.256)" fill="#f07800"/>
      </g>
      <g id="Gruppe_854" data-name="Gruppe 854" transform="translate(31.968)">
        <path id="Pfad_3877" data-name="Pfad 3877" d="M304.313,354.55a1.424,1.424,0,0,1-1.421-1.385l-.383-13.942-7.225,12.462a1.423,1.423,0,0,1-2.462-1.428L305.08,329.11l.659,23.977a1.425,1.425,0,0,1-1.386,1.463Z" transform="translate(-292.631 -329.11)" fill="#f07800"/>
      </g>
      <g id="Gruppe_855" data-name="Gruppe 855" transform="translate(34.865 15.439)">
        <path id="Pfad_3878" data-name="Pfad 3878" d="M304.219,346.882h-7.363a1.423,1.423,0,1,1,0-2.847h7.363a1.423,1.423,0,1,1,0,2.847Z" transform="translate(-295.431 -344.035)" fill="#f07800"/>
      </g>
    </g>
    <g id="Gruppe_865" data-name="Gruppe 865" transform="translate(0 0.62)" style="mix-blend-mode: multiply;isolation: isolate">
      <g id="Gruppe_857" data-name="Gruppe 857" transform="translate(0 0.232)">
        <path id="Pfad_3879" data-name="Pfad 3879" d="M262.109,351.094a1.165,1.165,0,0,1-.179-.013,1.142,1.142,0,0,1-.95-1.3l2.976-18.883a1.139,1.139,0,0,1,2.251.354l-2.976,18.883A1.138,1.138,0,0,1,262.109,351.094Z" transform="translate(-260.967 -329.934)" fill="#e66600"/>
      </g>
      <g id="Gruppe_858" data-name="Gruppe 858" transform="translate(1.114 1.022)">
        <path id="Pfad_3880" data-name="Pfad 3880" d="M263.183,344a1.139,1.139,0,0,1-.409-2.2c6.214-2.39,8.544-5.743,8.164-7.258-.323-1.279-2.637-1.84-5.9-1.427a1.139,1.139,0,0,1-.284-2.259c6.655-.841,8.086,1.91,8.392,3.13.846,3.362-3.082,7.449-9.553,9.939A1.164,1.164,0,0,1,263.183,344Z" transform="translate(-262.044 -330.697)" fill="#e66600"/>
      </g>
      <g id="Gruppe_859" data-name="Gruppe 859" transform="translate(12.195 10.063)">
        <path id="Pfad_3881" data-name="Pfad 3881" d="M273.9,348.166a1.184,1.184,0,0,1-.179-.013,1.14,1.14,0,0,1-.948-1.3l1.009-6.451a1.139,1.139,0,1,1,2.251.352l-1.011,6.451A1.136,1.136,0,0,1,273.9,348.166Z" transform="translate(-272.756 -339.437)" fill="#e66600"/>
      </g>
      <g id="Gruppe_860" data-name="Gruppe 860" transform="translate(13.472 7.22)">
        <path id="Pfad_3882" data-name="Pfad 3882" d="M275.13,340.1a1.115,1.115,0,0,1-.176-.013,1.138,1.138,0,0,1-.95-1.3l.176-1.131a1.139,1.139,0,1,1,2.251.352l-.176,1.13A1.142,1.142,0,0,1,275.13,340.1Z" transform="translate(-273.99 -336.689)" fill="#e66600"/>
      </g>
      <g id="Gruppe_861" data-name="Gruppe 861" transform="translate(7.726 2.907)">
        <path id="Pfad_3883" data-name="Pfad 3883" d="M292.556,360.3h-.04l-24.08-.816,17.831-24.442-9.427-.243a1.139,1.139,0,1,1,.058-2.277l13.765.356L272.809,357.35l19.785.672a1.138,1.138,0,0,1-.037,2.276Z" transform="translate(-268.436 -332.519)" fill="#e66600"/>
      </g>
      <g id="Gruppe_862" data-name="Gruppe 862" transform="translate(21.757 12.871)">
        <path id="Pfad_3884" data-name="Pfad 3884" d="M295.435,354.762H295.4L282,354.4l7.761-9.975H284.8a1.139,1.139,0,1,1,0-2.278h9.616l-7.856,10.1,8.9.237a1.139,1.139,0,0,1-.029,2.278Z" transform="translate(-281.999 -342.151)" fill="#e66600"/>
      </g>
      <g id="Gruppe_863" data-name="Gruppe 863" transform="translate(31.97)">
        <path id="Pfad_3885" data-name="Pfad 3885" d="M303.272,353.853a1.142,1.142,0,0,1-1.139-1.108l-.41-14.948L294,351.128a1.138,1.138,0,0,1-1.971-1.14l11.752-20.279.631,22.974a1.14,1.14,0,0,1-1.107,1.17Z" transform="translate(-291.872 -329.709)" fill="#e66600"/>
      </g>
      <g id="Gruppe_864" data-name="Gruppe 864" transform="translate(34.866 14.714)">
        <path id="Pfad_3886" data-name="Pfad 3886" d="M303.175,346.21H295.81a1.138,1.138,0,0,1,0-2.277h7.365a1.138,1.138,0,0,1,0,2.277Z" transform="translate(-294.672 -343.933)" fill="#e66600"/>
      </g>
    </g>
  </g>
  <path id="Pfad_3887" data-name="Pfad 3887" d="M273.865,313.789c-2.07.3-4.125.515-6.131.75a27.2,27.2,0,0,0-5.764,1.219,10.09,10.09,0,0,0-4.58,3.1,10.857,10.857,0,0,0-1.537,2.472,24.329,24.329,0,0,0-1.169,2.833l-.114-.018a13.75,13.75,0,0,1,2.1-5.793,9.852,9.852,0,0,1,4.919-3.671,21.8,21.8,0,0,1,6.1-1.043c2.064-.1,4.125-.049,6.185.033Z" transform="translate(-90.12 -277.722)" fill="#ff7d01"/>
  <path id="Pfad_3888" data-name="Pfad 3888" d="M227.882,377.577c1.545,2.357,7.645-1.288,6.506-4.18S225.68,374.222,227.882,377.577Z" transform="translate(-91.053 -275.697)" fill="#fff"/>
  <path id="Pfad_3889" data-name="Pfad 3889" d="M227.274,381.225c-1.626-1.625-2.014,7.987.116,9.138C228.886,391.173,228.9,382.848,227.274,381.225Z" transform="translate(-91.107 -275.398)" fill="#fff"/>
  <path id="Pfad_3890" data-name="Pfad 3890" d="M127.385,370.485c-2.708,1.063-5.233,1.836-7.674,2.811a65.51,65.51,0,0,0-7.273,2.965,37.785,37.785,0,0,0-6.521,4.679,52.066,52.066,0,0,0-5.692,5.924l-.282-.193a44.573,44.573,0,0,1,4.753-6.925,33.647,33.647,0,0,1,6.28-5.793,21.413,21.413,0,0,1,7.749-3.927,17.46,17.46,0,0,1,8.642.119Z" transform="translate(-95.447 -275.794)" fill="#fff"/>
  <path id="Pfad_3891" data-name="Pfad 3891" d="M135.671,361.019c.963-3.414,2.027-6.8,3.157-10.164q1.749-5.026,3.745-9.98a70.654,70.654,0,0,1,4.476-9.716,36.858,36.858,0,0,1,6.588-8.489l.18.141c-1.654,3.172-3.227,6.275-4.766,9.43-1.513,3.155-3.293,6.191-4.813,9.372s-2.974,6.4-4.348,9.65c-1.4,3.242-2.755,6.515-4,9.826Z" transform="translate(-94.216 -277.409)" fill="#fff"/>
  <path id="Pfad_3892" data-name="Pfad 3892" d="M190.63,347.044a13.252,13.252,0,0,1-1.109-4.624,6.256,6.256,0,0,1,1.951-4.81,9.973,9.973,0,0,1,4.468-2.31,30.793,30.793,0,0,1,4.69-.733,68.294,68.294,0,0,1,9.254-.086c3.064.19,6.111.472,9.141.876l-.018.228c-3.052-.042-6.1-.082-9.136.034a66.852,66.852,0,0,0-9.011.755,24.274,24.274,0,0,0-4.265,1.083,12.65,12.65,0,0,0-3.6,1.849,5.116,5.116,0,0,0-1.874,3.238,31.668,31.668,0,0,0-.264,4.463Z" transform="translate(-92.361 -277.006)" fill="#fff"/>
  <path id="Pfad_3893" data-name="Pfad 3893" d="M272.787,325.722c-.137-1.275-.292-2.53-.437-3.782l-.537-3.779a14.489,14.489,0,0,1-.026-4.152,4.907,4.907,0,0,1,1.123-2.353,5.7,5.7,0,0,1,2.151-1.47,13.285,13.285,0,0,1,4.232-.839c1.362-.089,2.654-.068,3.9-.088,2.528.009,5.061.051,7.609.1,2.544.125,5.1.237,7.683.519,1.289.16,2.586.344,3.909.62a17.632,17.632,0,0,1,2.018.527,7.881,7.881,0,0,1,2.191,1.083,3.937,3.937,0,0,1,.609.571,2.864,2.864,0,0,1,.294.411l.067.114.041.082.007.013.01.027.063.148a4.326,4.326,0,0,1,.3,1.42,9.914,9.914,0,0,1-.122,2.167,30.969,30.969,0,0,1-.885,3.855c-.389,1.239-.818,2.452-1.269,3.653a36.746,36.746,0,0,1-1.5,3.542l-.218-.066c.7-2.426,1.328-4.882,1.81-7.358a32.859,32.859,0,0,0,.531-3.741,10.207,10.207,0,0,0-.006-1.865,1.843,1.843,0,0,0-.762-1.508,9.874,9.874,0,0,0-3.524-1.113c-1.239-.21-2.5-.342-3.752-.448-2.519-.2-5.045-.3-7.573-.377l-7.59-.232c-2.516-.053-5.1-.281-7.475.473a3.878,3.878,0,0,0-1.54.937,3.529,3.529,0,0,0-.845,1.586,14.474,14.474,0,0,0-.26,3.734c.068,2.524.164,5.067-.005,7.6Z" transform="translate(-89.532 -277.871)" fill="#ff7d01"/>
</svg>
