<svg xmlns="http://www.w3.org/2000/svg" width="193.522" height="50"><g data-name="Gruppe 607"><g data-name="Gruppe 603"><path data-name="Differenzmenge 2" d="M3.67 48.645a3.4 3.4 0 01-2.991-1.754A5.6 5.6 0 010 45.137c0-.344.236-38.1.254-41.8C.269.426 3 .112 4.173.112a4.961 4.961 0 01.5.021H19s.225-.015.6-.015a16.758 16.758 0 017.837 1.927 11.165 11.165 0 014.13 3.929A14.468 14.468 0 0133.5 13.23a13.906 13.906 0 01-2.1 8.219 12.9 12.9 0 01-5 4.335 19.619 19.619 0 01-7.4 1.979H8.391v.778c.026 13.261.013 16.344 0 16.6a4.046 4.046 0 01-1.114 1.956 4.911 4.911 0 01-3.48 1.55zM14.559 7.859H8.396v13.553h10.585a8.021 8.021 0 003.13-.791 5.469 5.469 0 002.144-1.834 6.155 6.155 0 00.958-3.543c-.017-2.89-.578-4.847-1.715-5.982-.966-.965-2.36-1.4-4.517-1.4z" fill="#fff"/></g><path data-name="Pfad 2472" d="M41.066 3.703s.727-3.855 4.176-3.689 4.184 3.689 4.184 3.689v42.976a4.164 4.164 0 01-4.184 3.052 4.216 4.216 0 01-4.176-3.052c-.069-.12 0-42.976 0-42.976z" fill="#fff"/><g data-name="Gruppe 604" transform="translate(56.545)"><path data-name="Pfad 2473" d="M3.339.008A3.411 3.411 0 00.363 3.664a3.942 3.942 0 002.976 3.988H39.19L10.82 44.1a3.72 3.72 0 001.305 4.735c2.736 1.917 5.258-.468 5.258-.468L50.466 6.159s1.624-2.91 0-4.45a5.606 5.606 0 00-4.534-1.7C44.444.068 3.339.008 3.339.008z" fill="#fff"/><path data-name="Pfad 2474" d="M3.193 7.644c-10.317 20.239 7.633 36.45 7.633 36.45l28.373-36.45z" fill="#ebb343"/><circle data-name="Ellipse 28" cx="1.935" cy="1.935" r="1.935" transform="translate(3.452 11.754)" fill="#d54835"/><ellipse data-name="Ellipse 29" cx=".968" cy="1.935" rx=".968" ry="1.935" transform="translate(24.739 13.69)" fill="#d54835"/><ellipse data-name="Ellipse 30" cx="3.87" cy="2.903" rx="3.87" ry="2.903" transform="translate(5.388 25.3)" fill="#d54835"/><circle data-name="Ellipse 31" cx="1.935" cy="1.935" r="1.935" transform="translate(13.128 13.69)" fill="#d54835"/><ellipse data-name="Ellipse 32" cx="2.903" cy="1.935" rx="2.903" ry="1.935" transform="translate(16.998 21.43)" fill="#d54835"/></g><g data-name="Gruppe 605" transform="rotate(-180 70.416 24.79)"><path data-name="Pfad 2473" d="M3.339.009A3.412 3.412 0 00.363 3.664a3.943 3.943 0 002.976 3.989h35.85L10.819 44.1a3.72 3.72 0 001.305 4.735c2.736 1.917 5.259-.468 5.259-.468l33.08-42.208s1.625-2.91 0-4.45a5.605 5.605 0 00-4.53-1.7c-1.49.059-42.594 0-42.594 0z" fill="#fff"/><path data-name="Pfad 2474" d="M3.2 7.644c-10.32 20.239 7.631 36.45 7.631 36.45L39.2 7.644z" fill="#ebb343"/><circle data-name="Ellipse 28" cx="1.789" cy="1.789" r="1.789" transform="translate(4.287 11.695)" fill="#d54835"/><circle data-name="Ellipse 29" cx="1.789" cy="1.789" r="1.789" transform="translate(23.967 13.484)" fill="#d54835"/><circle data-name="Ellipse 30" cx="3.131" cy="3.131" r="3.131" transform="translate(6.076 25.113)" fill="#d54835"/><circle data-name="Ellipse 31" cx="2.236" cy="2.236" r="2.236" transform="translate(12.338 13.484)" fill="#d54835"/><circle data-name="Ellipse 32" cx="2.236" cy="2.236" r="2.236" transform="translate(17.705 20.641)" fill="#d54835"/></g><path data-name="Differenzmenge 3" d="M189.031 50a4.866 4.866 0 01-3.5-1.759l-3.921-9.9h-22.038l-.028.072c-.867 2.174-3.724 9.307-4.1 9.832a4.7 4.7 0 01-3.653 1.65 5.979 5.979 0 01-1.755-.276 3.4 3.4 0 01-2.366-2.7 6.028 6.028 0 01-.07-1.991l.005-.012c.716-1.635 17.545-40.061 18.114-41.107a5.457 5.457 0 014.92-3.225c.1-.006.2-.009.3-.009a4.126 4.126 0 013.147 1.416 4.895 4.895 0 01.889 1.416l18.528 41.208a5.923 5.923 0 01-.178 1.984 4.495 4.495 0 01-4.293 3.4zm-18.5-37.2l-7.881 18.544h15.447l-7.562-18.549z" fill="#fff"/></g></svg>