<svg id="Gruppe_871" data-name="Gruppe 871" xmlns="http://www.w3.org/2000/svg" width="229.723" height="158.688" viewBox="0 0 229.723 158.688">
  <g id="Gruppe_720" data-name="Gruppe 720" transform="translate(0.29 0.363)">
    <g id="Gruppe_719" data-name="Gruppe 719">
      <g id="Gruppe_718" data-name="Gruppe 718">
        <g id="Gruppe_717" data-name="Gruppe 717">
          <path id="Pfad_2965" data-name="Pfad 2965" d="M273.671,155.782l6.645-.282,8.885-.37,9.624-.387,22.352-.935-2.434,22.687L97.5,183.388l-5.272-20.677,24.344-1.129,5.764-.265,8.144-.37,6.17-.282,30.6-1.41,15.742-.723,5.676-.263a11.44,11.44,0,0,0,.635,2.485c1.181,3.227,4.389,8.444,12.939,8.444,12.375,0,11.564-10.929,11.564-10.929l4.23-.178,11.406-.475Z" transform="translate(-92.227 -25.354)" fill="#ce9d67"/>
          <path id="Pfad_2966" data-name="Pfad 2966" d="M280.9,163.561l-22.352.935v-.018l-5.694-4.072-.016-.017a6.174,6.174,0,0,0,1.092-3.632c-.492-4.089-1.129-8.8-13.414-14.278-1.093-.511-2.292-1-3.6-1.516-2.855-1.11-6.4-1.446-10-2.327-2.432-.6-4.917-1.534-7.615-2.2v-13.4Z" transform="translate(-51.95 -35.107)" fill="#7a4a1f"/>
          <path id="Pfad_2967" data-name="Pfad 2967" d="M251.421,155.488v.018l-9.624.387v-.107a21.448,21.448,0,0,0,3.914-4.388l.016.017Z" transform="translate(-44.822 -26.117)" fill="#66361b"/>
          <path id="Pfad_2968" data-name="Pfad 2968" d="M237.379,159.7c1.746-1.27,3.175-2.627,4.513-3.79,2.8-2.5,3.861-4.248,3.738-6.874a8.527,8.527,0,0,0-2.292-4.055,22.935,22.935,0,0,0-8.514-5.465c-.9-.352-1.8-.652-2.733-.934.652-.828,1.939-1.305,4.372-.723,12.286,5.482,12.922,10.189,13.414,14.278a6.176,6.176,0,0,1-1.092,3.632,21.45,21.45,0,0,1-3.914,4.388v.107l-8.885.37C236.481,160.337,236.94,160.018,237.379,159.7Z" transform="translate(-47.898 -30.49)" fill="#ffc454"/>
          <path id="Pfad_2969" data-name="Pfad 2969" d="M245.791,148.8c.124,2.626-.934,4.371-3.737,6.874-1.338,1.163-2.767,2.521-4.513,3.79a3.782,3.782,0,0,0-5-.723c1.375-.988,2.643-1.992,3.543-2.7,2.644-2.062,4.653-4.036,4.547-6.205-.105-2.151-2.291-3.931-5.112-5.729-1.146-.74-2.378-1.568-3.807-2.363a4.439,4.439,0,0,1,.547-3.4c.935.282,1.833.582,2.733.934a22.934,22.934,0,0,1,8.514,5.465A8.525,8.525,0,0,1,245.791,148.8Z" transform="translate(-48.06 -30.254)" fill="#ed8f3a"/>
          <path id="Pfad_2970" data-name="Pfad 2970" d="M271.958,56.268l10.136,12.956-9.361,1.746L207.952,83.01s-2.838-6.893-11.564-5.27c-8.709,1.621-8.3,9.324-8.3,9.324L120.8,101.5l-10.1,2.169,4.442-15.39Z" transform="translate(-86.373 -56.268)" fill="#ce9d67"/>
          <path id="Pfad_2971" data-name="Pfad 2971" d="M257.379,149.022c.105,2.169-1.9,4.143-4.547,6.205-.9.7-2.168,1.709-3.542,2.7-.723.511-1.465,1-2.2,1.463l-.053-.088-68.308-6.4.265-.159,69.454-11.81h.017c1.429.794,2.662,1.622,3.807,2.363C255.088,145.091,257.274,146.872,257.379,149.022Zm-7.667-3.6-.142-.441s-4.777-4.231-4.266-.917c0,0-5.905-1.48-3.738,1.216,0,0-2.432.353-2.626,1.41.07,1.04,3.067,1.482,3.067,1.482-.141,1.869,3.544.246,3.544.246C244.74,150.08,247.844,149.71,249.712,145.427Zm-6.576,7.068a1.365,1.365,0,0,0,1.445-1.234,1.381,1.381,0,0,0-1.568-1.093,1.367,1.367,0,0,0-1.446,1.234A1.381,1.381,0,0,0,243.137,152.5Zm-22.758,1.076c9.784-.353,15.336-2.222,8.92-3.9s-13.256-2.556-19.655.195C206.241,151.332,210.6,153.923,220.379,153.571Z" transform="translate(-64.813 -29.435)" fill="#ffe9ad"/>
          <path id="Pfad_2972" data-name="Pfad 2972" d="M238.041,154.712c-.44.316-.9.635-1.392.934l-6.645.282c.265-.141.547-.3.828-.475.74-.458,1.482-.952,2.2-1.463A3.782,3.782,0,0,1,238.041,154.712Z" transform="translate(-48.56 -25.499)" fill="#ed8f3a"/>
          <path id="Pfad_2973" data-name="Pfad 2973" d="M246.93,139.912c-2.434-.582-3.72-.105-4.372.723-2.132-.653-4.389-1.164-7-1.816-3.225-.828-6.5-2.22-10.242-2.874-3.349-.564-7.051-.37-10.753-.793-3.437-.387-6.929-1.393-10.629-1.64a37.633,37.633,0,0,0-4.866.053c.582-1.181,1.41-2.1,3.826-2.432,3.561.229,6.91,1.181,10.223,1.533,3.579.389,7.122.195,10.366.723a22.744,22.744,0,0,1,2.239.477c2.7.669,5.182,1.6,7.615,2.2,3.6.881,7.14,1.217,10,2.327C244.639,138.907,245.837,139.4,246.93,139.912Z" transform="translate(-58.364 -32.54)" fill="#ffc454"/>
          <path id="Pfad_2974" data-name="Pfad 2974" d="M270.3,67.432l-19,73.226-108.183,5.27c-8.514-24.308-24.749-47.965-24.749-47.965l67.285-14.438s-.406-7.7,8.3-9.324c8.726-1.623,11.564,5.27,11.564,5.27Z" transform="translate(-83.942 -52.73)" fill="#916642"/>
          <path id="Pfad_2975" data-name="Pfad 2975" d="M235.078,144.536l.142.441c-1.869,4.283-4.973,4.653-4.16,3,0,0-3.685,1.623-3.544-.246,0,0-3-.441-3.067-1.482.194-1.058,2.626-1.41,2.626-1.41-2.168-2.7,3.737-1.215,3.737-1.215C230.3,140.3,235.078,144.536,235.078,144.536Z" transform="translate(-50.321 -28.985)" fill="#63aa35"/>
          <path id="Pfad_2976" data-name="Pfad 2976" d="M242.355,143.478h-.017a23.422,23.422,0,0,0-3.9-1.727c-2.644-.865-5.939-1.164-9.271-1.852-2.891-.616-5.835-1.675-9.167-2.15-3.014-.423-6.328-.246-9.643-.547-3.084-.282-6.2-1.039-9.536-1.2-.934-.053-1.887-.036-2.838-.018a20.508,20.508,0,0,0,1.428-2.979,37.634,37.634,0,0,1,4.866-.053c3.7.246,7.192,1.252,10.629,1.64,3.7.423,7.4.229,10.753.793,3.738.653,7.017,2.045,10.242,2.873,2.609.652,4.866,1.163,7,1.816A4.439,4.439,0,0,0,242.355,143.478Z" transform="translate(-58.708 -31.981)" fill="#ed8f3a"/>
          <path id="Pfad_2977" data-name="Pfad 2977" d="M248.379,142.738l-69.454,11.81c3.507-2.361,7.034-4.705,10.488-7.173A103.047,103.047,0,0,0,203.2,136.269a6.98,6.98,0,0,0,.828-1.023c.951-.017,1.9-.034,2.838.018,3.332.159,6.452.917,9.536,1.2,3.315.3,6.628.124,9.643.547,3.332.475,6.277,1.534,9.167,2.151,3.332.687,6.627.986,9.271,1.852A23.425,23.425,0,0,1,248.379,142.738Zm-22.229-1.127a1.184,1.184,0,1,0-1.446-1.093A1.283,1.283,0,0,0,226.15,141.611Zm-15.513,2.979c1.482-.159.441-2.028.441-2.028-2.01.529-5.888-.687-5.888-.687.071-.757,1.393-.986,2.432-1.057.706-.053,1.288-.035,1.288-.035-1.234-.828-7.034-2.837-8.991,2.116s5.676,4.812,7.158,4.248c.6-.229.4-.406-.107-.67h-.017a6.033,6.033,0,0,1-2.855-2.22A59.791,59.791,0,0,0,210.637,144.59Z" transform="translate(-64.749 -31.242)" fill="#ffe9ad"/>
          <path id="Pfad_2978" data-name="Pfad 2978" d="M202.046,158.816l-11.406.475v-.017c-4.16-2.926-8.108-5.993-11.97-9.2a.256.256,0,0,1,.071-.053l68.308,6.4.053.088c-.282.176-.564.335-.828.475Zm4.072-1.251c2.573-.317,3-2.062-2.821-.969C204.478,156.577,205.941,156.718,206.118,157.565Zm-9.5-2.2c.158-.74-1.85-1.5-1.85-1.5.475-1.287-2.4-.723-2.4-.723.881-1.022-1.358-1.234-3.473,1.463v.335s2.5,3.685,2.8,1.287c0,0,3.809,1.94,2.821-.28C194.518,155.944,196.28,156.066,196.616,155.362Z" transform="translate(-64.83 -26.554)" fill="#ffe9ad"/>
          <path id="Pfad_2979" data-name="Pfad 2979" d="M229.458,149.039a1.365,1.365,0,0,1-1.445,1.234,1.381,1.381,0,0,1-1.57-1.093,1.367,1.367,0,0,1,1.446-1.234A1.381,1.381,0,0,1,229.458,149.039Z" transform="translate(-49.689 -27.212)" fill="#87a836"/>
          <path id="Pfad_2980" data-name="Pfad 2980" d="M245.345,136.414v.018a22.733,22.733,0,0,0-2.239-.477c-3.243-.528-6.786-.335-10.366-.723-3.313-.352-6.662-1.3-10.223-1.533-3.368-.194-6.876.3-10.437.229-3.385-.071-6.839-.759-10.383-.706-3.4.054-6.857.811-10.383.971-3.507.176-8.056-.212-11.44.07-3.543.282-6.91,1.27-10.277,1.675-.917.107-1.815.176-2.731.229a76.766,76.766,0,0,0-7.669.529c-3.525.564-6.769,1.815-10.03,2.485-3.174.652-6.382.847-9.308,1.5l-2.7-12.375,108.183-5.27Z" transform="translate(-77.985 -35.107)" fill="#7a4a1f"/>
          <path id="Pfad_2981" data-name="Pfad 2981" d="M222.133,147.948c6.416,1.675.864,3.544-8.92,3.9s-14.137-2.239-10.736-3.7C208.877,145.392,215.717,146.274,222.133,147.948Z" transform="translate(-57.647 -27.709)" fill="#b2410f"/>
          <path id="Pfad_2982" data-name="Pfad 2982" d="M216.456,139.4a1.407,1.407,0,1,1-1.429-1.093A1.283,1.283,0,0,1,216.456,139.4Z" transform="translate(-53.732 -30.267)" fill="#87a836"/>
          <path id="Pfad_2983" data-name="Pfad 2983" d="M206.1,141.493s1.04,1.869-.441,2.028a59.776,59.776,0,0,1-6.539-.335c-2.293.122-1.57,1.745,2.855,2.22h.017c.511.265.706.441.107.67-1.482.564-9.115.7-7.158-4.248s7.757-2.945,8.991-2.116c0,0-.582-.017-1.288.036v-.017c-5.218-.494-4.724,1.022-2.432,1.075C200.214,140.805,204.092,142.022,206.1,141.493Z" transform="translate(-59.773 -30.173)" fill="#c4a087"/>
          <path id="Pfad_2984" data-name="Pfad 2984" d="M204.931,131.478c3.561.071,7.069-.423,10.437-.229-2.415.335-3.243,1.251-3.826,2.432-1.957.088-3.948.229-5.958.177-3.508-.088-7.1-.811-10.771-.776-3.543.053-7.65.881-11.3,1.057-3.649.159-7.3-.3-10.824,0-3.631.3-7.086,1.341-10.559,1.763-.793-.723-1.6-1.463-2.414-2.186.917-.053,1.815-.122,2.731-.229,3.367-.406,6.735-1.393,10.277-1.675,3.384-.282,7.933.107,11.44-.07,3.525-.159,6.981-.917,10.383-.97C198.093,130.719,201.547,131.406,204.931,131.478Z" transform="translate(-70.837 -32.656)" fill="#ffc454"/>
          <path id="Pfad_2985" data-name="Pfad 2985" d="M201.7,139.483v.017c-1.039.071-2.361.3-2.433,1.057C196.974,140.5,196.48,138.989,201.7,139.483Z" transform="translate(-58.825 -29.925)" fill="#5e2f1c"/>
          <path id="Pfad_2986" data-name="Pfad 2986" d="M197.37,155.1c5.817-1.093,5.394.652,2.821.969C200.014,155.221,198.551,155.08,197.37,155.1Z" transform="translate(-58.903 -25.058)" fill="#5e2f1c"/>
          <path id="Pfad_2987" data-name="Pfad 2987" d="M198.346,142.083a6.032,6.032,0,0,0,2.855,2.22C196.776,143.828,196.053,142.205,198.346,142.083Z" transform="translate(-58.997 -29.07)" fill="#5e2f1c"/>
          <path id="Pfad_2988" data-name="Pfad 2988" d="M210.962,133.124a20.5,20.5,0,0,1-1.428,2.979c-2.257.071-4.549.283-6.857.248-3.155-.036-6.363-.582-9.66-.511-3.174.053-6.4.687-9.678.846s-6.54-.176-9.712.071c-3.1.229-6.082.986-9.043,1.358-1-.918-2.01-1.833-3.033-2.768,3.473-.423,6.928-1.463,10.559-1.763,3.527-.3,7.175.159,10.824,0,3.649-.176,7.757-1,11.3-1.057,3.666-.036,7.263.687,10.771.776C207.013,133.354,209,133.213,210.962,133.124Z" transform="translate(-70.256 -32.1)" fill="#ed8f3a"/>
          <path id="Pfad_2989" data-name="Pfad 2989" d="M208.8,135.307a6.987,6.987,0,0,1-.828,1.023,103.042,103.042,0,0,1-13.786,11.106c-3.454,2.468-6.981,4.812-10.488,7.173l-.494.071c-5.27-4.406-10.347-9.043-15.512-13.82,2.062-.864,3.155-2.081.475-2.256-.6-.036-1.85-.159-3.138-.195-.387-.352-.774-.7-1.18-1.092,2.962-.371,5.941-1.129,9.043-1.358,3.172-.248,6.433.088,9.712-.071s6.5-.793,9.678-.845c3.3-.071,6.5.475,9.66.511C204.255,135.59,206.547,135.378,208.8,135.307Zm-9.907,4.267a1.176,1.176,0,1,0-1.445-1.093A1.307,1.307,0,0,0,198.9,139.574Zm-7.192,2.22c.3-2.714-4.389-4.213-10.208-2.4-5.817,1.833-9.36,3.755-2.132,5.482C183.191,145.778,191.4,144.51,191.705,141.794Zm-4.406,6.928-.09-.3s-3.137-2.785-2.8-.6c0,0-3.877-.969-2.45.794,0,0-1.6.229-1.728.934.036.669,2.01.952,2.01.952-.088,1.251,2.327.176,2.327.176C184.036,151.773,186.082,151.525,187.3,148.723Z" transform="translate(-69.526 -31.303)" fill="#ffe9ad"/>
          <path id="Pfad_2990" data-name="Pfad 2990" d="M192.3,153.281s2.008.759,1.85,1.5c-.336.7-2.1.582-2.1.582.988,2.22-2.821.281-2.821.281-.3,2.4-2.8-1.287-2.8-1.287v-.335c2.115-2.7,4.354-2.485,3.473-1.463C189.907,152.558,192.78,151.995,192.3,153.281Z" transform="translate(-62.369 -25.973)" fill="#63aa35"/>
          <path id="Pfad_2991" data-name="Pfad 2991" d="M192.15,137.822a1.284,1.284,0,0,1-1.339,1.217,1.176,1.176,0,1,1-.105-2.31A1.293,1.293,0,0,1,192.15,137.822Z" transform="translate(-61.44 -30.768)" fill="#fccf10"/>
          <path id="Pfad_2992" data-name="Pfad 2992" d="M194.674,159.261v.017l-4.23.178s.811,10.929-11.564,10.929c-8.55,0-11.758-5.218-12.939-8.444h.018c5.34-4.266,11.033-8.074,16.745-11.881C186.566,153.268,190.514,156.335,194.674,159.261Zm-14.6,6.294c1.85,3.1,12.481-1.709,6.945-2.079C185.3,163.369,178.227,162.452,180.078,165.555Zm1.375-9.872a1.354,1.354,0,0,0,1.446-1.234,1.393,1.393,0,0,0-1.57-1.092c-.827.053-1.48.6-1.445,1.233A1.366,1.366,0,0,0,181.453,155.683Zm-9.237,9.977a1.183,1.183,0,1,0-.105-2.326,1.183,1.183,0,1,0,.105,2.326Z" transform="translate(-68.864 -26.542)" fill="#ffe9ad"/>
          <path id="Pfad_2993" data-name="Pfad 2993" d="M178.738,138.54c5.818-1.816,10.507-.317,10.208,2.4s-8.514,3.984-12.34,3.086C169.379,142.294,172.921,140.373,178.738,138.54Z" transform="translate(-66.767 -30.445)" fill="#b2410f"/>
          <path id="Pfad_2994" data-name="Pfad 2994" d="M183.7,160.3c5.535.37-5.1,5.182-6.945,2.079S181.967,160.19,183.7,160.3Z" transform="translate(-65.536 -23.363)" fill="#fccf10"/>
          <path id="Pfad_2995" data-name="Pfad 2995" d="M183.268,145.547l.09.3c-1.217,2.8-3.262,3.05-2.733,1.957,0,0-2.415,1.075-2.327-.176,0,0-1.974-.283-2.01-.952.124-.7,1.728-.934,1.728-.934-1.428-1.763,2.449-.794,2.449-.794C180.131,142.761,183.268,145.547,183.268,145.547Z" transform="translate(-65.585 -28.427)" fill="#63aa35"/>
          <path id="Pfad_2996" data-name="Pfad 2996" d="M179.544,153.656a1.56,1.56,0,0,1-3.014.141c-.036-.633.618-1.18,1.445-1.233A1.393,1.393,0,0,1,179.544,153.656Z" transform="translate(-65.509 -25.748)" fill="#87a836"/>
          <path id="Pfad_2997" data-name="Pfad 2997" d="M195.311,150.029a.229.229,0,0,1,.07.053c-5.712,3.807-11.4,7.616-16.745,11.881h-.018a11.435,11.435,0,0,1-.635-2.485l-5.676.263a5.385,5.385,0,0,0-1.5-.828c-4.461-1.762-9.219-2.75-13.608-.088-.759.458-.952,1.057-.635,1.64l-30.6,1.41v-.141a.017.017,0,0,1-.017-.017l69.013-11.723Zm-20.166,7.879c3.313,1.886,5.958-3.173,2.5-2.555C176.572,155.545,171.831,156.022,175.145,157.908Z" transform="translate(-81.54 -26.563)" fill="#ffe9ad"/>
          <path id="Pfad_2998" data-name="Pfad 2998" d="M195.019,154.132l-.265.053-10.171-.952a5.8,5.8,0,0,0,2.062-2.291c2.556-5.094-7.792-4.688-9.783-4.054-.811.263-.547.44.158.687h.018c1.022.37,3,.917,3.914,2.151,0,0-6.876-.317-8.885-.107-1.974.212-.528,2.081-.528,2.081,2.7-.6,7.985.475,7.985.475a.858.858,0,0,1-.44.546l-52.5-4.917c.618-.353,1.288-.687,1.993-1,2.556-1.129,5.8-1.711,9.06-2.733,2.821-.881,5.623-2.222,8.9-3,2.962-.7,6.275-.845,9.554-1.463,3.049-.564,6.082-1.6,9.378-2.079,3.084-.458,6.4-.335,9.678-.687.177-.017.335-.036.511-.07.406.387.793.74,1.18,1.092-2.414-.053-5.006.265-3.789,2.274.952,1.6,4.248,1.11,6.452.177C184.672,145.088,189.749,149.725,195.019,154.132Zm-26.407-6.17c.935-.036,1.658-.6,1.622-1.251-.017-.653-.811-1.146-1.728-1.11-.934.053-1.657.616-1.621,1.269S167.7,148.014,168.612,147.962Zm-14-.387c2.4-.494,13.309-1.921,3.349-5.2C147.987,139.095,146.877,149.125,154.617,147.574Z" transform="translate(-81.337 -30.754)" fill="#ffe9ad"/>
          <path id="Pfad_2999" data-name="Pfad 2999" d="M197.122,151.529l-69.013,11.723c-.988-.529-1.869-1.093-2.7-1.622-.406-.265-.811-.511-1.181-.759-2.821-1.815-5.006-3.578-5.111-5.746-.107-2.151,1.9-4.125,4.53-6.188a40.384,40.384,0,0,1,5.3-3.789l52.5,4.917a7.844,7.844,0,0,1-2.821.635h-.018c-.969.07-1.762.07-1.762.07,1.375.635,6.734,1.94,10.1-.194Zm-42.66,2.485c1.711.124,8.78,1.076,6.946-2.044C159.575,148.867,148.91,153.609,154.463,154.014Zm-8.989.6c2.1-.228.616-2.889.616-2.889-2.838.74-8.356-.971-8.356-.971.124-1.075,1.975-1.428,3.456-1.533a18.046,18.046,0,0,1,1.833-.036c-1.762-1.181-10.013-4.036-12.8,3-2.767,7.052,8.074,6.876,10.189,6.065.847-.334.582-.582-.159-.952-1.075-.564-3.155-1.392-4.089-3.173A87.6,87.6,0,0,0,145.473,154.613Z" transform="translate(-83.705 -28.098)" fill="#ffe9ad"/>
          <path id="Pfad_3000" data-name="Pfad 3000" d="M166.167,144.54c1.991-.635,12.34-1.04,9.784,4.053a5.8,5.8,0,0,1-2.062,2.292l-3-.282c.6-.352-.389-.793-2.064-.776,0,0-5.287-1.075-7.985-.475,0,0-1.446-1.869.528-2.081,2.01-.211,8.885.107,8.885.107,3.1-.212,2.079-1.833-3.914-2.151h-.018C165.62,144.98,165.356,144.8,166.167,144.54Z" transform="translate(-70.641 -28.407)" fill="#c4a087"/>
          <path id="Pfad_3001" data-name="Pfad 3001" d="M172.395,161.232a1.288,1.288,0,0,1-1.341,1.234,1.183,1.183,0,1,1,1.341-1.234Z" transform="translate(-67.702 -23.347)" fill="#87a836"/>
          <path id="Pfad_3002" data-name="Pfad 3002" d="M170.061,149.056l3,.282c-3.367,2.133-8.726.828-10.1.194,0,0,.793,0,1.762-.07h.018C167.98,149.6,169.584,149.356,170.061,149.056Z" transform="translate(-69.81 -26.86)" fill="#c4a087"/>
          <path id="Pfad_3003" data-name="Pfad 3003" d="M166.89,148.467c1.675-.017,2.663.424,2.064.776l-2.5-.229A.858.858,0,0,0,166.89,148.467Z" transform="translate(-68.703 -27.047)" fill="#5e2f1c"/>
          <path id="Pfad_3004" data-name="Pfad 3004" d="M167.129,148.882l2.5.229c-.477.3-2.081.546-5.324.406A7.844,7.844,0,0,0,167.129,148.882Z" transform="translate(-69.382 -26.915)" fill="#5e2f1c"/>
          <path id="Pfad_3005" data-name="Pfad 3005" d="M164.9,144.974c5.993.317,7.015,1.939,3.914,2.151C167.893,145.891,165.919,145.344,164.9,144.974Z" transform="translate(-69.195 -28.154)" fill="#5e2f1c"/>
          <path id="Pfad_3006" data-name="Pfad 3006" d="M167.887,137.793c2.68.175,1.587,1.392-.475,2.256-.881-.794-1.763-1.622-2.663-2.451C166.037,137.634,167.288,137.757,167.887,137.793Z" transform="translate(-69.242 -30.491)" fill="#ff5601"/>
          <path id="Pfad_3007" data-name="Pfad 3007" d="M165.735,137.6c.9.828,1.782,1.657,2.663,2.451-2.2.934-5.5,1.428-6.452-.176C160.73,137.864,163.322,137.547,165.735,137.6Z" transform="translate(-70.228 -30.493)" fill="#ff5601"/>
          <path id="Pfad_3008" data-name="Pfad 3008" d="M166.086,154.076c3.454-.618.81,4.441-2.5,2.555S165.01,154.268,166.086,154.076Z" transform="translate(-69.979 -25.286)" fill="#fccf10"/>
          <path id="Pfad_3009" data-name="Pfad 3009" d="M175.974,137.435c-.177.034-.335.053-.511.07-3.279.353-6.594.229-9.678.687-3.3.477-6.329,1.516-9.378,2.079-3.279.618-6.593.759-9.554,1.463-3.279.776-6.082,2.116-8.9,3-3.261,1.022-6.5,1.6-9.061,2.733-.7.317-1.375.652-1.993,1a2.969,2.969,0,0,0-1.287-2.785c1.675-.635,3.474-1.234,5.465-1.94,3.138-1.127,6.275-2.838,9.924-3.824,3.279-.882,6.981-1.04,10.63-1.816,3.383-.7,6.751-2.045,10.417-2.626,3.456-.547,7.139-.353,10.788-.794a.226.226,0,0,0,.105-.017C173.964,135.6,174.969,136.517,175.974,137.435Z" transform="translate(-81.647 -31.42)" fill="#ed8f3a"/>
          <path id="Pfad_3010" data-name="Pfad 3010" d="M144.687,137.52c2.926-.652,6.134-.847,9.308-1.5,3.261-.67,6.5-1.921,10.03-2.485a76.745,76.745,0,0,1,7.669-.529c.81.723,1.621,1.463,2.414,2.186a.225.225,0,0,1-.105.017c-3.649.441-7.333.248-10.788.794-3.666.581-7.034,1.921-10.417,2.626-3.649.776-7.351.934-10.63,1.816-3.649.986-6.786,2.7-9.924,3.824-1.991.706-3.79,1.305-5.465,1.94-.9-.564-2.38-.828-4.846-.283.793-.44,1.655-.881,2.556-1.339,2.714-1.375,6.221-2.062,9.712-3.279,3.014-1.039,6.046-2.643,9.553-3.578A7.954,7.954,0,0,1,144.687,137.52Z" transform="translate(-82.813 -31.946)" fill="#ffc454"/>
          <path id="Pfad_3011" data-name="Pfad 3011" d="M164.973,158.01l-15.741.723c-.317-.582-.124-1.181.635-1.64,4.389-2.662,9.147-1.674,13.608.088A5.386,5.386,0,0,1,164.973,158.01Z" transform="translate(-74.207 -24.832)" fill="#c4a087"/>
          <path id="Pfad_3012" data-name="Pfad 3012" d="M160.536,144.585c.036.652-.687,1.216-1.623,1.251-.915.053-1.692-.44-1.727-1.092s.687-1.217,1.621-1.269C159.725,143.44,160.519,143.932,160.536,144.585Z" transform="translate(-71.639 -28.629)" fill="#87a836"/>
          <path id="Pfad_3013" data-name="Pfad 3013" d="M153.283,150.58c1.835,3.12-5.235,2.168-6.945,2.044C140.785,152.22,151.45,147.477,153.283,150.58Z" transform="translate(-75.58 -26.709)" fill="#b2410f"/>
          <path id="Pfad_3014" data-name="Pfad 3014" d="M152.441,141.185c9.96,3.279-.952,4.707-3.349,5.2C141.353,147.935,142.463,137.905,152.441,141.185Z" transform="translate(-75.813 -29.565)" fill="#ff5601"/>
          <path id="Pfad_3015" data-name="Pfad 3015" d="M143.524,151.133s1.482,2.662-.616,2.889a87.6,87.6,0,0,1-9.308-.492c-3.261.176-2.222,2.485,4.089,3.172.741.37,1.006.618.159.952-2.115.811-12.956.988-10.189-6.064,2.785-7.033,11.036-4.177,12.8-3a18.044,18.044,0,0,0-1.833.036c-7.439-.706-6.716,1.445-3.456,1.533C135.168,150.162,140.686,151.873,143.524,151.133Z" transform="translate(-81.139 -27.508)" fill="#c4a087"/>
          <path id="Pfad_3016" data-name="Pfad 3016" d="M151.4,127.037l2.7,12.375a7.955,7.955,0,0,0-.935.211c-3.507.935-6.539,2.539-9.553,3.578-3.491,1.217-7,1.9-9.712,3.279-.9.458-1.763.9-2.556,1.339h-.018c-12.55,6.893-12.727,11.759-12.851,15.989a6.286,6.286,0,0,0,1.463,3.561l-3.367,2.7L92.227,171.2Z" transform="translate(-92.227 -33.839)" fill="#7a4a1f"/>
          <path id="Pfad_3017" data-name="Pfad 3017" d="M133.819,149.807c-3.261-.088-3.984-2.239,3.456-1.533C135.794,148.38,133.943,148.732,133.819,149.807Z" transform="translate(-79.79 -27.153)" fill="#5e2f1c"/>
          <path id="Pfad_3018" data-name="Pfad 3018" d="M132.5,151.961c.934,1.78,3.014,2.609,4.089,3.172C130.275,154.446,129.236,152.137,132.5,151.961Z" transform="translate(-80.036 -25.939)" fill="#5e2f1c"/>
          <path id="Pfad_3019" data-name="Pfad 3019" d="M128.928,143.033a2.969,2.969,0,0,1,1.287,2.785,40.373,40.373,0,0,0-5.3,3.789c-2.627,2.064-4.637,4.038-4.53,6.188.105,2.168,2.29,3.931,5.111,5.746.37.248.776.494,1.181.759a5.921,5.921,0,0,0-5.993.265c-.387-.282-.776-.565-1.146-.847-3.05-2.2-4.266-3.843-4.389-6.469a8.511,8.511,0,0,1,1.869-4.266,23.157,23.157,0,0,1,7.967-6.241C126.249,144.108,127.553,143.562,128.928,143.033Z" transform="translate(-84.965 -28.769)" fill="#ed8f3a"/>
          <path id="Pfad_3020" data-name="Pfad 3020" d="M128.054,159.467v.141l-6.17.282q-1.373-.9-2.538-1.8a5.921,5.921,0,0,1,5.993-.265c.828.529,1.709,1.093,2.7,1.622A.017.017,0,0,0,128.054,159.467Z" transform="translate(-83.632 -24.296)" fill="#ed8f3a"/>
          <path id="Pfad_3021" data-name="Pfad 3021" d="M121.624,162.7q1.163.9,2.538,1.8l-8.144.37a16.358,16.358,0,0,1-2.4-2.432,6.285,6.285,0,0,1-1.463-3.561c.124-4.23.3-9.1,12.851-15.989h.018c2.467-.545,3.948-.28,4.846.283-1.375.529-2.679,1.075-3.948,1.709a23.158,23.158,0,0,0-7.967,6.241,8.511,8.511,0,0,0-1.869,4.265c.124,2.626,1.339,4.266,4.389,6.469C120.848,162.14,121.237,162.423,121.624,162.7Z" transform="translate(-85.91 -28.909)" fill="#ffc454"/>
          <path id="Pfad_3022" data-name="Pfad 3022" d="M116.476,160.1l-5.764.265,3.367-2.7A16.358,16.358,0,0,0,116.476,160.1Z" transform="translate(-86.368 -24.132)" fill="#66361b"/>
        </g>
      </g>
    </g>
  </g>
  <g id="Gruppe_721" data-name="Gruppe 721" transform="translate(34.104 45.084)">
    <path id="Pfad_3023" data-name="Pfad 3023" d="M142.547,138.974c-8.377-23.923-24.482-47.515-24.644-47.75l1.453-1c.163.237,16.4,24.021,24.853,48.166Z" transform="translate(-117.903 -90.226)" fill="#b58352"/>
  </g>
  <g id="Gruppe_722" data-name="Gruppe 722" transform="translate(166.923 14.827)">
    <rect id="Rechteck_18" data-name="Rechteck 18" width="75.645" height="1.761" transform="matrix(0.251, -0.968, 0.968, 0.251, 0, 73.226)" fill="#b58352"/>
  </g>
  <g id="Gruppe_723" data-name="Gruppe 723" transform="translate(58.718 93.352)">
    <rect id="Rechteck_19" data-name="Rechteck 19" width="1.762" height="13.274" transform="translate(0 0.377) rotate(-12.34)" fill="#66361b"/>
  </g>
  <g id="Gruppe_724" data-name="Gruppe 724" transform="translate(166.887 88.272)">
    <rect id="Rechteck_20" data-name="Rechteck 20" width="1.763" height="13.372" fill="#66361b"/>
  </g>
  <g id="Gruppe_725" data-name="Gruppe 725" transform="translate(35.62 103.746)" style="mix-blend-mode: multiply;isolation: isolate">
    <path id="Pfad_3024" data-name="Pfad 3024" d="M265.978,161.078a32.342,32.342,0,0,0,4.72-3.8,20.786,20.786,0,0,0,4.029-4.222c2.155-3.163-2.145-5.282-5.515-7.225a28.868,28.868,0,0,0-5.16-2.539c-.427-.146-.91-.31-1.3-.4-.512-.142-.98-.248-1.395-.32-.891-.175-1.888-.32-2.879-.452-1.981-.269-4.11-.514-6.182-.979-2.116-.462-4.009-.96-5.885-1.263a25.291,25.291,0,0,0-2.816-.313c-.868-.036-1.85-.057-2.851-.05-1.983-.011-4.142-.018-6.308-.223-2.211-.211-4.2-.564-6.117-.768-.942-.1-1.914-.176-2.756-.188-1.089-.024-1.816.024-2.854.076-1.95.122-4.046.275-6.253.275l-1.6-.036-1.647-.1-3.045-.224a32.751,32.751,0,0,0-5.607.026c-1.893.174-3.927.486-6.088.669l-1.679.09-1.58.025c-1.141.005-2.132-.03-3.163-.055a40.7,40.7,0,0,0-5.739.138c-1.727.194-3.761.586-5.829.922a44.61,44.61,0,0,1-6.444.564c-2.04.054-4.05.087-5.745.31-1.085.158-1.836.284-2.825.506l-2.93.673c-1.01.236-2.049.473-3.141.664l-1.566.25-1.616.19c-2.077.209-4.081.328-5.9.64a35.945,35.945,0,0,0-5.544,1.495,59.69,59.69,0,0,1-6.025,1.791c-2.044.494-4,.885-5.8,1.449a21.151,21.151,0,0,0-5.057,2.447c-1.583,1.021-3.379,2.284-4.869,3.421-1.474,1.192-2.887,2.554-2.759,4.051a4.024,4.024,0,0,0,1.065,2.186,15.293,15.293,0,0,0,2.131,1.981c1.574,1.23,3.213,2.506,4.9,3.61l-.169.311c-1.8-1-3.486-2.119-5.193-3.253a15.977,15.977,0,0,1-2.382-1.965,5.137,5.137,0,0,1-1.507-2.743,4.287,4.287,0,0,1,.827-3.008A12.567,12.567,0,0,1,122,153.424c1.561-1.347,3.147-2.592,4.8-3.811a22.283,22.283,0,0,1,5.426-2.9c1.94-.687,3.93-1.155,5.884-1.7,3.932-.982,7.58-2.929,11.639-3.747,4.04-.785,8.112-.919,12.021-2.053,1.962-.5,3.964-1.032,5.982-1.346a59.11,59.11,0,0,1,6.125-.465,46.493,46.493,0,0,0,6.037-.593c2-.336,4-.749,6.05-1,4.1-.5,8.193.067,12.211-.294l6.075-.627a36.386,36.386,0,0,1,6.155.018c2.044.15,4.047.378,6.074.394s4.046-.129,6.091-.208a33.31,33.31,0,0,1,6.145.25c2.031.262,4.034.653,6.039.877,4,.485,8.155.078,12.19.965,2.014.406,3.972,1,5.933,1.5,1.963.512,3.969.813,5.979,1.159a28.516,28.516,0,0,1,5.96,1.5,29.766,29.766,0,0,1,5.4,2.922,26.642,26.642,0,0,1,4.923,3.682,4.966,4.966,0,0,1,1.443,2.776,4.392,4.392,0,0,1-.9,2.993,21.807,21.807,0,0,1-4.483,4.2,33.166,33.166,0,0,1-5.057,3.464Z" transform="translate(-119.054 -134.77)" fill="#ebc191"/>
  </g>
  <path id="Pfad_3025" data-name="Pfad 3025" d="M266.084,161.445a32.5,32.5,0,0,0,5.011-3.454,21.434,21.434,0,0,0,4.414-4.148,4.1,4.1,0,0,0,.84-2.792,4.652,4.652,0,0,0-1.371-2.6,26.413,26.413,0,0,0-4.869-3.618,29.525,29.525,0,0,0-5.352-2.876,28.153,28.153,0,0,0-5.893-1.468c-2.006-.34-4.029-.636-6.006-1.147s-3.93-1.083-5.922-1.478c-3.984-.868-8.091-.452-12.157-.927-4.056-.5-8.043-1.409-12.122-1.093-2.031.084-4.067.241-6.112.225s-4.082-.234-6.107-.379a35.575,35.575,0,0,0-6.075,0c-2.022.178-4.039.473-6.076.64-4.086.352-8.173-.224-12.205.261-2.007.238-4.006.644-6.018.977a47.12,47.12,0,0,1-6.1.583,58.513,58.513,0,0,0-6.071.444c-2.014.306-3.971.822-5.95,1.321-3.942,1.131-8.07,1.263-12.047,2.024-3.988.79-7.649,2.725-11.621,3.71-1.965.543-3.951,1-5.864,1.679a21.912,21.912,0,0,0-5.353,2.839c-1.632,1.2-3.25,2.456-4.784,3.774a12.237,12.237,0,0,0-2.036,2.231,3.981,3.981,0,0,0-.788,2.805,4.876,4.876,0,0,0,1.421,2.577,15.475,15.475,0,0,0,2.335,1.932c1.684,1.127,3.386,2.266,5.157,3.253l-.084.154c-1.823-.944-3.54-2.018-5.282-3.108a15.8,15.8,0,0,1-2.456-1.916,5.308,5.308,0,0,1-1.638-2.831,4.585,4.585,0,0,1,.8-3.224,12.947,12.947,0,0,1,2.081-2.423c1.566-1.426,3.076-2.681,4.742-3.981a22.375,22.375,0,0,1,5.536-3.065c1.983-.737,3.985-1.237,5.905-1.805,3.838-1.014,7.434-3.016,11.655-3.94,4.2-.877,8.119-1.05,11.951-2.162,1.92-.5,4.034-1.065,6.066-1.387a59.1,59.1,0,0,1,6.257-.5,45.451,45.451,0,0,0,5.9-.6c1.978-.339,3.956-.76,6.124-1.03a45.561,45.561,0,0,1,6.278-.225c1.013.011,2.044.034,3,.018l1.5-.041,1.447-.094,6.071-.606a37.488,37.488,0,0,1,6.345.04c2.094.163,4.006.39,6,.413,1.954.028,3.959-.111,6.033-.184,1.007-.032,2.166-.054,3.151-.007,1.1.043,2.137.153,3.18.29,2.07.275,4.081.674,6.014.9,1.956.236,3.936.27,6,.357,1.026.046,2.061.116,3.15.225a29.008,29.008,0,0,1,3.121.517c2.058.445,4.042,1.081,5.945,1.594,1.924.536,3.888.857,5.907,1.238a25.33,25.33,0,0,1,11.559,4.7,27.391,27.391,0,0,1,4.9,3.893,5.351,5.351,0,0,1,1.474,3.033,4.666,4.666,0,0,1-1.028,3.175,21.776,21.776,0,0,1-4.642,4.122,32.979,32.979,0,0,1-5.152,3.32Z" transform="translate(-83.499 -31.313)" fill="#d17824"/>
  <g id="Gruppe_726" data-name="Gruppe 726" transform="translate(97.462 98.88)" style="mix-blend-mode: multiply;isolation: isolate">
    <path id="Pfad_3026" data-name="Pfad 3026" d="M166.013,167.9a82.078,82.078,0,0,1,12.026-9.316c2.152-1.342,4.368-2.58,6.5-3.947s4.186-2.846,6.2-4.379c3.993-3.107,8.087-6.087,11.934-9.307.975-.788,1.913-1.617,2.855-2.443a12.924,12.924,0,0,0,2.507-2.617,35.97,35.97,0,0,1,1.857-3.344,4.834,4.834,0,0,1,3.586-1.47l.018.13a4.8,4.8,0,0,0-3.074,1.749c-.647.955-.827,2.265-1.492,3.452a7.558,7.558,0,0,1-1.2,1.645l-1.333,1.382c-.9.91-1.862,1.755-2.824,2.6a114.382,114.382,0,0,1-12.427,8.822c-2.149,1.35-4.291,2.7-6.375,4.14s-4.08,3.007-6.121,4.5c-4.136,2.913-8.328,5.7-12.561,8.506Z" transform="translate(-166.013 -131.075)" fill="#e3a87a"/>
  </g>
  <g id="Gruppe_727" data-name="Gruppe 727" transform="translate(39.493 113.878)" style="mix-blend-mode: multiply;isolation: isolate">
    <path id="Pfad_3027" data-name="Pfad 3027" d="M265.121,158.855c-11.453-.629-22.877-1.59-34.285-2.71-5.7-.572-11.392-1.3-17.09-1.907s-11.409-1.126-17.124-1.564c-11.432-.86-22.861-1.758-34.276-2.8-11.411-1.083-22.819-2.223-34.2-3.585l-.316-.037.033-.317a2.951,2.951,0,0,0-.365-1.787,2.67,2.67,0,0,0-1.472-1.132,8.234,8.234,0,0,0-4-.038l-.029-.13a8.5,8.5,0,0,1,4.142-.2,3.122,3.122,0,0,1,1.791,1.225,3.378,3.378,0,0,1,.556,2.147l-.284-.354c11.443.774,22.862,1.769,34.276,2.822,11.411,1.094,22.808,2.332,34.2,3.607q8.546.944,17.115,1.64c5.714.456,11.439.8,17.149,1.3,11.418,1.014,22.82,2.189,34.192,3.7Z" transform="translate(-121.995 -142.464)" fill="#e3a87a"/>
  </g>
  <g id="Gruppe_728" data-name="Gruppe 728" transform="translate(184.88 127.795)" style="mix-blend-mode: multiply;isolation: isolate">
    <path id="Pfad_3028" data-name="Pfad 3028" d="M232.393,154.07a3.15,3.15,0,0,1,3.274-.9A3.407,3.407,0,0,1,238,155.64a6.653,6.653,0,0,0-2.593-1.626A5.372,5.372,0,0,0,232.393,154.07Z" transform="translate(-232.393 -153.031)" fill="#e3a87a"/>
  </g>
  <g id="Gruppe_729" data-name="Gruppe 729" transform="translate(44.809 107.325)" style="mix-blend-mode: multiply;isolation: isolate">
    <path id="Pfad_3029" data-name="Pfad 3029" d="M126.032,165.6c11.53-2.406,23.114-4.484,34.726-6.4,5.808-.948,11.642-1.745,17.456-2.655s11.613-1.915,17.4-3c11.568-2.176,23.143-4.318,34.741-6.313,11.606-1.957,23.222-3.856,34.874-5.534l-.249.379a5.661,5.661,0,0,1,0-2.168,2.978,2.978,0,0,1,1.125-1.861,3.455,3.455,0,0,1,2.054-.565,8.477,8.477,0,0,1,2.058.32l-.029.129c-1.3-.261-2.824-.39-3.851.421-1.007.828-1.023,2.36-.753,3.577l.072.317-.324.063c-11.552,2.264-23.143,4.31-34.743,6.3-11.608,1.948-23.24,3.751-34.877,5.517q-8.727,1.335-17.411,2.918c-5.789,1.061-11.559,2.236-17.353,3.259-11.594,2.025-23.216,3.892-34.892,5.427Z" transform="translate(-126.032 -137.488)" fill="#e3a87a"/>
  </g>
  <g id="Gruppe_730" data-name="Gruppe 730" transform="translate(34.789 132.779)" style="mix-blend-mode: multiply;isolation: isolate">
    <path id="Pfad_3030" data-name="Pfad 3030" d="M125.75,157.909a9.279,9.279,0,0,0-4.108-.117,5.219,5.219,0,0,0-1.808.751,5.111,5.111,0,0,0-1.412,1.509,3.263,3.263,0,0,1,.976-2.029,4.141,4.141,0,0,1,2.052-1.09A5.137,5.137,0,0,1,125.75,157.909Z" transform="translate(-118.423 -156.816)" fill="#e3a87a"/>
  </g>
  <g id="Gruppe_731" data-name="Gruppe 731" transform="translate(89.245 101.352)" style="mix-blend-mode: multiply;isolation: isolate">
    <path id="Pfad_3031" data-name="Pfad 3031" d="M196.71,164.724a59.59,59.59,0,0,1-10.011-6.973c-1.516-1.359-2.953-2.809-4.463-4.164s-3.09-2.634-4.682-3.9a147.838,147.838,0,0,1-17.78-16.636l.088-.1a160.237,160.237,0,0,1,18.174,16.194c1.437,1.431,2.916,2.822,4.478,4.114s3.253,2.431,4.881,3.637c3.2,2.482,6.319,5.024,9.392,7.72Z" transform="translate(-159.774 -132.952)" fill="#e3a87a"/>
  </g>
  <path id="Pfad_3032" data-name="Pfad 3032" d="M151.617,127.2a143.883,143.883,0,0,1-13.392,12.917c-2.3,2.064-4.732,3.946-7.1,5.921l-7.3,5.647c-2.5,1.795-4.971,3.627-7.495,5.388-2.563,1.711-5.064,3.5-7.695,5.122a145.847,145.847,0,0,1-16.184,9.175l-.212-.282,29.477-22.226L151.4,126.914Z" transform="translate(-91.933 -33.514)" fill="#66361b"/>
  <g id="Gruppe_732" data-name="Gruppe 732" transform="translate(59.558 87.816)">
    <rect id="Rechteck_21" data-name="Rechteck 21" width="108.319" height="0.881" transform="translate(0 5.3) rotate(-2.805)" fill="#9c6e49"/>
  </g>
  <path id="Pfad_3033" data-name="Pfad 3033" d="M280.919,163.725a143.3,143.3,0,0,1-16.683-8.177c-2.722-1.455-5.316-3.1-7.974-4.647l-7.786-4.935c-2.534-1.737-5.1-3.433-7.607-5.2-2.479-1.823-5.01-3.564-7.425-5.482A145.344,145.344,0,0,1,219.327,123.2l.194-.294,30.893,20.114,30.7,20.409Z" transform="translate(-51.654 -34.783)" fill="#66361b"/>
  <g id="Gruppe_733" data-name="Gruppe 733" transform="translate(0 93.038)">
    <rect id="Rechteck_22" data-name="Rechteck 22" width="73.832" height="1.321" transform="translate(0 44.114) rotate(-36.691)" fill="#efb67d"/>
  </g>
  <g id="Gruppe_734" data-name="Gruppe 734" transform="translate(167.406 87.72)">
    <rect id="Rechteck_23" data-name="Rechteck 23" width="1.323" height="73.725" transform="matrix(0.55, -0.835, 0.835, 0.55, 0, 1.105)" fill="#efb67d"/>
  </g>
  <path id="Pfad_3034" data-name="Pfad 3034" d="M92.639,162.646c1.142,3.378,2.363,6.735,3.439,10.127l3.266,10.172L97.6,181.633c4.6-.411,9.2-.877,13.8-1.243l13.811-.946,27.625-1.869,27.64-1.36,27.651-1.037,27.661-.69c9.221-.194,18.448-.246,27.672-.377,9.225-.028,18.457.086,27.686.122l13.844.08c4.615.017,9.233.24,13.85.349l-1.76,1.63,1.9-11.272c.6-3.761,1.393-7.5,2.081-11.253l.527.057-2.386,22.7-.029.267-.267.011-110.619,3.662L97.662,183.685l-.248.007-.059-.238-5.228-20.676Z" transform="translate(-91.969 -25.003)" fill="#e0a163"/>
  <g id="Gruppe_735" data-name="Gruppe 735" transform="translate(24.692 13.135)" style="mix-blend-mode: multiply;isolation: isolate">
    <path id="Pfad_3035" data-name="Pfad 3035" d="M282.233,66.312c-6.078,1.7-12.205,3.125-18.313,4.662-6.1,1.57-12.266,2.8-18.4,4.216-6.143,1.339-12.261,2.821-18.429,4.031-6.162,1.246-12.308,2.571-18.487,3.72l-2.282.427-1.127-2.28a6.824,6.824,0,0,0-1.305-1.719,6.259,6.259,0,0,0-1.907-1.268,8.368,8.368,0,0,0-4.887-.348,7.626,7.626,0,0,0-4.235,2.072,5.57,5.57,0,0,0-1.151,1.871,6.514,6.514,0,0,0-.316,1.123,6.872,6.872,0,0,0-.112.985l-.041,2.68-2.4.512c-6.452,1.375-12.924,2.652-19.4,3.9-6.466,1.313-12.972,2.431-19.472,3.583-6.507,1.117-12.981,2.385-19.516,3.377s-13.047,2.081-19.62,2.895l-.074-.344,77.366-16.765-.261.34a9.606,9.606,0,0,1,2.432-6.508,10.787,10.787,0,0,1,6.17-3.179,11.825,11.825,0,0,1,6.914.637,9.992,9.992,0,0,1,4.966,4.857l-.357-.194,74.182-13.633Z" transform="translate(-110.756 -65.966)" fill="#dbc270"/>
  </g>
  <g id="Gruppe_736" data-name="Gruppe 736" transform="translate(24.544 12.442)">
    <path id="Pfad_3036" data-name="Pfad 3036" d="M111.013,101.611l-.369-1.724,76.726-16.47c.163-2.126,1.318-8.04,9-9.47,7.649-1.422,11.165,3.358,12.194,5.149l73.51-13.657.321,1.732-74.85,13.907-.277-.658c-.108-.254-2.7-6.207-10.576-4.738-7.861,1.463-7.6,8.124-7.586,8.407l.04.749Z" transform="translate(-110.644 -65.44)" fill="#efb67d"/>
  </g>
  <path id="Pfad_3037" data-name="Pfad 3037" d="M110.591,103.67l4.414-15.41.051-.18.183-.037L193.6,71.822l78.454-15.793.188-.037.116.151,10.1,12.994-.418.325c-1.916-1.983-3.892-3.921-5.764-5.939s-3.8-3.992-5.635-6.037l1.852.682c-12.847,3.759-25.794,7.015-38.761,10.18-6.5,1.489-12.99,3.046-19.5,4.482L194.663,77l-19.637,3.831c-6.554,1.234-13.135,2.342-19.7,3.52-13.171,2.164-26.36,4.241-39.653,5.8l1.407-1.3c-.921,2.514-1.945,5-2.916,7.5s-2.048,4.97-3.065,7.457Z" transform="translate(-86.117 -55.992)" fill="#e0a163"/>
  <g id="Gruppe_737" data-name="Gruppe 737" transform="translate(25.39 93)" style="mix-blend-mode: multiply;isolation: isolate">
    <path id="Pfad_3038" data-name="Pfad 3038" d="M283.069,163.392a26.03,26.03,0,0,0,3.3-3.5,6.787,6.787,0,0,0,1.586-4.267v.025a12.961,12.961,0,0,0-1.7-5.651,15.343,15.343,0,0,0-4.147-4.23,49.429,49.429,0,0,0-10.757-5.493c-3.716-1.428-7.883-1.611-11.818-2.816-1.979-.568-3.893-1.227-5.849-1.7a29.276,29.276,0,0,0-5.943-.83c-2.017-.1-4.063-.118-6.116-.3s-4.085-.577-6.072-.926a36.782,36.782,0,0,0-5.987-.662c-1.975-.018-4.015.144-6.054.236-4.123.325-8.244-.471-12.218-.607-4-.14-7.952.878-12.116,1-4.129.126-8.18-.341-12.159.134-3.922.5-7.961,1.691-12.092,1.758-2.044.1-4.072.132-6.063.336a36.734,36.734,0,0,0-5.887,1.218c-1.952.536-3.922,1.131-5.958,1.5-2.015.377-4.063.594-6.057.881a29.256,29.256,0,0,0-5.846,1.383c-1.9.652-3.748,1.492-5.654,2.241-3.809,1.58-7.939,2.151-11.506,3.923a49.454,49.454,0,0,0-10.189,6.485,15.4,15.4,0,0,0-3.728,4.608,12.943,12.943,0,0,0-1.155,5.791v-.024a5.94,5.94,0,0,0,1.251,3.2,15.932,15.932,0,0,0,2.49,2.586l-.4.471a16.328,16.328,0,0,1-2.95-2.43,6.975,6.975,0,0,1-1.892-3.753l.022.169-.024-.257a14.367,14.367,0,0,1,.752-6.68,17.134,17.134,0,0,1,3.861-5.671,48.614,48.614,0,0,1,10.318-7.715,37.256,37.256,0,0,1,6.18-2.668c1.957-.69,3.677-1.363,5.345-2.124,1.737-.787,3.578-1.738,5.739-2.59a34.632,34.632,0,0,1,6.649-1.887l3.046-.56c1.051-.205,1.69-.317,2.771-.553,1.671-.361,3.428-.948,5.471-1.578,1.027-.315,2.023-.615,3.286-.914.655-.167,1.06-.236,1.584-.352.737-.144,1.235-.205,1.865-.305,2.339-.3,4.46-.389,6.365-.548l2.7-.269c.839-.12,1.7-.262,2.651-.456l2.987-.606,1.624-.3,1.823-.277c4.744-.583,9.071-.129,12.55-.309,1.728-.1,3.5-.269,5.609-.525l1.607-.173c.525-.055,1.129-.105,1.779-.145.685-.054,1.117-.051,1.642-.068.772-.021,1.254.009,1.9.016,2.368.1,4.5.387,6.4.576l1.3.12,1.379.08c.861.017,1.748.017,2.709-.017l3.03-.091c1.04-.024,2.193-.028,3.489.014l1.7.121c.593.069,1.206.123,1.767.217,1.156.165,2.245.381,3.278.594l2.939.614c.441.078.777.166,1.308.244l.755.117c.074.021.4.051.59.078,1.775.233,3.732.286,5.895.508l1.7.188c.628.08,1.26.166,1.715.259a31.406,31.406,0,0,1,3.432.816c2.176.635,4.184,1.433,5.892,2.023.39.146.919.3,1.395.453.341.111.86.254,1.295.373l2.876.745a37.611,37.611,0,0,1,6.428,2.085,48.58,48.58,0,0,1,11.065,6.693,18.312,18.312,0,0,1,4.466,5.322,14.427,14.427,0,0,1,1.422,6.672v.32l.008-.216a7.775,7.775,0,0,1-2.356,5.078,26.229,26.229,0,0,1-3.851,3.225Z" transform="translate(-111.286 -126.61)" fill="#c6b1b1"/>
  </g>
  <path id="Pfad_3039" data-name="Pfad 3039" d="M282.939,162.28a26.439,26.439,0,0,0,3.228-3.6,6.806,6.806,0,0,0,1.479-4.326l0,.026a12.812,12.812,0,0,0-1.827-5.565,15.224,15.224,0,0,0-4.192-4.06,53.347,53.347,0,0,0-10.762-5.249c-3.6-1.337-7.791-1.48-11.81-2.65-2.023-.553-3.926-1.184-5.847-1.621a28.5,28.5,0,0,0-5.8-.731c-1.994-.062-4.051-.1-6.149-.274s-4.189-.583-6.149-.923a35.956,35.956,0,0,0-5.864-.636c-1.878-.012-3.932.152-5.983.25a41.535,41.535,0,0,1-6.292-.116c-2.06-.178-4.052-.412-5.993-.464-.47,0-.988-.016-1.421,0-.5.025-1.035.034-1.491.084-.927.066-1.944.195-2.934.32a61.044,61.044,0,0,1-6.2.616c-4.231.117-8.24-.354-12.1.1-3.744.461-7.942,1.675-12.142,1.734-2.066.1-4.08.125-6.016.32-.468.062-.977.112-1.41.188-.494.092-1.023.169-1.472.278-.921.194-1.9.446-2.864.711-1.935.525-3.938,1.129-6.033,1.5-2.041.388-4.134.564-6.1.827a28.567,28.567,0,0,0-5.725,1.275c-1.857.611-3.715,1.425-5.651,2.158-3.9,1.558-8.052,2.089-11.519,3.761a52.787,52.787,0,0,0-10.246,6.232,15.231,15.231,0,0,0-3.8,4.459,12.826,12.826,0,0,0-1.293,5.742v-.021a6.01,6.01,0,0,0,1.187,3.271,15.925,15.925,0,0,0,2.452,2.679l-.113.134a16.16,16.16,0,0,1-2.565-2.647,6.343,6.343,0,0,1-1.343-3.42v-.007a13.33,13.33,0,0,1,1.177-5.975,15.834,15.834,0,0,1,3.817-4.762,49.929,49.929,0,0,1,10.267-6.594c3.686-1.839,7.792-2.409,11.534-3.985,1.887-.749,3.739-1.6,5.669-2.272a30.028,30.028,0,0,1,5.947-1.432c2.018-.3,4.035-.518,6.03-.9,1.994-.366,3.938-.961,5.9-1.509a37.45,37.45,0,0,1,5.988-1.26c2.035-.216,4.072-.253,6.1-.362,4.077-.079,7.99-1.266,12.053-1.8,4.072-.5,8.161-.041,12.207-.183,4.043-.124,8.061-1.121,12.169-.972,4.088.158,8.1.961,12.166.653,2.029-.082,4.057-.238,6.109-.213a37.483,37.483,0,0,1,6.076.7c2.007.359,3.994.765,6.016.942s4.054.217,6.088.324a29.869,29.869,0,0,1,6.056.869c1.982.49,3.909,1.16,5.855,1.727,3.878,1.209,8.018,1.392,11.86,2.878a49.973,49.973,0,0,1,10.846,5.593,15.888,15.888,0,0,1,4.251,4.379,13.343,13.343,0,0,1,1.742,5.835l.005.005h0a7.184,7.184,0,0,1-1.686,4.537,26.453,26.453,0,0,1-3.358,3.541Z" transform="translate(-85.615 -32.337)" fill="#ffc454"/>
  <g id="Gruppe_738" data-name="Gruppe 738" transform="translate(0.407 128.419)" style="mix-blend-mode: multiply;isolation: isolate">
    <path id="Pfad_3040" data-name="Pfad 3040" d="M92.316,162.619c8.011-.909,16.035-1.565,24.054-2.312,8.019-.8,16.051-1.262,24.075-1.89,8.029-.568,16.052-1.235,24.084-1.721l24.1-1.417,2.735-.161.449,2.882a10.052,10.052,0,0,0,.423,1.593,11.013,11.013,0,0,0,.739,1.657,9.327,9.327,0,0,0,2.194,2.681,10.639,10.639,0,0,0,6.732,2.185c2.658.073,5.087-.5,6.575-1.8a6.179,6.179,0,0,0,1.738-2.526,8.647,8.647,0,0,0,.446-1.644,9,9,0,0,0,.129-1.583l-.126-3.215,3.1-.123q13.423-.525,26.855-.872l13.43-.346,13.439-.192c8.96-.1,17.914-.329,26.877-.313,8.967.057,17.926-.028,26.9.2l.016.353L213.905,158.67l.317-.356a10.961,10.961,0,0,1-3.456,8.65c-2.475,2.155-5.854,2.748-8.96,2.644a14.062,14.062,0,0,1-8.843-3.04,13.492,13.492,0,0,1-4.512-8.2l.331.282-96.45,4.317Z" transform="translate(-92.316 -153.505)" fill="#ad8f8f"/>
  </g>
  <g id="Gruppe_739" data-name="Gruppe 739" transform="translate(0.374 127.914)">
    <path id="Pfad_3041" data-name="Pfad 3041" d="M202.346,170.282c-10.95,0-13.695-8.244-14.3-10.907L92.371,163.8l-.08-1.762,97.265-4.495.095.819c.047.415,1.3,10.159,12.7,10.159,3.645,0,6.419-1,8.241-2.958a10.317,10.317,0,0,0,2.432-7.038l-.067-.907,108.288-4.495.071,1.761-106.529,4.422a11.763,11.763,0,0,1-2.905,7.458C209.711,169.1,206.5,170.282,202.346,170.282Z" transform="translate(-92.291 -153.122)" fill="#efb67d"/>
  </g>
</svg>
