<svg enable-background="new 0 0 512 512" viewBox="0 0 512 512" xmlns="http://www.w3.org/2000/svg"><path d="m395.252 250.176v106.777c0 10.722-8.659 19.414-19.341 19.414-3.527 0-6.823-.963-9.67-2.618v41.447c0 10.722-8.659 19.414-19.341 19.414s-19.341-8.692-19.341-19.414v-106.778c0-10.722 8.659-19.414 19.341-19.414 3.527 0 6.823.963 9.67 2.618v-41.447c0-10.722 8.659-19.414 19.341-19.414s19.341 8.693 19.341 19.415z" fill="#ffc850"/><path d="m114.812 211.348c10.682 0 19.341 8.692 19.341 19.414v41.447c2.847-1.655 6.143-2.618 9.67-2.618 10.682 0 19.341 8.692 19.341 19.414v106.777c0 10.722-8.659 19.414-19.341 19.414s-19.341-8.692-19.341-19.414v-41.447c-2.847 1.655-6.143 2.618-9.67 2.618-10.682 0-19.341-8.692-19.341-19.414v-106.777c0-10.722 8.66-19.414 19.341-19.414z" fill="#fa9e39"/><path d="m444.845 85.629c5.145 5.17 10.035 10.499 14.673 15.973 10.623 12.538 12.197 30.509 4.091 44.837l-199.778 353.119c-3.728 6.589-13.135 6.589-16.863 0l-198.588-351.017c-8.043-14.216-6.531-32.006 3.865-44.569 6.602-7.979 13.734-15.662 21.403-22.998 104.287-99.764 269.363-97.662 371.197 4.655z" fill="#ffc850"/><path d="m277.023 476.241-180.18-318.479c-13.273-23.461-10.778-52.821 6.378-73.555 10.896-13.168 22.666-25.848 35.322-37.955 7.894-7.552 16.001-14.746 24.297-21.591 94.869-35.905 206.034-15.363 282.005 60.968 5.145 5.17 10.035 10.499 14.673 15.973 10.622 12.538 12.197 30.509 4.091 44.837z" fill="#ffdc64"/><path d="m470.686 151.175-2.783 4.92c-3.515 6.213-12.173 6.843-16.568 1.222-1.153-1.474-2.319-2.938-3.5-4.391-25.482-31.37-54.863-55.161-86.257-71.359-5.171 8-14.141 13.296-24.348 13.296-16.022 0-29.011-13.038-29.011-29.121 0-1.338.098-2.653.272-3.943-36.075-8.588-73.321-8.105-109.29 1.505 1.693 3.698 2.645 7.809 2.645 12.145 0 16.083-12.989 29.121-29.011 29.121-12.636 0-23.38-8.112-27.359-19.429-26.886 14.956-52.199 35.599-74.715 61.991-3.451 4.045-6.788 8.179-10.019 12.392-4.359 5.684-13.078 5.067-16.607-1.17l-2.831-5.005c-8.317-14.7-6.753-33.097 3.996-46.088 6.827-8.251 14.202-16.196 22.132-23.782 107.841-103.165 278.545-100.992 383.851 4.814 5.32 5.346 10.377 10.857 15.173 16.517 10.984 12.965 12.612 31.549 4.23 46.365z" fill="#ef9f67"/><path d="m89.058 127.542c-6.276 6.138-12.386 12.661-18.298 19.591-3.451 4.045-6.788 8.179-10.019 12.392-4.359 5.684-13.078 5.067-16.607-1.17l-2.831-5.005c-8.317-14.7-6.753-33.097 3.996-46.088 5.46-6.599 11.288-12.992 17.453-19.173 5.631 13.964 14.568 27.208 26.306 39.453z" fill="#de925f"/><path d="m163.164 155.886c-16.827-10.772-31.358-24.789-42.75-41.239-8.819-13.279-7.075-30.96 4.167-42.245 12.473-12.52 32.695-12.52 45.168 0l1.845 1.851c2.248 2.256 5.892 2.256 8.14 0l1.845-1.851c12.473-12.52 32.695-12.52 45.168 0 11.242 11.285 12.986 28.966 4.167 42.245-11.391 16.45-25.922 30.467-42.75 41.239l-9.405 6.021c-1.888 1.208-4.302 1.208-6.189 0zm102.264 198.019c-12.473-12.52-32.695-12.52-45.168 0l-1.845 1.851c-2.248 2.256-5.892 2.256-8.14 0l-1.845-1.851c-12.473-12.52-32.695-12.52-45.168 0-11.242 11.285-12.986 28.966-4.167 42.245 11.391 16.45 25.922 30.467 42.75 41.239l9.405 6.021c1.888 1.208 4.302 1.208 6.189 0l9.405-6.021c16.827-10.772 31.358-24.789 42.75-41.239 8.82-13.279 7.076-30.96-4.166-42.245zm149.065-113.753c-12.473-12.52-32.695-12.52-45.168 0l-1.844 1.851c-2.248 2.256-5.892 2.256-8.139 0l-1.845-1.851c-12.473-12.52-32.695-12.52-45.168 0-11.242 11.285-12.986 28.966-4.167 42.245 11.391 16.45 25.922 30.467 42.75 41.239l9.405 6.021c1.888 1.208 4.302 1.208 6.189 0l9.405-6.021c16.827-10.772 31.358-24.789 42.75-41.239 8.819-13.279 7.075-30.96-4.168-42.245z" fill="#ff507d"/><path d="m163.164 155.886c-16.827-10.772-31.358-24.789-42.75-41.239-8.819-13.279-7.075-30.96 4.167-42.245 9.775-9.812 24.308-11.932 36.142-6.365-2.293 1.572-4.479 3.368-6.514 5.411-15.926 15.986-18.397 41.034-5.903 59.845 7.863 11.355 16.789 21.883 26.626 31.468-.825-.106-1.634-.388-2.363-.855zm23.824 256.91c-12.493-18.811-10.022-43.859 5.903-59.845 2.035-2.043 4.221-3.839 6.514-5.411-11.834-5.567-26.367-3.447-36.142 6.365-11.242 11.285-12.986 28.966-4.167 42.245 11.392 16.45 25.922 30.467 42.75 41.239l9.405 6.021c.729.467 1.537.749 2.363.855-9.837-9.585-18.763-20.114-26.626-31.469zm149.065-113.753c-12.493-18.811-10.022-43.859 5.903-59.845 2.035-2.043 4.221-3.839 6.514-5.411-11.834-5.567-26.367-3.447-36.142 6.365-11.242 11.285-12.986 28.966-4.167 42.245 11.391 16.45 25.922 30.467 42.75 41.239l9.405 6.021c.729.467 1.537.749 2.363.855-9.837-9.585-18.763-20.114-26.626-31.469z" fill="#f13269"/><path d="m250.197 279.297c0 10.722-8.659 19.414-19.341 19.414s-19.341-8.692-19.341-19.414 8.659-19.414 19.341-19.414 19.341 8.692 19.341 19.414zm-77.363-77.656c-10.682 0-19.341 8.692-19.341 19.414s8.659 19.414 19.341 19.414 19.341-8.692 19.341-19.414-8.659-19.414-19.341-19.414zm183.736-58.243c-10.682 0-19.341 8.692-19.341 19.414s8.659 19.414 19.341 19.414 19.341-8.692 19.341-19.414-8.659-19.414-19.341-19.414zm-87.033 0c-16.022 0-29.011 13.038-29.011 29.121s12.989 29.121 29.011 29.121 29.011-13.038 29.011-29.121-12.988-29.121-29.011-29.121z" fill="#fa9e39"/><path d="m202.483 279.313c0 14.839 12.338 26.912 27.503 26.912s27.503-12.073 27.503-26.912-12.338-26.912-27.503-26.912-27.503 12.072-27.503 26.912zm40.004 0c0 6.569-5.608 11.913-12.501 11.913s-12.501-5.344-12.501-11.913 5.608-11.913 12.501-11.913 12.501 5.344 12.501 11.913zm-72.507-85.151c-15.165 0-27.503 12.073-27.503 26.912s12.338 26.912 27.503 26.912 27.503-12.073 27.503-26.912c-.001-14.839-12.339-26.912-27.503-26.912zm0 38.826c-6.893 0-12.501-5.344-12.501-11.913s5.608-11.913 12.501-11.913 12.501 5.344 12.501 11.913c0 6.568-5.608 11.913-12.501 11.913zm190.018-43.239c15.165 0 27.503-12.073 27.503-26.912s-12.338-26.912-27.503-26.912-27.503 12.073-27.503 26.912 12.338 26.912 27.503 26.912zm0-38.826c6.893 0 12.501 5.344 12.501 11.913s-5.608 11.913-12.501 11.913-12.501-5.344-12.501-11.913 5.608-11.913 12.501-11.913zm-52.505 21.62c0-20.191-16.824-36.619-37.504-36.619s-37.504 16.427-37.504 36.619 16.824 36.619 37.504 36.619c20.68-.001 37.504-16.428 37.504-36.619zm-60.006 0c0-11.921 10.095-21.62 22.502-21.62s22.502 9.699 22.502 21.62-10.095 21.62-22.502 21.62c-12.407-.001-22.502-9.699-22.502-21.62zm231.794-72.648c-5.105-5.826-10.523-11.529-16.105-16.953-16.225-15.761-34.291-29.619-53.698-41.188-3.559-2.121-8.162-.956-10.283 2.601-2.122 3.557-.957 8.161 2.601 10.282 18.403 10.972 35.537 24.115 50.925 39.063 5.294 5.145 10.435 10.555 15.276 16.08 9.169 10.463 10.593 25.587 3.543 37.633l-2.879 4.92c-.63 1.076-1.692 1.309-2.268 1.353-.487.036-1.697.006-2.561-1.061-1.222-1.51-2.457-3.01-3.707-4.498-26.433-31.464-57.253-56.106-91.6-73.241-3.382-1.688-7.486-.596-9.585 2.543-4.17 6.238-11.252 9.963-18.944 9.963-12.407 0-22.502-9.699-22.502-21.62 0-.932.07-1.91.21-2.909.536-3.849-1.958-7.471-5.747-8.343-22.598-5.201-45.724-7.187-68.739-5.903-4.136.231-7.301 3.77-7.071 7.906s3.777 7.298 7.907 7.07c19.558-1.092 39.206.334 58.497 4.238 1.098 19.237 17.473 34.56 37.445 34.56 10.39 0 20.133-4.152 27.146-11.353 30.375 16.064 57.768 38.492 81.497 66.737 1.191 1.417 2.367 2.846 3.53 4.282.136.168.292.315.433.477l-37.984 64.915c-15.134-7.329-34.051-4.89-46.654 7.341l-.892.866-.892-.866c-15.758-15.293-41.4-15.295-57.161 0-14.219 13.799-16.434 35.613-5.269 51.869.028.041.057.081.085.121 12.423 17.345 28.021 31.895 46.361 43.247l9.727 6.021c2.171 1.344 4.661 2.016 7.149 2.016s4.977-.672 7.147-2.016l9.727-6.021c2.924-1.81 5.771-3.71 8.554-5.681v32.619c0 6.569-5.608 11.913-12.501 11.913-2.242 0-4.371-.557-6.325-1.656-2.323-1.307-5.165-1.282-7.464.063-2.3 1.345-3.713 3.809-3.713 6.473v41.444c0 6.569-5.608 11.913-12.501 11.913s-12.501-5.344-12.501-11.913v-26.247l13.373-22.855c2.092-3.575.889-8.168-2.687-10.26-3.574-2.09-8.169-.89-10.262 2.686l-80.307 137.246c-.626 1.069-1.675 1.229-2.244 1.229-.57 0-1.62-.16-2.246-1.229l-28.542-48.779 5.205-3.222c18.341-11.351 33.939-25.902 46.362-43.247.028-.04.057-.081.085-.121 11.165-16.255 8.949-38.069-5.269-51.868-15.759-15.294-41.4-15.294-57.162 0l-.892.866-.892-.866c-15.759-15.294-41.401-15.293-57.161 0-14.218 13.799-16.434 35.613-5.269 51.868.028.041.057.081.085.121.337.47.685.93 1.026 1.396-2.238 3.56-6.273 5.782-10.723 5.782-6.893 0-12.501-5.344-12.501-11.913v-41.444c0-2.664-1.413-5.128-3.713-6.473-2.3-1.346-5.141-1.37-7.464-.063-1.954 1.099-4.082 1.656-6.325 1.656-6.893 0-12.501-5.344-12.501-11.913v-78.084l40.158 68.631c1.396 2.385 3.904 3.714 6.481 3.714 1.286 0 2.59-.331 3.781-1.027 3.576-2.092 4.779-6.685 2.687-10.26l-91.13-155.743c.163-.189.327-.377.482-.574 3.291-4.15 6.692-8.218 10.108-12.09 11.719-13.281 24.439-25.316 37.874-35.858.521.9 1.072 1.788 1.67 2.658.028.041.057.081.085.121 12.423 17.345 28.021 31.895 46.361 43.247l9.727 6.021c2.171 1.344 4.66 2.016 7.148 2.016 2.489 0 4.978-.672 7.15-2.016l9.726-6.021c18.341-11.351 33.939-25.902 46.362-43.247.028-.04.057-.081.085-.121 11.165-16.255 8.949-38.069-5.269-51.869-15.759-15.294-41.4-15.294-57.162 0l-.892.866-.892-.866c-15.76-15.294-41.402-15.293-57.161 0-9.465 9.186-13.603 21.923-12.024 34.208-15.697 11.852-30.512 25.608-44.038 40.938-3.589 4.068-7.161 8.339-10.613 12.693-.842 1.061-2.047 1.098-2.531 1.062-.584-.041-1.658-.273-2.294-1.36l-2.928-5.005c-6.964-11.9-5.614-26.939 3.359-37.422 6.921-8.088 14.417-15.877 22.281-23.151 82.387-76.202 202.621-95.675 306.304-49.61 3.786 1.682 8.218-.023 9.9-3.808s-.022-8.217-3.808-9.899c-52.422-23.291-110.359-30.953-167.546-22.15-58.492 9.001-112.102 34.748-155.033 74.457-8.291 7.668-16.195 15.881-23.493 24.41-13.124 15.335-15.097 37.337-4.909 54.748l2.928 5.005c2.96 5.059 8.263 8.329 14.185 8.748.364.026.727.034 1.09.038l36.831 62.945c-.026.253-.039.51-.039.769v102.885c0 14.839 12.338 26.912 27.503 26.912.836 0 1.67-.038 2.5-.113v31.439c0 14.839 12.338 26.912 27.503 26.912 7.916 0 15.25-3.313 20.371-8.845 10.316 11.577 22.263 21.606 35.686 29.914l9.727 6.021c1.261.781 2.631 1.328 4.044 1.655l30.368 51.9c3.171 5.419 8.851 8.654 15.195 8.654 6.343 0 12.023-3.236 15.193-8.654l51.933-88.754v.61c0 14.839 12.338 26.912 27.503 26.912s27.503-12.073 27.503-26.912v-31.439c.83.075 1.664.113 2.5.113 15.165 0 27.503-12.073 27.503-26.912v-44.635c8.478-7.664 16.108-16.197 22.807-25.55.028-.04.057-.081.085-.121 10.729-15.62 9.095-36.367-3.662-50.209l39.651-67.763c.379-.005.759-.015 1.14-.043 5.879-.443 11.147-3.709 14.087-8.735l2.879-4.92c10.313-17.628 8.22-39.767-5.21-55.093zm-353.979-22.083c9.997-9.702 26.266-9.703 36.263 0l1.907 1.851c5.203 5.049 13.667 5.048 18.868 0l1.906-1.851c10-9.704 26.266-9.702 36.264 0 8.936 8.674 10.356 22.356 3.39 32.559-11.256 15.698-25.391 28.874-42.016 39.162l-8.978 5.558-8.98-5.558c-16.624-10.289-30.759-23.465-42.015-39.162-6.966-10.203-5.546-23.885 3.391-32.559zm78.628 353.206c-16.624-10.289-30.759-23.465-42.015-39.162-6.966-10.202-5.546-23.885 3.39-32.558 9.997-9.702 26.266-9.704 36.263 0l1.907 1.851c5.203 5.049 13.667 5.048 18.868 0l1.906-1.851c10-9.704 26.266-9.702 36.264 0 8.936 8.674 10.356 22.356 3.39 32.559-11.256 15.698-25.391 28.874-42.016 39.162l-8.978 5.558zm214.137-152.908c-11.256 15.698-25.391 28.874-42.015 39.162l-8.98 5.558-8.979-5.558c-16.624-10.289-30.759-23.465-42.015-39.162-6.967-10.203-5.546-23.885 3.39-32.558 9.998-9.702 26.267-9.704 36.263 0l1.908 1.852c5.202 5.048 13.663 5.047 18.867 0l1.906-1.851c10-9.704 26.266-9.703 36.264 0 8.937 8.672 10.357 22.355 3.391 32.557z"/></svg>