<svg xmlns="http://www.w3.org/2000/svg" width="444" height="455.341"><g data-name="Saturn Ring"><path data-name="Differenzmenge 1" d="M222 444a223.638 223.638 0 01-44.741-4.51 220.881 220.881 0 01-41.672-12.935 222.027 222.027 0 01-37.71-20.468 223.6 223.6 0 01-32.855-27.108 223.6 223.6 0 01-27.108-32.855 222.022 222.022 0 01-20.468-37.71A220.872 220.872 0 014.51 266.742 223.643 223.643 0 010 222a223.64 223.64 0 014.51-44.741 220.87 220.87 0 0112.936-41.672 222.022 222.022 0 0120.468-37.71 223.6 223.6 0 0127.108-32.855 223.6 223.6 0 0132.855-27.108 222.028 222.028 0 0137.71-20.468A220.9 220.9 0 01177.259 4.51 223.649 223.649 0 01222 0a223.65 223.65 0 0144.741 4.51 220.887 220.887 0 0141.672 12.936 222.025 222.025 0 0137.71 20.468 223.6 223.6 0 0132.855 27.108 223.6 223.6 0 0127.108 32.855 222.013 222.013 0 0120.468 37.71 220.881 220.881 0 0112.936 41.672A223.636 223.636 0 01444 222a223.64 223.64 0 01-4.51 44.741 220.88 220.88 0 01-12.936 41.672 222.02 222.02 0 01-20.468 37.71 223.6 223.6 0 01-27.108 32.855 223.6 223.6 0 01-32.855 27.108 222.03 222.03 0 01-37.71 20.468 220.881 220.881 0 01-41.672 12.935A223.64 223.64 0 01222 444zm0-426a205.506 205.506 0 00-41.113 4.145 202.971 202.971 0 00-38.293 11.887 204.025 204.025 0 00-34.652 18.809 205.458 205.458 0 00-30.191 24.91 205.464 205.464 0 00-24.91 30.191 204 204 0 00-18.809 34.652 202.964 202.964 0 00-11.887 38.293A205.505 205.505 0 0018 222a205.506 205.506 0 004.145 41.113 202.966 202.966 0 0011.887 38.293 204.017 204.017 0 0018.809 34.652 205.472 205.472 0 0024.91 30.191 205.46 205.46 0 0030.191 24.91 204.012 204.012 0 0034.652 18.809 202.974 202.974 0 0038.293 11.887A205.5 205.5 0 00222 426a205.506 205.506 0 0041.113-4.145 202.977 202.977 0 0038.293-11.887 204.008 204.008 0 0034.652-18.809 205.46 205.46 0 0030.191-24.91 205.47 205.47 0 0024.91-30.191 204.027 204.027 0 0018.809-34.652 202.975 202.975 0 0011.887-38.293A205.511 205.511 0 00426 222a205.509 205.509 0 00-4.145-41.113 202.973 202.973 0 00-11.887-38.293 204.015 204.015 0 00-18.809-34.652 205.466 205.466 0 00-24.91-30.191 205.463 205.463 0 00-30.191-24.91 204.02 204.02 0 00-34.652-18.809 202.974 202.974 0 00-38.293-11.887A205.51 205.51 0 00222 18z" fill="#f6f3ee" opacity=".682"/><g transform="translate(71 23)"><circle data-name="Ellipse 14" cx="21" cy="21" r="21" transform="translate(2 2)" fill="#ff9811"/><circle data-name="Ellipse 15" cx="18" cy="18" r="18" transform="translate(5 5)" fill="#ffda44"/><path data-name="Pfad 2110" d="M8.477 8.477l29.22 29.22" fill="#ff5023"/><path data-name="Pfad 2111" d="M8.477 37.697l29.22-29.22" fill="#ff5023"/><circle data-name="Ellipse 16" cx="3" cy="3" r="3" transform="translate(15 8)" fill="#ab2300"/><circle data-name="Ellipse 17" cx="1.5" cy="1.5" r="1.5" transform="translate(9 15)" fill="#ff5023"/><circle data-name="Ellipse 18" cx="1.5" cy="1.5" r="1.5" transform="translate(13 18)" fill="#ff5023"/><circle data-name="Ellipse 19" cx="2.85" cy="2.85" r="2.85" transform="translate(8.481 25.58)" fill="#ab2300"/><circle data-name="Ellipse 20" cx="1.425" cy="1.425" r="1.425" transform="translate(15.606 34.842)" fill="#ff5023"/><circle data-name="Ellipse 21" cx="1.425" cy="1.425" r="1.425" transform="translate(18.455 30.567)" fill="#ff5023"/><circle data-name="Ellipse 22" cx="3" cy="3" r="3" transform="translate(25 32)" fill="#ab2300"/><circle data-name="Ellipse 23" cx="1.5" cy="1.5" r="1.5" transform="translate(34 28)" fill="#ff5023"/><circle data-name="Ellipse 24" cx="1.5" cy="1.5" r="1.5" transform="translate(30 25)" fill="#ff5023"/><circle data-name="Ellipse 25" cx="2.85" cy="2.85" r="2.85" transform="translate(31.992 14.893)" fill="#ab2300"/><circle data-name="Ellipse 26" cx="1.425" cy="1.425" r="1.425" transform="translate(27.718 8.481)" fill="#ff5023"/><circle data-name="Ellipse 27" cx="1.425" cy="1.425" r="1.425" transform="translate(24.868 12.756)" fill="#ff5023"/><g data-name="Gruppe 101" fill="#231f20"><path data-name="Pfad 2112" d="M23.086 1a22.086 22.086 0 1022.087 22.086A22.086 22.086 0 0023.086 1zM43.73 22.374h-2.137A18.453 18.453 0 0036.67 10.51L38.182 9a20.58 20.58 0 015.548 13.374zM35.663 9.5A18.453 18.453 0 0023.8 4.58V2.443a20.58 20.58 0 0113.374 5.548zM22.374 21.367L11.517 10.509a17.035 17.035 0 0110.857-4.5zm0 18.8a17.035 17.035 0 01-10.857-4.5l10.857-10.861zM23.8 24.806l10.856 10.858a17.035 17.035 0 01-10.857 4.5zm0-18.8a17.035 17.035 0 0110.857 4.5L23.8 21.367zM22.374 4.58A18.453 18.453 0 0010.51 9.5L9 7.991a20.58 20.58 0 0113.374-5.548zm-1.007 17.794H6.005a17.035 17.035 0 014.5-10.857zm0 1.425L10.509 34.656A17.035 17.035 0 016.005 23.8zM10.51 36.67a18.453 18.453 0 0011.864 4.922v2.138A20.58 20.58 0 019 38.182zm13.29 4.923a18.453 18.453 0 0011.863-4.923l1.511 1.511A20.58 20.58 0 0123.8 43.73zM24.806 23.8h15.362a17.035 17.035 0 01-4.5 10.857zm0-1.425l10.858-10.858a17.035 17.035 0 014.5 10.857zM7.992 9L9.5 10.51a18.453 18.453 0 00-4.92 11.864H2.443A20.58 20.58 0 017.991 9zM2.443 23.8H4.58A18.453 18.453 0 009.5 35.663l-1.509 1.511A20.58 20.58 0 012.443 23.8zm35.739 13.374l-1.512-1.511A18.453 18.453 0 0041.593 23.8h2.137a20.58 20.58 0 01-5.548 13.374z"/><path data-name="Pfad 2113" d="M18.099 14.537a3.562 3.562 0 10-3.562-3.563 3.562 3.562 0 003.562 3.562zm0-5.7a2.137 2.137 0 11-2.137 2.137 2.137 2.137 0 012.137-2.137z"/><path data-name="Pfad 2114" d="M10.262 18.812a2.137 2.137 0 10-2.137-2.138 2.137 2.137 0 002.137 2.138zm0-2.85a.712.712 0 11-.712.712.712.712 0 01.712-.712z"/><path data-name="Pfad 2115" d="M14.536 21.662a2.137 2.137 0 10-2.137-2.138 2.137 2.137 0 002.137 2.138zm0-2.85a.712.712 0 11-.712.712.712.712 0 01.712-.712z"/><path data-name="Pfad 2116" d="M11.33 31.993a3.562 3.562 0 10-3.562-3.563 3.562 3.562 0 003.562 3.562zm0-5.7a2.137 2.137 0 11-2.137 2.137 2.137 2.137 0 012.137-2.137z"/><path data-name="Pfad 2117" d="M17.03 38.405a2.137 2.137 0 10-2.137-2.138 2.137 2.137 0 002.137 2.138zm0-2.85a.712.712 0 11-.712.712.712.712 0 01.712-.712z"/><path data-name="Pfad 2118" d="M19.88 34.13a2.137 2.137 0 10-2.137-2.138 2.137 2.137 0 002.137 2.138zm0-2.85a.712.712 0 11-.712.712.712.712 0 01.712-.712z"/><path data-name="Pfad 2119" d="M9.55 20.237h-.712a.712.712 0 000 1.425h.712a.712.712 0 100-1.425z"/><path data-name="Pfad 2120" d="M20.949 15.249h-.712a.712.712 0 000 1.425h.712a.712.712 0 100-1.425z"/><path data-name="Pfad 2121" d="M16.674 26.649h.712a.712.712 0 100-1.425h-.712a.712.712 0 000 1.425z"/><path data-name="Pfad 2122" d="M20.445 35.407l-.712.712a.713.713 0 101.008 1.008l.712-.713a.712.712 0 10-1.008-1.007z"/><path data-name="Pfad 2123" d="M28.073 31.636a3.562 3.562 0 103.562 3.562 3.562 3.562 0 00-3.562-3.562zm0 5.7a2.137 2.137 0 112.138-2.138 2.137 2.137 0 01-2.138 2.138z"/><path data-name="Pfad 2124" d="M35.91 27.361a2.137 2.137 0 102.137 2.137 2.137 2.137 0 00-2.137-2.137zm0 2.85a.712.712 0 11.712-.712.712.712 0 01-.712.712z"/><path data-name="Pfad 2125" d="M31.636 24.511a2.137 2.137 0 102.137 2.137 2.137 2.137 0 00-2.137-2.137zm0 2.85a.712.712 0 11.712-.712.712.712 0 01-.712.712z"/><path data-name="Pfad 2126" d="M34.842 14.181a3.562 3.562 0 103.562 3.562 3.562 3.562 0 00-3.562-3.562zm0 5.7a2.137 2.137 0 112.138-2.138 2.137 2.137 0 01-2.138 2.138z"/><path data-name="Pfad 2127" d="M29.142 7.768a2.137 2.137 0 102.137 2.137 2.137 2.137 0 00-2.137-2.137zm0 2.85a.712.712 0 11.712-.712.712.712 0 01-.712.712z"/><path data-name="Pfad 2128" d="M26.292 12.043a2.137 2.137 0 102.137 2.137 2.137 2.137 0 00-2.137-2.137zm0 2.85a.712.712 0 11.712-.712.712.712 0 01-.712.712z"/><path data-name="Pfad 2129" d="M36.623 25.936h.712a.712.712 0 100-1.425h-.712a.712.712 0 100 1.425z"/><path data-name="Pfad 2130" d="M25.223 30.924h.712a.712.712 0 100-1.425h-.712a.712.712 0 000 1.425z"/><path data-name="Pfad 2131" d="M29.499 19.524h-.712a.712.712 0 100 1.425h.712a.712.712 0 000-1.425z"/><path data-name="Pfad 2132" d="M25.224 10.974a.712.712 0 00.5-.209l.713-.713a.713.713 0 10-1.008-1.008l-.712.713a.712.712 0 00.5 1.216z"/></g></g><g data-name="002---Astronaut-Floating" transform="rotate(20 -1055.154 724.243)"><path d="M12.974 29.679c-3 1-8.045 6.453-8.117 6.453-1.076 1.076-2.6 1.319-3.377.538a2.022 2.022 0 01-.237-2.273A44.019 44.019 0 019.5 22.351z" fill="#e57e25"/><path data-name="Shape" d="M21.213 34.089a43.445 43.445 0 01-12.039 8.267 2.022 2.022 0 01-2.273-.237c-.782-.782-.538-2.3.538-3.377.057-.072 5.464-5.084 6.5-8.131zM18.926 15.948l-4.532 1.671a17.868 17.868 0 01-1.771-2.323c-1.936-3.047-1.692-5.105-1.592-5.593s-.05-.1 2.875-5.435a2.252 2.252 0 113.929 2.194l-2.359 4.3c.258 1.628 1.893 3.585 3.055 4.747a2.287 2.287 0 01.394.437zM39.332 29.679c-5.3 2.94-5.019 2.818-5.442 2.868s-2.538.344-5.586-1.592a16.269 16.269 0 01-2.323-1.771l1.671-4.524a6.833 6.833 0 011.183 1.04 9.527 9.527 0 004.037 2.373l4.269-2.366a2.269 2.269 0 112.194 3.972z" fill="#e57e25"/><path data-name="Shape" d="M9.504 22.38l3.47 7.3a8.131 8.131 0 00-1.613.817c-2.252-2.481-3.205-4.618-3.37-6.453a51.865 51.865 0 011.513-1.664zM14.379 17.619c-.344-.387-.66-.767-.939-1.133a33.307 33.307 0 014.431-1.728c.717.8.8.767 1.04 1.19zM13.907 30.611l7.278 3.478c-.258.251-.832.8-1.656 1.506-2.036-.172-4.159-1.284-6.453-3.37a7.651 7.651 0 00.831-1.614zM28.835 25.728a31.349 31.349 0 01-1.721 4.432c-.366-.287-.717-.6-1.133-.946l1.671-4.554a6.833 6.833 0 011.183 1.068z" fill="#d25627"/><path data-name="Shape" d="M28.103 23.01a34.92 34.92 0 01-2.151 6.2c-3.083 6.6-7.615 6.281-12.749 1.154s-5.413-9.677 1.148-12.746a35.673 35.673 0 016.2-2.151z" fill="#f29c1f"/><rect width="7.522" height="6.769" rx="1" transform="rotate(45 -12.708 33.012)" fill="#f0c419"/><path data-name="Shape" d="M21.743 24.702c-.359 0-.473-.179-1.04-.717a.717.717 0 111.018-1.011l.531.531a.717.717 0 01-.509 1.2zM20.152 26.295c-.366 0-.473-.172-1.04-.717a.717.717 0 111.011-1.018l.531.531a.717.717 0 01-.5 1.2z" fill="#f29c1f"/><g data-name="Gruppe 102" fill="#f0c419"><path data-name="Shape" d="M5.302 5.773a.717.717 0 01-.717-.717V2.188a.717.717 0 011.434 0v2.868a.717.717 0 01-.717.717z"/><path data-name="Shape" d="M6.736 4.339H3.868a.717.717 0 110-1.434h2.868a.717.717 0 010 1.434zM35.418 40.886a.717.717 0 01-.717-.717v-2.868a.717.717 0 011.434 0v2.868a.717.717 0 01-.717.717z"/><path data-name="Shape" d="M36.852 39.452h-2.868a.717.717 0 010-1.434h2.868a.717.717 0 110 1.434zM3.151 17.955a.717.717 0 01-.717-.717V14.37a.717.717 0 111.434 0v2.868a.717.717 0 01-.717.717z"/><path data-name="Shape" d="M4.585 16.522H1.717a.717.717 0 010-1.434h2.868a.717.717 0 010 1.434z"/></g><path data-name="Shape" d="M41.268 17S38.5 20.492 38.4 20.585a9.071 9.071 0 01-13.194.488l-2.7-2.71a9.071 9.071 0 01.466-13.2c.229-.208.323-.272 3.585-2.868a6.016 6.016 0 017.995.459L40.802 9a6.016 6.016 0 01.466 8z" fill="#d25627"/><path data-name="Shape" d="M41.268 17S38.5 20.492 38.4 20.585a9.035 9.035 0 01-12.269-.459l-2.689-2.7a9.028 9.028 0 01-.465-12.262c.172-.158.294-.244 3.585-2.868a6.016 6.016 0 017.995.459L40.802 9a6.016 6.016 0 01.466 8z" fill="#e57e25"/><path data-name="Shape" d="M38.917 15.13l-2.61 3.291a6.009 6.009 0 01-8.97.5l-2.676-2.686a5.994 5.994 0 01-.108-8.4 44.1 44.1 0 013.908-3.173 3 3 0 014 .229l6.245 6.245a3.012 3.012 0 01.208 3.994z" fill="#35495e"/><path data-name="Shape" d="M31.315 7.68a.717.717 0 11.672-.439.717.717 0 01-.672.439zM36.637 12.994a.717.717 0 01-.5-.208l-3.2-3.184a.717.717 0 111.018-1.011l3.191 3.162a.717.717 0 01-.509 1.24z" fill="#fff"/><path data-name="Shape" d="M36.35 18.364a6.009 6.009 0 01-9.013.559l-2.676-2.688a5.994 5.994 0 01-.108-8.4A15.777 15.777 0 0136.35 18.364z" fill="#2c3e50"/></g><g data-name="Gruppe 104"><path data-name="Pfad 2133" d="M360.89 66.307l-1.533 1.481-3.026-1.752a.488.488 0 00-.646.083l-.924.894c-.204.197-.117.363.05.536l5.846 6.047a1.986 1.986 0 002.8.048l2.339-2.261z" fill="#e5646e"/><path data-name="Pfad 2134" d="M367.83 58.263a.966.966 0 01-.023 1.363l-2.42 2.56-2.621 2.312a.956.956 0 01-1.356-.023l.02.022a.971.971 0 01.023-1.367l5.04-4.872a.961.961 0 011.36.023z" fill="#857e87"/><path data-name="Pfad 2135" d="M369.617 57.87l1.533-1.48-1.648-3.085a.488.488 0 01.105-.642l.924-.893c.204-.197.367-.105.534.069l5.845 6.048a1.986 1.986 0 01-.047 2.8l-2.34 2.26z" fill="#ff8086"/><path data-name="Pfad 2136" d="M373.929 79.937s5.575 5.345 12.467 4.002c1.574-6.854-3.557-12.617-3.557-12.617l-4.74 4.227z" fill="#ff8086"/><g data-name="Gruppe 103" fill="#e5646e"><path data-name="Pfad 2137" d="M386.396 83.94z"/><path data-name="Pfad 2138" d="M386.396 83.94a12.102 12.102 0 00.215-4.097c-.043.278-.096.557-.16.84-4.562.886-8.545-1.155-10.717-2.636l-1.801 1.895s5.568 5.339 12.463 3.998z"/></g><path data-name="Pfad 2139" d="M373.929 79.938L360.83 66.364l8.904-8.61 13.1 13.573" fill="#f0eef0"/><path data-name="Pfad 2140" d="M382.833 71.328l-.96-.995-5.833 5.64a1.966 1.966 0 01-2.781-.048l-10.77-11.163-1.659 1.602 13.099 13.574z" fill="#dfdde0"/><path data-name="Pfad 2141" d="M366.075 61.296l6.338 6.555-1.628 1.6-6.348-6.568z" fill="#ffd064"/><path data-name="Pfad 2142" d="M371.401 73.627a3.63 3.63 0 115.128.087 3.639 3.639 0 01-5.128-.087z" fill="#c3ddff"/><path data-name="Pfad 2143" d="M376.53 73.714a3.639 3.639 0 00.886-3.86 3.625 3.625 0 01-6.768-.115 3.629 3.629 0 005.882 3.975z" fill="#a4ccff"/><path data-name="Pfad 2144" d="M363.963 60.706l.014-.013a3.959 3.959 0 00.422-5.223c-.243-.304-.468-.188-.642-.02l-5.027 4.86c-.173.167-.295.389-.002.642a3.959 3.959 0 005.235-.246z" fill="#ffd064"/><path data-name="Pfad 2145" d="M363.963 60.706l.014-.013a3.94 3.94 0 001.2-2.553 3.962 3.962 0 01-.51.607l-.015.014a3.959 3.959 0 01-4.85.517l-1.068 1.033c-.173.167-.295.389-.002.642a3.959 3.959 0 005.23-.247z" fill="#ffc250"/></g><g data-name="Gruppe 105"><path data-name="Pfad 2146" d="M386.426 84.432a.49.49 0 00.31-.139.49.49 0 00.143-.297 14.109 14.109 0 00-1.238-9.133 17.524 17.524 0 00-2.446-3.855l-.007-.007-.007-.008-7.854-8.136 1.873-1.81a2.475 2.475 0 00.059-3.491l-1.475-1.526a.49.49 0 00-.703.68l1.474 1.526a1.494 1.494 0 01-.036 2.109l-1.871 1.808-4.227-4.373 1.071-1.039a.49.49 0 00.092-.582l-1.664-3.114.845-.816 2.869 2.968a.49.49 0 00.704-.68l-3.21-3.32a.49.49 0 00-.692-.012l-1.461 1.412a.494.494 0 00-.092.583l1.661 3.114-2.094 2.024a1.44 1.44 0 00-1.901-.684 3.728 3.728 0 00-.914.775 4.44 4.44 0 00-1.185-3.62.494.494 0 00-.7-.013l-5.68 5.49a.494.494 0 00-.011.69 4.327 4.327 0 003.047 1.357 4.449 4.449 0 00.508-.017 3.148 3.148 0 00-.842.986 1.45 1.45 0 00.67 1.812l-2.097 2.024-3.118-1.719a.49.49 0 00-.577.078l-1.466 1.417a.49.49 0 00-.012.692l6.15 6.363a2.482 2.482 0 003.481.06l1.933-1.868 7.846 8.136.008.007.002.007a17.503 17.503 0 003.758 2.585 14.026 14.026 0 009.076 1.556zm-15.232-14.719a3 3 0 012.251-1.706 3.145 3.145 0 012.744 5.355 3.131 3.131 0 01-4.436-.075 3.254 3.254 0 01-.56-3.574zm-.047-1.575a4.123 4.123 0 00-.453.52l-5.568-5.761.938-.907 5.56 5.75a4.166 4.166 0 00-.477.397zm-10.017-6.805a3.342 3.342 0 01-2.004-.727l4.926-4.761a3.475 3.475 0 01-.337 4.416 3.57 3.57 0 01-2.585 1.07zm.96 2.947a.462.462 0 01-.301-.795l5.041-4.873a.46.46 0 01.672.623l-5.113 4.943a.47.47 0 01-.3.1zm1.028 9.03a1.494 1.494 0 01-2.1-.035l-5.81-6.013.855-.826 3.119 1.718a.49.49 0 00.576-.076l1.058-1.022 4.235 4.387zm14.711 8.711a17.782 17.782 0 01-3.178-2.1l1.23-1.192a.49.49 0 00-.68-.703l-1.262 1.221-12.414-12.87 1.543-1.492c.013-.011.028-.023.04-.036l1.317-1.272 5.774 5.973a4.12 4.12 0 004.553 5.608 4.115 4.115 0 002.12-1.093 4.122 4.122 0 00-4.358-6.808l-5.745-5.948 1.378-1.332c.014-.013.027-.028.04-.043l1.538-1.487 12.417 12.868-5.358 5.179a.49.49 0 00.68.704l5.326-5.148c1.054 1.363 4.268 6.069 3.193 11.466a13.296 13.296 0 01-8.154-1.495z"/><path data-name="Pfad 2147" d="M357.53 51.27a.488.488 0 00.136.348l3.549 3.676a.49.49 0 00.705-.68l-3.549-3.676a.493.493 0 00-.842.331z"/><path data-name="Pfad 2148" d="M360.254 56.906a.49.49 0 00.012-.692l-5.112-5.298a.49.49 0 00-.703.68l5.111 5.299a.49.49 0 00.692.011z"/><path data-name="Pfad 2149" d="M358.614 57.814l-3.548-3.676a.49.49 0 00-.704.68l3.548 3.676a.49.49 0 00.704-.68z"/></g></g></svg>